<?xml version="1.0"?>
<Project_Data Version="8.00">
<Project_Settings>
<ProfileName>MP4 only (up to 720p)</ProfileName>
<ProjectWidth>1920</ProjectWidth>
<ProjectHeight>1080</ProjectHeight>
<IsCustomProject>1</IsCustomProject>
<SavedProjectSettings>1</SavedProjectSettings>
<LastFlashTemplate>-1</LastFlashTemplate>
</Project_Settings>


<AutoSaveFile>C:\Users\Marco\AppData\Local\TechSmith\Camtasia Studio\8.0\Auto-Saves\torrehyglassd2393ce.autosave.camproj</AutoSaveFile>

<ProjectID>318DA594-45F4-42E1-8424-1997A59E83FD</ProjectID>

<PowerPointProject>0</PowerPointProject>

<PowerPointFilename></PowerPointFilename>


<Project_Notes>
</Project_Notes>

<Project_MetaData>
<Project_MetaData_Object>
<FieldArrayKey>8</FieldArrayKey>
<Value>Untitled</Value>
</Project_MetaData_Object>
<Project_MetaData_Object>
<FieldArrayKey>13</FieldArrayKey>
<Value>2017-06-11 11:00:54 PM</Value>
</Project_MetaData_Object>
<Project_MetaData_Object>
<FieldArrayKey>16</FieldArrayKey>
<Value>ENU</Value>
</Project_MetaData_Object>
</Project_MetaData>

<CSMLData>
<GoProject id="1" version="1.0" >
 <Project id="2" editRate="30/1" version="2.0" >
  <Author></Author>
  <Comment></Comment>
  <System></System>
  <SourceBin id="3"  >
    <Source id="4" src="C:\Users\Marco\Ingegneria Parametrica\12_torreHyglass\2017-06-11 22-57-31.mp4" lastMod="20170611T210032" rect="(0,0,1920,1080)" >
      <SourceTrack range="(0,1796666667)" type="0" editRate="10000000/1" trackRect="(0,0,1920,1080)" sampleRate="10000000/333333" bitDepth="24" numChannels="0" filename="" metaData="" />
      <SourceTrack range="(0,1796666667)" type="2" editRate="10000000/1" trackRect="(0,0,0,0)" sampleRate="44100/1" bitDepth="16" numChannels="2" filename="" metaData="" />
    </Source>
    <Source id="5" src="C:\Users\Marco\Downloads\bensound-love.mp3" lastMod="20170523T093334" rect="(0,0,0,0)" >
      <SourceTrack range="(0,3360333333)" type="2" editRate="10000000/1" trackRect="(0,0,0,0)" sampleRate="44100/1" bitDepth="0" numChannels="2" filename="" metaData="" />
    </Source>
  </SourceBin>
  <Timeline id="6"  >
    <GenericMixer id="7"  name="Unified Mixer">
     <MetaData>
      <entry key="MixerType" val="TimelineMixer"/>
     </MetaData>
     <Tracks>
      <GenericTrack id="8"  >
       <Attributes>
        <Attribute id="9" value="" name="ident"/>
       </Attributes>
       <MetaData>
        <entry key="IsLocked" val="False"/>
        <entry key="WinTrackHeight" val="53"/>
       </MetaData>
       <Medias>
        <UnifiedMedia id="10"  >
         <AMFile id="11" start="0" duration="14" scalar="1/1" mediaStart="0/1" mediaDuration="14/1" trackNumber="1" src="4" channelNumber="0,1" >
          <Parameters>
           <InterpolatingParam id="12" interp="linr" value="1"  name="volume"/>
           <Parameter id="13"  name="captions"/>
          </Parameters>
          <Attributes>
           <Attribute id="14" value="" name="ident"/>
           <Attribute id="15" value="44100" name="sampleRate"/>
           <Attribute id="16" value="16" name="bitDepth"/>
           <Attribute id="17" value="1" name="gain"/>
          </Attributes>
         </AMFile>
         <VMFile id="18" start="0" duration="14" scalar="1/1" mediaStart="0/1" mediaDuration="14/1" trackNumber="0" src="4" >
          <Transformer>
           <VectorParam id="19"  name="translation">
            <InterpolatingParam id="20"  >
             <Parameters>
              <Parameter id="21"  name="interpolater">
               <Keyframes>
               <Keyframe id="22"  time="0/1" value="linr" leadInLength="0/1" />
               </Keyframes>
              </Parameter>
             </Parameters>
             <Keyframes>
             <Keyframe id="23"  time="-9999999/1" value="0" leadInLength="0/1" />
             <Keyframe id="24"  time="0/1" value="233.89643881435987" leadInLength="30/1" interpolater="leadin-linr" />
             </Keyframes>
            </InterpolatingParam>
            <InterpolatingParam id="25"  >
             <Parameters>
              <Parameter id="26"  name="interpolater">
               <Keyframes>
               <Keyframe id="27"  time="0/1" value="linr" leadInLength="0/1" />
               </Keyframes>
              </Parameter>
             </Parameters>
             <Keyframes>
             <Keyframe id="28"  time="-9999999/1" value="0" leadInLength="0/1" />
             <Keyframe id="29"  time="0/1" value="-5.5887911649183746" leadInLength="30/1" interpolater="leadin-linr" />
             </Keyframes>
            </InterpolatingParam>
            <InterpolatingParam id="30"  >
             <Parameters>
              <Parameter id="31"  name="interpolater">
               <Keyframes>
               <Keyframe id="32"  time="0/1" value="linr" leadInLength="0/1" />
               </Keyframes>
              </Parameter>
             </Parameters>
             <Keyframes>
             <Keyframe id="33"  time="-9999999/1" value="0" leadInLength="0/1" />
             <Keyframe id="34"  time="0/1" value="0" leadInLength="30/1" interpolater="leadin-linr" />
             </Keyframes>
            </InterpolatingParam>
           </VectorParam>
           <VectorParam id="35"  name="rotation">
            <InterpolatingParam id="36"  >
             <Parameters>
              <Parameter id="37"  name="interpolater">
               <Keyframes>
               <Keyframe id="38"  time="0/1" value="linr" leadInLength="0/1" />
               </Keyframes>
              </Parameter>
             </Parameters>
             <Keyframes>
             <Keyframe id="39"  time="-9999999/1" value="0" leadInLength="0/1" />
             <Keyframe id="40"  time="0/1" value="0" leadInLength="30/1" interpolater="leadin-linr" />
             </Keyframes>
            </InterpolatingParam>
            <InterpolatingParam id="41"  >
             <Parameters>
              <Parameter id="42"  name="interpolater">
               <Keyframes>
               <Keyframe id="43"  time="0/1" value="linr" leadInLength="0/1" />
               </Keyframes>
              </Parameter>
             </Parameters>
             <Keyframes>
             <Keyframe id="44"  time="-9999999/1" value="0" leadInLength="0/1" />
             <Keyframe id="45"  time="0/1" value="0" leadInLength="30/1" interpolater="leadin-linr" />
             </Keyframes>
            </InterpolatingParam>
            <InterpolatingParam id="46"  >
             <Parameters>
              <Parameter id="47"  name="interpolater">
               <Keyframes>
               <Keyframe id="48"  time="0/1" value="linr" leadInLength="0/1" />
               </Keyframes>
              </Parameter>
             </Parameters>
             <Keyframes>
             <Keyframe id="49"  time="-9999999/1" value="0" leadInLength="0/1" />
             <Keyframe id="50"  time="0/1" value="0" leadInLength="30/1" interpolater="leadin-linr" />
             </Keyframes>
            </InterpolatingParam>
           </VectorParam>
           <VectorParam id="51"  name="shear">
            <InterpolatingParam id="52"  >
             <Parameters>
              <Parameter id="53"  name="interpolater">
               <Keyframes>
               <Keyframe id="54"  time="0/1" value="linr" leadInLength="0/1" />
               </Keyframes>
              </Parameter>
             </Parameters>
             <Keyframes>
             <Keyframe id="55"  time="-9999999/1" value="0" leadInLength="0/1" />
             <Keyframe id="56"  time="0/1" value="0" leadInLength="30/1" interpolater="leadin-linr" />
             </Keyframes>
            </InterpolatingParam>
            <InterpolatingParam id="57"  >
             <Parameters>
              <Parameter id="58"  name="interpolater">
               <Keyframes>
               <Keyframe id="59"  time="0/1" value="linr" leadInLength="0/1" />
               </Keyframes>
              </Parameter>
             </Parameters>
             <Keyframes>
             <Keyframe id="60"  time="-9999999/1" value="0" leadInLength="0/1" />
             <Keyframe id="61"  time="0/1" value="0" leadInLength="30/1" interpolater="leadin-linr" />
             </Keyframes>
            </InterpolatingParam>
            <InterpolatingParam id="62"  >
             <Parameters>
              <Parameter id="63"  name="interpolater">
               <Keyframes>
               <Keyframe id="64"  time="0/1" value="linr" leadInLength="0/1" />
               </Keyframes>
              </Parameter>
             </Parameters>
             <Keyframes>
             <Keyframe id="65"  time="-9999999/1" value="0" leadInLength="0/1" />
             <Keyframe id="66"  time="0/1" value="0" leadInLength="30/1" interpolater="leadin-linr" />
             </Keyframes>
            </InterpolatingParam>
           </VectorParam>
           <VectorParam id="67"  name="scale">
            <InterpolatingParam id="68"  >
             <Parameters>
              <Parameter id="69"  name="interpolater">
               <Keyframes>
               <Keyframe id="70"  time="0/1" value="linr" leadInLength="0/1" />
               </Keyframes>
              </Parameter>
             </Parameters>
             <Keyframes>
             <Keyframe id="71"  time="-9999999/1" value="1" leadInLength="0/1" />
             <Keyframe id="72"  time="0/1" value="1.3428168900191493" leadInLength="30/1" interpolater="leadin-linr" />
             </Keyframes>
            </InterpolatingParam>
            <InterpolatingParam id="73"  >
             <Parameters>
              <Parameter id="74"  name="interpolater">
               <Keyframes>
               <Keyframe id="75"  time="0/1" value="linr" leadInLength="0/1" />
               </Keyframes>
              </Parameter>
             </Parameters>
             <Keyframes>
             <Keyframe id="76"  time="-9999999/1" value="1" leadInLength="0/1" />
             <Keyframe id="77"  time="0/1" value="1.3428164909198217" leadInLength="30/1" interpolater="leadin-linr" />
             </Keyframes>
            </InterpolatingParam>
            <InterpolatingParam id="78"  >
             <Parameters>
              <Parameter id="79"  name="interpolater">
               <Keyframes>
               <Keyframe id="80"  time="0/1" value="linr" leadInLength="0/1" />
               </Keyframes>
              </Parameter>
             </Parameters>
             <Keyframes>
             <Keyframe id="81"  time="-9999999/1" value="1" leadInLength="0/1" />
             <Keyframe id="82"  time="0/1" value="0.99999999999999989" leadInLength="30/1" interpolater="leadin-linr" />
             </Keyframes>
            </InterpolatingParam>
           </VectorParam>
           <VectorParam id="83"  name="anchor">
            <InterpolatingParam id="84" interp="linr" value="0"  />
            <InterpolatingParam id="85" interp="linr" value="0"  />
            <InterpolatingParam id="86" interp="linr" value="0"  />
           </VectorParam>
          </Transformer>
          <Parameters>
           <VectorParam id="87"  name="sourceCrop">
            <InterpolatingParam id="88" interp="linr" value="0"  />
            <InterpolatingParam id="89" interp="linr" value="0"  />
            <InterpolatingParam id="90" interp="linr" value="0"  />
            <InterpolatingParam id="91" interp="linr" value="0"  />
           </VectorParam>
           <VectorParam id="92"  name="geometryCrop">
            <InterpolatingParam id="93" interp="linr" value="0"  />
            <InterpolatingParam id="94" interp="linr" value="0"  />
            <InterpolatingParam id="95" interp="linr" value="0"  />
            <InterpolatingParam id="96" interp="linr" value="0"  />
           </VectorParam>
           <InterpolatingParam id="97"  name="opacity">
            <Parameters>
             <Parameter id="98"  name="interpolater">
              <Keyframes>
              <Keyframe id="99"  time="0/1" value="linr" leadInLength="0/1" />
              </Keyframes>
             </Parameter>
            </Parameters>
            <Keyframes>
            <Keyframe id="100"  time="-9999999/1" value="1" leadInLength="0/1" />
            <Keyframe id="101"  time="0/1" value="1" leadInLength="30/1" interpolater="leadin-linr" />
            </Keyframes>
           </InterpolatingParam>
          </Parameters>
          <Attributes>
           <Attribute id="102" value="" name="ident"/>
          </Attributes>
          <ExtraData>
           <Entry key="ZoomPanBin">
            <ZoomPanBin id="103"  >
             <ZoomPanKeyframes>
              <ZoomPanKeyframe id="104" timeRangeStart="-9999999/1" timeRangeDuration="0/1"  />
              <ZoomPanKeyframe id="105" timeRangeStart="-30/1" timeRangeDuration="30/1"  />
             </ZoomPanKeyframes>
            </ZoomPanBin>
           </Entry>
          </ExtraData>
         </VMFile>
         <MetaData>
          <entry key="WinSubProjectDisplayName" val=""/>
         </MetaData>
        </UnifiedMedia>
        <UnifiedMedia id="106"  >
         <AMFile id="107" start="14" duration="19" scalar="1/1" mediaStart="61/1" mediaDuration="19/1" trackNumber="1" src="4" channelNumber="0,1" >
          <Parameters>
           <InterpolatingParam id="108" interp="linr" value="1"  name="volume"/>
           <Parameter id="109"  name="captions"/>
          </Parameters>
          <Attributes>
           <Attribute id="110" value="" name="ident"/>
           <Attribute id="111" value="44100" name="sampleRate"/>
           <Attribute id="112" value="16" name="bitDepth"/>
           <Attribute id="113" value="1" name="gain"/>
          </Attributes>
         </AMFile>
         <VMFile id="114" start="14" duration="19" scalar="1/1" mediaStart="61/1" mediaDuration="19/1" trackNumber="0" src="4" >
          <Transformer>
           <VectorParam id="115"  name="translation">
            <InterpolatingParam id="116"  >
             <Parameters>
              <Parameter id="117"  name="interpolater">
               <Keyframes>
               <Keyframe id="118"  time="0/1" value="linr" leadInLength="0/1" />
               </Keyframes>
              </Parameter>
             </Parameters>
             <Keyframes>
             <Keyframe id="119"  time="-9999999/1" value="0" leadInLength="0/1" />
             <Keyframe id="120"  time="0/1" value="233.89643881435987" leadInLength="30/1" interpolater="leadin-linr" />
             </Keyframes>
            </InterpolatingParam>
            <InterpolatingParam id="121"  >
             <Parameters>
              <Parameter id="122"  name="interpolater">
               <Keyframes>
               <Keyframe id="123"  time="0/1" value="linr" leadInLength="0/1" />
               </Keyframes>
              </Parameter>
             </Parameters>
             <Keyframes>
             <Keyframe id="124"  time="-9999999/1" value="0" leadInLength="0/1" />
             <Keyframe id="125"  time="0/1" value="-5.5887911649183746" leadInLength="30/1" interpolater="leadin-linr" />
             </Keyframes>
            </InterpolatingParam>
            <InterpolatingParam id="126"  >
             <Parameters>
              <Parameter id="127"  name="interpolater">
               <Keyframes>
               <Keyframe id="128"  time="0/1" value="linr" leadInLength="0/1" />
               </Keyframes>
              </Parameter>
             </Parameters>
             <Keyframes>
             <Keyframe id="129"  time="-9999999/1" value="0" leadInLength="0/1" />
             <Keyframe id="130"  time="0/1" value="0" leadInLength="30/1" interpolater="leadin-linr" />
             </Keyframes>
            </InterpolatingParam>
           </VectorParam>
           <VectorParam id="131"  name="rotation">
            <InterpolatingParam id="132"  >
             <Parameters>
              <Parameter id="133"  name="interpolater">
               <Keyframes>
               <Keyframe id="134"  time="0/1" value="linr" leadInLength="0/1" />
               </Keyframes>
              </Parameter>
             </Parameters>
             <Keyframes>
             <Keyframe id="135"  time="-9999999/1" value="0" leadInLength="0/1" />
             <Keyframe id="136"  time="0/1" value="0" leadInLength="30/1" interpolater="leadin-linr" />
             </Keyframes>
            </InterpolatingParam>
            <InterpolatingParam id="137"  >
             <Parameters>
              <Parameter id="138"  name="interpolater">
               <Keyframes>
               <Keyframe id="139"  time="0/1" value="linr" leadInLength="0/1" />
               </Keyframes>
              </Parameter>
             </Parameters>
             <Keyframes>
             <Keyframe id="140"  time="-9999999/1" value="0" leadInLength="0/1" />
             <Keyframe id="141"  time="0/1" value="0" leadInLength="30/1" interpolater="leadin-linr" />
             </Keyframes>
            </InterpolatingParam>
            <InterpolatingParam id="142"  >
             <Parameters>
              <Parameter id="143"  name="interpolater">
               <Keyframes>
               <Keyframe id="144"  time="0/1" value="linr" leadInLength="0/1" />
               </Keyframes>
              </Parameter>
             </Parameters>
             <Keyframes>
             <Keyframe id="145"  time="-9999999/1" value="0" leadInLength="0/1" />
             <Keyframe id="146"  time="0/1" value="0" leadInLength="30/1" interpolater="leadin-linr" />
             </Keyframes>
            </InterpolatingParam>
           </VectorParam>
           <VectorParam id="147"  name="shear">
            <InterpolatingParam id="148"  >
             <Parameters>
              <Parameter id="149"  name="interpolater">
               <Keyframes>
               <Keyframe id="150"  time="0/1" value="linr" leadInLength="0/1" />
               </Keyframes>
              </Parameter>
             </Parameters>
             <Keyframes>
             <Keyframe id="151"  time="-9999999/1" value="0" leadInLength="0/1" />
             <Keyframe id="152"  time="0/1" value="0" leadInLength="30/1" interpolater="leadin-linr" />
             </Keyframes>
            </InterpolatingParam>
            <InterpolatingParam id="153"  >
             <Parameters>
              <Parameter id="154"  name="interpolater">
               <Keyframes>
               <Keyframe id="155"  time="0/1" value="linr" leadInLength="0/1" />
               </Keyframes>
              </Parameter>
             </Parameters>
             <Keyframes>
             <Keyframe id="156"  time="-9999999/1" value="0" leadInLength="0/1" />
             <Keyframe id="157"  time="0/1" value="0" leadInLength="30/1" interpolater="leadin-linr" />
             </Keyframes>
            </InterpolatingParam>
            <InterpolatingParam id="158"  >
             <Parameters>
              <Parameter id="159"  name="interpolater">
               <Keyframes>
               <Keyframe id="160"  time="0/1" value="linr" leadInLength="0/1" />
               </Keyframes>
              </Parameter>
             </Parameters>
             <Keyframes>
             <Keyframe id="161"  time="-9999999/1" value="0" leadInLength="0/1" />
             <Keyframe id="162"  time="0/1" value="0" leadInLength="30/1" interpolater="leadin-linr" />
             </Keyframes>
            </InterpolatingParam>
           </VectorParam>
           <VectorParam id="163"  name="scale">
            <InterpolatingParam id="164"  >
             <Parameters>
              <Parameter id="165"  name="interpolater">
               <Keyframes>
               <Keyframe id="166"  time="0/1" value="linr" leadInLength="0/1" />
               </Keyframes>
              </Parameter>
             </Parameters>
             <Keyframes>
             <Keyframe id="167"  time="-9999999/1" value="1" leadInLength="0/1" />
             <Keyframe id="168"  time="0/1" value="1.3428168900191493" leadInLength="30/1" interpolater="leadin-linr" />
             </Keyframes>
            </InterpolatingParam>
            <InterpolatingParam id="169"  >
             <Parameters>
              <Parameter id="170"  name="interpolater">
               <Keyframes>
               <Keyframe id="171"  time="0/1" value="linr" leadInLength="0/1" />
               </Keyframes>
              </Parameter>
             </Parameters>
             <Keyframes>
             <Keyframe id="172"  time="-9999999/1" value="1" leadInLength="0/1" />
             <Keyframe id="173"  time="0/1" value="1.3428164909198217" leadInLength="30/1" interpolater="leadin-linr" />
             </Keyframes>
            </InterpolatingParam>
            <InterpolatingParam id="174"  >
             <Parameters>
              <Parameter id="175"  name="interpolater">
               <Keyframes>
               <Keyframe id="176"  time="0/1" value="linr" leadInLength="0/1" />
               </Keyframes>
              </Parameter>
             </Parameters>
             <Keyframes>
             <Keyframe id="177"  time="-9999999/1" value="1" leadInLength="0/1" />
             <Keyframe id="178"  time="0/1" value="0.99999999999999989" leadInLength="30/1" interpolater="leadin-linr" />
             </Keyframes>
            </InterpolatingParam>
           </VectorParam>
           <VectorParam id="179"  name="anchor">
            <InterpolatingParam id="180" interp="linr" value="0"  />
            <InterpolatingParam id="181" interp="linr" value="0"  />
            <InterpolatingParam id="182" interp="linr" value="0"  />
           </VectorParam>
          </Transformer>
          <Parameters>
           <VectorParam id="183"  name="sourceCrop">
            <InterpolatingParam id="184" interp="linr" value="0"  />
            <InterpolatingParam id="185" interp="linr" value="0"  />
            <InterpolatingParam id="186" interp="linr" value="0"  />
            <InterpolatingParam id="187" interp="linr" value="0"  />
           </VectorParam>
           <VectorParam id="188"  name="geometryCrop">
            <InterpolatingParam id="189" interp="linr" value="0"  />
            <InterpolatingParam id="190" interp="linr" value="0"  />
            <InterpolatingParam id="191" interp="linr" value="0"  />
            <InterpolatingParam id="192" interp="linr" value="0"  />
           </VectorParam>
           <InterpolatingParam id="193"  name="opacity">
            <Parameters>
             <Parameter id="194"  name="interpolater">
              <Keyframes>
              <Keyframe id="195"  time="0/1" value="linr" leadInLength="0/1" />
              </Keyframes>
             </Parameter>
            </Parameters>
            <Keyframes>
            <Keyframe id="196"  time="-9999999/1" value="1" leadInLength="0/1" />
            <Keyframe id="197"  time="0/1" value="1" leadInLength="30/1" interpolater="leadin-linr" />
            </Keyframes>
           </InterpolatingParam>
          </Parameters>
          <Attributes>
           <Attribute id="198" value="" name="ident"/>
          </Attributes>
          <ExtraData>
           <Entry key="ZoomPanBin">
            <ZoomPanBin id="199"  >
             <ZoomPanKeyframes>
              <ZoomPanKeyframe id="200" timeRangeStart="-9999999/1" timeRangeDuration="0/1"  />
              <ZoomPanKeyframe id="201" timeRangeStart="-30/1" timeRangeDuration="30/1"  />
             </ZoomPanKeyframes>
            </ZoomPanBin>
           </Entry>
          </ExtraData>
         </VMFile>
         <MetaData>
          <entry key="WinSubProjectDisplayName" val=""/>
         </MetaData>
        </UnifiedMedia>
        <UnifiedMedia id="202"  >
         <AMFile id="203" start="33" duration="32" scalar="1/1" mediaStart="256/1" mediaDuration="32/1" trackNumber="1" src="4" channelNumber="0,1" >
          <Parameters>
           <InterpolatingParam id="204" interp="linr" value="1"  name="volume"/>
           <Parameter id="205"  name="captions"/>
          </Parameters>
          <Attributes>
           <Attribute id="206" value="" name="ident"/>
           <Attribute id="207" value="44100" name="sampleRate"/>
           <Attribute id="208" value="16" name="bitDepth"/>
           <Attribute id="209" value="1" name="gain"/>
          </Attributes>
         </AMFile>
         <VMFile id="210" start="33" duration="32" scalar="1/1" mediaStart="256/1" mediaDuration="32/1" trackNumber="0" src="4" >
          <Transformer>
           <VectorParam id="211"  name="translation">
            <InterpolatingParam id="212"  >
             <Parameters>
              <Parameter id="213"  name="interpolater">
               <Keyframes>
               <Keyframe id="214"  time="0/1" value="linr" leadInLength="0/1" />
               </Keyframes>
              </Parameter>
             </Parameters>
             <Keyframes>
             <Keyframe id="215"  time="-9999999/1" value="0" leadInLength="0/1" />
             <Keyframe id="216"  time="0/1" value="233.89643881435987" leadInLength="30/1" interpolater="leadin-linr" />
             </Keyframes>
            </InterpolatingParam>
            <InterpolatingParam id="217"  >
             <Parameters>
              <Parameter id="218"  name="interpolater">
               <Keyframes>
               <Keyframe id="219"  time="0/1" value="linr" leadInLength="0/1" />
               </Keyframes>
              </Parameter>
             </Parameters>
             <Keyframes>
             <Keyframe id="220"  time="-9999999/1" value="0" leadInLength="0/1" />
             <Keyframe id="221"  time="0/1" value="-5.5887911649183746" leadInLength="30/1" interpolater="leadin-linr" />
             </Keyframes>
            </InterpolatingParam>
            <InterpolatingParam id="222"  >
             <Parameters>
              <Parameter id="223"  name="interpolater">
               <Keyframes>
               <Keyframe id="224"  time="0/1" value="linr" leadInLength="0/1" />
               </Keyframes>
              </Parameter>
             </Parameters>
             <Keyframes>
             <Keyframe id="225"  time="-9999999/1" value="0" leadInLength="0/1" />
             <Keyframe id="226"  time="0/1" value="0" leadInLength="30/1" interpolater="leadin-linr" />
             </Keyframes>
            </InterpolatingParam>
           </VectorParam>
           <VectorParam id="227"  name="rotation">
            <InterpolatingParam id="228"  >
             <Parameters>
              <Parameter id="229"  name="interpolater">
               <Keyframes>
               <Keyframe id="230"  time="0/1" value="linr" leadInLength="0/1" />
               </Keyframes>
              </Parameter>
             </Parameters>
             <Keyframes>
             <Keyframe id="231"  time="-9999999/1" value="0" leadInLength="0/1" />
             <Keyframe id="232"  time="0/1" value="0" leadInLength="30/1" interpolater="leadin-linr" />
             </Keyframes>
            </InterpolatingParam>
            <InterpolatingParam id="233"  >
             <Parameters>
              <Parameter id="234"  name="interpolater">
               <Keyframes>
               <Keyframe id="235"  time="0/1" value="linr" leadInLength="0/1" />
               </Keyframes>
              </Parameter>
             </Parameters>
             <Keyframes>
             <Keyframe id="236"  time="-9999999/1" value="0" leadInLength="0/1" />
             <Keyframe id="237"  time="0/1" value="0" leadInLength="30/1" interpolater="leadin-linr" />
             </Keyframes>
            </InterpolatingParam>
            <InterpolatingParam id="238"  >
             <Parameters>
              <Parameter id="239"  name="interpolater">
               <Keyframes>
               <Keyframe id="240"  time="0/1" value="linr" leadInLength="0/1" />
               </Keyframes>
              </Parameter>
             </Parameters>
             <Keyframes>
             <Keyframe id="241"  time="-9999999/1" value="0" leadInLength="0/1" />
             <Keyframe id="242"  time="0/1" value="0" leadInLength="30/1" interpolater="leadin-linr" />
             </Keyframes>
            </InterpolatingParam>
           </VectorParam>
           <VectorParam id="243"  name="shear">
            <InterpolatingParam id="244"  >
             <Parameters>
              <Parameter id="245"  name="interpolater">
               <Keyframes>
               <Keyframe id="246"  time="0/1" value="linr" leadInLength="0/1" />
               </Keyframes>
              </Parameter>
             </Parameters>
             <Keyframes>
             <Keyframe id="247"  time="-9999999/1" value="0" leadInLength="0/1" />
             <Keyframe id="248"  time="0/1" value="0" leadInLength="30/1" interpolater="leadin-linr" />
             </Keyframes>
            </InterpolatingParam>
            <InterpolatingParam id="249"  >
             <Parameters>
              <Parameter id="250"  name="interpolater">
               <Keyframes>
               <Keyframe id="251"  time="0/1" value="linr" leadInLength="0/1" />
               </Keyframes>
              </Parameter>
             </Parameters>
             <Keyframes>
             <Keyframe id="252"  time="-9999999/1" value="0" leadInLength="0/1" />
             <Keyframe id="253"  time="0/1" value="0" leadInLength="30/1" interpolater="leadin-linr" />
             </Keyframes>
            </InterpolatingParam>
            <InterpolatingParam id="254"  >
             <Parameters>
              <Parameter id="255"  name="interpolater">
               <Keyframes>
               <Keyframe id="256"  time="0/1" value="linr" leadInLength="0/1" />
               </Keyframes>
              </Parameter>
             </Parameters>
             <Keyframes>
             <Keyframe id="257"  time="-9999999/1" value="0" leadInLength="0/1" />
             <Keyframe id="258"  time="0/1" value="0" leadInLength="30/1" interpolater="leadin-linr" />
             </Keyframes>
            </InterpolatingParam>
           </VectorParam>
           <VectorParam id="259"  name="scale">
            <InterpolatingParam id="260"  >
             <Parameters>
              <Parameter id="261"  name="interpolater">
               <Keyframes>
               <Keyframe id="262"  time="0/1" value="linr" leadInLength="0/1" />
               </Keyframes>
              </Parameter>
             </Parameters>
             <Keyframes>
             <Keyframe id="263"  time="-9999999/1" value="1" leadInLength="0/1" />
             <Keyframe id="264"  time="0/1" value="1.3428168900191493" leadInLength="30/1" interpolater="leadin-linr" />
             </Keyframes>
            </InterpolatingParam>
            <InterpolatingParam id="265"  >
             <Parameters>
              <Parameter id="266"  name="interpolater">
               <Keyframes>
               <Keyframe id="267"  time="0/1" value="linr" leadInLength="0/1" />
               </Keyframes>
              </Parameter>
             </Parameters>
             <Keyframes>
             <Keyframe id="268"  time="-9999999/1" value="1" leadInLength="0/1" />
             <Keyframe id="269"  time="0/1" value="1.3428164909198217" leadInLength="30/1" interpolater="leadin-linr" />
             </Keyframes>
            </InterpolatingParam>
            <InterpolatingParam id="270"  >
             <Parameters>
              <Parameter id="271"  name="interpolater">
               <Keyframes>
               <Keyframe id="272"  time="0/1" value="linr" leadInLength="0/1" />
               </Keyframes>
              </Parameter>
             </Parameters>
             <Keyframes>
             <Keyframe id="273"  time="-9999999/1" value="1" leadInLength="0/1" />
             <Keyframe id="274"  time="0/1" value="0.99999999999999989" leadInLength="30/1" interpolater="leadin-linr" />
             </Keyframes>
            </InterpolatingParam>
           </VectorParam>
           <VectorParam id="275"  name="anchor">
            <InterpolatingParam id="276" interp="linr" value="0"  />
            <InterpolatingParam id="277" interp="linr" value="0"  />
            <InterpolatingParam id="278" interp="linr" value="0"  />
           </VectorParam>
          </Transformer>
          <Parameters>
           <VectorParam id="279"  name="sourceCrop">
            <InterpolatingParam id="280" interp="linr" value="0"  />
            <InterpolatingParam id="281" interp="linr" value="0"  />
            <InterpolatingParam id="282" interp="linr" value="0"  />
            <InterpolatingParam id="283" interp="linr" value="0"  />
           </VectorParam>
           <VectorParam id="284"  name="geometryCrop">
            <InterpolatingParam id="285" interp="linr" value="0"  />
            <InterpolatingParam id="286" interp="linr" value="0"  />
            <InterpolatingParam id="287" interp="linr" value="0"  />
            <InterpolatingParam id="288" interp="linr" value="0"  />
           </VectorParam>
           <InterpolatingParam id="289"  name="opacity">
            <Parameters>
             <Parameter id="290"  name="interpolater">
              <Keyframes>
              <Keyframe id="291"  time="0/1" value="linr" leadInLength="0/1" />
              </Keyframes>
             </Parameter>
            </Parameters>
            <Keyframes>
            <Keyframe id="292"  time="-9999999/1" value="1" leadInLength="0/1" />
            <Keyframe id="293"  time="0/1" value="1" leadInLength="30/1" interpolater="leadin-linr" />
            </Keyframes>
           </InterpolatingParam>
          </Parameters>
          <Attributes>
           <Attribute id="294" value="" name="ident"/>
          </Attributes>
          <ExtraData>
           <Entry key="ZoomPanBin">
            <ZoomPanBin id="295"  >
             <ZoomPanKeyframes>
              <ZoomPanKeyframe id="296" timeRangeStart="-9999999/1" timeRangeDuration="0/1"  />
              <ZoomPanKeyframe id="297" timeRangeStart="-30/1" timeRangeDuration="30/1"  />
             </ZoomPanKeyframes>
            </ZoomPanBin>
           </Entry>
          </ExtraData>
         </VMFile>
         <MetaData>
          <entry key="WinSubProjectDisplayName" val=""/>
         </MetaData>
        </UnifiedMedia>
        <UnifiedMedia id="298"  >
         <AMFile id="299" start="65" duration="28" scalar="1/1" mediaStart="341/1" mediaDuration="28/1" trackNumber="1" src="4" channelNumber="0,1" >
          <Parameters>
           <InterpolatingParam id="300" interp="linr" value="1"  name="volume"/>
           <Parameter id="301"  name="captions"/>
          </Parameters>
          <Attributes>
           <Attribute id="302" value="" name="ident"/>
           <Attribute id="303" value="44100" name="sampleRate"/>
           <Attribute id="304" value="16" name="bitDepth"/>
           <Attribute id="305" value="1" name="gain"/>
          </Attributes>
         </AMFile>
         <VMFile id="306" start="65" duration="28" scalar="1/1" mediaStart="341/1" mediaDuration="28/1" trackNumber="0" src="4" >
          <Transformer>
           <VectorParam id="307"  name="translation">
            <InterpolatingParam id="308"  >
             <Parameters>
              <Parameter id="309"  name="interpolater">
               <Keyframes>
               <Keyframe id="310"  time="0/1" value="linr" leadInLength="0/1" />
               </Keyframes>
              </Parameter>
             </Parameters>
             <Keyframes>
             <Keyframe id="311"  time="-9999999/1" value="0" leadInLength="0/1" />
             <Keyframe id="312"  time="0/1" value="233.89643881435987" leadInLength="30/1" interpolater="leadin-linr" />
             </Keyframes>
            </InterpolatingParam>
            <InterpolatingParam id="313"  >
             <Parameters>
              <Parameter id="314"  name="interpolater">
               <Keyframes>
               <Keyframe id="315"  time="0/1" value="linr" leadInLength="0/1" />
               </Keyframes>
              </Parameter>
             </Parameters>
             <Keyframes>
             <Keyframe id="316"  time="-9999999/1" value="0" leadInLength="0/1" />
             <Keyframe id="317"  time="0/1" value="-5.5887911649183746" leadInLength="30/1" interpolater="leadin-linr" />
             </Keyframes>
            </InterpolatingParam>
            <InterpolatingParam id="318"  >
             <Parameters>
              <Parameter id="319"  name="interpolater">
               <Keyframes>
               <Keyframe id="320"  time="0/1" value="linr" leadInLength="0/1" />
               </Keyframes>
              </Parameter>
             </Parameters>
             <Keyframes>
             <Keyframe id="321"  time="-9999999/1" value="0" leadInLength="0/1" />
             <Keyframe id="322"  time="0/1" value="0" leadInLength="30/1" interpolater="leadin-linr" />
             </Keyframes>
            </InterpolatingParam>
           </VectorParam>
           <VectorParam id="323"  name="rotation">
            <InterpolatingParam id="324"  >
             <Parameters>
              <Parameter id="325"  name="interpolater">
               <Keyframes>
               <Keyframe id="326"  time="0/1" value="linr" leadInLength="0/1" />
               </Keyframes>
              </Parameter>
             </Parameters>
             <Keyframes>
             <Keyframe id="327"  time="-9999999/1" value="0" leadInLength="0/1" />
             <Keyframe id="328"  time="0/1" value="0" leadInLength="30/1" interpolater="leadin-linr" />
             </Keyframes>
            </InterpolatingParam>
            <InterpolatingParam id="329"  >
             <Parameters>
              <Parameter id="330"  name="interpolater">
               <Keyframes>
               <Keyframe id="331"  time="0/1" value="linr" leadInLength="0/1" />
               </Keyframes>
              </Parameter>
             </Parameters>
             <Keyframes>
             <Keyframe id="332"  time="-9999999/1" value="0" leadInLength="0/1" />
             <Keyframe id="333"  time="0/1" value="0" leadInLength="30/1" interpolater="leadin-linr" />
             </Keyframes>
            </InterpolatingParam>
            <InterpolatingParam id="334"  >
             <Parameters>
              <Parameter id="335"  name="interpolater">
               <Keyframes>
               <Keyframe id="336"  time="0/1" value="linr" leadInLength="0/1" />
               </Keyframes>
              </Parameter>
             </Parameters>
             <Keyframes>
             <Keyframe id="337"  time="-9999999/1" value="0" leadInLength="0/1" />
             <Keyframe id="338"  time="0/1" value="0" leadInLength="30/1" interpolater="leadin-linr" />
             </Keyframes>
            </InterpolatingParam>
           </VectorParam>
           <VectorParam id="339"  name="shear">
            <InterpolatingParam id="340"  >
             <Parameters>
              <Parameter id="341"  name="interpolater">
               <Keyframes>
               <Keyframe id="342"  time="0/1" value="linr" leadInLength="0/1" />
               </Keyframes>
              </Parameter>
             </Parameters>
             <Keyframes>
             <Keyframe id="343"  time="-9999999/1" value="0" leadInLength="0/1" />
             <Keyframe id="344"  time="0/1" value="0" leadInLength="30/1" interpolater="leadin-linr" />
             </Keyframes>
            </InterpolatingParam>
            <InterpolatingParam id="345"  >
             <Parameters>
              <Parameter id="346"  name="interpolater">
               <Keyframes>
               <Keyframe id="347"  time="0/1" value="linr" leadInLength="0/1" />
               </Keyframes>
              </Parameter>
             </Parameters>
             <Keyframes>
             <Keyframe id="348"  time="-9999999/1" value="0" leadInLength="0/1" />
             <Keyframe id="349"  time="0/1" value="0" leadInLength="30/1" interpolater="leadin-linr" />
             </Keyframes>
            </InterpolatingParam>
            <InterpolatingParam id="350"  >
             <Parameters>
              <Parameter id="351"  name="interpolater">
               <Keyframes>
               <Keyframe id="352"  time="0/1" value="linr" leadInLength="0/1" />
               </Keyframes>
              </Parameter>
             </Parameters>
             <Keyframes>
             <Keyframe id="353"  time="-9999999/1" value="0" leadInLength="0/1" />
             <Keyframe id="354"  time="0/1" value="0" leadInLength="30/1" interpolater="leadin-linr" />
             </Keyframes>
            </InterpolatingParam>
           </VectorParam>
           <VectorParam id="355"  name="scale">
            <InterpolatingParam id="356"  >
             <Parameters>
              <Parameter id="357"  name="interpolater">
               <Keyframes>
               <Keyframe id="358"  time="0/1" value="linr" leadInLength="0/1" />
               </Keyframes>
              </Parameter>
             </Parameters>
             <Keyframes>
             <Keyframe id="359"  time="-9999999/1" value="1" leadInLength="0/1" />
             <Keyframe id="360"  time="0/1" value="1.3428168900191493" leadInLength="30/1" interpolater="leadin-linr" />
             </Keyframes>
            </InterpolatingParam>
            <InterpolatingParam id="361"  >
             <Parameters>
              <Parameter id="362"  name="interpolater">
               <Keyframes>
               <Keyframe id="363"  time="0/1" value="linr" leadInLength="0/1" />
               </Keyframes>
              </Parameter>
             </Parameters>
             <Keyframes>
             <Keyframe id="364"  time="-9999999/1" value="1" leadInLength="0/1" />
             <Keyframe id="365"  time="0/1" value="1.3428164909198217" leadInLength="30/1" interpolater="leadin-linr" />
             </Keyframes>
            </InterpolatingParam>
            <InterpolatingParam id="366"  >
             <Parameters>
              <Parameter id="367"  name="interpolater">
               <Keyframes>
               <Keyframe id="368"  time="0/1" value="linr" leadInLength="0/1" />
               </Keyframes>
              </Parameter>
             </Parameters>
             <Keyframes>
             <Keyframe id="369"  time="-9999999/1" value="1" leadInLength="0/1" />
             <Keyframe id="370"  time="0/1" value="0.99999999999999989" leadInLength="30/1" interpolater="leadin-linr" />
             </Keyframes>
            </InterpolatingParam>
           </VectorParam>
           <VectorParam id="371"  name="anchor">
            <InterpolatingParam id="372" interp="linr" value="0"  />
            <InterpolatingParam id="373" interp="linr" value="0"  />
            <InterpolatingParam id="374" interp="linr" value="0"  />
           </VectorParam>
          </Transformer>
          <Parameters>
           <VectorParam id="375"  name="sourceCrop">
            <InterpolatingParam id="376" interp="linr" value="0"  />
            <InterpolatingParam id="377" interp="linr" value="0"  />
            <InterpolatingParam id="378" interp="linr" value="0"  />
            <InterpolatingParam id="379" interp="linr" value="0"  />
           </VectorParam>
           <VectorParam id="380"  name="geometryCrop">
            <InterpolatingParam id="381" interp="linr" value="0"  />
            <InterpolatingParam id="382" interp="linr" value="0"  />
            <InterpolatingParam id="383" interp="linr" value="0"  />
            <InterpolatingParam id="384" interp="linr" value="0"  />
           </VectorParam>
           <InterpolatingParam id="385"  name="opacity">
            <Parameters>
             <Parameter id="386"  name="interpolater">
              <Keyframes>
              <Keyframe id="387"  time="0/1" value="linr" leadInLength="0/1" />
              </Keyframes>
             </Parameter>
            </Parameters>
            <Keyframes>
            <Keyframe id="388"  time="-9999999/1" value="1" leadInLength="0/1" />
            <Keyframe id="389"  time="0/1" value="1" leadInLength="30/1" interpolater="leadin-linr" />
            </Keyframes>
           </InterpolatingParam>
          </Parameters>
          <Attributes>
           <Attribute id="390" value="" name="ident"/>
          </Attributes>
          <ExtraData>
           <Entry key="ZoomPanBin">
            <ZoomPanBin id="391"  >
             <ZoomPanKeyframes>
              <ZoomPanKeyframe id="392" timeRangeStart="-9999999/1" timeRangeDuration="0/1"  />
              <ZoomPanKeyframe id="393" timeRangeStart="-30/1" timeRangeDuration="30/1"  />
             </ZoomPanKeyframes>
            </ZoomPanBin>
           </Entry>
          </ExtraData>
         </VMFile>
         <MetaData>
          <entry key="WinSubProjectDisplayName" val=""/>
         </MetaData>
        </UnifiedMedia>
        <UnifiedMedia id="394"  >
         <AMFile id="395" start="93" duration="65" scalar="1/1" mediaStart="521/1" mediaDuration="65/1" trackNumber="1" src="4" channelNumber="0,1" >
          <Parameters>
           <InterpolatingParam id="396" interp="linr" value="1"  name="volume"/>
           <Parameter id="397"  name="captions"/>
          </Parameters>
          <Attributes>
           <Attribute id="398" value="" name="ident"/>
           <Attribute id="399" value="44100" name="sampleRate"/>
           <Attribute id="400" value="16" name="bitDepth"/>
           <Attribute id="401" value="1" name="gain"/>
          </Attributes>
         </AMFile>
         <VMFile id="402" start="93" duration="65" scalar="1/1" mediaStart="521/1" mediaDuration="65/1" trackNumber="0" src="4" >
          <Transformer>
           <VectorParam id="403"  name="translation">
            <InterpolatingParam id="404"  >
             <Parameters>
              <Parameter id="405"  name="interpolater">
               <Keyframes>
               <Keyframe id="406"  time="0/1" value="linr" leadInLength="0/1" />
               </Keyframes>
              </Parameter>
             </Parameters>
             <Keyframes>
             <Keyframe id="407"  time="-9999999/1" value="0" leadInLength="0/1" />
             <Keyframe id="408"  time="0/1" value="235.81133243138936" leadInLength="30/1" interpolater="leadin-linr" />
             </Keyframes>
            </InterpolatingParam>
            <InterpolatingParam id="409"  >
             <Parameters>
              <Parameter id="410"  name="interpolater">
               <Keyframes>
               <Keyframe id="411"  time="0/1" value="linr" leadInLength="0/1" />
               </Keyframes>
              </Parameter>
             </Parameters>
             <Keyframes>
             <Keyframe id="412"  time="-9999999/1" value="0" leadInLength="0/1" />
             <Keyframe id="413"  time="0/1" value="-5.5887911649183746" leadInLength="30/1" interpolater="leadin-linr" />
             </Keyframes>
            </InterpolatingParam>
            <InterpolatingParam id="414"  >
             <Parameters>
              <Parameter id="415"  name="interpolater">
               <Keyframes>
               <Keyframe id="416"  time="0/1" value="linr" leadInLength="0/1" />
               </Keyframes>
              </Parameter>
             </Parameters>
             <Keyframes>
             <Keyframe id="417"  time="-9999999/1" value="0" leadInLength="0/1" />
             <Keyframe id="418"  time="0/1" value="0" leadInLength="30/1" interpolater="leadin-linr" />
             </Keyframes>
            </InterpolatingParam>
           </VectorParam>
           <VectorParam id="419"  name="rotation">
            <InterpolatingParam id="420"  >
             <Parameters>
              <Parameter id="421"  name="interpolater">
               <Keyframes>
               <Keyframe id="422"  time="0/1" value="linr" leadInLength="0/1" />
               </Keyframes>
              </Parameter>
             </Parameters>
             <Keyframes>
             <Keyframe id="423"  time="-9999999/1" value="0" leadInLength="0/1" />
             <Keyframe id="424"  time="0/1" value="0" leadInLength="30/1" interpolater="leadin-linr" />
             </Keyframes>
            </InterpolatingParam>
            <InterpolatingParam id="425"  >
             <Parameters>
              <Parameter id="426"  name="interpolater">
               <Keyframes>
               <Keyframe id="427"  time="0/1" value="linr" leadInLength="0/1" />
               </Keyframes>
              </Parameter>
             </Parameters>
             <Keyframes>
             <Keyframe id="428"  time="-9999999/1" value="0" leadInLength="0/1" />
             <Keyframe id="429"  time="0/1" value="0" leadInLength="30/1" interpolater="leadin-linr" />
             </Keyframes>
            </InterpolatingParam>
            <InterpolatingParam id="430"  >
             <Parameters>
              <Parameter id="431"  name="interpolater">
               <Keyframes>
               <Keyframe id="432"  time="0/1" value="linr" leadInLength="0/1" />
               </Keyframes>
              </Parameter>
             </Parameters>
             <Keyframes>
             <Keyframe id="433"  time="-9999999/1" value="0" leadInLength="0/1" />
             <Keyframe id="434"  time="0/1" value="0" leadInLength="30/1" interpolater="leadin-linr" />
             </Keyframes>
            </InterpolatingParam>
           </VectorParam>
           <VectorParam id="435"  name="shear">
            <InterpolatingParam id="436"  >
             <Parameters>
              <Parameter id="437"  name="interpolater">
               <Keyframes>
               <Keyframe id="438"  time="0/1" value="linr" leadInLength="0/1" />
               </Keyframes>
              </Parameter>
             </Parameters>
             <Keyframes>
             <Keyframe id="439"  time="-9999999/1" value="0" leadInLength="0/1" />
             <Keyframe id="440"  time="0/1" value="0" leadInLength="30/1" interpolater="leadin-linr" />
             </Keyframes>
            </InterpolatingParam>
            <InterpolatingParam id="441"  >
             <Parameters>
              <Parameter id="442"  name="interpolater">
               <Keyframes>
               <Keyframe id="443"  time="0/1" value="linr" leadInLength="0/1" />
               </Keyframes>
              </Parameter>
             </Parameters>
             <Keyframes>
             <Keyframe id="444"  time="-9999999/1" value="0" leadInLength="0/1" />
             <Keyframe id="445"  time="0/1" value="0" leadInLength="30/1" interpolater="leadin-linr" />
             </Keyframes>
            </InterpolatingParam>
            <InterpolatingParam id="446"  >
             <Parameters>
              <Parameter id="447"  name="interpolater">
               <Keyframes>
               <Keyframe id="448"  time="0/1" value="linr" leadInLength="0/1" />
               </Keyframes>
              </Parameter>
             </Parameters>
             <Keyframes>
             <Keyframe id="449"  time="-9999999/1" value="0" leadInLength="0/1" />
             <Keyframe id="450"  time="0/1" value="0" leadInLength="30/1" interpolater="leadin-linr" />
             </Keyframes>
            </InterpolatingParam>
           </VectorParam>
           <VectorParam id="451"  name="scale">
            <InterpolatingParam id="452"  >
             <Parameters>
              <Parameter id="453"  name="interpolater">
               <Keyframes>
               <Keyframe id="454"  time="0/1" value="linr" leadInLength="0/1" />
               </Keyframes>
              </Parameter>
             </Parameters>
             <Keyframes>
             <Keyframe id="455"  time="-9999999/1" value="1" leadInLength="0/1" />
             <Keyframe id="456"  time="0/1" value="1.3428168900191493" leadInLength="30/1" interpolater="leadin-linr" />
             </Keyframes>
            </InterpolatingParam>
            <InterpolatingParam id="457"  >
             <Parameters>
              <Parameter id="458"  name="interpolater">
               <Keyframes>
               <Keyframe id="459"  time="0/1" value="linr" leadInLength="0/1" />
               </Keyframes>
              </Parameter>
             </Parameters>
             <Keyframes>
             <Keyframe id="460"  time="-9999999/1" value="1" leadInLength="0/1" />
             <Keyframe id="461"  time="0/1" value="1.3428164909198217" leadInLength="30/1" interpolater="leadin-linr" />
             </Keyframes>
            </InterpolatingParam>
            <InterpolatingParam id="462"  >
             <Parameters>
              <Parameter id="463"  name="interpolater">
               <Keyframes>
               <Keyframe id="464"  time="0/1" value="linr" leadInLength="0/1" />
               </Keyframes>
              </Parameter>
             </Parameters>
             <Keyframes>
             <Keyframe id="465"  time="-9999999/1" value="1" leadInLength="0/1" />
             <Keyframe id="466"  time="0/1" value="0.99999999999999989" leadInLength="30/1" interpolater="leadin-linr" />
             </Keyframes>
            </InterpolatingParam>
           </VectorParam>
           <VectorParam id="467"  name="anchor">
            <InterpolatingParam id="468" interp="linr" value="0"  />
            <InterpolatingParam id="469" interp="linr" value="0"  />
            <InterpolatingParam id="470" interp="linr" value="0"  />
           </VectorParam>
          </Transformer>
          <Parameters>
           <VectorParam id="471"  name="sourceCrop">
            <InterpolatingParam id="472" interp="linr" value="0"  />
            <InterpolatingParam id="473" interp="linr" value="0"  />
            <InterpolatingParam id="474" interp="linr" value="0"  />
            <InterpolatingParam id="475" interp="linr" value="0"  />
           </VectorParam>
           <VectorParam id="476"  name="geometryCrop">
            <InterpolatingParam id="477" interp="linr" value="0"  />
            <InterpolatingParam id="478" interp="linr" value="0"  />
            <InterpolatingParam id="479" interp="linr" value="0"  />
            <InterpolatingParam id="480" interp="linr" value="0"  />
           </VectorParam>
           <InterpolatingParam id="481"  name="opacity">
            <Parameters>
             <Parameter id="482"  name="interpolater">
              <Keyframes>
              <Keyframe id="483"  time="0/1" value="linr" leadInLength="0/1" />
              </Keyframes>
             </Parameter>
            </Parameters>
            <Keyframes>
            <Keyframe id="484"  time="-9999999/1" value="1" leadInLength="0/1" />
            <Keyframe id="485"  time="0/1" value="1" leadInLength="30/1" interpolater="leadin-linr" />
            </Keyframes>
           </InterpolatingParam>
          </Parameters>
          <Attributes>
           <Attribute id="486" value="" name="ident"/>
          </Attributes>
          <ExtraData>
           <Entry key="ZoomPanBin">
            <ZoomPanBin id="487"  >
             <ZoomPanKeyframes>
              <ZoomPanKeyframe id="488" timeRangeStart="-9999999/1" timeRangeDuration="0/1"  />
              <ZoomPanKeyframe id="489" timeRangeStart="-30/1" timeRangeDuration="30/1"  />
             </ZoomPanKeyframes>
            </ZoomPanBin>
           </Entry>
          </ExtraData>
         </VMFile>
         <MetaData>
          <entry key="WinSubProjectDisplayName" val=""/>
         </MetaData>
        </UnifiedMedia>
        <UnifiedMedia id="490"  >
         <AMFile id="491" start="158" duration="24" scalar="1/1" mediaStart="600/1" mediaDuration="24/1" trackNumber="1" src="4" channelNumber="0,1" >
          <Parameters>
           <InterpolatingParam id="492" interp="linr" value="1"  name="volume"/>
           <Parameter id="493"  name="captions"/>
          </Parameters>
          <Attributes>
           <Attribute id="494" value="" name="ident"/>
           <Attribute id="495" value="44100" name="sampleRate"/>
           <Attribute id="496" value="16" name="bitDepth"/>
           <Attribute id="497" value="1" name="gain"/>
          </Attributes>
         </AMFile>
         <VMFile id="498" start="158" duration="24" scalar="1/1" mediaStart="600/1" mediaDuration="24/1" trackNumber="0" src="4" >
          <Transformer>
           <VectorParam id="499"  name="translation">
            <InterpolatingParam id="500"  >
             <Parameters>
              <Parameter id="501"  name="interpolater">
               <Keyframes>
               <Keyframe id="502"  time="0/1" value="linr" leadInLength="0/1" />
               </Keyframes>
              </Parameter>
             </Parameters>
             <Keyframes>
             <Keyframe id="503"  time="-9999999/1" value="0" leadInLength="0/1" />
             <Keyframe id="504"  time="0/1" value="235.81133243138939" leadInLength="30/1" interpolater="leadin-linr" />
             </Keyframes>
            </InterpolatingParam>
            <InterpolatingParam id="505"  >
             <Parameters>
              <Parameter id="506"  name="interpolater">
               <Keyframes>
               <Keyframe id="507"  time="0/1" value="linr" leadInLength="0/1" />
               </Keyframes>
              </Parameter>
             </Parameters>
             <Keyframes>
             <Keyframe id="508"  time="-9999999/1" value="0" leadInLength="0/1" />
             <Keyframe id="509"  time="0/1" value="-5.5887911649183746" leadInLength="30/1" interpolater="leadin-linr" />
             </Keyframes>
            </InterpolatingParam>
            <InterpolatingParam id="510"  >
             <Parameters>
              <Parameter id="511"  name="interpolater">
               <Keyframes>
               <Keyframe id="512"  time="0/1" value="linr" leadInLength="0/1" />
               </Keyframes>
              </Parameter>
             </Parameters>
             <Keyframes>
             <Keyframe id="513"  time="-9999999/1" value="0" leadInLength="0/1" />
             <Keyframe id="514"  time="0/1" value="0" leadInLength="30/1" interpolater="leadin-linr" />
             </Keyframes>
            </InterpolatingParam>
           </VectorParam>
           <VectorParam id="515"  name="rotation">
            <InterpolatingParam id="516"  >
             <Parameters>
              <Parameter id="517"  name="interpolater">
               <Keyframes>
               <Keyframe id="518"  time="0/1" value="linr" leadInLength="0/1" />
               </Keyframes>
              </Parameter>
             </Parameters>
             <Keyframes>
             <Keyframe id="519"  time="-9999999/1" value="0" leadInLength="0/1" />
             <Keyframe id="520"  time="0/1" value="0" leadInLength="30/1" interpolater="leadin-linr" />
             </Keyframes>
            </InterpolatingParam>
            <InterpolatingParam id="521"  >
             <Parameters>
              <Parameter id="522"  name="interpolater">
               <Keyframes>
               <Keyframe id="523"  time="0/1" value="linr" leadInLength="0/1" />
               </Keyframes>
              </Parameter>
             </Parameters>
             <Keyframes>
             <Keyframe id="524"  time="-9999999/1" value="0" leadInLength="0/1" />
             <Keyframe id="525"  time="0/1" value="0" leadInLength="30/1" interpolater="leadin-linr" />
             </Keyframes>
            </InterpolatingParam>
            <InterpolatingParam id="526"  >
             <Parameters>
              <Parameter id="527"  name="interpolater">
               <Keyframes>
               <Keyframe id="528"  time="0/1" value="linr" leadInLength="0/1" />
               </Keyframes>
              </Parameter>
             </Parameters>
             <Keyframes>
             <Keyframe id="529"  time="-9999999/1" value="0" leadInLength="0/1" />
             <Keyframe id="530"  time="0/1" value="0" leadInLength="30/1" interpolater="leadin-linr" />
             </Keyframes>
            </InterpolatingParam>
           </VectorParam>
           <VectorParam id="531"  name="shear">
            <InterpolatingParam id="532"  >
             <Parameters>
              <Parameter id="533"  name="interpolater">
               <Keyframes>
               <Keyframe id="534"  time="0/1" value="linr" leadInLength="0/1" />
               </Keyframes>
              </Parameter>
             </Parameters>
             <Keyframes>
             <Keyframe id="535"  time="-9999999/1" value="0" leadInLength="0/1" />
             <Keyframe id="536"  time="0/1" value="0" leadInLength="30/1" interpolater="leadin-linr" />
             </Keyframes>
            </InterpolatingParam>
            <InterpolatingParam id="537"  >
             <Parameters>
              <Parameter id="538"  name="interpolater">
               <Keyframes>
               <Keyframe id="539"  time="0/1" value="linr" leadInLength="0/1" />
               </Keyframes>
              </Parameter>
             </Parameters>
             <Keyframes>
             <Keyframe id="540"  time="-9999999/1" value="0" leadInLength="0/1" />
             <Keyframe id="541"  time="0/1" value="0" leadInLength="30/1" interpolater="leadin-linr" />
             </Keyframes>
            </InterpolatingParam>
            <InterpolatingParam id="542"  >
             <Parameters>
              <Parameter id="543"  name="interpolater">
               <Keyframes>
               <Keyframe id="544"  time="0/1" value="linr" leadInLength="0/1" />
               </Keyframes>
              </Parameter>
             </Parameters>
             <Keyframes>
             <Keyframe id="545"  time="-9999999/1" value="0" leadInLength="0/1" />
             <Keyframe id="546"  time="0/1" value="0" leadInLength="30/1" interpolater="leadin-linr" />
             </Keyframes>
            </InterpolatingParam>
           </VectorParam>
           <VectorParam id="547"  name="scale">
            <InterpolatingParam id="548"  >
             <Parameters>
              <Parameter id="549"  name="interpolater">
               <Keyframes>
               <Keyframe id="550"  time="0/1" value="linr" leadInLength="0/1" />
               </Keyframes>
              </Parameter>
             </Parameters>
             <Keyframes>
             <Keyframe id="551"  time="-9999999/1" value="1" leadInLength="0/1" />
             <Keyframe id="552"  time="0/1" value="1.3428168900191493" leadInLength="30/1" interpolater="leadin-linr" />
             </Keyframes>
            </InterpolatingParam>
            <InterpolatingParam id="553"  >
             <Parameters>
              <Parameter id="554"  name="interpolater">
               <Keyframes>
               <Keyframe id="555"  time="0/1" value="linr" leadInLength="0/1" />
               </Keyframes>
              </Parameter>
             </Parameters>
             <Keyframes>
             <Keyframe id="556"  time="-9999999/1" value="1" leadInLength="0/1" />
             <Keyframe id="557"  time="0/1" value="1.3428164909198217" leadInLength="30/1" interpolater="leadin-linr" />
             </Keyframes>
            </InterpolatingParam>
            <InterpolatingParam id="558"  >
             <Parameters>
              <Parameter id="559"  name="interpolater">
               <Keyframes>
               <Keyframe id="560"  time="0/1" value="linr" leadInLength="0/1" />
               </Keyframes>
              </Parameter>
             </Parameters>
             <Keyframes>
             <Keyframe id="561"  time="-9999999/1" value="1" leadInLength="0/1" />
             <Keyframe id="562"  time="0/1" value="0.99999999999999989" leadInLength="30/1" interpolater="leadin-linr" />
             </Keyframes>
            </InterpolatingParam>
           </VectorParam>
           <VectorParam id="563"  name="anchor">
            <InterpolatingParam id="564" interp="linr" value="0"  />
            <InterpolatingParam id="565" interp="linr" value="0"  />
            <InterpolatingParam id="566" interp="linr" value="0"  />
           </VectorParam>
          </Transformer>
          <Parameters>
           <VectorParam id="567"  name="sourceCrop">
            <InterpolatingParam id="568" interp="linr" value="0"  />
            <InterpolatingParam id="569" interp="linr" value="0"  />
            <InterpolatingParam id="570" interp="linr" value="0"  />
            <InterpolatingParam id="571" interp="linr" value="0"  />
           </VectorParam>
           <VectorParam id="572"  name="geometryCrop">
            <InterpolatingParam id="573" interp="linr" value="0"  />
            <InterpolatingParam id="574" interp="linr" value="0"  />
            <InterpolatingParam id="575" interp="linr" value="0"  />
            <InterpolatingParam id="576" interp="linr" value="0"  />
           </VectorParam>
           <InterpolatingParam id="577"  name="opacity">
            <Parameters>
             <Parameter id="578"  name="interpolater">
              <Keyframes>
              <Keyframe id="579"  time="0/1" value="linr" leadInLength="0/1" />
              </Keyframes>
             </Parameter>
            </Parameters>
            <Keyframes>
            <Keyframe id="580"  time="-9999999/1" value="1" leadInLength="0/1" />
            <Keyframe id="581"  time="0/1" value="1" leadInLength="30/1" interpolater="leadin-linr" />
            </Keyframes>
           </InterpolatingParam>
          </Parameters>
          <Attributes>
           <Attribute id="582" value="" name="ident"/>
          </Attributes>
          <ExtraData>
           <Entry key="ZoomPanBin">
            <ZoomPanBin id="583"  >
             <ZoomPanKeyframes>
              <ZoomPanKeyframe id="584" timeRangeStart="-9999999/1" timeRangeDuration="0/1"  />
              <ZoomPanKeyframe id="585" timeRangeStart="-30/1" timeRangeDuration="30/1"  />
             </ZoomPanKeyframes>
            </ZoomPanBin>
           </Entry>
          </ExtraData>
         </VMFile>
         <MetaData>
          <entry key="WinSubProjectDisplayName" val=""/>
         </MetaData>
        </UnifiedMedia>
        <UnifiedMedia id="586"  >
         <AMFile id="587" start="182" duration="31" scalar="1/1" mediaStart="624/1" mediaDuration="31/1" trackNumber="1" src="4" channelNumber="0,1" >
          <Parameters>
           <InterpolatingParam id="588" interp="linr" value="1"  name="volume"/>
           <Parameter id="589"  name="captions"/>
          </Parameters>
          <Attributes>
           <Attribute id="590" value="" name="ident"/>
           <Attribute id="591" value="44100" name="sampleRate"/>
           <Attribute id="592" value="16" name="bitDepth"/>
           <Attribute id="593" value="1" name="gain"/>
          </Attributes>
         </AMFile>
         <VMFile id="594" start="182" duration="31" scalar="1/1" mediaStart="624/1" mediaDuration="31/1" trackNumber="0" src="4" >
          <Transformer>
           <VectorParam id="595"  name="translation">
            <InterpolatingParam id="596"  >
             <Parameters>
              <Parameter id="597"  name="interpolater">
               <Keyframes>
               <Keyframe id="598"  time="0/1" value="linr" leadInLength="0/1" />
               </Keyframes>
              </Parameter>
             </Parameters>
             <Keyframes>
             <Keyframe id="599"  time="-9999999/1" value="0" leadInLength="0/1" />
             <Keyframe id="600"  time="0/1" value="233.89643881435987" leadInLength="30/1" interpolater="leadin-linr" />
             </Keyframes>
            </InterpolatingParam>
            <InterpolatingParam id="601"  >
             <Parameters>
              <Parameter id="602"  name="interpolater">
               <Keyframes>
               <Keyframe id="603"  time="0/1" value="linr" leadInLength="0/1" />
               </Keyframes>
              </Parameter>
             </Parameters>
             <Keyframes>
             <Keyframe id="604"  time="-9999999/1" value="0" leadInLength="0/1" />
             <Keyframe id="605"  time="0/1" value="-5.5887911649183746" leadInLength="30/1" interpolater="leadin-linr" />
             </Keyframes>
            </InterpolatingParam>
            <InterpolatingParam id="606"  >
             <Parameters>
              <Parameter id="607"  name="interpolater">
               <Keyframes>
               <Keyframe id="608"  time="0/1" value="linr" leadInLength="0/1" />
               </Keyframes>
              </Parameter>
             </Parameters>
             <Keyframes>
             <Keyframe id="609"  time="-9999999/1" value="0" leadInLength="0/1" />
             <Keyframe id="610"  time="0/1" value="0" leadInLength="30/1" interpolater="leadin-linr" />
             </Keyframes>
            </InterpolatingParam>
           </VectorParam>
           <VectorParam id="611"  name="rotation">
            <InterpolatingParam id="612"  >
             <Parameters>
              <Parameter id="613"  name="interpolater">
               <Keyframes>
               <Keyframe id="614"  time="0/1" value="linr" leadInLength="0/1" />
               </Keyframes>
              </Parameter>
             </Parameters>
             <Keyframes>
             <Keyframe id="615"  time="-9999999/1" value="0" leadInLength="0/1" />
             <Keyframe id="616"  time="0/1" value="0" leadInLength="30/1" interpolater="leadin-linr" />
             </Keyframes>
            </InterpolatingParam>
            <InterpolatingParam id="617"  >
             <Parameters>
              <Parameter id="618"  name="interpolater">
               <Keyframes>
               <Keyframe id="619"  time="0/1" value="linr" leadInLength="0/1" />
               </Keyframes>
              </Parameter>
             </Parameters>
             <Keyframes>
             <Keyframe id="620"  time="-9999999/1" value="0" leadInLength="0/1" />
             <Keyframe id="621"  time="0/1" value="0" leadInLength="30/1" interpolater="leadin-linr" />
             </Keyframes>
            </InterpolatingParam>
            <InterpolatingParam id="622"  >
             <Parameters>
              <Parameter id="623"  name="interpolater">
               <Keyframes>
               <Keyframe id="624"  time="0/1" value="linr" leadInLength="0/1" />
               </Keyframes>
              </Parameter>
             </Parameters>
             <Keyframes>
             <Keyframe id="625"  time="-9999999/1" value="0" leadInLength="0/1" />
             <Keyframe id="626"  time="0/1" value="0" leadInLength="30/1" interpolater="leadin-linr" />
             </Keyframes>
            </InterpolatingParam>
           </VectorParam>
           <VectorParam id="627"  name="shear">
            <InterpolatingParam id="628"  >
             <Parameters>
              <Parameter id="629"  name="interpolater">
               <Keyframes>
               <Keyframe id="630"  time="0/1" value="linr" leadInLength="0/1" />
               </Keyframes>
              </Parameter>
             </Parameters>
             <Keyframes>
             <Keyframe id="631"  time="-9999999/1" value="0" leadInLength="0/1" />
             <Keyframe id="632"  time="0/1" value="0" leadInLength="30/1" interpolater="leadin-linr" />
             </Keyframes>
            </InterpolatingParam>
            <InterpolatingParam id="633"  >
             <Parameters>
              <Parameter id="634"  name="interpolater">
               <Keyframes>
               <Keyframe id="635"  time="0/1" value="linr" leadInLength="0/1" />
               </Keyframes>
              </Parameter>
             </Parameters>
             <Keyframes>
             <Keyframe id="636"  time="-9999999/1" value="0" leadInLength="0/1" />
             <Keyframe id="637"  time="0/1" value="0" leadInLength="30/1" interpolater="leadin-linr" />
             </Keyframes>
            </InterpolatingParam>
            <InterpolatingParam id="638"  >
             <Parameters>
              <Parameter id="639"  name="interpolater">
               <Keyframes>
               <Keyframe id="640"  time="0/1" value="linr" leadInLength="0/1" />
               </Keyframes>
              </Parameter>
             </Parameters>
             <Keyframes>
             <Keyframe id="641"  time="-9999999/1" value="0" leadInLength="0/1" />
             <Keyframe id="642"  time="0/1" value="0" leadInLength="30/1" interpolater="leadin-linr" />
             </Keyframes>
            </InterpolatingParam>
           </VectorParam>
           <VectorParam id="643"  name="scale">
            <InterpolatingParam id="644"  >
             <Parameters>
              <Parameter id="645"  name="interpolater">
               <Keyframes>
               <Keyframe id="646"  time="0/1" value="linr" leadInLength="0/1" />
               </Keyframes>
              </Parameter>
             </Parameters>
             <Keyframes>
             <Keyframe id="647"  time="-9999999/1" value="1" leadInLength="0/1" />
             <Keyframe id="648"  time="0/1" value="1.3428168900191493" leadInLength="30/1" interpolater="leadin-linr" />
             </Keyframes>
            </InterpolatingParam>
            <InterpolatingParam id="649"  >
             <Parameters>
              <Parameter id="650"  name="interpolater">
               <Keyframes>
               <Keyframe id="651"  time="0/1" value="linr" leadInLength="0/1" />
               </Keyframes>
              </Parameter>
             </Parameters>
             <Keyframes>
             <Keyframe id="652"  time="-9999999/1" value="1" leadInLength="0/1" />
             <Keyframe id="653"  time="0/1" value="1.3428164909198217" leadInLength="30/1" interpolater="leadin-linr" />
             </Keyframes>
            </InterpolatingParam>
            <InterpolatingParam id="654"  >
             <Parameters>
              <Parameter id="655"  name="interpolater">
               <Keyframes>
               <Keyframe id="656"  time="0/1" value="linr" leadInLength="0/1" />
               </Keyframes>
              </Parameter>
             </Parameters>
             <Keyframes>
             <Keyframe id="657"  time="-9999999/1" value="1" leadInLength="0/1" />
             <Keyframe id="658"  time="0/1" value="0.99999999999999989" leadInLength="30/1" interpolater="leadin-linr" />
             </Keyframes>
            </InterpolatingParam>
           </VectorParam>
           <VectorParam id="659"  name="anchor">
            <InterpolatingParam id="660" interp="linr" value="0"  />
            <InterpolatingParam id="661" interp="linr" value="0"  />
            <InterpolatingParam id="662" interp="linr" value="0"  />
           </VectorParam>
          </Transformer>
          <Parameters>
           <VectorParam id="663"  name="sourceCrop">
            <InterpolatingParam id="664" interp="linr" value="0"  />
            <InterpolatingParam id="665" interp="linr" value="0"  />
            <InterpolatingParam id="666" interp="linr" value="0"  />
            <InterpolatingParam id="667" interp="linr" value="0"  />
           </VectorParam>
           <VectorParam id="668"  name="geometryCrop">
            <InterpolatingParam id="669" interp="linr" value="0"  />
            <InterpolatingParam id="670" interp="linr" value="0"  />
            <InterpolatingParam id="671" interp="linr" value="0"  />
            <InterpolatingParam id="672" interp="linr" value="0"  />
           </VectorParam>
           <InterpolatingParam id="673"  name="opacity">
            <Parameters>
             <Parameter id="674"  name="interpolater">
              <Keyframes>
              <Keyframe id="675"  time="0/1" value="linr" leadInLength="0/1" />
              </Keyframes>
             </Parameter>
            </Parameters>
            <Keyframes>
            <Keyframe id="676"  time="-9999999/1" value="1" leadInLength="0/1" />
            <Keyframe id="677"  time="0/1" value="1" leadInLength="30/1" interpolater="leadin-linr" />
            </Keyframes>
           </InterpolatingParam>
          </Parameters>
          <Attributes>
           <Attribute id="678" value="" name="ident"/>
          </Attributes>
          <ExtraData>
           <Entry key="ZoomPanBin">
            <ZoomPanBin id="679"  >
             <ZoomPanKeyframes>
              <ZoomPanKeyframe id="680" timeRangeStart="-9999999/1" timeRangeDuration="0/1"  />
              <ZoomPanKeyframe id="681" timeRangeStart="-30/1" timeRangeDuration="30/1"  />
             </ZoomPanKeyframes>
            </ZoomPanBin>
           </Entry>
          </ExtraData>
         </VMFile>
         <MetaData>
          <entry key="WinSubProjectDisplayName" val=""/>
         </MetaData>
        </UnifiedMedia>
        <UnifiedMedia id="682"  >
         <AMFile id="683" start="213" duration="94" scalar="121/91" mediaStart="859/1" mediaDuration="8554/121" trackNumber="1" src="4" channelNumber="0,1" >
          <Parameters>
           <InterpolatingParam id="684" interp="linr" value="1"  name="volume"/>
           <Parameter id="685"  name="captions"/>
          </Parameters>
          <Attributes>
           <Attribute id="686" value="" name="ident"/>
           <Attribute id="687" value="44100" name="sampleRate"/>
           <Attribute id="688" value="16" name="bitDepth"/>
           <Attribute id="689" value="1" name="gain"/>
          </Attributes>
         </AMFile>
         <VMFile id="690" start="213" duration="94" scalar="121/91" mediaStart="859/1" mediaDuration="8554/121" trackNumber="0" src="4" >
          <Transformer>
           <VectorParam id="691"  name="translation">
            <InterpolatingParam id="692"  >
             <Parameters>
              <Parameter id="693"  name="interpolater">
               <Keyframes>
               <Keyframe id="694"  time="0/1" value="linr" leadInLength="0/1" />
               </Keyframes>
              </Parameter>
             </Parameters>
             <Keyframes>
             <Keyframe id="695"  time="-9999999/1" value="0" leadInLength="0/1" />
             <Keyframe id="696"  time="108/121" value="233.89643881435987" leadInLength="3549/121" interpolater="leadin-linr" />
             </Keyframes>
            </InterpolatingParam>
            <InterpolatingParam id="697"  >
             <Parameters>
              <Parameter id="698"  name="interpolater">
               <Keyframes>
               <Keyframe id="699"  time="0/1" value="linr" leadInLength="0/1" />
               </Keyframes>
              </Parameter>
             </Parameters>
             <Keyframes>
             <Keyframe id="700"  time="-9999999/1" value="0" leadInLength="0/1" />
             <Keyframe id="701"  time="108/121" value="-5.5887911649183746" leadInLength="3549/121" interpolater="leadin-linr" />
             </Keyframes>
            </InterpolatingParam>
            <InterpolatingParam id="702"  >
             <Parameters>
              <Parameter id="703"  name="interpolater">
               <Keyframes>
               <Keyframe id="704"  time="0/1" value="linr" leadInLength="0/1" />
               </Keyframes>
              </Parameter>
             </Parameters>
             <Keyframes>
             <Keyframe id="705"  time="-9999999/1" value="0" leadInLength="0/1" />
             <Keyframe id="706"  time="108/121" value="0" leadInLength="3549/121" interpolater="leadin-linr" />
             </Keyframes>
            </InterpolatingParam>
           </VectorParam>
           <VectorParam id="707"  name="rotation">
            <InterpolatingParam id="708"  >
             <Parameters>
              <Parameter id="709"  name="interpolater">
               <Keyframes>
               <Keyframe id="710"  time="0/1" value="linr" leadInLength="0/1" />
               </Keyframes>
              </Parameter>
             </Parameters>
             <Keyframes>
             <Keyframe id="711"  time="-9999999/1" value="0" leadInLength="0/1" />
             <Keyframe id="712"  time="108/121" value="0" leadInLength="3549/121" interpolater="leadin-linr" />
             </Keyframes>
            </InterpolatingParam>
            <InterpolatingParam id="713"  >
             <Parameters>
              <Parameter id="714"  name="interpolater">
               <Keyframes>
               <Keyframe id="715"  time="0/1" value="linr" leadInLength="0/1" />
               </Keyframes>
              </Parameter>
             </Parameters>
             <Keyframes>
             <Keyframe id="716"  time="-9999999/1" value="0" leadInLength="0/1" />
             <Keyframe id="717"  time="108/121" value="0" leadInLength="3549/121" interpolater="leadin-linr" />
             </Keyframes>
            </InterpolatingParam>
            <InterpolatingParam id="718"  >
             <Parameters>
              <Parameter id="719"  name="interpolater">
               <Keyframes>
               <Keyframe id="720"  time="0/1" value="linr" leadInLength="0/1" />
               </Keyframes>
              </Parameter>
             </Parameters>
             <Keyframes>
             <Keyframe id="721"  time="-9999999/1" value="0" leadInLength="0/1" />
             <Keyframe id="722"  time="108/121" value="0" leadInLength="3549/121" interpolater="leadin-linr" />
             </Keyframes>
            </InterpolatingParam>
           </VectorParam>
           <VectorParam id="723"  name="shear">
            <InterpolatingParam id="724"  >
             <Parameters>
              <Parameter id="725"  name="interpolater">
               <Keyframes>
               <Keyframe id="726"  time="0/1" value="linr" leadInLength="0/1" />
               </Keyframes>
              </Parameter>
             </Parameters>
             <Keyframes>
             <Keyframe id="727"  time="-9999999/1" value="0" leadInLength="0/1" />
             <Keyframe id="728"  time="108/121" value="0" leadInLength="3549/121" interpolater="leadin-linr" />
             </Keyframes>
            </InterpolatingParam>
            <InterpolatingParam id="729"  >
             <Parameters>
              <Parameter id="730"  name="interpolater">
               <Keyframes>
               <Keyframe id="731"  time="0/1" value="linr" leadInLength="0/1" />
               </Keyframes>
              </Parameter>
             </Parameters>
             <Keyframes>
             <Keyframe id="732"  time="-9999999/1" value="0" leadInLength="0/1" />
             <Keyframe id="733"  time="108/121" value="0" leadInLength="3549/121" interpolater="leadin-linr" />
             </Keyframes>
            </InterpolatingParam>
            <InterpolatingParam id="734"  >
             <Parameters>
              <Parameter id="735"  name="interpolater">
               <Keyframes>
               <Keyframe id="736"  time="0/1" value="linr" leadInLength="0/1" />
               </Keyframes>
              </Parameter>
             </Parameters>
             <Keyframes>
             <Keyframe id="737"  time="-9999999/1" value="0" leadInLength="0/1" />
             <Keyframe id="738"  time="108/121" value="0" leadInLength="3549/121" interpolater="leadin-linr" />
             </Keyframes>
            </InterpolatingParam>
           </VectorParam>
           <VectorParam id="739"  name="scale">
            <InterpolatingParam id="740"  >
             <Parameters>
              <Parameter id="741"  name="interpolater">
               <Keyframes>
               <Keyframe id="742"  time="0/1" value="linr" leadInLength="0/1" />
               </Keyframes>
              </Parameter>
             </Parameters>
             <Keyframes>
             <Keyframe id="743"  time="-9999999/1" value="1" leadInLength="0/1" />
             <Keyframe id="744"  time="108/121" value="1.3428168900191493" leadInLength="3549/121" interpolater="leadin-linr" />
             </Keyframes>
            </InterpolatingParam>
            <InterpolatingParam id="745"  >
             <Parameters>
              <Parameter id="746"  name="interpolater">
               <Keyframes>
               <Keyframe id="747"  time="0/1" value="linr" leadInLength="0/1" />
               </Keyframes>
              </Parameter>
             </Parameters>
             <Keyframes>
             <Keyframe id="748"  time="-9999999/1" value="1" leadInLength="0/1" />
             <Keyframe id="749"  time="108/121" value="1.3428164909198217" leadInLength="3549/121" interpolater="leadin-linr" />
             </Keyframes>
            </InterpolatingParam>
            <InterpolatingParam id="750"  >
             <Parameters>
              <Parameter id="751"  name="interpolater">
               <Keyframes>
               <Keyframe id="752"  time="0/1" value="linr" leadInLength="0/1" />
               </Keyframes>
              </Parameter>
             </Parameters>
             <Keyframes>
             <Keyframe id="753"  time="-9999999/1" value="1" leadInLength="0/1" />
             <Keyframe id="754"  time="108/121" value="0.99999999999999989" leadInLength="3549/121" interpolater="leadin-linr" />
             </Keyframes>
            </InterpolatingParam>
           </VectorParam>
           <VectorParam id="755"  name="anchor">
            <InterpolatingParam id="756" interp="linr" value="0"  />
            <InterpolatingParam id="757" interp="linr" value="0"  />
            <InterpolatingParam id="758" interp="linr" value="0"  />
           </VectorParam>
          </Transformer>
          <Parameters>
           <VectorParam id="759"  name="sourceCrop">
            <InterpolatingParam id="760" interp="linr" value="0"  />
            <InterpolatingParam id="761" interp="linr" value="0"  />
            <InterpolatingParam id="762" interp="linr" value="0"  />
            <InterpolatingParam id="763" interp="linr" value="0"  />
           </VectorParam>
           <VectorParam id="764"  name="geometryCrop">
            <InterpolatingParam id="765" interp="linr" value="0"  />
            <InterpolatingParam id="766" interp="linr" value="0"  />
            <InterpolatingParam id="767" interp="linr" value="0"  />
            <InterpolatingParam id="768" interp="linr" value="0"  />
           </VectorParam>
           <InterpolatingParam id="769"  name="opacity">
            <Parameters>
             <Parameter id="770"  name="interpolater">
              <Keyframes>
              <Keyframe id="771"  time="0/1" value="linr" leadInLength="0/1" />
              </Keyframes>
             </Parameter>
            </Parameters>
            <Keyframes>
            <Keyframe id="772"  time="-9999999/1" value="1" leadInLength="0/1" />
            <Keyframe id="773"  time="108/121" value="1" leadInLength="3549/121" interpolater="leadin-linr" />
            </Keyframes>
           </InterpolatingParam>
          </Parameters>
          <Attributes>
           <Attribute id="774" value="" name="ident"/>
          </Attributes>
          <ExtraData>
           <Entry key="ZoomPanBin">
            <ZoomPanBin id="775"  >
             <ZoomPanKeyframes>
              <ZoomPanKeyframe id="776" timeRangeStart="-9999999/1" timeRangeDuration="0/1"  />
              <ZoomPanKeyframe id="777" timeRangeStart="-3441/121" timeRangeDuration="3549/121"  />
             </ZoomPanKeyframes>
            </ZoomPanBin>
           </Entry>
          </ExtraData>
         </VMFile>
         <MetaData>
          <entry key="WinSubProjectDisplayName" val=""/>
         </MetaData>
        </UnifiedMedia>
        <UnifiedMedia id="778"  >
         <AMFile id="779" start="307" duration="30" scalar="1/1" mediaStart="1116/1" mediaDuration="30/1" trackNumber="1" src="4" channelNumber="0,1" >
          <Parameters>
           <InterpolatingParam id="780" interp="linr" value="1"  name="volume"/>
           <Parameter id="781"  name="captions"/>
          </Parameters>
          <Attributes>
           <Attribute id="782" value="" name="ident"/>
           <Attribute id="783" value="44100" name="sampleRate"/>
           <Attribute id="784" value="16" name="bitDepth"/>
           <Attribute id="785" value="1" name="gain"/>
          </Attributes>
         </AMFile>
         <VMFile id="786" start="307" duration="30" scalar="1/1" mediaStart="1116/1" mediaDuration="30/1" trackNumber="0" src="4" >
          <Transformer>
           <VectorParam id="787"  name="translation">
            <InterpolatingParam id="788"  >
             <Parameters>
              <Parameter id="789"  name="interpolater">
               <Keyframes>
               <Keyframe id="790"  time="0/1" value="linr" leadInLength="0/1" />
               </Keyframes>
              </Parameter>
             </Parameters>
             <Keyframes>
             <Keyframe id="791"  time="-9999999/1" value="0" leadInLength="0/1" />
             <Keyframe id="792"  time="0/1" value="233.89643881435987" leadInLength="30/1" interpolater="leadin-linr" />
             </Keyframes>
            </InterpolatingParam>
            <InterpolatingParam id="793"  >
             <Parameters>
              <Parameter id="794"  name="interpolater">
               <Keyframes>
               <Keyframe id="795"  time="0/1" value="linr" leadInLength="0/1" />
               </Keyframes>
              </Parameter>
             </Parameters>
             <Keyframes>
             <Keyframe id="796"  time="-9999999/1" value="0" leadInLength="0/1" />
             <Keyframe id="797"  time="0/1" value="-5.5887911649183746" leadInLength="30/1" interpolater="leadin-linr" />
             </Keyframes>
            </InterpolatingParam>
            <InterpolatingParam id="798"  >
             <Parameters>
              <Parameter id="799"  name="interpolater">
               <Keyframes>
               <Keyframe id="800"  time="0/1" value="linr" leadInLength="0/1" />
               </Keyframes>
              </Parameter>
             </Parameters>
             <Keyframes>
             <Keyframe id="801"  time="-9999999/1" value="0" leadInLength="0/1" />
             <Keyframe id="802"  time="0/1" value="0" leadInLength="30/1" interpolater="leadin-linr" />
             </Keyframes>
            </InterpolatingParam>
           </VectorParam>
           <VectorParam id="803"  name="rotation">
            <InterpolatingParam id="804"  >
             <Parameters>
              <Parameter id="805"  name="interpolater">
               <Keyframes>
               <Keyframe id="806"  time="0/1" value="linr" leadInLength="0/1" />
               </Keyframes>
              </Parameter>
             </Parameters>
             <Keyframes>
             <Keyframe id="807"  time="-9999999/1" value="0" leadInLength="0/1" />
             <Keyframe id="808"  time="0/1" value="0" leadInLength="30/1" interpolater="leadin-linr" />
             </Keyframes>
            </InterpolatingParam>
            <InterpolatingParam id="809"  >
             <Parameters>
              <Parameter id="810"  name="interpolater">
               <Keyframes>
               <Keyframe id="811"  time="0/1" value="linr" leadInLength="0/1" />
               </Keyframes>
              </Parameter>
             </Parameters>
             <Keyframes>
             <Keyframe id="812"  time="-9999999/1" value="0" leadInLength="0/1" />
             <Keyframe id="813"  time="0/1" value="0" leadInLength="30/1" interpolater="leadin-linr" />
             </Keyframes>
            </InterpolatingParam>
            <InterpolatingParam id="814"  >
             <Parameters>
              <Parameter id="815"  name="interpolater">
               <Keyframes>
               <Keyframe id="816"  time="0/1" value="linr" leadInLength="0/1" />
               </Keyframes>
              </Parameter>
             </Parameters>
             <Keyframes>
             <Keyframe id="817"  time="-9999999/1" value="0" leadInLength="0/1" />
             <Keyframe id="818"  time="0/1" value="0" leadInLength="30/1" interpolater="leadin-linr" />
             </Keyframes>
            </InterpolatingParam>
           </VectorParam>
           <VectorParam id="819"  name="shear">
            <InterpolatingParam id="820"  >
             <Parameters>
              <Parameter id="821"  name="interpolater">
               <Keyframes>
               <Keyframe id="822"  time="0/1" value="linr" leadInLength="0/1" />
               </Keyframes>
              </Parameter>
             </Parameters>
             <Keyframes>
             <Keyframe id="823"  time="-9999999/1" value="0" leadInLength="0/1" />
             <Keyframe id="824"  time="0/1" value="0" leadInLength="30/1" interpolater="leadin-linr" />
             </Keyframes>
            </InterpolatingParam>
            <InterpolatingParam id="825"  >
             <Parameters>
              <Parameter id="826"  name="interpolater">
               <Keyframes>
               <Keyframe id="827"  time="0/1" value="linr" leadInLength="0/1" />
               </Keyframes>
              </Parameter>
             </Parameters>
             <Keyframes>
             <Keyframe id="828"  time="-9999999/1" value="0" leadInLength="0/1" />
             <Keyframe id="829"  time="0/1" value="0" leadInLength="30/1" interpolater="leadin-linr" />
             </Keyframes>
            </InterpolatingParam>
            <InterpolatingParam id="830"  >
             <Parameters>
              <Parameter id="831"  name="interpolater">
               <Keyframes>
               <Keyframe id="832"  time="0/1" value="linr" leadInLength="0/1" />
               </Keyframes>
              </Parameter>
             </Parameters>
             <Keyframes>
             <Keyframe id="833"  time="-9999999/1" value="0" leadInLength="0/1" />
             <Keyframe id="834"  time="0/1" value="0" leadInLength="30/1" interpolater="leadin-linr" />
             </Keyframes>
            </InterpolatingParam>
           </VectorParam>
           <VectorParam id="835"  name="scale">
            <InterpolatingParam id="836"  >
             <Parameters>
              <Parameter id="837"  name="interpolater">
               <Keyframes>
               <Keyframe id="838"  time="0/1" value="linr" leadInLength="0/1" />
               </Keyframes>
              </Parameter>
             </Parameters>
             <Keyframes>
             <Keyframe id="839"  time="-9999999/1" value="1" leadInLength="0/1" />
             <Keyframe id="840"  time="0/1" value="1.3428168900191493" leadInLength="30/1" interpolater="leadin-linr" />
             </Keyframes>
            </InterpolatingParam>
            <InterpolatingParam id="841"  >
             <Parameters>
              <Parameter id="842"  name="interpolater">
               <Keyframes>
               <Keyframe id="843"  time="0/1" value="linr" leadInLength="0/1" />
               </Keyframes>
              </Parameter>
             </Parameters>
             <Keyframes>
             <Keyframe id="844"  time="-9999999/1" value="1" leadInLength="0/1" />
             <Keyframe id="845"  time="0/1" value="1.3428164909198217" leadInLength="30/1" interpolater="leadin-linr" />
             </Keyframes>
            </InterpolatingParam>
            <InterpolatingParam id="846"  >
             <Parameters>
              <Parameter id="847"  name="interpolater">
               <Keyframes>
               <Keyframe id="848"  time="0/1" value="linr" leadInLength="0/1" />
               </Keyframes>
              </Parameter>
             </Parameters>
             <Keyframes>
             <Keyframe id="849"  time="-9999999/1" value="1" leadInLength="0/1" />
             <Keyframe id="850"  time="0/1" value="0.99999999999999989" leadInLength="30/1" interpolater="leadin-linr" />
             </Keyframes>
            </InterpolatingParam>
           </VectorParam>
           <VectorParam id="851"  name="anchor">
            <InterpolatingParam id="852" interp="linr" value="0"  />
            <InterpolatingParam id="853" interp="linr" value="0"  />
            <InterpolatingParam id="854" interp="linr" value="0"  />
           </VectorParam>
          </Transformer>
          <Parameters>
           <VectorParam id="855"  name="sourceCrop">
            <InterpolatingParam id="856" interp="linr" value="0"  />
            <InterpolatingParam id="857" interp="linr" value="0"  />
            <InterpolatingParam id="858" interp="linr" value="0"  />
            <InterpolatingParam id="859" interp="linr" value="0"  />
           </VectorParam>
           <VectorParam id="860"  name="geometryCrop">
            <InterpolatingParam id="861" interp="linr" value="0"  />
            <InterpolatingParam id="862" interp="linr" value="0"  />
            <InterpolatingParam id="863" interp="linr" value="0"  />
            <InterpolatingParam id="864" interp="linr" value="0"  />
           </VectorParam>
           <InterpolatingParam id="865"  name="opacity">
            <Parameters>
             <Parameter id="866"  name="interpolater">
              <Keyframes>
              <Keyframe id="867"  time="0/1" value="linr" leadInLength="0/1" />
              </Keyframes>
             </Parameter>
            </Parameters>
            <Keyframes>
            <Keyframe id="868"  time="-9999999/1" value="1" leadInLength="0/1" />
            <Keyframe id="869"  time="0/1" value="1" leadInLength="30/1" interpolater="leadin-linr" />
            </Keyframes>
           </InterpolatingParam>
          </Parameters>
          <Attributes>
           <Attribute id="870" value="" name="ident"/>
          </Attributes>
          <ExtraData>
           <Entry key="ZoomPanBin">
            <ZoomPanBin id="871"  >
             <ZoomPanKeyframes>
              <ZoomPanKeyframe id="872" timeRangeStart="-9999999/1" timeRangeDuration="0/1"  />
              <ZoomPanKeyframe id="873" timeRangeStart="-30/1" timeRangeDuration="30/1"  />
             </ZoomPanKeyframes>
            </ZoomPanBin>
           </Entry>
          </ExtraData>
         </VMFile>
         <MetaData>
          <entry key="WinSubProjectDisplayName" val=""/>
         </MetaData>
        </UnifiedMedia>
        <UnifiedMedia id="874"  >
         <AMFile id="875" start="337" duration="25" scalar="1/1" mediaStart="1401/1" mediaDuration="25/1" trackNumber="1" src="4" channelNumber="0,1" >
          <Parameters>
           <InterpolatingParam id="876" interp="linr" value="1"  name="volume"/>
           <Parameter id="877"  name="captions"/>
          </Parameters>
          <Attributes>
           <Attribute id="878" value="" name="ident"/>
           <Attribute id="879" value="44100" name="sampleRate"/>
           <Attribute id="880" value="16" name="bitDepth"/>
           <Attribute id="881" value="1" name="gain"/>
          </Attributes>
         </AMFile>
         <VMFile id="882" start="337" duration="25" scalar="1/1" mediaStart="1401/1" mediaDuration="25/1" trackNumber="0" src="4" >
          <Transformer>
           <VectorParam id="883"  name="translation">
            <InterpolatingParam id="884"  >
             <Parameters>
              <Parameter id="885"  name="interpolater">
               <Keyframes>
               <Keyframe id="886"  time="0/1" value="linr" leadInLength="0/1" />
               </Keyframes>
              </Parameter>
             </Parameters>
             <Keyframes>
             <Keyframe id="887"  time="-9999999/1" value="0" leadInLength="0/1" />
             <Keyframe id="888"  time="0/1" value="233.89643881435987" leadInLength="30/1" interpolater="leadin-linr" />
             </Keyframes>
            </InterpolatingParam>
            <InterpolatingParam id="889"  >
             <Parameters>
              <Parameter id="890"  name="interpolater">
               <Keyframes>
               <Keyframe id="891"  time="0/1" value="linr" leadInLength="0/1" />
               </Keyframes>
              </Parameter>
             </Parameters>
             <Keyframes>
             <Keyframe id="892"  time="-9999999/1" value="0" leadInLength="0/1" />
             <Keyframe id="893"  time="0/1" value="-5.5887911649183746" leadInLength="30/1" interpolater="leadin-linr" />
             </Keyframes>
            </InterpolatingParam>
            <InterpolatingParam id="894"  >
             <Parameters>
              <Parameter id="895"  name="interpolater">
               <Keyframes>
               <Keyframe id="896"  time="0/1" value="linr" leadInLength="0/1" />
               </Keyframes>
              </Parameter>
             </Parameters>
             <Keyframes>
             <Keyframe id="897"  time="-9999999/1" value="0" leadInLength="0/1" />
             <Keyframe id="898"  time="0/1" value="0" leadInLength="30/1" interpolater="leadin-linr" />
             </Keyframes>
            </InterpolatingParam>
           </VectorParam>
           <VectorParam id="899"  name="rotation">
            <InterpolatingParam id="900"  >
             <Parameters>
              <Parameter id="901"  name="interpolater">
               <Keyframes>
               <Keyframe id="902"  time="0/1" value="linr" leadInLength="0/1" />
               </Keyframes>
              </Parameter>
             </Parameters>
             <Keyframes>
             <Keyframe id="903"  time="-9999999/1" value="0" leadInLength="0/1" />
             <Keyframe id="904"  time="0/1" value="0" leadInLength="30/1" interpolater="leadin-linr" />
             </Keyframes>
            </InterpolatingParam>
            <InterpolatingParam id="905"  >
             <Parameters>
              <Parameter id="906"  name="interpolater">
               <Keyframes>
               <Keyframe id="907"  time="0/1" value="linr" leadInLength="0/1" />
               </Keyframes>
              </Parameter>
             </Parameters>
             <Keyframes>
             <Keyframe id="908"  time="-9999999/1" value="0" leadInLength="0/1" />
             <Keyframe id="909"  time="0/1" value="0" leadInLength="30/1" interpolater="leadin-linr" />
             </Keyframes>
            </InterpolatingParam>
            <InterpolatingParam id="910"  >
             <Parameters>
              <Parameter id="911"  name="interpolater">
               <Keyframes>
               <Keyframe id="912"  time="0/1" value="linr" leadInLength="0/1" />
               </Keyframes>
              </Parameter>
             </Parameters>
             <Keyframes>
             <Keyframe id="913"  time="-9999999/1" value="0" leadInLength="0/1" />
             <Keyframe id="914"  time="0/1" value="0" leadInLength="30/1" interpolater="leadin-linr" />
             </Keyframes>
            </InterpolatingParam>
           </VectorParam>
           <VectorParam id="915"  name="shear">
            <InterpolatingParam id="916"  >
             <Parameters>
              <Parameter id="917"  name="interpolater">
               <Keyframes>
               <Keyframe id="918"  time="0/1" value="linr" leadInLength="0/1" />
               </Keyframes>
              </Parameter>
             </Parameters>
             <Keyframes>
             <Keyframe id="919"  time="-9999999/1" value="0" leadInLength="0/1" />
             <Keyframe id="920"  time="0/1" value="0" leadInLength="30/1" interpolater="leadin-linr" />
             </Keyframes>
            </InterpolatingParam>
            <InterpolatingParam id="921"  >
             <Parameters>
              <Parameter id="922"  name="interpolater">
               <Keyframes>
               <Keyframe id="923"  time="0/1" value="linr" leadInLength="0/1" />
               </Keyframes>
              </Parameter>
             </Parameters>
             <Keyframes>
             <Keyframe id="924"  time="-9999999/1" value="0" leadInLength="0/1" />
             <Keyframe id="925"  time="0/1" value="0" leadInLength="30/1" interpolater="leadin-linr" />
             </Keyframes>
            </InterpolatingParam>
            <InterpolatingParam id="926"  >
             <Parameters>
              <Parameter id="927"  name="interpolater">
               <Keyframes>
               <Keyframe id="928"  time="0/1" value="linr" leadInLength="0/1" />
               </Keyframes>
              </Parameter>
             </Parameters>
             <Keyframes>
             <Keyframe id="929"  time="-9999999/1" value="0" leadInLength="0/1" />
             <Keyframe id="930"  time="0/1" value="0" leadInLength="30/1" interpolater="leadin-linr" />
             </Keyframes>
            </InterpolatingParam>
           </VectorParam>
           <VectorParam id="931"  name="scale">
            <InterpolatingParam id="932"  >
             <Parameters>
              <Parameter id="933"  name="interpolater">
               <Keyframes>
               <Keyframe id="934"  time="0/1" value="linr" leadInLength="0/1" />
               </Keyframes>
              </Parameter>
             </Parameters>
             <Keyframes>
             <Keyframe id="935"  time="-9999999/1" value="1" leadInLength="0/1" />
             <Keyframe id="936"  time="0/1" value="1.3428168900191493" leadInLength="30/1" interpolater="leadin-linr" />
             </Keyframes>
            </InterpolatingParam>
            <InterpolatingParam id="937"  >
             <Parameters>
              <Parameter id="938"  name="interpolater">
               <Keyframes>
               <Keyframe id="939"  time="0/1" value="linr" leadInLength="0/1" />
               </Keyframes>
              </Parameter>
             </Parameters>
             <Keyframes>
             <Keyframe id="940"  time="-9999999/1" value="1" leadInLength="0/1" />
             <Keyframe id="941"  time="0/1" value="1.3428164909198217" leadInLength="30/1" interpolater="leadin-linr" />
             </Keyframes>
            </InterpolatingParam>
            <InterpolatingParam id="942"  >
             <Parameters>
              <Parameter id="943"  name="interpolater">
               <Keyframes>
               <Keyframe id="944"  time="0/1" value="linr" leadInLength="0/1" />
               </Keyframes>
              </Parameter>
             </Parameters>
             <Keyframes>
             <Keyframe id="945"  time="-9999999/1" value="1" leadInLength="0/1" />
             <Keyframe id="946"  time="0/1" value="0.99999999999999989" leadInLength="30/1" interpolater="leadin-linr" />
             </Keyframes>
            </InterpolatingParam>
           </VectorParam>
           <VectorParam id="947"  name="anchor">
            <InterpolatingParam id="948" interp="linr" value="0"  />
            <InterpolatingParam id="949" interp="linr" value="0"  />
            <InterpolatingParam id="950" interp="linr" value="0"  />
           </VectorParam>
          </Transformer>
          <Parameters>
           <VectorParam id="951"  name="sourceCrop">
            <InterpolatingParam id="952" interp="linr" value="0"  />
            <InterpolatingParam id="953" interp="linr" value="0"  />
            <InterpolatingParam id="954" interp="linr" value="0"  />
            <InterpolatingParam id="955" interp="linr" value="0"  />
           </VectorParam>
           <VectorParam id="956"  name="geometryCrop">
            <InterpolatingParam id="957" interp="linr" value="0"  />
            <InterpolatingParam id="958" interp="linr" value="0"  />
            <InterpolatingParam id="959" interp="linr" value="0"  />
            <InterpolatingParam id="960" interp="linr" value="0"  />
           </VectorParam>
           <InterpolatingParam id="961"  name="opacity">
            <Parameters>
             <Parameter id="962"  name="interpolater">
              <Keyframes>
              <Keyframe id="963"  time="0/1" value="linr" leadInLength="0/1" />
              </Keyframes>
             </Parameter>
            </Parameters>
            <Keyframes>
            <Keyframe id="964"  time="-9999999/1" value="1" leadInLength="0/1" />
            <Keyframe id="965"  time="0/1" value="1" leadInLength="30/1" interpolater="leadin-linr" />
            </Keyframes>
           </InterpolatingParam>
          </Parameters>
          <Attributes>
           <Attribute id="966" value="" name="ident"/>
          </Attributes>
          <ExtraData>
           <Entry key="ZoomPanBin">
            <ZoomPanBin id="967"  >
             <ZoomPanKeyframes>
              <ZoomPanKeyframe id="968" timeRangeStart="-9999999/1" timeRangeDuration="0/1"  />
              <ZoomPanKeyframe id="969" timeRangeStart="-30/1" timeRangeDuration="30/1"  />
             </ZoomPanKeyframes>
            </ZoomPanBin>
           </Entry>
          </ExtraData>
         </VMFile>
         <MetaData>
          <entry key="WinSubProjectDisplayName" val=""/>
         </MetaData>
        </UnifiedMedia>
        <UnifiedMedia id="970"  >
         <AMFile id="971" start="362" duration="53" scalar="1/3" mediaStart="1567/1" mediaDuration="159/1" trackNumber="1" src="4" channelNumber="0,1" >
          <Parameters>
           <InterpolatingParam id="972" interp="linr" value="1"  name="volume"/>
           <Parameter id="973"  name="captions"/>
          </Parameters>
          <Attributes>
           <Attribute id="974" value="" name="ident"/>
           <Attribute id="975" value="44100" name="sampleRate"/>
           <Attribute id="976" value="16" name="bitDepth"/>
           <Attribute id="977" value="1" name="gain"/>
          </Attributes>
         </AMFile>
         <VMFile id="978" start="362" duration="53" scalar="1/3" mediaStart="1567/1" mediaDuration="159/1" trackNumber="0" src="4" >
          <Transformer>
           <VectorParam id="979"  name="translation">
            <InterpolatingParam id="980"  >
             <Parameters>
              <Parameter id="981"  name="interpolater">
               <Keyframes>
               <Keyframe id="982"  time="0/1" value="linr" leadInLength="0/1" />
               </Keyframes>
              </Parameter>
             </Parameters>
             <Keyframes>
             <Keyframe id="983"  time="-9999999/1" value="0" leadInLength="0/1" />
             <Keyframe id="984"  time="4/1" value="233.89643881435987" leadInLength="30/1" interpolater="leadin-linr" />
             </Keyframes>
            </InterpolatingParam>
            <InterpolatingParam id="985"  >
             <Parameters>
              <Parameter id="986"  name="interpolater">
               <Keyframes>
               <Keyframe id="987"  time="0/1" value="linr" leadInLength="0/1" />
               </Keyframes>
              </Parameter>
             </Parameters>
             <Keyframes>
             <Keyframe id="988"  time="-9999999/1" value="0" leadInLength="0/1" />
             <Keyframe id="989"  time="4/1" value="-5.5887911649183746" leadInLength="30/1" interpolater="leadin-linr" />
             </Keyframes>
            </InterpolatingParam>
            <InterpolatingParam id="990"  >
             <Parameters>
              <Parameter id="991"  name="interpolater">
               <Keyframes>
               <Keyframe id="992"  time="0/1" value="linr" leadInLength="0/1" />
               </Keyframes>
              </Parameter>
             </Parameters>
             <Keyframes>
             <Keyframe id="993"  time="-9999999/1" value="0" leadInLength="0/1" />
             <Keyframe id="994"  time="4/1" value="0" leadInLength="30/1" interpolater="leadin-linr" />
             </Keyframes>
            </InterpolatingParam>
           </VectorParam>
           <VectorParam id="995"  name="rotation">
            <InterpolatingParam id="996"  >
             <Parameters>
              <Parameter id="997"  name="interpolater">
               <Keyframes>
               <Keyframe id="998"  time="0/1" value="linr" leadInLength="0/1" />
               </Keyframes>
              </Parameter>
             </Parameters>
             <Keyframes>
             <Keyframe id="999"  time="-9999999/1" value="0" leadInLength="0/1" />
             <Keyframe id="1000"  time="4/1" value="0" leadInLength="30/1" interpolater="leadin-linr" />
             </Keyframes>
            </InterpolatingParam>
            <InterpolatingParam id="1001"  >
             <Parameters>
              <Parameter id="1002"  name="interpolater">
               <Keyframes>
               <Keyframe id="1003"  time="0/1" value="linr" leadInLength="0/1" />
               </Keyframes>
              </Parameter>
             </Parameters>
             <Keyframes>
             <Keyframe id="1004"  time="-9999999/1" value="0" leadInLength="0/1" />
             <Keyframe id="1005"  time="4/1" value="0" leadInLength="30/1" interpolater="leadin-linr" />
             </Keyframes>
            </InterpolatingParam>
            <InterpolatingParam id="1006"  >
             <Parameters>
              <Parameter id="1007"  name="interpolater">
               <Keyframes>
               <Keyframe id="1008"  time="0/1" value="linr" leadInLength="0/1" />
               </Keyframes>
              </Parameter>
             </Parameters>
             <Keyframes>
             <Keyframe id="1009"  time="-9999999/1" value="0" leadInLength="0/1" />
             <Keyframe id="1010"  time="4/1" value="0" leadInLength="30/1" interpolater="leadin-linr" />
             </Keyframes>
            </InterpolatingParam>
           </VectorParam>
           <VectorParam id="1011"  name="shear">
            <InterpolatingParam id="1012"  >
             <Parameters>
              <Parameter id="1013"  name="interpolater">
               <Keyframes>
               <Keyframe id="1014"  time="0/1" value="linr" leadInLength="0/1" />
               </Keyframes>
              </Parameter>
             </Parameters>
             <Keyframes>
             <Keyframe id="1015"  time="-9999999/1" value="0" leadInLength="0/1" />
             <Keyframe id="1016"  time="4/1" value="0" leadInLength="30/1" interpolater="leadin-linr" />
             </Keyframes>
            </InterpolatingParam>
            <InterpolatingParam id="1017"  >
             <Parameters>
              <Parameter id="1018"  name="interpolater">
               <Keyframes>
               <Keyframe id="1019"  time="0/1" value="linr" leadInLength="0/1" />
               </Keyframes>
              </Parameter>
             </Parameters>
             <Keyframes>
             <Keyframe id="1020"  time="-9999999/1" value="0" leadInLength="0/1" />
             <Keyframe id="1021"  time="4/1" value="0" leadInLength="30/1" interpolater="leadin-linr" />
             </Keyframes>
            </InterpolatingParam>
            <InterpolatingParam id="1022"  >
             <Parameters>
              <Parameter id="1023"  name="interpolater">
               <Keyframes>
               <Keyframe id="1024"  time="0/1" value="linr" leadInLength="0/1" />
               </Keyframes>
              </Parameter>
             </Parameters>
             <Keyframes>
             <Keyframe id="1025"  time="-9999999/1" value="0" leadInLength="0/1" />
             <Keyframe id="1026"  time="4/1" value="0" leadInLength="30/1" interpolater="leadin-linr" />
             </Keyframes>
            </InterpolatingParam>
           </VectorParam>
           <VectorParam id="1027"  name="scale">
            <InterpolatingParam id="1028"  >
             <Parameters>
              <Parameter id="1029"  name="interpolater">
               <Keyframes>
               <Keyframe id="1030"  time="0/1" value="linr" leadInLength="0/1" />
               </Keyframes>
              </Parameter>
             </Parameters>
             <Keyframes>
             <Keyframe id="1031"  time="-9999999/1" value="1" leadInLength="0/1" />
             <Keyframe id="1032"  time="4/1" value="1.3428168900191493" leadInLength="30/1" interpolater="leadin-linr" />
             </Keyframes>
            </InterpolatingParam>
            <InterpolatingParam id="1033"  >
             <Parameters>
              <Parameter id="1034"  name="interpolater">
               <Keyframes>
               <Keyframe id="1035"  time="0/1" value="linr" leadInLength="0/1" />
               </Keyframes>
              </Parameter>
             </Parameters>
             <Keyframes>
             <Keyframe id="1036"  time="-9999999/1" value="1" leadInLength="0/1" />
             <Keyframe id="1037"  time="4/1" value="1.3428164909198217" leadInLength="30/1" interpolater="leadin-linr" />
             </Keyframes>
            </InterpolatingParam>
            <InterpolatingParam id="1038"  >
             <Parameters>
              <Parameter id="1039"  name="interpolater">
               <Keyframes>
               <Keyframe id="1040"  time="0/1" value="linr" leadInLength="0/1" />
               </Keyframes>
              </Parameter>
             </Parameters>
             <Keyframes>
             <Keyframe id="1041"  time="-9999999/1" value="1" leadInLength="0/1" />
             <Keyframe id="1042"  time="4/1" value="0.99999999999999989" leadInLength="30/1" interpolater="leadin-linr" />
             </Keyframes>
            </InterpolatingParam>
           </VectorParam>
           <VectorParam id="1043"  name="anchor">
            <InterpolatingParam id="1044" interp="linr" value="0"  />
            <InterpolatingParam id="1045" interp="linr" value="0"  />
            <InterpolatingParam id="1046" interp="linr" value="0"  />
           </VectorParam>
          </Transformer>
          <Parameters>
           <VectorParam id="1047"  name="sourceCrop">
            <InterpolatingParam id="1048" interp="linr" value="0"  />
            <InterpolatingParam id="1049" interp="linr" value="0"  />
            <InterpolatingParam id="1050" interp="linr" value="0"  />
            <InterpolatingParam id="1051" interp="linr" value="0"  />
           </VectorParam>
           <VectorParam id="1052"  name="geometryCrop">
            <InterpolatingParam id="1053" interp="linr" value="0"  />
            <InterpolatingParam id="1054" interp="linr" value="0"  />
            <InterpolatingParam id="1055" interp="linr" value="0"  />
            <InterpolatingParam id="1056" interp="linr" value="0"  />
           </VectorParam>
           <InterpolatingParam id="1057"  name="opacity">
            <Parameters>
             <Parameter id="1058"  name="interpolater">
              <Keyframes>
              <Keyframe id="1059"  time="0/1" value="linr" leadInLength="0/1" />
              </Keyframes>
             </Parameter>
            </Parameters>
            <Keyframes>
            <Keyframe id="1060"  time="-9999999/1" value="1" leadInLength="0/1" />
            <Keyframe id="1061"  time="4/1" value="1" leadInLength="30/1" interpolater="leadin-linr" />
            </Keyframes>
           </InterpolatingParam>
          </Parameters>
          <Attributes>
           <Attribute id="1062" value="" name="ident"/>
          </Attributes>
          <ExtraData>
           <Entry key="ZoomPanBin">
            <ZoomPanBin id="1063"  >
             <ZoomPanKeyframes>
              <ZoomPanKeyframe id="1064" timeRangeStart="-9999999/1" timeRangeDuration="0/1"  />
              <ZoomPanKeyframe id="1065" timeRangeStart="-26/1" timeRangeDuration="30/1"  />
             </ZoomPanKeyframes>
            </ZoomPanBin>
           </Entry>
          </ExtraData>
         </VMFile>
         <MetaData>
          <entry key="WinSubProjectDisplayName" val=""/>
         </MetaData>
        </UnifiedMedia>
        <UnifiedMedia id="1066"  >
         <AMFile id="1067" start="415" duration="21" scalar="1/1" mediaStart="1791/1" mediaDuration="21/1" trackNumber="1" src="4" channelNumber="0,1" >
          <Parameters>
           <InterpolatingParam id="1068" interp="linr" value="1"  name="volume"/>
           <Parameter id="1069"  name="captions"/>
          </Parameters>
          <Attributes>
           <Attribute id="1070" value="" name="ident"/>
           <Attribute id="1071" value="44100" name="sampleRate"/>
           <Attribute id="1072" value="16" name="bitDepth"/>
           <Attribute id="1073" value="1" name="gain"/>
          </Attributes>
         </AMFile>
         <VMFile id="1074" start="415" duration="21" scalar="1/1" mediaStart="1791/1" mediaDuration="21/1" trackNumber="0" src="4" >
          <Transformer>
           <VectorParam id="1075"  name="translation">
            <InterpolatingParam id="1076"  >
             <Parameters>
              <Parameter id="1077"  name="interpolater">
               <Keyframes>
               <Keyframe id="1078"  time="0/1" value="linr" leadInLength="0/1" />
               </Keyframes>
              </Parameter>
             </Parameters>
             <Keyframes>
             <Keyframe id="1079"  time="-9999999/1" value="0" leadInLength="0/1" />
             <Keyframe id="1080"  time="0/1" value="235.8113324313893" leadInLength="30/1" interpolater="leadin-linr" />
             </Keyframes>
            </InterpolatingParam>
            <InterpolatingParam id="1081"  >
             <Parameters>
              <Parameter id="1082"  name="interpolater">
               <Keyframes>
               <Keyframe id="1083"  time="0/1" value="linr" leadInLength="0/1" />
               </Keyframes>
              </Parameter>
             </Parameters>
             <Keyframes>
             <Keyframe id="1084"  time="-9999999/1" value="0" leadInLength="0/1" />
             <Keyframe id="1085"  time="0/1" value="-5.5887911649183746" leadInLength="30/1" interpolater="leadin-linr" />
             </Keyframes>
            </InterpolatingParam>
            <InterpolatingParam id="1086"  >
             <Parameters>
              <Parameter id="1087"  name="interpolater">
               <Keyframes>
               <Keyframe id="1088"  time="0/1" value="linr" leadInLength="0/1" />
               </Keyframes>
              </Parameter>
             </Parameters>
             <Keyframes>
             <Keyframe id="1089"  time="-9999999/1" value="0" leadInLength="0/1" />
             <Keyframe id="1090"  time="0/1" value="0" leadInLength="30/1" interpolater="leadin-linr" />
             </Keyframes>
            </InterpolatingParam>
           </VectorParam>
           <VectorParam id="1091"  name="rotation">
            <InterpolatingParam id="1092"  >
             <Parameters>
              <Parameter id="1093"  name="interpolater">
               <Keyframes>
               <Keyframe id="1094"  time="0/1" value="linr" leadInLength="0/1" />
               </Keyframes>
              </Parameter>
             </Parameters>
             <Keyframes>
             <Keyframe id="1095"  time="-9999999/1" value="0" leadInLength="0/1" />
             <Keyframe id="1096"  time="0/1" value="0" leadInLength="30/1" interpolater="leadin-linr" />
             </Keyframes>
            </InterpolatingParam>
            <InterpolatingParam id="1097"  >
             <Parameters>
              <Parameter id="1098"  name="interpolater">
               <Keyframes>
               <Keyframe id="1099"  time="0/1" value="linr" leadInLength="0/1" />
               </Keyframes>
              </Parameter>
             </Parameters>
             <Keyframes>
             <Keyframe id="1100"  time="-9999999/1" value="0" leadInLength="0/1" />
             <Keyframe id="1101"  time="0/1" value="0" leadInLength="30/1" interpolater="leadin-linr" />
             </Keyframes>
            </InterpolatingParam>
            <InterpolatingParam id="1102"  >
             <Parameters>
              <Parameter id="1103"  name="interpolater">
               <Keyframes>
               <Keyframe id="1104"  time="0/1" value="linr" leadInLength="0/1" />
               </Keyframes>
              </Parameter>
             </Parameters>
             <Keyframes>
             <Keyframe id="1105"  time="-9999999/1" value="0" leadInLength="0/1" />
             <Keyframe id="1106"  time="0/1" value="0" leadInLength="30/1" interpolater="leadin-linr" />
             </Keyframes>
            </InterpolatingParam>
           </VectorParam>
           <VectorParam id="1107"  name="shear">
            <InterpolatingParam id="1108"  >
             <Parameters>
              <Parameter id="1109"  name="interpolater">
               <Keyframes>
               <Keyframe id="1110"  time="0/1" value="linr" leadInLength="0/1" />
               </Keyframes>
              </Parameter>
             </Parameters>
             <Keyframes>
             <Keyframe id="1111"  time="-9999999/1" value="0" leadInLength="0/1" />
             <Keyframe id="1112"  time="0/1" value="0" leadInLength="30/1" interpolater="leadin-linr" />
             </Keyframes>
            </InterpolatingParam>
            <InterpolatingParam id="1113"  >
             <Parameters>
              <Parameter id="1114"  name="interpolater">
               <Keyframes>
               <Keyframe id="1115"  time="0/1" value="linr" leadInLength="0/1" />
               </Keyframes>
              </Parameter>
             </Parameters>
             <Keyframes>
             <Keyframe id="1116"  time="-9999999/1" value="0" leadInLength="0/1" />
             <Keyframe id="1117"  time="0/1" value="0" leadInLength="30/1" interpolater="leadin-linr" />
             </Keyframes>
            </InterpolatingParam>
            <InterpolatingParam id="1118"  >
             <Parameters>
              <Parameter id="1119"  name="interpolater">
               <Keyframes>
               <Keyframe id="1120"  time="0/1" value="linr" leadInLength="0/1" />
               </Keyframes>
              </Parameter>
             </Parameters>
             <Keyframes>
             <Keyframe id="1121"  time="-9999999/1" value="0" leadInLength="0/1" />
             <Keyframe id="1122"  time="0/1" value="0" leadInLength="30/1" interpolater="leadin-linr" />
             </Keyframes>
            </InterpolatingParam>
           </VectorParam>
           <VectorParam id="1123"  name="scale">
            <InterpolatingParam id="1124"  >
             <Parameters>
              <Parameter id="1125"  name="interpolater">
               <Keyframes>
               <Keyframe id="1126"  time="0/1" value="linr" leadInLength="0/1" />
               </Keyframes>
              </Parameter>
             </Parameters>
             <Keyframes>
             <Keyframe id="1127"  time="-9999999/1" value="1" leadInLength="0/1" />
             <Keyframe id="1128"  time="0/1" value="1.3428168900191493" leadInLength="30/1" interpolater="leadin-linr" />
             </Keyframes>
            </InterpolatingParam>
            <InterpolatingParam id="1129"  >
             <Parameters>
              <Parameter id="1130"  name="interpolater">
               <Keyframes>
               <Keyframe id="1131"  time="0/1" value="linr" leadInLength="0/1" />
               </Keyframes>
              </Parameter>
             </Parameters>
             <Keyframes>
             <Keyframe id="1132"  time="-9999999/1" value="1" leadInLength="0/1" />
             <Keyframe id="1133"  time="0/1" value="1.3428164909198217" leadInLength="30/1" interpolater="leadin-linr" />
             </Keyframes>
            </InterpolatingParam>
            <InterpolatingParam id="1134"  >
             <Parameters>
              <Parameter id="1135"  name="interpolater">
               <Keyframes>
               <Keyframe id="1136"  time="0/1" value="linr" leadInLength="0/1" />
               </Keyframes>
              </Parameter>
             </Parameters>
             <Keyframes>
             <Keyframe id="1137"  time="-9999999/1" value="1" leadInLength="0/1" />
             <Keyframe id="1138"  time="0/1" value="0.99999999999999989" leadInLength="30/1" interpolater="leadin-linr" />
             </Keyframes>
            </InterpolatingParam>
           </VectorParam>
           <VectorParam id="1139"  name="anchor">
            <InterpolatingParam id="1140" interp="linr" value="0"  />
            <InterpolatingParam id="1141" interp="linr" value="0"  />
            <InterpolatingParam id="1142" interp="linr" value="0"  />
           </VectorParam>
          </Transformer>
          <Parameters>
           <VectorParam id="1143"  name="sourceCrop">
            <InterpolatingParam id="1144" interp="linr" value="0"  />
            <InterpolatingParam id="1145" interp="linr" value="0"  />
            <InterpolatingParam id="1146" interp="linr" value="0"  />
            <InterpolatingParam id="1147" interp="linr" value="0"  />
           </VectorParam>
           <VectorParam id="1148"  name="geometryCrop">
            <InterpolatingParam id="1149" interp="linr" value="0"  />
            <InterpolatingParam id="1150" interp="linr" value="0"  />
            <InterpolatingParam id="1151" interp="linr" value="0"  />
            <InterpolatingParam id="1152" interp="linr" value="0"  />
           </VectorParam>
           <InterpolatingParam id="1153"  name="opacity">
            <Parameters>
             <Parameter id="1154"  name="interpolater">
              <Keyframes>
              <Keyframe id="1155"  time="0/1" value="linr" leadInLength="0/1" />
              </Keyframes>
             </Parameter>
            </Parameters>
            <Keyframes>
            <Keyframe id="1156"  time="-9999999/1" value="1" leadInLength="0/1" />
            <Keyframe id="1157"  time="0/1" value="1" leadInLength="30/1" interpolater="leadin-linr" />
            </Keyframes>
           </InterpolatingParam>
          </Parameters>
          <Attributes>
           <Attribute id="1158" value="" name="ident"/>
          </Attributes>
          <ExtraData>
           <Entry key="ZoomPanBin">
            <ZoomPanBin id="1159"  >
             <ZoomPanKeyframes>
              <ZoomPanKeyframe id="1160" timeRangeStart="-9999999/1" timeRangeDuration="0/1"  />
              <ZoomPanKeyframe id="1161" timeRangeStart="-30/1" timeRangeDuration="30/1"  />
             </ZoomPanKeyframes>
            </ZoomPanBin>
           </Entry>
          </ExtraData>
         </VMFile>
         <MetaData>
          <entry key="WinSubProjectDisplayName" val=""/>
         </MetaData>
        </UnifiedMedia>
        <UnifiedMedia id="1162"  >
         <AMFile id="1163" start="436" duration="57" scalar="1/1" mediaStart="1995/1" mediaDuration="57/1" trackNumber="1" src="4" channelNumber="0,1" >
          <Parameters>
           <InterpolatingParam id="1164" interp="linr" value="1"  name="volume"/>
           <Parameter id="1165"  name="captions"/>
          </Parameters>
          <Attributes>
           <Attribute id="1166" value="" name="ident"/>
           <Attribute id="1167" value="44100" name="sampleRate"/>
           <Attribute id="1168" value="16" name="bitDepth"/>
           <Attribute id="1169" value="1" name="gain"/>
          </Attributes>
         </AMFile>
         <VMFile id="1170" start="436" duration="57" scalar="1/1" mediaStart="1995/1" mediaDuration="57/1" trackNumber="0" src="4" >
          <Transformer>
           <VectorParam id="1171"  name="translation">
            <InterpolatingParam id="1172"  >
             <Parameters>
              <Parameter id="1173"  name="interpolater">
               <Keyframes>
               <Keyframe id="1174"  time="0/1" value="linr" leadInLength="0/1" />
               </Keyframes>
              </Parameter>
             </Parameters>
             <Keyframes>
             <Keyframe id="1175"  time="-9999999/1" value="0" leadInLength="0/1" />
             <Keyframe id="1176"  time="0/1" value="233.89643881435987" leadInLength="30/1" interpolater="leadin-linr" />
             </Keyframes>
            </InterpolatingParam>
            <InterpolatingParam id="1177"  >
             <Parameters>
              <Parameter id="1178"  name="interpolater">
               <Keyframes>
               <Keyframe id="1179"  time="0/1" value="linr" leadInLength="0/1" />
               </Keyframes>
              </Parameter>
             </Parameters>
             <Keyframes>
             <Keyframe id="1180"  time="-9999999/1" value="0" leadInLength="0/1" />
             <Keyframe id="1181"  time="0/1" value="-5.5887911649183746" leadInLength="30/1" interpolater="leadin-linr" />
             </Keyframes>
            </InterpolatingParam>
            <InterpolatingParam id="1182"  >
             <Parameters>
              <Parameter id="1183"  name="interpolater">
               <Keyframes>
               <Keyframe id="1184"  time="0/1" value="linr" leadInLength="0/1" />
               </Keyframes>
              </Parameter>
             </Parameters>
             <Keyframes>
             <Keyframe id="1185"  time="-9999999/1" value="0" leadInLength="0/1" />
             <Keyframe id="1186"  time="0/1" value="0" leadInLength="30/1" interpolater="leadin-linr" />
             </Keyframes>
            </InterpolatingParam>
           </VectorParam>
           <VectorParam id="1187"  name="rotation">
            <InterpolatingParam id="1188"  >
             <Parameters>
              <Parameter id="1189"  name="interpolater">
               <Keyframes>
               <Keyframe id="1190"  time="0/1" value="linr" leadInLength="0/1" />
               </Keyframes>
              </Parameter>
             </Parameters>
             <Keyframes>
             <Keyframe id="1191"  time="-9999999/1" value="0" leadInLength="0/1" />
             <Keyframe id="1192"  time="0/1" value="0" leadInLength="30/1" interpolater="leadin-linr" />
             </Keyframes>
            </InterpolatingParam>
            <InterpolatingParam id="1193"  >
             <Parameters>
              <Parameter id="1194"  name="interpolater">
               <Keyframes>
               <Keyframe id="1195"  time="0/1" value="linr" leadInLength="0/1" />
               </Keyframes>
              </Parameter>
             </Parameters>
             <Keyframes>
             <Keyframe id="1196"  time="-9999999/1" value="0" leadInLength="0/1" />
             <Keyframe id="1197"  time="0/1" value="0" leadInLength="30/1" interpolater="leadin-linr" />
             </Keyframes>
            </InterpolatingParam>
            <InterpolatingParam id="1198"  >
             <Parameters>
              <Parameter id="1199"  name="interpolater">
               <Keyframes>
               <Keyframe id="1200"  time="0/1" value="linr" leadInLength="0/1" />
               </Keyframes>
              </Parameter>
             </Parameters>
             <Keyframes>
             <Keyframe id="1201"  time="-9999999/1" value="0" leadInLength="0/1" />
             <Keyframe id="1202"  time="0/1" value="0" leadInLength="30/1" interpolater="leadin-linr" />
             </Keyframes>
            </InterpolatingParam>
           </VectorParam>
           <VectorParam id="1203"  name="shear">
            <InterpolatingParam id="1204"  >
             <Parameters>
              <Parameter id="1205"  name="interpolater">
               <Keyframes>
               <Keyframe id="1206"  time="0/1" value="linr" leadInLength="0/1" />
               </Keyframes>
              </Parameter>
             </Parameters>
             <Keyframes>
             <Keyframe id="1207"  time="-9999999/1" value="0" leadInLength="0/1" />
             <Keyframe id="1208"  time="0/1" value="0" leadInLength="30/1" interpolater="leadin-linr" />
             </Keyframes>
            </InterpolatingParam>
            <InterpolatingParam id="1209"  >
             <Parameters>
              <Parameter id="1210"  name="interpolater">
               <Keyframes>
               <Keyframe id="1211"  time="0/1" value="linr" leadInLength="0/1" />
               </Keyframes>
              </Parameter>
             </Parameters>
             <Keyframes>
             <Keyframe id="1212"  time="-9999999/1" value="0" leadInLength="0/1" />
             <Keyframe id="1213"  time="0/1" value="0" leadInLength="30/1" interpolater="leadin-linr" />
             </Keyframes>
            </InterpolatingParam>
            <InterpolatingParam id="1214"  >
             <Parameters>
              <Parameter id="1215"  name="interpolater">
               <Keyframes>
               <Keyframe id="1216"  time="0/1" value="linr" leadInLength="0/1" />
               </Keyframes>
              </Parameter>
             </Parameters>
             <Keyframes>
             <Keyframe id="1217"  time="-9999999/1" value="0" leadInLength="0/1" />
             <Keyframe id="1218"  time="0/1" value="0" leadInLength="30/1" interpolater="leadin-linr" />
             </Keyframes>
            </InterpolatingParam>
           </VectorParam>
           <VectorParam id="1219"  name="scale">
            <InterpolatingParam id="1220"  >
             <Parameters>
              <Parameter id="1221"  name="interpolater">
               <Keyframes>
               <Keyframe id="1222"  time="0/1" value="linr" leadInLength="0/1" />
               </Keyframes>
              </Parameter>
             </Parameters>
             <Keyframes>
             <Keyframe id="1223"  time="-9999999/1" value="1" leadInLength="0/1" />
             <Keyframe id="1224"  time="0/1" value="1.3428168900191493" leadInLength="30/1" interpolater="leadin-linr" />
             </Keyframes>
            </InterpolatingParam>
            <InterpolatingParam id="1225"  >
             <Parameters>
              <Parameter id="1226"  name="interpolater">
               <Keyframes>
               <Keyframe id="1227"  time="0/1" value="linr" leadInLength="0/1" />
               </Keyframes>
              </Parameter>
             </Parameters>
             <Keyframes>
             <Keyframe id="1228"  time="-9999999/1" value="1" leadInLength="0/1" />
             <Keyframe id="1229"  time="0/1" value="1.3428164909198217" leadInLength="30/1" interpolater="leadin-linr" />
             </Keyframes>
            </InterpolatingParam>
            <InterpolatingParam id="1230"  >
             <Parameters>
              <Parameter id="1231"  name="interpolater">
               <Keyframes>
               <Keyframe id="1232"  time="0/1" value="linr" leadInLength="0/1" />
               </Keyframes>
              </Parameter>
             </Parameters>
             <Keyframes>
             <Keyframe id="1233"  time="-9999999/1" value="1" leadInLength="0/1" />
             <Keyframe id="1234"  time="0/1" value="0.99999999999999989" leadInLength="30/1" interpolater="leadin-linr" />
             </Keyframes>
            </InterpolatingParam>
           </VectorParam>
           <VectorParam id="1235"  name="anchor">
            <InterpolatingParam id="1236" interp="linr" value="0"  />
            <InterpolatingParam id="1237" interp="linr" value="0"  />
            <InterpolatingParam id="1238" interp="linr" value="0"  />
           </VectorParam>
          </Transformer>
          <Parameters>
           <VectorParam id="1239"  name="sourceCrop">
            <InterpolatingParam id="1240" interp="linr" value="0"  />
            <InterpolatingParam id="1241" interp="linr" value="0"  />
            <InterpolatingParam id="1242" interp="linr" value="0"  />
            <InterpolatingParam id="1243" interp="linr" value="0"  />
           </VectorParam>
           <VectorParam id="1244"  name="geometryCrop">
            <InterpolatingParam id="1245" interp="linr" value="0"  />
            <InterpolatingParam id="1246" interp="linr" value="0"  />
            <InterpolatingParam id="1247" interp="linr" value="0"  />
            <InterpolatingParam id="1248" interp="linr" value="0"  />
           </VectorParam>
           <InterpolatingParam id="1249"  name="opacity">
            <Parameters>
             <Parameter id="1250"  name="interpolater">
              <Keyframes>
              <Keyframe id="1251"  time="0/1" value="linr" leadInLength="0/1" />
              </Keyframes>
             </Parameter>
            </Parameters>
            <Keyframes>
            <Keyframe id="1252"  time="-9999999/1" value="1" leadInLength="0/1" />
            <Keyframe id="1253"  time="0/1" value="1" leadInLength="30/1" interpolater="leadin-linr" />
            </Keyframes>
           </InterpolatingParam>
          </Parameters>
          <Attributes>
           <Attribute id="1254" value="" name="ident"/>
          </Attributes>
          <ExtraData>
           <Entry key="ZoomPanBin">
            <ZoomPanBin id="1255"  >
             <ZoomPanKeyframes>
              <ZoomPanKeyframe id="1256" timeRangeStart="-9999999/1" timeRangeDuration="0/1"  />
              <ZoomPanKeyframe id="1257" timeRangeStart="-30/1" timeRangeDuration="30/1"  />
             </ZoomPanKeyframes>
            </ZoomPanBin>
           </Entry>
          </ExtraData>
         </VMFile>
         <MetaData>
          <entry key="WinSubProjectDisplayName" val=""/>
         </MetaData>
        </UnifiedMedia>
        <UnifiedMedia id="1258"  >
         <AMFile id="1259" start="493" duration="62" scalar="1/3" mediaStart="2162/1" mediaDuration="186/1" trackNumber="1" src="4" channelNumber="0,1" >
          <Parameters>
           <InterpolatingParam id="1260" interp="linr" value="1"  name="volume"/>
           <Parameter id="1261"  name="captions"/>
          </Parameters>
          <Attributes>
           <Attribute id="1262" value="" name="ident"/>
           <Attribute id="1263" value="44100" name="sampleRate"/>
           <Attribute id="1264" value="16" name="bitDepth"/>
           <Attribute id="1265" value="1" name="gain"/>
          </Attributes>
         </AMFile>
         <VMFile id="1266" start="493" duration="62" scalar="1/3" mediaStart="2162/1" mediaDuration="186/1" trackNumber="0" src="4" >
          <Transformer>
           <VectorParam id="1267"  name="translation">
            <InterpolatingParam id="1268"  >
             <Parameters>
              <Parameter id="1269"  name="interpolater">
               <Keyframes>
               <Keyframe id="1270"  time="0/1" value="linr" leadInLength="0/1" />
               </Keyframes>
              </Parameter>
             </Parameters>
             <Keyframes>
             <Keyframe id="1271"  time="-9999999/1" value="0" leadInLength="0/1" />
             <Keyframe id="1272"  time="2/1" value="233.89643881435987" leadInLength="30/1" interpolater="leadin-linr" />
             </Keyframes>
            </InterpolatingParam>
            <InterpolatingParam id="1273"  >
             <Parameters>
              <Parameter id="1274"  name="interpolater">
               <Keyframes>
               <Keyframe id="1275"  time="0/1" value="linr" leadInLength="0/1" />
               </Keyframes>
              </Parameter>
             </Parameters>
             <Keyframes>
             <Keyframe id="1276"  time="-9999999/1" value="0" leadInLength="0/1" />
             <Keyframe id="1277"  time="2/1" value="-5.5887911649183746" leadInLength="30/1" interpolater="leadin-linr" />
             </Keyframes>
            </InterpolatingParam>
            <InterpolatingParam id="1278"  >
             <Parameters>
              <Parameter id="1279"  name="interpolater">
               <Keyframes>
               <Keyframe id="1280"  time="0/1" value="linr" leadInLength="0/1" />
               </Keyframes>
              </Parameter>
             </Parameters>
             <Keyframes>
             <Keyframe id="1281"  time="-9999999/1" value="0" leadInLength="0/1" />
             <Keyframe id="1282"  time="2/1" value="0" leadInLength="30/1" interpolater="leadin-linr" />
             </Keyframes>
            </InterpolatingParam>
           </VectorParam>
           <VectorParam id="1283"  name="rotation">
            <InterpolatingParam id="1284"  >
             <Parameters>
              <Parameter id="1285"  name="interpolater">
               <Keyframes>
               <Keyframe id="1286"  time="0/1" value="linr" leadInLength="0/1" />
               </Keyframes>
              </Parameter>
             </Parameters>
             <Keyframes>
             <Keyframe id="1287"  time="-9999999/1" value="0" leadInLength="0/1" />
             <Keyframe id="1288"  time="2/1" value="0" leadInLength="30/1" interpolater="leadin-linr" />
             </Keyframes>
            </InterpolatingParam>
            <InterpolatingParam id="1289"  >
             <Parameters>
              <Parameter id="1290"  name="interpolater">
               <Keyframes>
               <Keyframe id="1291"  time="0/1" value="linr" leadInLength="0/1" />
               </Keyframes>
              </Parameter>
             </Parameters>
             <Keyframes>
             <Keyframe id="1292"  time="-9999999/1" value="0" leadInLength="0/1" />
             <Keyframe id="1293"  time="2/1" value="0" leadInLength="30/1" interpolater="leadin-linr" />
             </Keyframes>
            </InterpolatingParam>
            <InterpolatingParam id="1294"  >
             <Parameters>
              <Parameter id="1295"  name="interpolater">
               <Keyframes>
               <Keyframe id="1296"  time="0/1" value="linr" leadInLength="0/1" />
               </Keyframes>
              </Parameter>
             </Parameters>
             <Keyframes>
             <Keyframe id="1297"  time="-9999999/1" value="0" leadInLength="0/1" />
             <Keyframe id="1298"  time="2/1" value="0" leadInLength="30/1" interpolater="leadin-linr" />
             </Keyframes>
            </InterpolatingParam>
           </VectorParam>
           <VectorParam id="1299"  name="shear">
            <InterpolatingParam id="1300"  >
             <Parameters>
              <Parameter id="1301"  name="interpolater">
               <Keyframes>
               <Keyframe id="1302"  time="0/1" value="linr" leadInLength="0/1" />
               </Keyframes>
              </Parameter>
             </Parameters>
             <Keyframes>
             <Keyframe id="1303"  time="-9999999/1" value="0" leadInLength="0/1" />
             <Keyframe id="1304"  time="2/1" value="0" leadInLength="30/1" interpolater="leadin-linr" />
             </Keyframes>
            </InterpolatingParam>
            <InterpolatingParam id="1305"  >
             <Parameters>
              <Parameter id="1306"  name="interpolater">
               <Keyframes>
               <Keyframe id="1307"  time="0/1" value="linr" leadInLength="0/1" />
               </Keyframes>
              </Parameter>
             </Parameters>
             <Keyframes>
             <Keyframe id="1308"  time="-9999999/1" value="0" leadInLength="0/1" />
             <Keyframe id="1309"  time="2/1" value="0" leadInLength="30/1" interpolater="leadin-linr" />
             </Keyframes>
            </InterpolatingParam>
            <InterpolatingParam id="1310"  >
             <Parameters>
              <Parameter id="1311"  name="interpolater">
               <Keyframes>
               <Keyframe id="1312"  time="0/1" value="linr" leadInLength="0/1" />
               </Keyframes>
              </Parameter>
             </Parameters>
             <Keyframes>
             <Keyframe id="1313"  time="-9999999/1" value="0" leadInLength="0/1" />
             <Keyframe id="1314"  time="2/1" value="0" leadInLength="30/1" interpolater="leadin-linr" />
             </Keyframes>
            </InterpolatingParam>
           </VectorParam>
           <VectorParam id="1315"  name="scale">
            <InterpolatingParam id="1316"  >
             <Parameters>
              <Parameter id="1317"  name="interpolater">
               <Keyframes>
               <Keyframe id="1318"  time="0/1" value="linr" leadInLength="0/1" />
               </Keyframes>
              </Parameter>
             </Parameters>
             <Keyframes>
             <Keyframe id="1319"  time="-9999999/1" value="1" leadInLength="0/1" />
             <Keyframe id="1320"  time="2/1" value="1.3428168900191493" leadInLength="30/1" interpolater="leadin-linr" />
             </Keyframes>
            </InterpolatingParam>
            <InterpolatingParam id="1321"  >
             <Parameters>
              <Parameter id="1322"  name="interpolater">
               <Keyframes>
               <Keyframe id="1323"  time="0/1" value="linr" leadInLength="0/1" />
               </Keyframes>
              </Parameter>
             </Parameters>
             <Keyframes>
             <Keyframe id="1324"  time="-9999999/1" value="1" leadInLength="0/1" />
             <Keyframe id="1325"  time="2/1" value="1.3428164909198217" leadInLength="30/1" interpolater="leadin-linr" />
             </Keyframes>
            </InterpolatingParam>
            <InterpolatingParam id="1326"  >
             <Parameters>
              <Parameter id="1327"  name="interpolater">
               <Keyframes>
               <Keyframe id="1328"  time="0/1" value="linr" leadInLength="0/1" />
               </Keyframes>
              </Parameter>
             </Parameters>
             <Keyframes>
             <Keyframe id="1329"  time="-9999999/1" value="1" leadInLength="0/1" />
             <Keyframe id="1330"  time="2/1" value="0.99999999999999989" leadInLength="30/1" interpolater="leadin-linr" />
             </Keyframes>
            </InterpolatingParam>
           </VectorParam>
           <VectorParam id="1331"  name="anchor">
            <InterpolatingParam id="1332" interp="linr" value="0"  />
            <InterpolatingParam id="1333" interp="linr" value="0"  />
            <InterpolatingParam id="1334" interp="linr" value="0"  />
           </VectorParam>
          </Transformer>
          <Parameters>
           <VectorParam id="1335"  name="sourceCrop">
            <InterpolatingParam id="1336" interp="linr" value="0"  />
            <InterpolatingParam id="1337" interp="linr" value="0"  />
            <InterpolatingParam id="1338" interp="linr" value="0"  />
            <InterpolatingParam id="1339" interp="linr" value="0"  />
           </VectorParam>
           <VectorParam id="1340"  name="geometryCrop">
            <InterpolatingParam id="1341" interp="linr" value="0"  />
            <InterpolatingParam id="1342" interp="linr" value="0"  />
            <InterpolatingParam id="1343" interp="linr" value="0"  />
            <InterpolatingParam id="1344" interp="linr" value="0"  />
           </VectorParam>
           <InterpolatingParam id="1345"  name="opacity">
            <Parameters>
             <Parameter id="1346"  name="interpolater">
              <Keyframes>
              <Keyframe id="1347"  time="0/1" value="linr" leadInLength="0/1" />
              </Keyframes>
             </Parameter>
            </Parameters>
            <Keyframes>
            <Keyframe id="1348"  time="-9999999/1" value="1" leadInLength="0/1" />
            <Keyframe id="1349"  time="2/1" value="1" leadInLength="30/1" interpolater="leadin-linr" />
            </Keyframes>
           </InterpolatingParam>
          </Parameters>
          <Attributes>
           <Attribute id="1350" value="" name="ident"/>
          </Attributes>
          <ExtraData>
           <Entry key="ZoomPanBin">
            <ZoomPanBin id="1351"  >
             <ZoomPanKeyframes>
              <ZoomPanKeyframe id="1352" timeRangeStart="-9999999/1" timeRangeDuration="0/1"  />
              <ZoomPanKeyframe id="1353" timeRangeStart="-28/1" timeRangeDuration="30/1"  />
             </ZoomPanKeyframes>
            </ZoomPanBin>
           </Entry>
          </ExtraData>
         </VMFile>
         <MetaData>
          <entry key="WinSubProjectDisplayName" val=""/>
         </MetaData>
        </UnifiedMedia>
        <UnifiedMedia id="1354"  >
         <AMFile id="1355" start="555" duration="10" scalar="1/3" mediaStart="2348/1" mediaDuration="30/1" trackNumber="1" src="4" channelNumber="0,1" >
          <Parameters>
           <InterpolatingParam id="1356" interp="linr" value="1"  name="volume"/>
           <Parameter id="1357"  name="captions"/>
          </Parameters>
          <Attributes>
           <Attribute id="1358" value="" name="ident"/>
           <Attribute id="1359" value="44100" name="sampleRate"/>
           <Attribute id="1360" value="16" name="bitDepth"/>
           <Attribute id="1361" value="1" name="gain"/>
          </Attributes>
         </AMFile>
         <VMFile id="1362" start="555" duration="10" scalar="1/3" mediaStart="2348/1" mediaDuration="30/1" trackNumber="0" src="4" >
          <Transformer>
           <VectorParam id="1363"  name="translation">
            <InterpolatingParam id="1364"  >
             <Parameters>
              <Parameter id="1365"  name="interpolater">
               <Keyframes>
               <Keyframe id="1366"  time="0/1" value="linr" leadInLength="0/1" />
               </Keyframes>
              </Parameter>
             </Parameters>
             <Keyframes>
             <Keyframe id="1367"  time="-9999999/1" value="0" leadInLength="0/1" />
             <Keyframe id="1368"  time="2/1" value="233.89643881435987" leadInLength="30/1" interpolater="leadin-linr" />
             </Keyframes>
            </InterpolatingParam>
            <InterpolatingParam id="1369"  >
             <Parameters>
              <Parameter id="1370"  name="interpolater">
               <Keyframes>
               <Keyframe id="1371"  time="0/1" value="linr" leadInLength="0/1" />
               </Keyframes>
              </Parameter>
             </Parameters>
             <Keyframes>
             <Keyframe id="1372"  time="-9999999/1" value="0" leadInLength="0/1" />
             <Keyframe id="1373"  time="2/1" value="-5.5887911649183746" leadInLength="30/1" interpolater="leadin-linr" />
             </Keyframes>
            </InterpolatingParam>
            <InterpolatingParam id="1374"  >
             <Parameters>
              <Parameter id="1375"  name="interpolater">
               <Keyframes>
               <Keyframe id="1376"  time="0/1" value="linr" leadInLength="0/1" />
               </Keyframes>
              </Parameter>
             </Parameters>
             <Keyframes>
             <Keyframe id="1377"  time="-9999999/1" value="0" leadInLength="0/1" />
             <Keyframe id="1378"  time="2/1" value="0" leadInLength="30/1" interpolater="leadin-linr" />
             </Keyframes>
            </InterpolatingParam>
           </VectorParam>
           <VectorParam id="1379"  name="rotation">
            <InterpolatingParam id="1380"  >
             <Parameters>
              <Parameter id="1381"  name="interpolater">
               <Keyframes>
               <Keyframe id="1382"  time="0/1" value="linr" leadInLength="0/1" />
               </Keyframes>
              </Parameter>
             </Parameters>
             <Keyframes>
             <Keyframe id="1383"  time="-9999999/1" value="0" leadInLength="0/1" />
             <Keyframe id="1384"  time="2/1" value="0" leadInLength="30/1" interpolater="leadin-linr" />
             </Keyframes>
            </InterpolatingParam>
            <InterpolatingParam id="1385"  >
             <Parameters>
              <Parameter id="1386"  name="interpolater">
               <Keyframes>
               <Keyframe id="1387"  time="0/1" value="linr" leadInLength="0/1" />
               </Keyframes>
              </Parameter>
             </Parameters>
             <Keyframes>
             <Keyframe id="1388"  time="-9999999/1" value="0" leadInLength="0/1" />
             <Keyframe id="1389"  time="2/1" value="0" leadInLength="30/1" interpolater="leadin-linr" />
             </Keyframes>
            </InterpolatingParam>
            <InterpolatingParam id="1390"  >
             <Parameters>
              <Parameter id="1391"  name="interpolater">
               <Keyframes>
               <Keyframe id="1392"  time="0/1" value="linr" leadInLength="0/1" />
               </Keyframes>
              </Parameter>
             </Parameters>
             <Keyframes>
             <Keyframe id="1393"  time="-9999999/1" value="0" leadInLength="0/1" />
             <Keyframe id="1394"  time="2/1" value="0" leadInLength="30/1" interpolater="leadin-linr" />
             </Keyframes>
            </InterpolatingParam>
           </VectorParam>
           <VectorParam id="1395"  name="shear">
            <InterpolatingParam id="1396"  >
             <Parameters>
              <Parameter id="1397"  name="interpolater">
               <Keyframes>
               <Keyframe id="1398"  time="0/1" value="linr" leadInLength="0/1" />
               </Keyframes>
              </Parameter>
             </Parameters>
             <Keyframes>
             <Keyframe id="1399"  time="-9999999/1" value="0" leadInLength="0/1" />
             <Keyframe id="1400"  time="2/1" value="0" leadInLength="30/1" interpolater="leadin-linr" />
             </Keyframes>
            </InterpolatingParam>
            <InterpolatingParam id="1401"  >
             <Parameters>
              <Parameter id="1402"  name="interpolater">
               <Keyframes>
               <Keyframe id="1403"  time="0/1" value="linr" leadInLength="0/1" />
               </Keyframes>
              </Parameter>
             </Parameters>
             <Keyframes>
             <Keyframe id="1404"  time="-9999999/1" value="0" leadInLength="0/1" />
             <Keyframe id="1405"  time="2/1" value="0" leadInLength="30/1" interpolater="leadin-linr" />
             </Keyframes>
            </InterpolatingParam>
            <InterpolatingParam id="1406"  >
             <Parameters>
              <Parameter id="1407"  name="interpolater">
               <Keyframes>
               <Keyframe id="1408"  time="0/1" value="linr" leadInLength="0/1" />
               </Keyframes>
              </Parameter>
             </Parameters>
             <Keyframes>
             <Keyframe id="1409"  time="-9999999/1" value="0" leadInLength="0/1" />
             <Keyframe id="1410"  time="2/1" value="0" leadInLength="30/1" interpolater="leadin-linr" />
             </Keyframes>
            </InterpolatingParam>
           </VectorParam>
           <VectorParam id="1411"  name="scale">
            <InterpolatingParam id="1412"  >
             <Parameters>
              <Parameter id="1413"  name="interpolater">
               <Keyframes>
               <Keyframe id="1414"  time="0/1" value="linr" leadInLength="0/1" />
               </Keyframes>
              </Parameter>
             </Parameters>
             <Keyframes>
             <Keyframe id="1415"  time="-9999999/1" value="1" leadInLength="0/1" />
             <Keyframe id="1416"  time="2/1" value="1.3428168900191493" leadInLength="30/1" interpolater="leadin-linr" />
             </Keyframes>
            </InterpolatingParam>
            <InterpolatingParam id="1417"  >
             <Parameters>
              <Parameter id="1418"  name="interpolater">
               <Keyframes>
               <Keyframe id="1419"  time="0/1" value="linr" leadInLength="0/1" />
               </Keyframes>
              </Parameter>
             </Parameters>
             <Keyframes>
             <Keyframe id="1420"  time="-9999999/1" value="1" leadInLength="0/1" />
             <Keyframe id="1421"  time="2/1" value="1.3428164909198217" leadInLength="30/1" interpolater="leadin-linr" />
             </Keyframes>
            </InterpolatingParam>
            <InterpolatingParam id="1422"  >
             <Parameters>
              <Parameter id="1423"  name="interpolater">
               <Keyframes>
               <Keyframe id="1424"  time="0/1" value="linr" leadInLength="0/1" />
               </Keyframes>
              </Parameter>
             </Parameters>
             <Keyframes>
             <Keyframe id="1425"  time="-9999999/1" value="1" leadInLength="0/1" />
             <Keyframe id="1426"  time="2/1" value="0.99999999999999989" leadInLength="30/1" interpolater="leadin-linr" />
             </Keyframes>
            </InterpolatingParam>
           </VectorParam>
           <VectorParam id="1427"  name="anchor">
            <InterpolatingParam id="1428" interp="linr" value="0"  />
            <InterpolatingParam id="1429" interp="linr" value="0"  />
            <InterpolatingParam id="1430" interp="linr" value="0"  />
           </VectorParam>
          </Transformer>
          <Parameters>
           <VectorParam id="1431"  name="sourceCrop">
            <InterpolatingParam id="1432" interp="linr" value="0"  />
            <InterpolatingParam id="1433" interp="linr" value="0"  />
            <InterpolatingParam id="1434" interp="linr" value="0"  />
            <InterpolatingParam id="1435" interp="linr" value="0"  />
           </VectorParam>
           <VectorParam id="1436"  name="geometryCrop">
            <InterpolatingParam id="1437" interp="linr" value="0"  />
            <InterpolatingParam id="1438" interp="linr" value="0"  />
            <InterpolatingParam id="1439" interp="linr" value="0"  />
            <InterpolatingParam id="1440" interp="linr" value="0"  />
           </VectorParam>
           <InterpolatingParam id="1441"  name="opacity">
            <Parameters>
             <Parameter id="1442"  name="interpolater">
              <Keyframes>
              <Keyframe id="1443"  time="0/1" value="linr" leadInLength="0/1" />
              </Keyframes>
             </Parameter>
            </Parameters>
            <Keyframes>
            <Keyframe id="1444"  time="-9999999/1" value="1" leadInLength="0/1" />
            <Keyframe id="1445"  time="2/1" value="1" leadInLength="30/1" interpolater="leadin-linr" />
            </Keyframes>
           </InterpolatingParam>
          </Parameters>
          <Attributes>
           <Attribute id="1446" value="" name="ident"/>
          </Attributes>
          <ExtraData>
           <Entry key="ZoomPanBin">
            <ZoomPanBin id="1447"  >
             <ZoomPanKeyframes>
              <ZoomPanKeyframe id="1448" timeRangeStart="-9999999/1" timeRangeDuration="0/1"  />
              <ZoomPanKeyframe id="1449" timeRangeStart="-28/1" timeRangeDuration="30/1"  />
             </ZoomPanKeyframes>
            </ZoomPanBin>
           </Entry>
          </ExtraData>
         </VMFile>
         <MetaData>
          <entry key="WinSubProjectDisplayName" val=""/>
         </MetaData>
        </UnifiedMedia>
        <UnifiedMedia id="1450"  >
         <AMFile id="1451" start="565" duration="70" scalar="1/3" mediaStart="3035/1" mediaDuration="210/1" trackNumber="1" src="4" channelNumber="0,1" >
          <Parameters>
           <InterpolatingParam id="1452" interp="linr" value="1"  name="volume"/>
           <Parameter id="1453"  name="captions"/>
          </Parameters>
          <Attributes>
           <Attribute id="1454" value="" name="ident"/>
           <Attribute id="1455" value="44100" name="sampleRate"/>
           <Attribute id="1456" value="16" name="bitDepth"/>
           <Attribute id="1457" value="1" name="gain"/>
          </Attributes>
         </AMFile>
         <VMFile id="1458" start="565" duration="70" scalar="1/3" mediaStart="3035/1" mediaDuration="210/1" trackNumber="0" src="4" >
          <Transformer>
           <VectorParam id="1459"  name="translation">
            <InterpolatingParam id="1460"  >
             <Parameters>
              <Parameter id="1461"  name="interpolater">
               <Keyframes>
               <Keyframe id="1462"  time="0/1" value="linr" leadInLength="0/1" />
               </Keyframes>
              </Parameter>
             </Parameters>
             <Keyframes>
             <Keyframe id="1463"  time="-9999999/1" value="0" leadInLength="0/1" />
             <Keyframe id="1464"  time="2/1" value="233.89643881435987" leadInLength="30/1" interpolater="leadin-linr" />
             </Keyframes>
            </InterpolatingParam>
            <InterpolatingParam id="1465"  >
             <Parameters>
              <Parameter id="1466"  name="interpolater">
               <Keyframes>
               <Keyframe id="1467"  time="0/1" value="linr" leadInLength="0/1" />
               </Keyframes>
              </Parameter>
             </Parameters>
             <Keyframes>
             <Keyframe id="1468"  time="-9999999/1" value="0" leadInLength="0/1" />
             <Keyframe id="1469"  time="2/1" value="-5.5887911649183746" leadInLength="30/1" interpolater="leadin-linr" />
             </Keyframes>
            </InterpolatingParam>
            <InterpolatingParam id="1470"  >
             <Parameters>
              <Parameter id="1471"  name="interpolater">
               <Keyframes>
               <Keyframe id="1472"  time="0/1" value="linr" leadInLength="0/1" />
               </Keyframes>
              </Parameter>
             </Parameters>
             <Keyframes>
             <Keyframe id="1473"  time="-9999999/1" value="0" leadInLength="0/1" />
             <Keyframe id="1474"  time="2/1" value="0" leadInLength="30/1" interpolater="leadin-linr" />
             </Keyframes>
            </InterpolatingParam>
           </VectorParam>
           <VectorParam id="1475"  name="rotation">
            <InterpolatingParam id="1476"  >
             <Parameters>
              <Parameter id="1477"  name="interpolater">
               <Keyframes>
               <Keyframe id="1478"  time="0/1" value="linr" leadInLength="0/1" />
               </Keyframes>
              </Parameter>
             </Parameters>
             <Keyframes>
             <Keyframe id="1479"  time="-9999999/1" value="0" leadInLength="0/1" />
             <Keyframe id="1480"  time="2/1" value="0" leadInLength="30/1" interpolater="leadin-linr" />
             </Keyframes>
            </InterpolatingParam>
            <InterpolatingParam id="1481"  >
             <Parameters>
              <Parameter id="1482"  name="interpolater">
               <Keyframes>
               <Keyframe id="1483"  time="0/1" value="linr" leadInLength="0/1" />
               </Keyframes>
              </Parameter>
             </Parameters>
             <Keyframes>
             <Keyframe id="1484"  time="-9999999/1" value="0" leadInLength="0/1" />
             <Keyframe id="1485"  time="2/1" value="0" leadInLength="30/1" interpolater="leadin-linr" />
             </Keyframes>
            </InterpolatingParam>
            <InterpolatingParam id="1486"  >
             <Parameters>
              <Parameter id="1487"  name="interpolater">
               <Keyframes>
               <Keyframe id="1488"  time="0/1" value="linr" leadInLength="0/1" />
               </Keyframes>
              </Parameter>
             </Parameters>
             <Keyframes>
             <Keyframe id="1489"  time="-9999999/1" value="0" leadInLength="0/1" />
             <Keyframe id="1490"  time="2/1" value="0" leadInLength="30/1" interpolater="leadin-linr" />
             </Keyframes>
            </InterpolatingParam>
           </VectorParam>
           <VectorParam id="1491"  name="shear">
            <InterpolatingParam id="1492"  >
             <Parameters>
              <Parameter id="1493"  name="interpolater">
               <Keyframes>
               <Keyframe id="1494"  time="0/1" value="linr" leadInLength="0/1" />
               </Keyframes>
              </Parameter>
             </Parameters>
             <Keyframes>
             <Keyframe id="1495"  time="-9999999/1" value="0" leadInLength="0/1" />
             <Keyframe id="1496"  time="2/1" value="0" leadInLength="30/1" interpolater="leadin-linr" />
             </Keyframes>
            </InterpolatingParam>
            <InterpolatingParam id="1497"  >
             <Parameters>
              <Parameter id="1498"  name="interpolater">
               <Keyframes>
               <Keyframe id="1499"  time="0/1" value="linr" leadInLength="0/1" />
               </Keyframes>
              </Parameter>
             </Parameters>
             <Keyframes>
             <Keyframe id="1500"  time="-9999999/1" value="0" leadInLength="0/1" />
             <Keyframe id="1501"  time="2/1" value="0" leadInLength="30/1" interpolater="leadin-linr" />
             </Keyframes>
            </InterpolatingParam>
            <InterpolatingParam id="1502"  >
             <Parameters>
              <Parameter id="1503"  name="interpolater">
               <Keyframes>
               <Keyframe id="1504"  time="0/1" value="linr" leadInLength="0/1" />
               </Keyframes>
              </Parameter>
             </Parameters>
             <Keyframes>
             <Keyframe id="1505"  time="-9999999/1" value="0" leadInLength="0/1" />
             <Keyframe id="1506"  time="2/1" value="0" leadInLength="30/1" interpolater="leadin-linr" />
             </Keyframes>
            </InterpolatingParam>
           </VectorParam>
           <VectorParam id="1507"  name="scale">
            <InterpolatingParam id="1508"  >
             <Parameters>
              <Parameter id="1509"  name="interpolater">
               <Keyframes>
               <Keyframe id="1510"  time="0/1" value="linr" leadInLength="0/1" />
               </Keyframes>
              </Parameter>
             </Parameters>
             <Keyframes>
             <Keyframe id="1511"  time="-9999999/1" value="1" leadInLength="0/1" />
             <Keyframe id="1512"  time="2/1" value="1.3428168900191493" leadInLength="30/1" interpolater="leadin-linr" />
             </Keyframes>
            </InterpolatingParam>
            <InterpolatingParam id="1513"  >
             <Parameters>
              <Parameter id="1514"  name="interpolater">
               <Keyframes>
               <Keyframe id="1515"  time="0/1" value="linr" leadInLength="0/1" />
               </Keyframes>
              </Parameter>
             </Parameters>
             <Keyframes>
             <Keyframe id="1516"  time="-9999999/1" value="1" leadInLength="0/1" />
             <Keyframe id="1517"  time="2/1" value="1.3428164909198217" leadInLength="30/1" interpolater="leadin-linr" />
             </Keyframes>
            </InterpolatingParam>
            <InterpolatingParam id="1518"  >
             <Parameters>
              <Parameter id="1519"  name="interpolater">
               <Keyframes>
               <Keyframe id="1520"  time="0/1" value="linr" leadInLength="0/1" />
               </Keyframes>
              </Parameter>
             </Parameters>
             <Keyframes>
             <Keyframe id="1521"  time="-9999999/1" value="1" leadInLength="0/1" />
             <Keyframe id="1522"  time="2/1" value="0.99999999999999989" leadInLength="30/1" interpolater="leadin-linr" />
             </Keyframes>
            </InterpolatingParam>
           </VectorParam>
           <VectorParam id="1523"  name="anchor">
            <InterpolatingParam id="1524" interp="linr" value="0"  />
            <InterpolatingParam id="1525" interp="linr" value="0"  />
            <InterpolatingParam id="1526" interp="linr" value="0"  />
           </VectorParam>
          </Transformer>
          <Parameters>
           <VectorParam id="1527"  name="sourceCrop">
            <InterpolatingParam id="1528" interp="linr" value="0"  />
            <InterpolatingParam id="1529" interp="linr" value="0"  />
            <InterpolatingParam id="1530" interp="linr" value="0"  />
            <InterpolatingParam id="1531" interp="linr" value="0"  />
           </VectorParam>
           <VectorParam id="1532"  name="geometryCrop">
            <InterpolatingParam id="1533" interp="linr" value="0"  />
            <InterpolatingParam id="1534" interp="linr" value="0"  />
            <InterpolatingParam id="1535" interp="linr" value="0"  />
            <InterpolatingParam id="1536" interp="linr" value="0"  />
           </VectorParam>
           <InterpolatingParam id="1537"  name="opacity">
            <Parameters>
             <Parameter id="1538"  name="interpolater">
              <Keyframes>
              <Keyframe id="1539"  time="0/1" value="linr" leadInLength="0/1" />
              </Keyframes>
             </Parameter>
            </Parameters>
            <Keyframes>
            <Keyframe id="1540"  time="-9999999/1" value="1" leadInLength="0/1" />
            <Keyframe id="1541"  time="2/1" value="1" leadInLength="30/1" interpolater="leadin-linr" />
            </Keyframes>
           </InterpolatingParam>
          </Parameters>
          <Attributes>
           <Attribute id="1542" value="" name="ident"/>
          </Attributes>
          <ExtraData>
           <Entry key="ZoomPanBin">
            <ZoomPanBin id="1543"  >
             <ZoomPanKeyframes>
              <ZoomPanKeyframe id="1544" timeRangeStart="-9999999/1" timeRangeDuration="0/1"  />
              <ZoomPanKeyframe id="1545" timeRangeStart="-28/1" timeRangeDuration="30/1"  />
             </ZoomPanKeyframes>
            </ZoomPanBin>
           </Entry>
          </ExtraData>
         </VMFile>
         <MetaData>
          <entry key="WinSubProjectDisplayName" val=""/>
         </MetaData>
        </UnifiedMedia>
        <UnifiedMedia id="1546"  >
         <AMFile id="1547" start="635" duration="72" scalar="1/3" mediaStart="3581/1" mediaDuration="216/1" trackNumber="1" src="4" channelNumber="0,1" >
          <Parameters>
           <InterpolatingParam id="1548" interp="linr" value="1"  name="volume"/>
           <Parameter id="1549"  name="captions"/>
          </Parameters>
          <Attributes>
           <Attribute id="1550" value="" name="ident"/>
           <Attribute id="1551" value="44100" name="sampleRate"/>
           <Attribute id="1552" value="16" name="bitDepth"/>
           <Attribute id="1553" value="1" name="gain"/>
          </Attributes>
         </AMFile>
         <VMFile id="1554" start="635" duration="72" scalar="1/3" mediaStart="3581/1" mediaDuration="216/1" trackNumber="0" src="4" >
          <Transformer>
           <VectorParam id="1555"  name="translation">
            <InterpolatingParam id="1556"  >
             <Parameters>
              <Parameter id="1557"  name="interpolater">
               <Keyframes>
               <Keyframe id="1558"  time="0/1" value="linr" leadInLength="0/1" />
               </Keyframes>
              </Parameter>
             </Parameters>
             <Keyframes>
             <Keyframe id="1559"  time="-9999999/1" value="0" leadInLength="0/1" />
             <Keyframe id="1560"  time="2/1" value="233.19792416158214" leadInLength="30/1" interpolater="leadin-linr" />
             </Keyframes>
            </InterpolatingParam>
            <InterpolatingParam id="1561"  >
             <Parameters>
              <Parameter id="1562"  name="interpolater">
               <Keyframes>
               <Keyframe id="1563"  time="0/1" value="linr" leadInLength="0/1" />
               </Keyframes>
              </Parameter>
             </Parameters>
             <Keyframes>
             <Keyframe id="1564"  time="-9999999/1" value="0" leadInLength="0/1" />
             <Keyframe id="1565"  time="2/1" value="-5.5887911649183746" leadInLength="30/1" interpolater="leadin-linr" />
             </Keyframes>
            </InterpolatingParam>
            <InterpolatingParam id="1566"  >
             <Parameters>
              <Parameter id="1567"  name="interpolater">
               <Keyframes>
               <Keyframe id="1568"  time="0/1" value="linr" leadInLength="0/1" />
               </Keyframes>
              </Parameter>
             </Parameters>
             <Keyframes>
             <Keyframe id="1569"  time="-9999999/1" value="0" leadInLength="0/1" />
             <Keyframe id="1570"  time="2/1" value="0" leadInLength="30/1" interpolater="leadin-linr" />
             </Keyframes>
            </InterpolatingParam>
           </VectorParam>
           <VectorParam id="1571"  name="rotation">
            <InterpolatingParam id="1572"  >
             <Parameters>
              <Parameter id="1573"  name="interpolater">
               <Keyframes>
               <Keyframe id="1574"  time="0/1" value="linr" leadInLength="0/1" />
               </Keyframes>
              </Parameter>
             </Parameters>
             <Keyframes>
             <Keyframe id="1575"  time="-9999999/1" value="0" leadInLength="0/1" />
             <Keyframe id="1576"  time="2/1" value="0" leadInLength="30/1" interpolater="leadin-linr" />
             </Keyframes>
            </InterpolatingParam>
            <InterpolatingParam id="1577"  >
             <Parameters>
              <Parameter id="1578"  name="interpolater">
               <Keyframes>
               <Keyframe id="1579"  time="0/1" value="linr" leadInLength="0/1" />
               </Keyframes>
              </Parameter>
             </Parameters>
             <Keyframes>
             <Keyframe id="1580"  time="-9999999/1" value="0" leadInLength="0/1" />
             <Keyframe id="1581"  time="2/1" value="0" leadInLength="30/1" interpolater="leadin-linr" />
             </Keyframes>
            </InterpolatingParam>
            <InterpolatingParam id="1582"  >
             <Parameters>
              <Parameter id="1583"  name="interpolater">
               <Keyframes>
               <Keyframe id="1584"  time="0/1" value="linr" leadInLength="0/1" />
               </Keyframes>
              </Parameter>
             </Parameters>
             <Keyframes>
             <Keyframe id="1585"  time="-9999999/1" value="0" leadInLength="0/1" />
             <Keyframe id="1586"  time="2/1" value="0" leadInLength="30/1" interpolater="leadin-linr" />
             </Keyframes>
            </InterpolatingParam>
           </VectorParam>
           <VectorParam id="1587"  name="shear">
            <InterpolatingParam id="1588"  >
             <Parameters>
              <Parameter id="1589"  name="interpolater">
               <Keyframes>
               <Keyframe id="1590"  time="0/1" value="linr" leadInLength="0/1" />
               </Keyframes>
              </Parameter>
             </Parameters>
             <Keyframes>
             <Keyframe id="1591"  time="-9999999/1" value="0" leadInLength="0/1" />
             <Keyframe id="1592"  time="2/1" value="0" leadInLength="30/1" interpolater="leadin-linr" />
             </Keyframes>
            </InterpolatingParam>
            <InterpolatingParam id="1593"  >
             <Parameters>
              <Parameter id="1594"  name="interpolater">
               <Keyframes>
               <Keyframe id="1595"  time="0/1" value="linr" leadInLength="0/1" />
               </Keyframes>
              </Parameter>
             </Parameters>
             <Keyframes>
             <Keyframe id="1596"  time="-9999999/1" value="0" leadInLength="0/1" />
             <Keyframe id="1597"  time="2/1" value="0" leadInLength="30/1" interpolater="leadin-linr" />
             </Keyframes>
            </InterpolatingParam>
            <InterpolatingParam id="1598"  >
             <Parameters>
              <Parameter id="1599"  name="interpolater">
               <Keyframes>
               <Keyframe id="1600"  time="0/1" value="linr" leadInLength="0/1" />
               </Keyframes>
              </Parameter>
             </Parameters>
             <Keyframes>
             <Keyframe id="1601"  time="-9999999/1" value="0" leadInLength="0/1" />
             <Keyframe id="1602"  time="2/1" value="0" leadInLength="30/1" interpolater="leadin-linr" />
             </Keyframes>
            </InterpolatingParam>
           </VectorParam>
           <VectorParam id="1603"  name="scale">
            <InterpolatingParam id="1604"  >
             <Parameters>
              <Parameter id="1605"  name="interpolater">
               <Keyframes>
               <Keyframe id="1606"  time="0/1" value="linr" leadInLength="0/1" />
               </Keyframes>
              </Parameter>
             </Parameters>
             <Keyframes>
             <Keyframe id="1607"  time="-9999999/1" value="1" leadInLength="0/1" />
             <Keyframe id="1608"  time="2/1" value="1.3428168900191493" leadInLength="30/1" interpolater="leadin-linr" />
             </Keyframes>
            </InterpolatingParam>
            <InterpolatingParam id="1609"  >
             <Parameters>
              <Parameter id="1610"  name="interpolater">
               <Keyframes>
               <Keyframe id="1611"  time="0/1" value="linr" leadInLength="0/1" />
               </Keyframes>
              </Parameter>
             </Parameters>
             <Keyframes>
             <Keyframe id="1612"  time="-9999999/1" value="1" leadInLength="0/1" />
             <Keyframe id="1613"  time="2/1" value="1.3428164909198217" leadInLength="30/1" interpolater="leadin-linr" />
             </Keyframes>
            </InterpolatingParam>
            <InterpolatingParam id="1614"  >
             <Parameters>
              <Parameter id="1615"  name="interpolater">
               <Keyframes>
               <Keyframe id="1616"  time="0/1" value="linr" leadInLength="0/1" />
               </Keyframes>
              </Parameter>
             </Parameters>
             <Keyframes>
             <Keyframe id="1617"  time="-9999999/1" value="1" leadInLength="0/1" />
             <Keyframe id="1618"  time="2/1" value="0.99999999999999989" leadInLength="30/1" interpolater="leadin-linr" />
             </Keyframes>
            </InterpolatingParam>
           </VectorParam>
           <VectorParam id="1619"  name="anchor">
            <InterpolatingParam id="1620" interp="linr" value="0"  />
            <InterpolatingParam id="1621" interp="linr" value="0"  />
            <InterpolatingParam id="1622" interp="linr" value="0"  />
           </VectorParam>
          </Transformer>
          <Parameters>
           <VectorParam id="1623"  name="sourceCrop">
            <InterpolatingParam id="1624" interp="linr" value="0"  />
            <InterpolatingParam id="1625" interp="linr" value="0"  />
            <InterpolatingParam id="1626" interp="linr" value="0"  />
            <InterpolatingParam id="1627" interp="linr" value="0"  />
           </VectorParam>
           <VectorParam id="1628"  name="geometryCrop">
            <InterpolatingParam id="1629" interp="linr" value="0"  />
            <InterpolatingParam id="1630" interp="linr" value="0"  />
            <InterpolatingParam id="1631" interp="linr" value="0"  />
            <InterpolatingParam id="1632" interp="linr" value="0"  />
           </VectorParam>
           <InterpolatingParam id="1633"  name="opacity">
            <Parameters>
             <Parameter id="1634"  name="interpolater">
              <Keyframes>
              <Keyframe id="1635"  time="0/1" value="linr" leadInLength="0/1" />
              </Keyframes>
             </Parameter>
            </Parameters>
            <Keyframes>
            <Keyframe id="1636"  time="-9999999/1" value="1" leadInLength="0/1" />
            <Keyframe id="1637"  time="2/1" value="1" leadInLength="30/1" interpolater="leadin-linr" />
            </Keyframes>
           </InterpolatingParam>
          </Parameters>
          <Attributes>
           <Attribute id="1638" value="" name="ident"/>
          </Attributes>
          <ExtraData>
           <Entry key="ZoomPanBin">
            <ZoomPanBin id="1639"  >
             <ZoomPanKeyframes>
              <ZoomPanKeyframe id="1640" timeRangeStart="-9999999/1" timeRangeDuration="0/1"  />
              <ZoomPanKeyframe id="1641" timeRangeStart="-28/1" timeRangeDuration="30/1"  />
             </ZoomPanKeyframes>
            </ZoomPanBin>
           </Entry>
          </ExtraData>
         </VMFile>
         <MetaData>
          <entry key="WinSubProjectDisplayName" val=""/>
         </MetaData>
        </UnifiedMedia>
        <UnifiedMedia id="1642"  >
         <AMFile id="1643" start="707" duration="85" scalar="1/3" mediaStart="3968/1" mediaDuration="255/1" trackNumber="1" src="4" channelNumber="0,1" >
          <Parameters>
           <InterpolatingParam id="1644" interp="linr" value="1"  name="volume"/>
           <Parameter id="1645"  name="captions"/>
          </Parameters>
          <Attributes>
           <Attribute id="1646" value="" name="ident"/>
           <Attribute id="1647" value="44100" name="sampleRate"/>
           <Attribute id="1648" value="16" name="bitDepth"/>
           <Attribute id="1649" value="1" name="gain"/>
          </Attributes>
         </AMFile>
         <VMFile id="1650" start="707" duration="85" scalar="1/3" mediaStart="3968/1" mediaDuration="255/1" trackNumber="0" src="4" >
          <Transformer>
           <VectorParam id="1651"  name="translation">
            <InterpolatingParam id="1652"  >
             <Parameters>
              <Parameter id="1653"  name="interpolater">
               <Keyframes>
               <Keyframe id="1654"  time="0/1" value="linr" leadInLength="0/1" />
               </Keyframes>
              </Parameter>
             </Parameters>
             <Keyframes>
             <Keyframe id="1655"  time="-9999999/1" value="0" leadInLength="0/1" />
             <Keyframe id="1656"  time="2/1" value="233.19792416125296" leadInLength="30/1" interpolater="leadin-linr" />
             </Keyframes>
            </InterpolatingParam>
            <InterpolatingParam id="1657"  >
             <Parameters>
              <Parameter id="1658"  name="interpolater">
               <Keyframes>
               <Keyframe id="1659"  time="0/1" value="linr" leadInLength="0/1" />
               </Keyframes>
              </Parameter>
             </Parameters>
             <Keyframes>
             <Keyframe id="1660"  time="-9999999/1" value="0" leadInLength="0/1" />
             <Keyframe id="1661"  time="2/1" value="-4.5283018867875082" leadInLength="30/1" interpolater="leadin-linr" />
             </Keyframes>
            </InterpolatingParam>
            <InterpolatingParam id="1662"  >
             <Parameters>
              <Parameter id="1663"  name="interpolater">
               <Keyframes>
               <Keyframe id="1664"  time="0/1" value="linr" leadInLength="0/1" />
               </Keyframes>
              </Parameter>
             </Parameters>
             <Keyframes>
             <Keyframe id="1665"  time="-9999999/1" value="0" leadInLength="0/1" />
             <Keyframe id="1666"  time="2/1" value="0" leadInLength="30/1" interpolater="leadin-linr" />
             </Keyframes>
            </InterpolatingParam>
           </VectorParam>
           <VectorParam id="1667"  name="rotation">
            <InterpolatingParam id="1668"  >
             <Parameters>
              <Parameter id="1669"  name="interpolater">
               <Keyframes>
               <Keyframe id="1670"  time="0/1" value="linr" leadInLength="0/1" />
               </Keyframes>
              </Parameter>
             </Parameters>
             <Keyframes>
             <Keyframe id="1671"  time="-9999999/1" value="0" leadInLength="0/1" />
             <Keyframe id="1672"  time="2/1" value="0" leadInLength="30/1" interpolater="leadin-linr" />
             </Keyframes>
            </InterpolatingParam>
            <InterpolatingParam id="1673"  >
             <Parameters>
              <Parameter id="1674"  name="interpolater">
               <Keyframes>
               <Keyframe id="1675"  time="0/1" value="linr" leadInLength="0/1" />
               </Keyframes>
              </Parameter>
             </Parameters>
             <Keyframes>
             <Keyframe id="1676"  time="-9999999/1" value="0" leadInLength="0/1" />
             <Keyframe id="1677"  time="2/1" value="0" leadInLength="30/1" interpolater="leadin-linr" />
             </Keyframes>
            </InterpolatingParam>
            <InterpolatingParam id="1678"  >
             <Parameters>
              <Parameter id="1679"  name="interpolater">
               <Keyframes>
               <Keyframe id="1680"  time="0/1" value="linr" leadInLength="0/1" />
               </Keyframes>
              </Parameter>
             </Parameters>
             <Keyframes>
             <Keyframe id="1681"  time="-9999999/1" value="0" leadInLength="0/1" />
             <Keyframe id="1682"  time="2/1" value="0" leadInLength="30/1" interpolater="leadin-linr" />
             </Keyframes>
            </InterpolatingParam>
           </VectorParam>
           <VectorParam id="1683"  name="shear">
            <InterpolatingParam id="1684"  >
             <Parameters>
              <Parameter id="1685"  name="interpolater">
               <Keyframes>
               <Keyframe id="1686"  time="0/1" value="linr" leadInLength="0/1" />
               </Keyframes>
              </Parameter>
             </Parameters>
             <Keyframes>
             <Keyframe id="1687"  time="-9999999/1" value="0" leadInLength="0/1" />
             <Keyframe id="1688"  time="2/1" value="0" leadInLength="30/1" interpolater="leadin-linr" />
             </Keyframes>
            </InterpolatingParam>
            <InterpolatingParam id="1689"  >
             <Parameters>
              <Parameter id="1690"  name="interpolater">
               <Keyframes>
               <Keyframe id="1691"  time="0/1" value="linr" leadInLength="0/1" />
               </Keyframes>
              </Parameter>
             </Parameters>
             <Keyframes>
             <Keyframe id="1692"  time="-9999999/1" value="0" leadInLength="0/1" />
             <Keyframe id="1693"  time="2/1" value="0" leadInLength="30/1" interpolater="leadin-linr" />
             </Keyframes>
            </InterpolatingParam>
            <InterpolatingParam id="1694"  >
             <Parameters>
              <Parameter id="1695"  name="interpolater">
               <Keyframes>
               <Keyframe id="1696"  time="0/1" value="linr" leadInLength="0/1" />
               </Keyframes>
              </Parameter>
             </Parameters>
             <Keyframes>
             <Keyframe id="1697"  time="-9999999/1" value="0" leadInLength="0/1" />
             <Keyframe id="1698"  time="2/1" value="0" leadInLength="30/1" interpolater="leadin-linr" />
             </Keyframes>
            </InterpolatingParam>
           </VectorParam>
           <VectorParam id="1699"  name="scale">
            <InterpolatingParam id="1700"  >
             <Parameters>
              <Parameter id="1701"  name="interpolater">
               <Keyframes>
               <Keyframe id="1702"  time="0/1" value="linr" leadInLength="0/1" />
               </Keyframes>
              </Parameter>
             </Parameters>
             <Keyframes>
             <Keyframe id="1703"  time="-9999999/1" value="1" leadInLength="0/1" />
             <Keyframe id="1704"  time="2/1" value="1.3428168900191493" leadInLength="30/1" interpolater="leadin-linr" />
             </Keyframes>
            </InterpolatingParam>
            <InterpolatingParam id="1705"  >
             <Parameters>
              <Parameter id="1706"  name="interpolater">
               <Keyframes>
               <Keyframe id="1707"  time="0/1" value="linr" leadInLength="0/1" />
               </Keyframes>
              </Parameter>
             </Parameters>
             <Keyframes>
             <Keyframe id="1708"  time="-9999999/1" value="1" leadInLength="0/1" />
             <Keyframe id="1709"  time="2/1" value="1.3428164909198217" leadInLength="30/1" interpolater="leadin-linr" />
             </Keyframes>
            </InterpolatingParam>
            <InterpolatingParam id="1710"  >
             <Parameters>
              <Parameter id="1711"  name="interpolater">
               <Keyframes>
               <Keyframe id="1712"  time="0/1" value="linr" leadInLength="0/1" />
               </Keyframes>
              </Parameter>
             </Parameters>
             <Keyframes>
             <Keyframe id="1713"  time="-9999999/1" value="1" leadInLength="0/1" />
             <Keyframe id="1714"  time="2/1" value="0.99999999999999989" leadInLength="30/1" interpolater="leadin-linr" />
             </Keyframes>
            </InterpolatingParam>
           </VectorParam>
           <VectorParam id="1715"  name="anchor">
            <InterpolatingParam id="1716" interp="linr" value="0"  />
            <InterpolatingParam id="1717" interp="linr" value="0"  />
            <InterpolatingParam id="1718" interp="linr" value="0"  />
           </VectorParam>
          </Transformer>
          <Parameters>
           <VectorParam id="1719"  name="sourceCrop">
            <InterpolatingParam id="1720" interp="linr" value="0"  />
            <InterpolatingParam id="1721" interp="linr" value="0"  />
            <InterpolatingParam id="1722" interp="linr" value="0"  />
            <InterpolatingParam id="1723" interp="linr" value="0"  />
           </VectorParam>
           <VectorParam id="1724"  name="geometryCrop">
            <InterpolatingParam id="1725" interp="linr" value="0"  />
            <InterpolatingParam id="1726" interp="linr" value="0"  />
            <InterpolatingParam id="1727" interp="linr" value="0"  />
            <InterpolatingParam id="1728" interp="linr" value="0"  />
           </VectorParam>
           <InterpolatingParam id="1729"  name="opacity">
            <Parameters>
             <Parameter id="1730"  name="interpolater">
              <Keyframes>
              <Keyframe id="1731"  time="0/1" value="linr" leadInLength="0/1" />
              </Keyframes>
             </Parameter>
            </Parameters>
            <Keyframes>
            <Keyframe id="1732"  time="-9999999/1" value="1" leadInLength="0/1" />
            <Keyframe id="1733"  time="2/1" value="1" leadInLength="30/1" interpolater="leadin-linr" />
            </Keyframes>
           </InterpolatingParam>
          </Parameters>
          <Attributes>
           <Attribute id="1734" value="" name="ident"/>
          </Attributes>
          <ExtraData>
           <Entry key="ZoomPanBin">
            <ZoomPanBin id="1735"  >
             <ZoomPanKeyframes>
              <ZoomPanKeyframe id="1736" timeRangeStart="-9999999/1" timeRangeDuration="0/1"  />
              <ZoomPanKeyframe id="1737" timeRangeStart="-28/1" timeRangeDuration="30/1"  />
             </ZoomPanKeyframes>
            </ZoomPanBin>
           </Entry>
          </ExtraData>
         </VMFile>
         <MetaData>
          <entry key="WinSubProjectDisplayName" val=""/>
         </MetaData>
        </UnifiedMedia>
        <UnifiedMedia id="1738"  >
         <AMFile id="1739" start="792" duration="41" scalar="1/3" mediaStart="4769/1" mediaDuration="123/1" trackNumber="1" src="4" channelNumber="0,1" >
          <Parameters>
           <InterpolatingParam id="1740" interp="linr" value="1"  name="volume"/>
           <Parameter id="1741"  name="captions"/>
          </Parameters>
          <Attributes>
           <Attribute id="1742" value="" name="ident"/>
           <Attribute id="1743" value="44100" name="sampleRate"/>
           <Attribute id="1744" value="16" name="bitDepth"/>
           <Attribute id="1745" value="1" name="gain"/>
          </Attributes>
         </AMFile>
         <VMFile id="1746" start="792" duration="41" scalar="1/3" mediaStart="4769/1" mediaDuration="123/1" trackNumber="0" src="4" >
          <Transformer>
           <VectorParam id="1747"  name="translation">
            <InterpolatingParam id="1748"  >
             <Parameters>
              <Parameter id="1749"  name="interpolater">
               <Keyframes>
               <Keyframe id="1750"  time="0/1" value="linr" leadInLength="0/1" />
               </Keyframes>
              </Parameter>
             </Parameters>
             <Keyframes>
             <Keyframe id="1751"  time="-9999999/1" value="0" leadInLength="0/1" />
             <Keyframe id="1752"  time="2/1" value="237.72622604839003" leadInLength="30/1" interpolater="leadin-linr" />
             </Keyframes>
            </InterpolatingParam>
            <InterpolatingParam id="1753"  >
             <Parameters>
              <Parameter id="1754"  name="interpolater">
               <Keyframes>
               <Keyframe id="1755"  time="0/1" value="linr" leadInLength="0/1" />
               </Keyframes>
              </Parameter>
             </Parameters>
             <Keyframes>
             <Keyframe id="1756"  time="-9999999/1" value="0" leadInLength="0/1" />
             <Keyframe id="1757"  time="2/1" value="-5.5887911649183746" leadInLength="30/1" interpolater="leadin-linr" />
             </Keyframes>
            </InterpolatingParam>
            <InterpolatingParam id="1758"  >
             <Parameters>
              <Parameter id="1759"  name="interpolater">
               <Keyframes>
               <Keyframe id="1760"  time="0/1" value="linr" leadInLength="0/1" />
               </Keyframes>
              </Parameter>
             </Parameters>
             <Keyframes>
             <Keyframe id="1761"  time="-9999999/1" value="0" leadInLength="0/1" />
             <Keyframe id="1762"  time="2/1" value="0" leadInLength="30/1" interpolater="leadin-linr" />
             </Keyframes>
            </InterpolatingParam>
           </VectorParam>
           <VectorParam id="1763"  name="rotation">
            <InterpolatingParam id="1764"  >
             <Parameters>
              <Parameter id="1765"  name="interpolater">
               <Keyframes>
               <Keyframe id="1766"  time="0/1" value="linr" leadInLength="0/1" />
               </Keyframes>
              </Parameter>
             </Parameters>
             <Keyframes>
             <Keyframe id="1767"  time="-9999999/1" value="0" leadInLength="0/1" />
             <Keyframe id="1768"  time="2/1" value="0" leadInLength="30/1" interpolater="leadin-linr" />
             </Keyframes>
            </InterpolatingParam>
            <InterpolatingParam id="1769"  >
             <Parameters>
              <Parameter id="1770"  name="interpolater">
               <Keyframes>
               <Keyframe id="1771"  time="0/1" value="linr" leadInLength="0/1" />
               </Keyframes>
              </Parameter>
             </Parameters>
             <Keyframes>
             <Keyframe id="1772"  time="-9999999/1" value="0" leadInLength="0/1" />
             <Keyframe id="1773"  time="2/1" value="0" leadInLength="30/1" interpolater="leadin-linr" />
             </Keyframes>
            </InterpolatingParam>
            <InterpolatingParam id="1774"  >
             <Parameters>
              <Parameter id="1775"  name="interpolater">
               <Keyframes>
               <Keyframe id="1776"  time="0/1" value="linr" leadInLength="0/1" />
               </Keyframes>
              </Parameter>
             </Parameters>
             <Keyframes>
             <Keyframe id="1777"  time="-9999999/1" value="0" leadInLength="0/1" />
             <Keyframe id="1778"  time="2/1" value="0" leadInLength="30/1" interpolater="leadin-linr" />
             </Keyframes>
            </InterpolatingParam>
           </VectorParam>
           <VectorParam id="1779"  name="shear">
            <InterpolatingParam id="1780"  >
             <Parameters>
              <Parameter id="1781"  name="interpolater">
               <Keyframes>
               <Keyframe id="1782"  time="0/1" value="linr" leadInLength="0/1" />
               </Keyframes>
              </Parameter>
             </Parameters>
             <Keyframes>
             <Keyframe id="1783"  time="-9999999/1" value="0" leadInLength="0/1" />
             <Keyframe id="1784"  time="2/1" value="0" leadInLength="30/1" interpolater="leadin-linr" />
             </Keyframes>
            </InterpolatingParam>
            <InterpolatingParam id="1785"  >
             <Parameters>
              <Parameter id="1786"  name="interpolater">
               <Keyframes>
               <Keyframe id="1787"  time="0/1" value="linr" leadInLength="0/1" />
               </Keyframes>
              </Parameter>
             </Parameters>
             <Keyframes>
             <Keyframe id="1788"  time="-9999999/1" value="0" leadInLength="0/1" />
             <Keyframe id="1789"  time="2/1" value="0" leadInLength="30/1" interpolater="leadin-linr" />
             </Keyframes>
            </InterpolatingParam>
            <InterpolatingParam id="1790"  >
             <Parameters>
              <Parameter id="1791"  name="interpolater">
               <Keyframes>
               <Keyframe id="1792"  time="0/1" value="linr" leadInLength="0/1" />
               </Keyframes>
              </Parameter>
             </Parameters>
             <Keyframes>
             <Keyframe id="1793"  time="-9999999/1" value="0" leadInLength="0/1" />
             <Keyframe id="1794"  time="2/1" value="0" leadInLength="30/1" interpolater="leadin-linr" />
             </Keyframes>
            </InterpolatingParam>
           </VectorParam>
           <VectorParam id="1795"  name="scale">
            <InterpolatingParam id="1796"  >
             <Parameters>
              <Parameter id="1797"  name="interpolater">
               <Keyframes>
               <Keyframe id="1798"  time="0/1" value="linr" leadInLength="0/1" />
               </Keyframes>
              </Parameter>
             </Parameters>
             <Keyframes>
             <Keyframe id="1799"  time="-9999999/1" value="1" leadInLength="0/1" />
             <Keyframe id="1800"  time="2/1" value="1.3428168900191493" leadInLength="30/1" interpolater="leadin-linr" />
             </Keyframes>
            </InterpolatingParam>
            <InterpolatingParam id="1801"  >
             <Parameters>
              <Parameter id="1802"  name="interpolater">
               <Keyframes>
               <Keyframe id="1803"  time="0/1" value="linr" leadInLength="0/1" />
               </Keyframes>
              </Parameter>
             </Parameters>
             <Keyframes>
             <Keyframe id="1804"  time="-9999999/1" value="1" leadInLength="0/1" />
             <Keyframe id="1805"  time="2/1" value="1.3428164909198217" leadInLength="30/1" interpolater="leadin-linr" />
             </Keyframes>
            </InterpolatingParam>
            <InterpolatingParam id="1806"  >
             <Parameters>
              <Parameter id="1807"  name="interpolater">
               <Keyframes>
               <Keyframe id="1808"  time="0/1" value="linr" leadInLength="0/1" />
               </Keyframes>
              </Parameter>
             </Parameters>
             <Keyframes>
             <Keyframe id="1809"  time="-9999999/1" value="1" leadInLength="0/1" />
             <Keyframe id="1810"  time="2/1" value="0.99999999999999989" leadInLength="30/1" interpolater="leadin-linr" />
             </Keyframes>
            </InterpolatingParam>
           </VectorParam>
           <VectorParam id="1811"  name="anchor">
            <InterpolatingParam id="1812" interp="linr" value="0"  />
            <InterpolatingParam id="1813" interp="linr" value="0"  />
            <InterpolatingParam id="1814" interp="linr" value="0"  />
           </VectorParam>
          </Transformer>
          <Parameters>
           <VectorParam id="1815"  name="sourceCrop">
            <InterpolatingParam id="1816" interp="linr" value="0"  />
            <InterpolatingParam id="1817" interp="linr" value="0"  />
            <InterpolatingParam id="1818" interp="linr" value="0"  />
            <InterpolatingParam id="1819" interp="linr" value="0"  />
           </VectorParam>
           <VectorParam id="1820"  name="geometryCrop">
            <InterpolatingParam id="1821" interp="linr" value="0"  />
            <InterpolatingParam id="1822" interp="linr" value="0"  />
            <InterpolatingParam id="1823" interp="linr" value="0"  />
            <InterpolatingParam id="1824" interp="linr" value="0"  />
           </VectorParam>
           <InterpolatingParam id="1825"  name="opacity">
            <Parameters>
             <Parameter id="1826"  name="interpolater">
              <Keyframes>
              <Keyframe id="1827"  time="0/1" value="linr" leadInLength="0/1" />
              </Keyframes>
             </Parameter>
            </Parameters>
            <Keyframes>
            <Keyframe id="1828"  time="-9999999/1" value="1" leadInLength="0/1" />
            <Keyframe id="1829"  time="2/1" value="1" leadInLength="30/1" interpolater="leadin-linr" />
            </Keyframes>
           </InterpolatingParam>
          </Parameters>
          <Attributes>
           <Attribute id="1830" value="" name="ident"/>
          </Attributes>
          <ExtraData>
           <Entry key="ZoomPanBin">
            <ZoomPanBin id="1831"  >
             <ZoomPanKeyframes>
              <ZoomPanKeyframe id="1832" timeRangeStart="-9999999/1" timeRangeDuration="0/1"  />
              <ZoomPanKeyframe id="1833" timeRangeStart="-28/1" timeRangeDuration="30/1"  />
             </ZoomPanKeyframes>
            </ZoomPanBin>
           </Entry>
          </ExtraData>
         </VMFile>
         <MetaData>
          <entry key="WinSubProjectDisplayName" val=""/>
         </MetaData>
        </UnifiedMedia>
        <UnifiedMedia id="1834"  >
         <AMFile id="1835" start="833" duration="131" scalar="2/1" mediaStart="5153/1" mediaDuration="131/2" trackNumber="1" src="4" channelNumber="0,1" >
          <Parameters>
           <InterpolatingParam id="1836" interp="linr" value="1"  name="volume"/>
           <Parameter id="1837"  name="captions"/>
          </Parameters>
          <Attributes>
           <Attribute id="1838" value="" name="ident"/>
           <Attribute id="1839" value="44100" name="sampleRate"/>
           <Attribute id="1840" value="16" name="bitDepth"/>
           <Attribute id="1841" value="1" name="gain"/>
          </Attributes>
         </AMFile>
         <VMFile id="1842" start="833" duration="131" scalar="2/1" mediaStart="5153/1" mediaDuration="131/2" trackNumber="0" src="4" >
          <Transformer>
           <VectorParam id="1843"  name="translation">
            <InterpolatingParam id="1844"  >
             <Parameters>
              <Parameter id="1845"  name="interpolater">
               <Keyframes>
               <Keyframe id="1846"  time="0/1" value="linr" leadInLength="0/1" />
               </Keyframes>
              </Parameter>
             </Parameters>
             <Keyframes>
             <Keyframe id="1847"  time="-9999999/1" value="0" leadInLength="0/1" />
             <Keyframe id="1848"  time="5/2" value="233.89643881435987" leadInLength="30/1" interpolater="leadin-linr" />
             </Keyframes>
            </InterpolatingParam>
            <InterpolatingParam id="1849"  >
             <Parameters>
              <Parameter id="1850"  name="interpolater">
               <Keyframes>
               <Keyframe id="1851"  time="0/1" value="linr" leadInLength="0/1" />
               </Keyframes>
              </Parameter>
             </Parameters>
             <Keyframes>
             <Keyframe id="1852"  time="-9999999/1" value="0" leadInLength="0/1" />
             <Keyframe id="1853"  time="5/2" value="-5.5887911649183746" leadInLength="30/1" interpolater="leadin-linr" />
             </Keyframes>
            </InterpolatingParam>
            <InterpolatingParam id="1854"  >
             <Parameters>
              <Parameter id="1855"  name="interpolater">
               <Keyframes>
               <Keyframe id="1856"  time="0/1" value="linr" leadInLength="0/1" />
               </Keyframes>
              </Parameter>
             </Parameters>
             <Keyframes>
             <Keyframe id="1857"  time="-9999999/1" value="0" leadInLength="0/1" />
             <Keyframe id="1858"  time="5/2" value="0" leadInLength="30/1" interpolater="leadin-linr" />
             </Keyframes>
            </InterpolatingParam>
           </VectorParam>
           <VectorParam id="1859"  name="rotation">
            <InterpolatingParam id="1860"  >
             <Parameters>
              <Parameter id="1861"  name="interpolater">
               <Keyframes>
               <Keyframe id="1862"  time="0/1" value="linr" leadInLength="0/1" />
               </Keyframes>
              </Parameter>
             </Parameters>
             <Keyframes>
             <Keyframe id="1863"  time="-9999999/1" value="0" leadInLength="0/1" />
             <Keyframe id="1864"  time="5/2" value="0" leadInLength="30/1" interpolater="leadin-linr" />
             </Keyframes>
            </InterpolatingParam>
            <InterpolatingParam id="1865"  >
             <Parameters>
              <Parameter id="1866"  name="interpolater">
               <Keyframes>
               <Keyframe id="1867"  time="0/1" value="linr" leadInLength="0/1" />
               </Keyframes>
              </Parameter>
             </Parameters>
             <Keyframes>
             <Keyframe id="1868"  time="-9999999/1" value="0" leadInLength="0/1" />
             <Keyframe id="1869"  time="5/2" value="0" leadInLength="30/1" interpolater="leadin-linr" />
             </Keyframes>
            </InterpolatingParam>
            <InterpolatingParam id="1870"  >
             <Parameters>
              <Parameter id="1871"  name="interpolater">
               <Keyframes>
               <Keyframe id="1872"  time="0/1" value="linr" leadInLength="0/1" />
               </Keyframes>
              </Parameter>
             </Parameters>
             <Keyframes>
             <Keyframe id="1873"  time="-9999999/1" value="0" leadInLength="0/1" />
             <Keyframe id="1874"  time="5/2" value="0" leadInLength="30/1" interpolater="leadin-linr" />
             </Keyframes>
            </InterpolatingParam>
           </VectorParam>
           <VectorParam id="1875"  name="shear">
            <InterpolatingParam id="1876"  >
             <Parameters>
              <Parameter id="1877"  name="interpolater">
               <Keyframes>
               <Keyframe id="1878"  time="0/1" value="linr" leadInLength="0/1" />
               </Keyframes>
              </Parameter>
             </Parameters>
             <Keyframes>
             <Keyframe id="1879"  time="-9999999/1" value="0" leadInLength="0/1" />
             <Keyframe id="1880"  time="5/2" value="0" leadInLength="30/1" interpolater="leadin-linr" />
             </Keyframes>
            </InterpolatingParam>
            <InterpolatingParam id="1881"  >
             <Parameters>
              <Parameter id="1882"  name="interpolater">
               <Keyframes>
               <Keyframe id="1883"  time="0/1" value="linr" leadInLength="0/1" />
               </Keyframes>
              </Parameter>
             </Parameters>
             <Keyframes>
             <Keyframe id="1884"  time="-9999999/1" value="0" leadInLength="0/1" />
             <Keyframe id="1885"  time="5/2" value="0" leadInLength="30/1" interpolater="leadin-linr" />
             </Keyframes>
            </InterpolatingParam>
            <InterpolatingParam id="1886"  >
             <Parameters>
              <Parameter id="1887"  name="interpolater">
               <Keyframes>
               <Keyframe id="1888"  time="0/1" value="linr" leadInLength="0/1" />
               </Keyframes>
              </Parameter>
             </Parameters>
             <Keyframes>
             <Keyframe id="1889"  time="-9999999/1" value="0" leadInLength="0/1" />
             <Keyframe id="1890"  time="5/2" value="0" leadInLength="30/1" interpolater="leadin-linr" />
             </Keyframes>
            </InterpolatingParam>
           </VectorParam>
           <VectorParam id="1891"  name="scale">
            <InterpolatingParam id="1892"  >
             <Parameters>
              <Parameter id="1893"  name="interpolater">
               <Keyframes>
               <Keyframe id="1894"  time="0/1" value="linr" leadInLength="0/1" />
               </Keyframes>
              </Parameter>
             </Parameters>
             <Keyframes>
             <Keyframe id="1895"  time="-9999999/1" value="1" leadInLength="0/1" />
             <Keyframe id="1896"  time="5/2" value="1.3428168900191493" leadInLength="30/1" interpolater="leadin-linr" />
             </Keyframes>
            </InterpolatingParam>
            <InterpolatingParam id="1897"  >
             <Parameters>
              <Parameter id="1898"  name="interpolater">
               <Keyframes>
               <Keyframe id="1899"  time="0/1" value="linr" leadInLength="0/1" />
               </Keyframes>
              </Parameter>
             </Parameters>
             <Keyframes>
             <Keyframe id="1900"  time="-9999999/1" value="1" leadInLength="0/1" />
             <Keyframe id="1901"  time="5/2" value="1.3428164909198217" leadInLength="30/1" interpolater="leadin-linr" />
             </Keyframes>
            </InterpolatingParam>
            <InterpolatingParam id="1902"  >
             <Parameters>
              <Parameter id="1903"  name="interpolater">
               <Keyframes>
               <Keyframe id="1904"  time="0/1" value="linr" leadInLength="0/1" />
               </Keyframes>
              </Parameter>
             </Parameters>
             <Keyframes>
             <Keyframe id="1905"  time="-9999999/1" value="1" leadInLength="0/1" />
             <Keyframe id="1906"  time="5/2" value="0.99999999999999989" leadInLength="30/1" interpolater="leadin-linr" />
             </Keyframes>
            </InterpolatingParam>
           </VectorParam>
           <VectorParam id="1907"  name="anchor">
            <InterpolatingParam id="1908" interp="linr" value="0"  />
            <InterpolatingParam id="1909" interp="linr" value="0"  />
            <InterpolatingParam id="1910" interp="linr" value="0"  />
           </VectorParam>
          </Transformer>
          <Parameters>
           <VectorParam id="1911"  name="sourceCrop">
            <InterpolatingParam id="1912" interp="linr" value="0"  />
            <InterpolatingParam id="1913" interp="linr" value="0"  />
            <InterpolatingParam id="1914" interp="linr" value="0"  />
            <InterpolatingParam id="1915" interp="linr" value="0"  />
           </VectorParam>
           <VectorParam id="1916"  name="geometryCrop">
            <InterpolatingParam id="1917" interp="linr" value="0"  />
            <InterpolatingParam id="1918" interp="linr" value="0"  />
            <InterpolatingParam id="1919" interp="linr" value="0"  />
            <InterpolatingParam id="1920" interp="linr" value="0"  />
           </VectorParam>
           <InterpolatingParam id="1921"  name="opacity">
            <Parameters>
             <Parameter id="1922"  name="interpolater">
              <Keyframes>
              <Keyframe id="1923"  time="0/1" value="linr" leadInLength="0/1" />
              </Keyframes>
             </Parameter>
            </Parameters>
            <Keyframes>
            <Keyframe id="1924"  time="-9999999/1" value="1" leadInLength="0/1" />
            <Keyframe id="1925"  time="5/2" value="1" leadInLength="30/1" interpolater="leadin-linr" />
            </Keyframes>
           </InterpolatingParam>
          </Parameters>
          <Attributes>
           <Attribute id="1926" value="" name="ident"/>
          </Attributes>
          <ExtraData>
           <Entry key="ZoomPanBin">
            <ZoomPanBin id="1927"  >
             <ZoomPanKeyframes>
              <ZoomPanKeyframe id="1928" timeRangeStart="-9999999/1" timeRangeDuration="0/1"  />
              <ZoomPanKeyframe id="1929" timeRangeStart="-55/2" timeRangeDuration="30/1"  />
             </ZoomPanKeyframes>
            </ZoomPanBin>
           </Entry>
          </ExtraData>
         </VMFile>
         <MetaData>
          <entry key="WinSubProjectDisplayName" val=""/>
         </MetaData>
        </UnifiedMedia>
        <UnifiedMedia id="1930"  >
         <AudioTransition id="1931" start="964" duration="50" >
          <Parameters>
           <InterpolatingParam id="1932" interp="linr" value="1"  name="volume"/>
           <Parameter id="1933"  name="captions"/>
          </Parameters>
          <Effects>
           <GenericEffect id="1934" name = "AudioTransition" >
            <Parameters>
            <Parameter id="1935"   name="audioEdgeModType">
             <Keyframes>
             <Keyframe id="1936"  time="0/1" value="0" leadInLength="0/1" />
             </Keyframes>
            </Parameter>
            <Parameter id="1937"   name="audioTransitionType">
             <Keyframes>
             <Keyframe id="1938"  time="0/1" value="" leadInLength="0/1" />
             </Keyframes>
            </Parameter>
            </Parameters>
            <MetaData>
            </MetaData>
           </GenericEffect>
          </Effects>
          <Attributes>
           <Attribute id="1939" value="" name="ident"/>
           <Attribute id="1940" value="0" name="sampleRate"/>
           <Attribute id="1941" value="0" name="bitDepth"/>
           <Attribute id="1942" value="1" name="gain"/>
          </Attributes>
         </AudioTransition>
         <ImageTransition id="1943" start="964" duration="50" >
          <Transformer>
           <VectorParam id="1944"  name="translation">
            <InterpolatingParam id="1945" interp="linr" value="0"  />
            <InterpolatingParam id="1946" interp="linr" value="0"  />
            <InterpolatingParam id="1947" interp="linr" value="0"  />
           </VectorParam>
           <VectorParam id="1948"  name="rotation">
            <InterpolatingParam id="1949" interp="linr" value="0"  />
            <InterpolatingParam id="1950" interp="linr" value="0"  />
            <InterpolatingParam id="1951" interp="linr" value="0"  />
           </VectorParam>
           <VectorParam id="1952"  name="shear">
            <InterpolatingParam id="1953" interp="linr" value="0"  />
            <InterpolatingParam id="1954" interp="linr" value="0"  />
            <InterpolatingParam id="1955" interp="linr" value="0"  />
           </VectorParam>
           <VectorParam id="1956"  name="scale">
            <InterpolatingParam id="1957" interp="linr" value="1"  />
            <InterpolatingParam id="1958" interp="linr" value="1"  />
            <InterpolatingParam id="1959" interp="linr" value="1"  />
           </VectorParam>
           <VectorParam id="1960"  name="anchor">
            <InterpolatingParam id="1961" interp="linr" value="0"  />
            <InterpolatingParam id="1962" interp="linr" value="0"  />
            <InterpolatingParam id="1963" interp="linr" value="0"  />
           </VectorParam>
          </Transformer>
          <Parameters>
           <VectorParam id="1964"  name="sourceCrop">
            <InterpolatingParam id="1965" interp="linr" value="0"  />
            <InterpolatingParam id="1966" interp="linr" value="0"  />
            <InterpolatingParam id="1967" interp="linr" value="0"  />
            <InterpolatingParam id="1968" interp="linr" value="0"  />
           </VectorParam>
           <VectorParam id="1969"  name="geometryCrop">
            <InterpolatingParam id="1970" interp="linr" value="0"  />
            <InterpolatingParam id="1971" interp="linr" value="0"  />
            <InterpolatingParam id="1972" interp="linr" value="0"  />
            <InterpolatingParam id="1973" interp="linr" value="0"  />
           </VectorParam>
           <InterpolatingParam id="1974" interp="linr" value="1"  name="opacity"/>
          </Parameters>
          <Effects>
           <GenericEffect id="1975" name = "VisualTransition" >
            <Parameters>
            <InterpolatingParam id="1976" interp="linr" value="0.5"   name="leftFramePercentage"/>
            <InterpolatingParam id="1977" interp="linr" value="0.5"   name="rightFramePercentage"/>
            <Parameter id="1978"   name="visualEdgeModType">
             <Keyframes>
             <Keyframe id="1979"  time="0/1" value="2" leadInLength="0/1" />
             </Keyframes>
            </Parameter>
            <Parameter id="1980"   name="visualTransitionType">
             <Keyframes>
             <Keyframe id="1981"  time="0/1" value="Pixelate" leadInLength="0/1" />
             </Keyframes>
            </Parameter>
            </Parameters>
            <MetaData>
            </MetaData>
           </GenericEffect>
          </Effects>
          <Attributes>
           <Attribute id="1982" value="" name="ident"/>
          </Attributes>
          <ExtraData>
           <Entry key="ZoomPanBin">
            <ZoomPanBin id="1983"  >
             <ZoomPanKeyframes>
             </ZoomPanKeyframes>
            </ZoomPanBin>
           </Entry>
          </ExtraData>
         </ImageTransition>
         <MetaData>
          <entry key="WinSubProjectDisplayName" val=""/>
         </MetaData>
        </UnifiedMedia>
       </Medias>
      </GenericTrack>
      <GenericTrack id="1984"  >
       <Attributes>
        <Attribute id="1985" value="" name="ident"/>
       </Attributes>
       <MetaData>
        <entry key="IsLocked" val="False"/>
        <entry key="WinTrackHeight" val="53"/>
       </MetaData>
       <Medias>
        <AMFile id="1986" start="0" duration="1014" scalar="1/1" mediaStart="0/1" mediaDuration="1014/1" trackNumber="0" src="5" channelNumber="0,1" >
         <Parameters>
          <InterpolatingParam id="1987"  name="volume">
           <Parameters>
            <Parameter id="1988"  name="interpolater">
             <Keyframes>
             <Keyframe id="1989"  time="0/1" value="linr" leadInLength="0/1" />
             </Keyframes>
            </Parameter>
           </Parameters>
           <Keyframes>
           <Keyframe id="1990"  time="0/1" value="1" leadInLength="0/1" />
           <Keyframe id="1991"  time="914/1" value="1" leadInLength="0/1" />
           <Keyframe id="1992"  time="966/1" value="0.99969762941461049" leadInLength="0/1" />
           <Keyframe id="1993"  time="1014/1" value="0" leadInLength="0/1" />
           <Keyframe id="1994"  time="1015/1" value="1.0464441219158198" leadInLength="0/1" />
           </Keyframes>
          </InterpolatingParam>
          <Parameter id="1995"  name="captions"/>
         </Parameters>
         <Attributes>
          <Attribute id="1996" value="" name="ident"/>
          <Attribute id="1997" value="44100" name="sampleRate"/>
          <Attribute id="1998" value="0" name="bitDepth"/>
          <Attribute id="1999" value="1" name="gain"/>
         </Attributes>
         <MetaData>
          <entry key="WinSubProjectDisplayName" val=""/>
         </MetaData>
        </AMFile>
       </Medias>
      </GenericTrack>
      <GenericTrack id="2000"  >
       <Attributes>
        <Attribute id="2001" value="" name="ident"/>
       </Attributes>
       <MetaData>
        <entry key="IsLocked" val="False"/>
        <entry key="WinTrackHeight" val="53"/>
       </MetaData>
       <Medias>
        <Callout id="2002" start="565" duration="70" scalar="1/1" mediaStart="42/1" mediaDuration="70/1" >
         <Transformer>
          <VectorParam id="2003"  name="translation">
           <InterpolatingParam id="2004"  >
            <Parameters>
             <Parameter id="2005"  name="interpolater">
              <Keyframes>
              <Keyframe id="2006"  time="0/1" value="linr" leadInLength="0/1" />
              </Keyframes>
             </Parameter>
            </Parameters>
            <Keyframes>
            <Keyframe id="2007"  time="-9999999/1" value="231.63228787039483" leadInLength="0/1" />
            </Keyframes>
           </InterpolatingParam>
           <InterpolatingParam id="2008"  >
            <Parameters>
             <Parameter id="2009"  name="interpolater">
              <Keyframes>
              <Keyframe id="2010"  time="0/1" value="linr" leadInLength="0/1" />
              </Keyframes>
             </Parameter>
            </Parameters>
            <Keyframes>
            <Keyframe id="2011"  time="-9999999/1" value="-243.39622641549565" leadInLength="0/1" />
            </Keyframes>
           </InterpolatingParam>
           <InterpolatingParam id="2012"  >
            <Parameters>
             <Parameter id="2013"  name="interpolater">
              <Keyframes>
              <Keyframe id="2014"  time="0/1" value="linr" leadInLength="0/1" />
              </Keyframes>
             </Parameter>
            </Parameters>
            <Keyframes>
            <Keyframe id="2015"  time="-9999999/1" value="-3.4106051316482886e-010" leadInLength="0/1" />
            </Keyframes>
           </InterpolatingParam>
          </VectorParam>
          <VectorParam id="2016"  name="rotation">
           <InterpolatingParam id="2017"  >
            <Parameters>
             <Parameter id="2018"  name="interpolater">
              <Keyframes>
              <Keyframe id="2019"  time="0/1" value="linr" leadInLength="0/1" />
              </Keyframes>
             </Parameter>
            </Parameters>
            <Keyframes>
            <Keyframe id="2020"  time="-9999999/1" value="0" leadInLength="0/1" />
            </Keyframes>
           </InterpolatingParam>
           <InterpolatingParam id="2021"  >
            <Parameters>
             <Parameter id="2022"  name="interpolater">
              <Keyframes>
              <Keyframe id="2023"  time="0/1" value="linr" leadInLength="0/1" />
              </Keyframes>
             </Parameter>
            </Parameters>
            <Keyframes>
            <Keyframe id="2024"  time="-9999999/1" value="0" leadInLength="0/1" />
            </Keyframes>
           </InterpolatingParam>
           <InterpolatingParam id="2025"  >
            <Parameters>
             <Parameter id="2026"  name="interpolater">
              <Keyframes>
              <Keyframe id="2027"  time="0/1" value="linr" leadInLength="0/1" />
              </Keyframes>
             </Parameter>
            </Parameters>
            <Keyframes>
            <Keyframe id="2028"  time="-9999999/1" value="-3.8280489889075398e-013" leadInLength="0/1" />
            </Keyframes>
           </InterpolatingParam>
          </VectorParam>
          <VectorParam id="2029"  name="shear">
           <InterpolatingParam id="2030"  >
            <Parameters>
             <Parameter id="2031"  name="interpolater">
              <Keyframes>
              <Keyframe id="2032"  time="0/1" value="linr" leadInLength="0/1" />
              </Keyframes>
             </Parameter>
            </Parameters>
            <Keyframes>
            <Keyframe id="2033"  time="-9999999/1" value="-7.1629151849051576e-018" leadInLength="0/1" />
            </Keyframes>
           </InterpolatingParam>
           <InterpolatingParam id="2034"  >
            <Parameters>
             <Parameter id="2035"  name="interpolater">
              <Keyframes>
              <Keyframe id="2036"  time="0/1" value="linr" leadInLength="0/1" />
              </Keyframes>
             </Parameter>
            </Parameters>
            <Keyframes>
            <Keyframe id="2037"  time="-9999999/1" value="0" leadInLength="0/1" />
            </Keyframes>
           </InterpolatingParam>
           <InterpolatingParam id="2038"  >
            <Parameters>
             <Parameter id="2039"  name="interpolater">
              <Keyframes>
              <Keyframe id="2040"  time="0/1" value="linr" leadInLength="0/1" />
              </Keyframes>
             </Parameter>
            </Parameters>
            <Keyframes>
            <Keyframe id="2041"  time="-9999999/1" value="0" leadInLength="0/1" />
            </Keyframes>
           </InterpolatingParam>
          </VectorParam>
          <VectorParam id="2042"  name="scale">
           <InterpolatingParam id="2043"  >
            <Parameters>
             <Parameter id="2044"  name="interpolater">
              <Keyframes>
              <Keyframe id="2045"  time="0/1" value="linr" leadInLength="0/1" />
              </Keyframes>
             </Parameter>
            </Parameters>
            <Keyframes>
            <Keyframe id="2046"  time="-9999999/1" value="0.25471698113348923" leadInLength="0/1" />
            </Keyframes>
           </InterpolatingParam>
           <InterpolatingParam id="2047"  >
            <Parameters>
             <Parameter id="2048"  name="interpolater">
              <Keyframes>
              <Keyframe id="2049"  time="0/1" value="linr" leadInLength="0/1" />
              </Keyframes>
             </Parameter>
            </Parameters>
            <Keyframes>
            <Keyframe id="2050"  time="-9999999/1" value="1" leadInLength="0/1" />
            </Keyframes>
           </InterpolatingParam>
           <InterpolatingParam id="2051"  >
            <Parameters>
             <Parameter id="2052"  name="interpolater">
              <Keyframes>
              <Keyframe id="2053"  time="0/1" value="linr" leadInLength="0/1" />
              </Keyframes>
             </Parameter>
            </Parameters>
            <Keyframes>
            <Keyframe id="2054"  time="-9999999/1" value="1" leadInLength="0/1" />
            </Keyframes>
           </InterpolatingParam>
          </VectorParam>
          <VectorParam id="2055"  name="anchor">
           <InterpolatingParam id="2056" interp="linr" value="0"  />
           <InterpolatingParam id="2057" interp="linr" value="0"  />
           <InterpolatingParam id="2058" interp="linr" value="0"  />
          </VectorParam>
         </Transformer>
         <Parameters>
          <VectorParam id="2059"  name="sourceCrop">
           <InterpolatingParam id="2060" interp="linr" value="0"  />
           <InterpolatingParam id="2061" interp="linr" value="0"  />
           <InterpolatingParam id="2062" interp="linr" value="0"  />
           <InterpolatingParam id="2063" interp="linr" value="0"  />
          </VectorParam>
          <VectorParam id="2064"  name="geometryCrop">
           <InterpolatingParam id="2065" interp="linr" value="0"  />
           <InterpolatingParam id="2066" interp="linr" value="0"  />
           <InterpolatingParam id="2067" interp="linr" value="0"  />
           <InterpolatingParam id="2068" interp="linr" value="0"  />
          </VectorParam>
          <InterpolatingParam id="2069"  name="opacity">
           <Parameters>
            <Parameter id="2070"  name="interpolater">
             <Keyframes>
             <Keyframe id="2071"  time="0/1" value="linr" leadInLength="0/1" />
             </Keyframes>
            </Parameter>
           </Parameters>
           <Keyframes>
           <Keyframe id="2072"  time="-9999999/1" value="1" leadInLength="0/1" />
           </Keyframes>
          </InterpolatingParam>
         </Parameters>
         <Effects>
          <GenericEffect id="2073" name = "DropShadow" >
           <Parameters>
           <InterpolatingParam id="2074" interp="linr" value="315"   name="angle"/>
           <InterpolatingParam id="2075" interp="linr" value="2"   name="blur"/>
           <Parameter id="2076"   name="enabled">
            <Keyframes>
            <Keyframe id="2077"  time="0/1" value="1" leadInLength="0/1" />
            </Keyframes>
           </Parameter>
           <InterpolatingParam id="2078" interp="linr" value="4"   name="offset"/>
           <InterpolatingParam id="2079" interp="linr" value="0.75"   name="opacity"/>
           </Parameters>
          </GenericEffect>
         </Effects>
         <Attributes>
          <Attribute id="2080"  name="vectorNode">
           <VectorNode id="2081" kind="TypeWinLine"  >
            <DoubleParameters>
             <InterpolatingParam id="2082" interp="linr" value="0"  name="borderColorBlue"/>
             <InterpolatingParam id="2083" interp="linr" value="0"  name="borderColorGreen"/>
             <InterpolatingParam id="2084" interp="linr" value="192"  name="borderColorRed"/>
             <InterpolatingParam id="2085" interp="linr" value="5"  name="borderWidth"/>
             <InterpolatingParam id="2086" interp="linr" value="1"  name="endCapStyle"/>
             <InterpolatingParam id="2087" interp="linr" value="20"  name="height"/>
             <InterpolatingParam id="2088" interp="linr" value="2"  name="startCapStyle"/>
             <InterpolatingParam id="2089" interp="linr" value="480"  name="width"/>
            </DoubleParameters>
            <StringParameters>
             <Parameter id="2090"  name="filename">
              <Keyframes>
              <Keyframe id="2091"  time="0/1" value="C:\Program Files (x86)\TechSmith\Camtasia Studio 8\Media\Studio\Callouts\line 2.xml" leadInLength="0/1" />
              </Keyframes>
             </Parameter>
             <Parameter id="2092"  name="name">
              <Keyframes>
              <Keyframe id="2093"  time="0/1" value="Line" leadInLength="0/1" />
              </Keyframes>
             </Parameter>
             <Parameter id="2094"  name="xmlContent">
              <Keyframes>
              <Keyframe id="2095"  time="0/1" value="﻿&lt;?xml version=&quot;1.0&quot;?&gt;&#xa;&#xa;&lt;Overlay version=&quot;1.0.1&quot;&gt;&#xa;&#xa;&lt;Overlay_Filename&gt;line 2.png&lt;/Overlay_Filename&gt;&#xa;&lt;Overlay_Name&gt;Line&lt;/Overlay_Name&gt;&#xa;&lt;Text_Top&gt;0&lt;/Text_Top&gt;&#xa;&lt;Text_Left&gt;0&lt;/Text_Left&gt;&#xa;&lt;Text_Bottom&gt;0&lt;/Text_Bottom&gt;&#xa;&lt;Text_Right&gt;0&lt;/Text_Right&gt;&#xa;&lt;Style&gt;5&lt;/Style&gt;&#xa;&lt;Initial_Fill_Color&gt;0xffd8a57c&lt;/Initial_Fill_Color&gt;&#xa;&lt;Initial_Border_Color&gt;0xff017b34&lt;/Initial_Border_Color&gt;&#xa;&lt;StartCap&gt;2&lt;/StartCap&gt;&#xa;&lt;EndCap&gt;1&lt;/EndCap&gt;&#xa;&lt;UseDefaultSpec&gt;1&lt;/UseDefaultSpec&gt;&#xa;&lt;/Overlay&gt;" leadInLength="0/1" />
              </Keyframes>
             </Parameter>
            </StringParameters>
           </VectorNode>
          </Attribute>
         </Attributes>
         <MetaData>
          <entry key="WinSubProjectDisplayName" val=""/>
         </MetaData>
         <LeftEdgeMods length="3/1" groupName="OpacityFade">
          <EdgeMod parameter="2069">
           <FadeInFunc id="2096"  />
          </EdgeMod>
         </LeftEdgeMods>
         <RightEdgeMods length="3/1" groupName="OpacityFade">
          <EdgeMod parameter="2069">
           <FadeOutFunc id="2097"  />
          </EdgeMod>
         </RightEdgeMods>
         <ExtraData>
          <Entry key="ZoomPanBin">
           <ZoomPanBin id="2098"  >
            <ZoomPanKeyframes>
             <ZoomPanKeyframe id="2099" timeRangeStart="-9999999/1" timeRangeDuration="0/1"  />
            </ZoomPanKeyframes>
           </ZoomPanBin>
          </Entry>
         </ExtraData>
        </Callout>
       </Medias>
      </GenericTrack>
      <GenericTrack id="2100"  >
       <Attributes>
        <Attribute id="2101" value="" name="ident"/>
       </Attributes>
       <MetaData>
        <entry key="IsLocked" val="False"/>
        <entry key="WinTrackHeight" val="53"/>
       </MetaData>
       <Medias>
        <Callout id="2102" start="635" duration="75" scalar="1/1" mediaStart="42/1" mediaDuration="75/1" >
         <Transformer>
          <VectorParam id="2103"  name="translation">
           <InterpolatingParam id="2104"  >
            <Parameters>
             <Parameter id="2105"  name="interpolater">
              <Keyframes>
              <Keyframe id="2106"  time="0/1" value="linr" leadInLength="0/1" />
              </Keyframes>
             </Parameter>
            </Parameters>
            <Keyframes>
            <Keyframe id="2107"  time="-9999999/1" value="231.63228787038429" leadInLength="0/1" />
            </Keyframes>
           </InterpolatingParam>
           <InterpolatingParam id="2108"  >
            <Parameters>
             <Parameter id="2109"  name="interpolater">
              <Keyframes>
              <Keyframe id="2110"  time="0/1" value="linr" leadInLength="0/1" />
              </Keyframes>
             </Parameter>
            </Parameters>
            <Keyframes>
            <Keyframe id="2111"  time="-9999999/1" value="-270.56603773625602" leadInLength="0/1" />
            </Keyframes>
           </InterpolatingParam>
           <InterpolatingParam id="2112"  >
            <Parameters>
             <Parameter id="2113"  name="interpolater">
              <Keyframes>
              <Keyframe id="2114"  time="0/1" value="linr" leadInLength="0/1" />
              </Keyframes>
             </Parameter>
            </Parameters>
            <Keyframes>
            <Keyframe id="2115"  time="-9999999/1" value="-3.4106051316482886e-010" leadInLength="0/1" />
            </Keyframes>
           </InterpolatingParam>
          </VectorParam>
          <VectorParam id="2116"  name="rotation">
           <InterpolatingParam id="2117"  >
            <Parameters>
             <Parameter id="2118"  name="interpolater">
              <Keyframes>
              <Keyframe id="2119"  time="0/1" value="linr" leadInLength="0/1" />
              </Keyframes>
             </Parameter>
            </Parameters>
            <Keyframes>
            <Keyframe id="2120"  time="-9999999/1" value="0" leadInLength="0/1" />
            </Keyframes>
           </InterpolatingParam>
           <InterpolatingParam id="2121"  >
            <Parameters>
             <Parameter id="2122"  name="interpolater">
              <Keyframes>
              <Keyframe id="2123"  time="0/1" value="linr" leadInLength="0/1" />
              </Keyframes>
             </Parameter>
            </Parameters>
            <Keyframes>
            <Keyframe id="2124"  time="-9999999/1" value="0" leadInLength="0/1" />
            </Keyframes>
           </InterpolatingParam>
           <InterpolatingParam id="2125"  >
            <Parameters>
             <Parameter id="2126"  name="interpolater">
              <Keyframes>
              <Keyframe id="2127"  time="0/1" value="linr" leadInLength="0/1" />
              </Keyframes>
             </Parameter>
            </Parameters>
            <Keyframes>
            <Keyframe id="2128"  time="-9999999/1" value="-3.8280489889075398e-013" leadInLength="0/1" />
            </Keyframes>
           </InterpolatingParam>
          </VectorParam>
          <VectorParam id="2129"  name="shear">
           <InterpolatingParam id="2130"  >
            <Parameters>
             <Parameter id="2131"  name="interpolater">
              <Keyframes>
              <Keyframe id="2132"  time="0/1" value="linr" leadInLength="0/1" />
              </Keyframes>
             </Parameter>
            </Parameters>
            <Keyframes>
            <Keyframe id="2133"  time="-9999999/1" value="-7.1629151849051576e-018" leadInLength="0/1" />
            </Keyframes>
           </InterpolatingParam>
           <InterpolatingParam id="2134"  >
            <Parameters>
             <Parameter id="2135"  name="interpolater">
              <Keyframes>
              <Keyframe id="2136"  time="0/1" value="linr" leadInLength="0/1" />
              </Keyframes>
             </Parameter>
            </Parameters>
            <Keyframes>
            <Keyframe id="2137"  time="-9999999/1" value="0" leadInLength="0/1" />
            </Keyframes>
           </InterpolatingParam>
           <InterpolatingParam id="2138"  >
            <Parameters>
             <Parameter id="2139"  name="interpolater">
              <Keyframes>
              <Keyframe id="2140"  time="0/1" value="linr" leadInLength="0/1" />
              </Keyframes>
             </Parameter>
            </Parameters>
            <Keyframes>
            <Keyframe id="2141"  time="-9999999/1" value="0" leadInLength="0/1" />
            </Keyframes>
           </InterpolatingParam>
          </VectorParam>
          <VectorParam id="2142"  name="scale">
           <InterpolatingParam id="2143"  >
            <Parameters>
             <Parameter id="2144"  name="interpolater">
              <Keyframes>
              <Keyframe id="2145"  time="0/1" value="linr" leadInLength="0/1" />
              </Keyframes>
             </Parameter>
            </Parameters>
            <Keyframes>
            <Keyframe id="2146"  time="-9999999/1" value="0.25471698113348923" leadInLength="0/1" />
            </Keyframes>
           </InterpolatingParam>
           <InterpolatingParam id="2147"  >
            <Parameters>
             <Parameter id="2148"  name="interpolater">
              <Keyframes>
              <Keyframe id="2149"  time="0/1" value="linr" leadInLength="0/1" />
              </Keyframes>
             </Parameter>
            </Parameters>
            <Keyframes>
            <Keyframe id="2150"  time="-9999999/1" value="1" leadInLength="0/1" />
            </Keyframes>
           </InterpolatingParam>
           <InterpolatingParam id="2151"  >
            <Parameters>
             <Parameter id="2152"  name="interpolater">
              <Keyframes>
              <Keyframe id="2153"  time="0/1" value="linr" leadInLength="0/1" />
              </Keyframes>
             </Parameter>
            </Parameters>
            <Keyframes>
            <Keyframe id="2154"  time="-9999999/1" value="1" leadInLength="0/1" />
            </Keyframes>
           </InterpolatingParam>
          </VectorParam>
          <VectorParam id="2155"  name="anchor">
           <InterpolatingParam id="2156" interp="linr" value="0"  />
           <InterpolatingParam id="2157" interp="linr" value="0"  />
           <InterpolatingParam id="2158" interp="linr" value="0"  />
          </VectorParam>
         </Transformer>
         <Parameters>
          <VectorParam id="2159"  name="sourceCrop">
           <InterpolatingParam id="2160" interp="linr" value="0"  />
           <InterpolatingParam id="2161" interp="linr" value="0"  />
           <InterpolatingParam id="2162" interp="linr" value="0"  />
           <InterpolatingParam id="2163" interp="linr" value="0"  />
          </VectorParam>
          <VectorParam id="2164"  name="geometryCrop">
           <InterpolatingParam id="2165" interp="linr" value="0"  />
           <InterpolatingParam id="2166" interp="linr" value="0"  />
           <InterpolatingParam id="2167" interp="linr" value="0"  />
           <InterpolatingParam id="2168" interp="linr" value="0"  />
          </VectorParam>
          <InterpolatingParam id="2169"  name="opacity">
           <Parameters>
            <Parameter id="2170"  name="interpolater">
             <Keyframes>
             <Keyframe id="2171"  time="0/1" value="linr" leadInLength="0/1" />
             </Keyframes>
            </Parameter>
           </Parameters>
           <Keyframes>
           <Keyframe id="2172"  time="-9999999/1" value="1" leadInLength="0/1" />
           </Keyframes>
          </InterpolatingParam>
         </Parameters>
         <Effects>
          <GenericEffect id="2173" name = "DropShadow" >
           <Parameters>
           <InterpolatingParam id="2174" interp="linr" value="315"   name="angle"/>
           <InterpolatingParam id="2175" interp="linr" value="2"   name="blur"/>
           <Parameter id="2176"   name="enabled">
            <Keyframes>
            <Keyframe id="2177"  time="0/1" value="1" leadInLength="0/1" />
            </Keyframes>
           </Parameter>
           <InterpolatingParam id="2178" interp="linr" value="4"   name="offset"/>
           <InterpolatingParam id="2179" interp="linr" value="0.75"   name="opacity"/>
           </Parameters>
          </GenericEffect>
         </Effects>
         <Attributes>
          <Attribute id="2180"  name="vectorNode">
           <VectorNode id="2181" kind="TypeWinLine"  >
            <DoubleParameters>
             <InterpolatingParam id="2182" interp="linr" value="0"  name="borderColorBlue"/>
             <InterpolatingParam id="2183" interp="linr" value="0"  name="borderColorGreen"/>
             <InterpolatingParam id="2184" interp="linr" value="192"  name="borderColorRed"/>
             <InterpolatingParam id="2185" interp="linr" value="5"  name="borderWidth"/>
             <InterpolatingParam id="2186" interp="linr" value="1"  name="endCapStyle"/>
             <InterpolatingParam id="2187" interp="linr" value="20"  name="height"/>
             <InterpolatingParam id="2188" interp="linr" value="2"  name="startCapStyle"/>
             <InterpolatingParam id="2189" interp="linr" value="480"  name="width"/>
            </DoubleParameters>
            <StringParameters>
             <Parameter id="2190"  name="filename">
              <Keyframes>
              <Keyframe id="2191"  time="0/1" value="C:\Program Files (x86)\TechSmith\Camtasia Studio 8\Media\Studio\Callouts\line 2.xml" leadInLength="0/1" />
              </Keyframes>
             </Parameter>
             <Parameter id="2192"  name="name">
              <Keyframes>
              <Keyframe id="2193"  time="0/1" value="Line" leadInLength="0/1" />
              </Keyframes>
             </Parameter>
             <Parameter id="2194"  name="xmlContent">
              <Keyframes>
              <Keyframe id="2195"  time="0/1" value="﻿&lt;?xml version=&quot;1.0&quot;?&gt;&#xa;&#xa;&lt;Overlay version=&quot;1.0.1&quot;&gt;&#xa;&#xa;&lt;Overlay_Filename&gt;line 2.png&lt;/Overlay_Filename&gt;&#xa;&lt;Overlay_Name&gt;Line&lt;/Overlay_Name&gt;&#xa;&lt;Text_Top&gt;0&lt;/Text_Top&gt;&#xa;&lt;Text_Left&gt;0&lt;/Text_Left&gt;&#xa;&lt;Text_Bottom&gt;0&lt;/Text_Bottom&gt;&#xa;&lt;Text_Right&gt;0&lt;/Text_Right&gt;&#xa;&lt;Style&gt;5&lt;/Style&gt;&#xa;&lt;Initial_Fill_Color&gt;0xffd8a57c&lt;/Initial_Fill_Color&gt;&#xa;&lt;Initial_Border_Color&gt;0xff017b34&lt;/Initial_Border_Color&gt;&#xa;&lt;StartCap&gt;2&lt;/StartCap&gt;&#xa;&lt;EndCap&gt;1&lt;/EndCap&gt;&#xa;&lt;UseDefaultSpec&gt;1&lt;/UseDefaultSpec&gt;&#xa;&lt;/Overlay&gt;" leadInLength="0/1" />
              </Keyframes>
             </Parameter>
            </StringParameters>
           </VectorNode>
          </Attribute>
         </Attributes>
         <MetaData>
          <entry key="WinSubProjectDisplayName" val=""/>
         </MetaData>
         <LeftEdgeMods length="3/1" groupName="OpacityFade">
          <EdgeMod parameter="2169">
           <FadeInFunc id="2196"  />
          </EdgeMod>
         </LeftEdgeMods>
         <RightEdgeMods length="3/1" groupName="OpacityFade">
          <EdgeMod parameter="2169">
           <FadeOutFunc id="2197"  />
          </EdgeMod>
         </RightEdgeMods>
         <ExtraData>
          <Entry key="ZoomPanBin">
           <ZoomPanBin id="2198"  >
            <ZoomPanKeyframes>
             <ZoomPanKeyframe id="2199" timeRangeStart="-9999999/1" timeRangeDuration="0/1"  />
            </ZoomPanKeyframes>
           </ZoomPanBin>
          </Entry>
         </ExtraData>
        </Callout>
       </Medias>
      </GenericTrack>
      <GenericTrack id="2200"  >
       <Attributes>
        <Attribute id="2201" value="" name="ident"/>
       </Attributes>
       <MetaData>
        <entry key="IsLocked" val="False"/>
        <entry key="WinTrackHeight" val="53"/>
       </MetaData>
       <Medias>
        <Callout id="2202" start="710" duration="88" scalar="1/1" mediaStart="42/1" mediaDuration="88/1" >
         <Transformer>
          <VectorParam id="2203"  name="translation">
           <InterpolatingParam id="2204"  >
            <Parameters>
             <Parameter id="2205"  name="interpolater">
              <Keyframes>
              <Keyframe id="2206"  time="0/1" value="linr" leadInLength="0/1" />
              </Keyframes>
             </Parameter>
            </Parameters>
            <Keyframes>
            <Keyframe id="2207"  time="-9999999/1" value="231.63228787037465" leadInLength="0/1" />
            </Keyframes>
           </InterpolatingParam>
           <InterpolatingParam id="2208"  >
            <Parameters>
             <Parameter id="2209"  name="interpolater">
              <Keyframes>
              <Keyframe id="2210"  time="0/1" value="linr" leadInLength="0/1" />
              </Keyframes>
             </Parameter>
            </Parameters>
            <Keyframes>
            <Keyframe id="2211"  time="-9999999/1" value="-295.47169811361249" leadInLength="0/1" />
            </Keyframes>
           </InterpolatingParam>
           <InterpolatingParam id="2212"  >
            <Parameters>
             <Parameter id="2213"  name="interpolater">
              <Keyframes>
              <Keyframe id="2214"  time="0/1" value="linr" leadInLength="0/1" />
              </Keyframes>
             </Parameter>
            </Parameters>
            <Keyframes>
            <Keyframe id="2215"  time="-9999999/1" value="-3.4106051316482886e-010" leadInLength="0/1" />
            </Keyframes>
           </InterpolatingParam>
          </VectorParam>
          <VectorParam id="2216"  name="rotation">
           <InterpolatingParam id="2217"  >
            <Parameters>
             <Parameter id="2218"  name="interpolater">
              <Keyframes>
              <Keyframe id="2219"  time="0/1" value="linr" leadInLength="0/1" />
              </Keyframes>
             </Parameter>
            </Parameters>
            <Keyframes>
            <Keyframe id="2220"  time="-9999999/1" value="0" leadInLength="0/1" />
            </Keyframes>
           </InterpolatingParam>
           <InterpolatingParam id="2221"  >
            <Parameters>
             <Parameter id="2222"  name="interpolater">
              <Keyframes>
              <Keyframe id="2223"  time="0/1" value="linr" leadInLength="0/1" />
              </Keyframes>
             </Parameter>
            </Parameters>
            <Keyframes>
            <Keyframe id="2224"  time="-9999999/1" value="0" leadInLength="0/1" />
            </Keyframes>
           </InterpolatingParam>
           <InterpolatingParam id="2225"  >
            <Parameters>
             <Parameter id="2226"  name="interpolater">
              <Keyframes>
              <Keyframe id="2227"  time="0/1" value="linr" leadInLength="0/1" />
              </Keyframes>
             </Parameter>
            </Parameters>
            <Keyframes>
            <Keyframe id="2228"  time="-9999999/1" value="-3.8280489889075398e-013" leadInLength="0/1" />
            </Keyframes>
           </InterpolatingParam>
          </VectorParam>
          <VectorParam id="2229"  name="shear">
           <InterpolatingParam id="2230"  >
            <Parameters>
             <Parameter id="2231"  name="interpolater">
              <Keyframes>
              <Keyframe id="2232"  time="0/1" value="linr" leadInLength="0/1" />
              </Keyframes>
             </Parameter>
            </Parameters>
            <Keyframes>
            <Keyframe id="2233"  time="-9999999/1" value="-7.1629151849051576e-018" leadInLength="0/1" />
            </Keyframes>
           </InterpolatingParam>
           <InterpolatingParam id="2234"  >
            <Parameters>
             <Parameter id="2235"  name="interpolater">
              <Keyframes>
              <Keyframe id="2236"  time="0/1" value="linr" leadInLength="0/1" />
              </Keyframes>
             </Parameter>
            </Parameters>
            <Keyframes>
            <Keyframe id="2237"  time="-9999999/1" value="0" leadInLength="0/1" />
            </Keyframes>
           </InterpolatingParam>
           <InterpolatingParam id="2238"  >
            <Parameters>
             <Parameter id="2239"  name="interpolater">
              <Keyframes>
              <Keyframe id="2240"  time="0/1" value="linr" leadInLength="0/1" />
              </Keyframes>
             </Parameter>
            </Parameters>
            <Keyframes>
            <Keyframe id="2241"  time="-9999999/1" value="0" leadInLength="0/1" />
            </Keyframes>
           </InterpolatingParam>
          </VectorParam>
          <VectorParam id="2242"  name="scale">
           <InterpolatingParam id="2243"  >
            <Parameters>
             <Parameter id="2244"  name="interpolater">
              <Keyframes>
              <Keyframe id="2245"  time="0/1" value="linr" leadInLength="0/1" />
              </Keyframes>
             </Parameter>
            </Parameters>
            <Keyframes>
            <Keyframe id="2246"  time="-9999999/1" value="0.25471698113348923" leadInLength="0/1" />
            </Keyframes>
           </InterpolatingParam>
           <InterpolatingParam id="2247"  >
            <Parameters>
             <Parameter id="2248"  name="interpolater">
              <Keyframes>
              <Keyframe id="2249"  time="0/1" value="linr" leadInLength="0/1" />
              </Keyframes>
             </Parameter>
            </Parameters>
            <Keyframes>
            <Keyframe id="2250"  time="-9999999/1" value="1" leadInLength="0/1" />
            </Keyframes>
           </InterpolatingParam>
           <InterpolatingParam id="2251"  >
            <Parameters>
             <Parameter id="2252"  name="interpolater">
              <Keyframes>
              <Keyframe id="2253"  time="0/1" value="linr" leadInLength="0/1" />
              </Keyframes>
             </Parameter>
            </Parameters>
            <Keyframes>
            <Keyframe id="2254"  time="-9999999/1" value="1" leadInLength="0/1" />
            </Keyframes>
           </InterpolatingParam>
          </VectorParam>
          <VectorParam id="2255"  name="anchor">
           <InterpolatingParam id="2256" interp="linr" value="0"  />
           <InterpolatingParam id="2257" interp="linr" value="0"  />
           <InterpolatingParam id="2258" interp="linr" value="0"  />
          </VectorParam>
         </Transformer>
         <Parameters>
          <VectorParam id="2259"  name="sourceCrop">
           <InterpolatingParam id="2260" interp="linr" value="0"  />
           <InterpolatingParam id="2261" interp="linr" value="0"  />
           <InterpolatingParam id="2262" interp="linr" value="0"  />
           <InterpolatingParam id="2263" interp="linr" value="0"  />
          </VectorParam>
          <VectorParam id="2264"  name="geometryCrop">
           <InterpolatingParam id="2265" interp="linr" value="0"  />
           <InterpolatingParam id="2266" interp="linr" value="0"  />
           <InterpolatingParam id="2267" interp="linr" value="0"  />
           <InterpolatingParam id="2268" interp="linr" value="0"  />
          </VectorParam>
          <InterpolatingParam id="2269"  name="opacity">
           <Parameters>
            <Parameter id="2270"  name="interpolater">
             <Keyframes>
             <Keyframe id="2271"  time="0/1" value="linr" leadInLength="0/1" />
             </Keyframes>
            </Parameter>
           </Parameters>
           <Keyframes>
           <Keyframe id="2272"  time="-9999999/1" value="1" leadInLength="0/1" />
           </Keyframes>
          </InterpolatingParam>
         </Parameters>
         <Effects>
          <GenericEffect id="2273" name = "DropShadow" >
           <Parameters>
           <InterpolatingParam id="2274" interp="linr" value="315"   name="angle"/>
           <InterpolatingParam id="2275" interp="linr" value="2"   name="blur"/>
           <Parameter id="2276"   name="enabled">
            <Keyframes>
            <Keyframe id="2277"  time="0/1" value="1" leadInLength="0/1" />
            </Keyframes>
           </Parameter>
           <InterpolatingParam id="2278" interp="linr" value="4"   name="offset"/>
           <InterpolatingParam id="2279" interp="linr" value="0.75"   name="opacity"/>
           </Parameters>
          </GenericEffect>
         </Effects>
         <Attributes>
          <Attribute id="2280"  name="vectorNode">
           <VectorNode id="2281" kind="TypeWinLine"  >
            <DoubleParameters>
             <InterpolatingParam id="2282" interp="linr" value="0"  name="borderColorBlue"/>
             <InterpolatingParam id="2283" interp="linr" value="0"  name="borderColorGreen"/>
             <InterpolatingParam id="2284" interp="linr" value="192"  name="borderColorRed"/>
             <InterpolatingParam id="2285" interp="linr" value="5"  name="borderWidth"/>
             <InterpolatingParam id="2286" interp="linr" value="1"  name="endCapStyle"/>
             <InterpolatingParam id="2287" interp="linr" value="20"  name="height"/>
             <InterpolatingParam id="2288" interp="linr" value="2"  name="startCapStyle"/>
             <InterpolatingParam id="2289" interp="linr" value="480"  name="width"/>
            </DoubleParameters>
            <StringParameters>
             <Parameter id="2290"  name="filename">
              <Keyframes>
              <Keyframe id="2291"  time="0/1" value="C:\Program Files (x86)\TechSmith\Camtasia Studio 8\Media\Studio\Callouts\line 2.xml" leadInLength="0/1" />
              </Keyframes>
             </Parameter>
             <Parameter id="2292"  name="name">
              <Keyframes>
              <Keyframe id="2293"  time="0/1" value="Line" leadInLength="0/1" />
              </Keyframes>
             </Parameter>
             <Parameter id="2294"  name="xmlContent">
              <Keyframes>
              <Keyframe id="2295"  time="0/1" value="﻿&lt;?xml version=&quot;1.0&quot;?&gt;&#xa;&#xa;&lt;Overlay version=&quot;1.0.1&quot;&gt;&#xa;&#xa;&lt;Overlay_Filename&gt;line 2.png&lt;/Overlay_Filename&gt;&#xa;&lt;Overlay_Name&gt;Line&lt;/Overlay_Name&gt;&#xa;&lt;Text_Top&gt;0&lt;/Text_Top&gt;&#xa;&lt;Text_Left&gt;0&lt;/Text_Left&gt;&#xa;&lt;Text_Bottom&gt;0&lt;/Text_Bottom&gt;&#xa;&lt;Text_Right&gt;0&lt;/Text_Right&gt;&#xa;&lt;Style&gt;5&lt;/Style&gt;&#xa;&lt;Initial_Fill_Color&gt;0xffd8a57c&lt;/Initial_Fill_Color&gt;&#xa;&lt;Initial_Border_Color&gt;0xff017b34&lt;/Initial_Border_Color&gt;&#xa;&lt;StartCap&gt;2&lt;/StartCap&gt;&#xa;&lt;EndCap&gt;1&lt;/EndCap&gt;&#xa;&lt;UseDefaultSpec&gt;1&lt;/UseDefaultSpec&gt;&#xa;&lt;/Overlay&gt;" leadInLength="0/1" />
              </Keyframes>
             </Parameter>
            </StringParameters>
           </VectorNode>
          </Attribute>
         </Attributes>
         <MetaData>
          <entry key="WinSubProjectDisplayName" val=""/>
         </MetaData>
         <LeftEdgeMods length="3/1" groupName="OpacityFade">
          <EdgeMod parameter="2269">
           <FadeInFunc id="2097"  />
          </EdgeMod>
         </LeftEdgeMods>
         <RightEdgeMods length="3/1" groupName="OpacityFade">
          <EdgeMod parameter="2269">
           <FadeOutFunc id="2296"  />
          </EdgeMod>
         </RightEdgeMods>
         <ExtraData>
          <Entry key="ZoomPanBin">
           <ZoomPanBin id="2297"  >
            <ZoomPanKeyframes>
             <ZoomPanKeyframe id="2298" timeRangeStart="-9999999/1" timeRangeDuration="0/1"  />
            </ZoomPanKeyframes>
           </ZoomPanBin>
          </Entry>
         </ExtraData>
        </Callout>
       </Medias>
      </GenericTrack>
      <GenericTrack id="2299"  >
       <Attributes>
        <Attribute id="2300" value="" name="ident"/>
       </Attributes>
       <MetaData>
        <entry key="IsLocked" val="False"/>
        <entry key="WinTrackHeight" val="53"/>
       </MetaData>
       <Medias>
       </Medias>
      </GenericTrack>
     </Tracks>
    </GenericMixer>
   <Attributes>
    <Attribute id="2301" value="1920" name="width"/>
    <Attribute id="2302" value="1080" name="height"/>
    <Attribute id="2303" value="(0,0,0,255)" name="backgroundColor"/>
   </Attributes>
   <CaptionAttributes id="2304"  >
    <Attribute id="2305" value="1" name="captionsEnabled"/>
    <Attribute id="2306" value="Arial" name="captionsFontName"/>
    <Attribute id="2307" value="36" name="captionsFontSize"/>
    <Attribute id="2308" value="(0,0,0,255)" name="captionsBackgroundColor"/>
    <Attribute id="2309" value="(255,255,255,255)" name="captionsForegroundColor"/>
    <Attribute id="2310" value="en" name="lang"/>
    <Attribute id="2311" value="0" name="captionsAlignment"/>
    <Attribute id="2312" value="1" name="captionsDefaultFontSize"/>
    <Attribute id="2313" value="0.5" name="captionsOpacity"/>
    <Attribute id="2314" value="1" name="captionsBackgroundEnabled"/>
    <Attribute id="2315" value="1" name="captionsBackgroundOnlyAroundText"/>
   </CaptionAttributes>
   <Parameters>
    <VectorParam id="2316"  name="eyePosition">
     <InterpolatingParam id="2317" interp="linr" value="0"  />
     <InterpolatingParam id="2318" interp="linr" value="0"  />
     <InterpolatingParam id="2319" interp="linr" value="3000"  />
    </VectorParam>
    <VectorParam id="2320"  name="eyeLookAtPosition">
     <InterpolatingParam id="2321" interp="linr" value="0"  />
     <InterpolatingParam id="2322" interp="linr" value="0"  />
     <InterpolatingParam id="2323" interp="linr" value="0"  />
    </VectorParam>
    <VectorParam id="2324"  name="eyeUpVector">
     <InterpolatingParam id="2325" interp="linr" value="0"  />
     <InterpolatingParam id="2326" interp="linr" value="1"  />
     <InterpolatingParam id="2327" interp="linr" value="0"  />
    </VectorParam>
    <InterpolatingParam id="2328" interp="linr" value="0.356185883"  name="fov"/>
    <InterpolatingParam id="2329" interp="linr" value="1.5"  name="nearClipDistance"/>
    <InterpolatingParam id="2330" interp="linr" value="6000"  name="farClipDistance"/>
   </Parameters>
  </Timeline>
 </Project>
</GoProject>
</CSMLData>

</Project_Data>
