<?xml version="1.0"?>
<Project_Data Version="8.00">
<Project_Settings>
<ProfileName>MP4 only (up to 720p)</ProfileName>
<ProjectWidth>1920</ProjectWidth>
<ProjectHeight>1080</ProjectHeight>
<IsCustomProject>1</IsCustomProject>
<SavedProjectSettings>1</SavedProjectSettings>
<LastFlashTemplate>-1</LastFlashTemplate>
</Project_Settings>


<AutoSaveFile>C:\Users\Marco\AppData\Local\TechSmith\Camtasia Studio\8.0\Auto-Saves\aggregationbfaf98.autosave.camproj</AutoSaveFile>

<ProjectID>7AEB5E9D-2EB6-4346-9CE4-097B17E6F420</ProjectID>

<PowerPointProject>0</PowerPointProject>

<PowerPointFilename></PowerPointFilename>


<Project_Notes>
</Project_Notes>

<Project_MetaData>
<Project_MetaData_Object>
<FieldArrayKey>8</FieldArrayKey>
<Value>Untitled</Value>
</Project_MetaData_Object>
<Project_MetaData_Object>
<FieldArrayKey>13</FieldArrayKey>
<Value>2018-02-17 11:41:32 AM</Value>
</Project_MetaData_Object>
<Project_MetaData_Object>
<FieldArrayKey>16</FieldArrayKey>
<Value>ENU</Value>
</Project_MetaData_Object>
</Project_MetaData>

<CSMLData>
<GoProject id="1" version="1.0" >
 <Project id="2" editRate="30/1" version="2.0" >
  <Author></Author>
  <Comment></Comment>
  <System></System>
  <SourceBin id="3"  >
    <Source id="4" src="C:\Users\Marco\Ingegneria Parametrica\24_aggregation\VIDEO\2018-02-17 10-53-59.mp4" lastMod="20180217T105547" rect="(0,0,1920,1080)" >
      <SourceTrack range="(0,1074666667)" type="0" editRate="10000000/1" trackRect="(0,0,1920,1080)" sampleRate="10000000/333333" bitDepth="24" numChannels="0" filename="" metaData="" />
      <SourceTrack range="(0,1074666667)" type="2" editRate="10000000/1" trackRect="(0,0,0,0)" sampleRate="44100/1" bitDepth="16" numChannels="2" filename="" metaData="" />
    </Source>
    <Source id="5" src="C:\Users\Marco\Ingegneria Parametrica\24_aggregation\VIDEO\2018-02-17 10-58-14.mp4" lastMod="20180217T105845" rect="(0,0,1920,1080)" >
      <SourceTrack range="(0,305000000)" type="0" editRate="10000000/1" trackRect="(0,0,1920,1080)" sampleRate="10000000/333333" bitDepth="24" numChannels="0" filename="" metaData="" />
      <SourceTrack range="(0,305000000)" type="2" editRate="10000000/1" trackRect="(0,0,0,0)" sampleRate="44100/1" bitDepth="16" numChannels="2" filename="" metaData="" />
    </Source>
    <Source id="6" src="C:\Users\Marco\Ingegneria Parametrica\24_aggregation\VIDEO\2018-02-17 11-05-17.mp4" lastMod="20180217T110528" rect="(0,0,1920,1080)" >
      <SourceTrack range="(0,101333333)" type="0" editRate="10000000/1" trackRect="(0,0,1920,1080)" sampleRate="10000000/333333" bitDepth="24" numChannels="0" filename="" metaData="" />
      <SourceTrack range="(0,101333333)" type="2" editRate="10000000/1" trackRect="(0,0,0,0)" sampleRate="44100/1" bitDepth="16" numChannels="2" filename="" metaData="" />
    </Source>
    <Source id="7" src="C:\Users\Marco\Ingegneria Parametrica\24_aggregation\VIDEO\2018-02-17 11-10-21.mp4" lastMod="20180217T111053" rect="(0,0,1920,1080)" >
      <SourceTrack range="(0,309333333)" type="0" editRate="10000000/1" trackRect="(0,0,1920,1080)" sampleRate="10000000/333333" bitDepth="24" numChannels="0" filename="" metaData="" />
      <SourceTrack range="(0,309333333)" type="2" editRate="10000000/1" trackRect="(0,0,0,0)" sampleRate="44100/1" bitDepth="16" numChannels="2" filename="" metaData="" />
    </Source>
    <Source id="8" src="C:\Users\Marco\Ingegneria Parametrica\24_aggregation\VIDEO\2018-02-17 11-12-25.mp4" lastMod="20180217T111325" rect="(0,0,1920,1080)" >
      <SourceTrack range="(0,595666667)" type="0" editRate="10000000/1" trackRect="(0,0,1920,1080)" sampleRate="10000000/333333" bitDepth="24" numChannels="0" filename="" metaData="" />
      <SourceTrack range="(0,595666667)" type="2" editRate="10000000/1" trackRect="(0,0,0,0)" sampleRate="44100/1" bitDepth="16" numChannels="2" filename="" metaData="" />
    </Source>
    <Source id="9" src="C:\Users\Marco\Ingegneria Parametrica\24_aggregation\VIDEO\2018-02-17 11-22-24.mp4" lastMod="20180217T112343" rect="(0,0,1920,1080)" >
      <SourceTrack range="(0,778666667)" type="0" editRate="10000000/1" trackRect="(0,0,1920,1080)" sampleRate="10000000/333333" bitDepth="24" numChannels="0" filename="" metaData="" />
      <SourceTrack range="(0,778666667)" type="2" editRate="10000000/1" trackRect="(0,0,0,0)" sampleRate="44100/1" bitDepth="16" numChannels="2" filename="" metaData="" />
    </Source>
    <Source id="10" src="C:\Users\Marco\Ingegneria Parametrica\24_aggregation\VIDEO\2018-02-17 11-34-48.mp4" lastMod="20180217T113556" rect="(0,0,1920,1080)" >
      <SourceTrack range="(0,667333333)" type="0" editRate="10000000/1" trackRect="(0,0,1920,1080)" sampleRate="10000000/333333" bitDepth="24" numChannels="0" filename="" metaData="" />
      <SourceTrack range="(0,667333333)" type="2" editRate="10000000/1" trackRect="(0,0,0,0)" sampleRate="44100/1" bitDepth="16" numChannels="2" filename="" metaData="" />
    </Source>
    <Source id="11" src="C:\Users\Marco\Ingegneria Parametrica\24_aggregation\VIDEO\bensound-funnysong.mp3" lastMod="20180217T120542" rect="(0,0,0,0)" >
      <SourceTrack range="(0,1871333333)" type="2" editRate="10000000/1" trackRect="(0,0,0,0)" sampleRate="44100/1" bitDepth="0" numChannels="2" filename="" metaData="" />
    </Source>
  </SourceBin>
  <Timeline id="12"  >
    <GenericMixer id="13"  name="Unified Mixer">
     <MetaData>
      <entry key="MixerType" val="TimelineMixer"/>
     </MetaData>
     <Tracks>
      <GenericTrack id="14"  >
       <Attributes>
        <Attribute id="15" value="" name="ident"/>
       </Attributes>
       <MetaData>
        <entry key="IsLocked" val="False"/>
        <entry key="WinTrackHeight" val="62"/>
       </MetaData>
       <Medias>
       </Medias>
      </GenericTrack>
      <GenericTrack id="16"  >
       <Attributes>
        <Attribute id="17" value="" name="ident"/>
       </Attributes>
       <MetaData>
        <entry key="IsLocked" val="False"/>
        <entry key="WinTrackHeight" val="62"/>
       </MetaData>
       <Medias>
       </Medias>
      </GenericTrack>
      <GenericTrack id="18"  >
       <Attributes>
        <Attribute id="19" value="" name="ident"/>
       </Attributes>
       <MetaData>
        <entry key="IsLocked" val="False"/>
        <entry key="WinTrackHeight" val="62"/>
       </MetaData>
       <Medias>
       </Medias>
      </GenericTrack>
      <GenericTrack id="20"  >
       <Attributes>
        <Attribute id="21" value="" name="ident"/>
       </Attributes>
       <MetaData>
        <entry key="IsLocked" val="False"/>
        <entry key="WinTrackHeight" val="62"/>
       </MetaData>
       <Medias>
        <AMFile id="22" start="0" duration="1970" scalar="1/1" mediaStart="0/1" mediaDuration="1970/1" trackNumber="0" src="11" channelNumber="0,1" >
         <Parameters>
          <InterpolatingParam id="23"  name="volume">
           <Parameters>
            <Parameter id="24"  name="interpolater">
             <Keyframes>
             <Keyframe id="25"  time="0/1" value="linr" leadInLength="0/1" />
             </Keyframes>
            </Parameter>
           </Parameters>
           <Keyframes>
           <Keyframe id="26"  time="0/1" value="1" leadInLength="0/1" />
           <Keyframe id="27"  time="1930/1" value="1" leadInLength="0/1" />
           <Keyframe id="28"  time="1970/1" value="0" leadInLength="0/1" />
           <Keyframe id="29"  time="1971/1" value="1" leadInLength="0/1" />
           </Keyframes>
          </InterpolatingParam>
          <Parameter id="30"  name="captions"/>
         </Parameters>
         <Effects>
          <GenericEffect id="31" name = "NoiseReduction" >
           <Parameters>
           <InterpolatingParam id="32" interp="linr" value="12"   name="denoiserAmount"/>
           <InterpolatingParam id="33" interp="linr" value="5"   name="denoiserThreshold"/>
           <Parameter id="34"   name="noiseProfile">
            <Keyframes>
            <Keyframe id="35"  time="0/1" value="FBAAAAIAAABErAAAAQIAACS4PMJd6jfCrBd4wtl7icL93WzCCkVgwrq0X8KIkUrC/HFQwoYuUcIK&#xD;&#xa;ozPCcbkYwuhCBcLEQwLClP8fwqQ7TcLo0l/CUdWAwtRoh8IzIXrC3SRmwrSBX8J6cVPCG9ZNwi7d&#xD;&#xa;MsJZyQfCOu0Cwo11I8Lg/GPCzo95whlpesIpWnjCKYyFwqsLjMJaWZLCILCQwuFZisJsOljCSuYu&#xD;&#xa;wvZrLcK3kVLCip+Fws+mg8IA3oTCwpiGwrAijcLsfI3CZAiFwmA5hsKMQ4vCTLlkwtMwP8KqmUHC&#xD;&#xa;JjJtwrrTk8Kl05zCAW6kwrrwosI4OZ/CpK6cwl7umsJ2tZXCUuSQwh3/ZMIClj7CKVk+wnfPYML1&#xD;&#xa;UYzCu2eTwqChmMJDkZ7CH5eewu4DnMKDLZnCsXKSwtTQisL9QlTC2CUiwpbkGsLK2zrCKa6Cwv+X&#xD;&#xa;kMJ8RpPCaFmPwo8ekcIa/Y/CTgeUwpfFmcIEZJnCkjWTwjjOhsKftoHCzlGIwltBlsJ13pzCGe6d&#xD;&#xa;wgAUo8LjiqrCHJuowssFn8IwOp7CwHKfwgr0lcLBConCXk2Hwi9gj8I6G5fCNxSgwv2FocImEaPC&#xD;&#xa;mIWiwsbLosK/bafCa3yewnCyk8I+jJPCYnqVwnQDmcKm85XC17iQwvn9lsJD3p7CWu6dwpfMnMLO&#xD;&#xa;p5/CIgaiwjL9n8KqZZnCdqGZwsonmMJcLZ3CaX+lwhIposL11Z7Cxs6ewpWPoMJrZZ/CsIiewlS9&#xD;&#xa;osJ1f6XCAnygwnrymMKLYpnC3vudwlnbnsKtHKHCrOehwvgzocLD5KLC2iSmwhxBpcLFuaDC/umg&#xD;&#xa;wmrKocJUeZfCeDCTwvTIncLQAarCfjiqwob9pcKO7KTC4WKmwiBVpsL2UaHC9AGfwt/XocLtVajC&#xD;&#xa;fsGowj+hpcIUWqDCYA2iwgzjpsInL6fCVnGmwkenpcI+wqPCX4GiwmIGn8I0T5/CswufwqiYoMJ/&#xD;&#xa;B6HClEehwrD7pcLyq6jCJu6kwkI7oMKQNKHC8S6jwp64pMJ9JKPCzoifwi7xocLDvJ/ChwWgwtbg&#xD;&#xa;o8J6X6XCHzKkwsjaocKEPqHCjxCgwuyHm8IAuJvCJ76ewjOJo8KWcqPC/p2lwhIuqsIo/KfCJMag&#xD;&#xa;wmFhoMIa/aTCC1ilwhALpsIvW6TCEDOgwiP0msJGk5zCogagwg8YnsJtnJ/CtiGlwsXcq8Ki8arC&#xD;&#xa;/NGgwk8km8L4K5/CsxWjwpr8m8IKDprCAOOewvAapcJuRqjCo1WlwiXKo8KWEaPCX4ujwq/vo8Jv&#xD;&#xa;9Z/CYZ+fwrZHocLRup7CKrObwh9+nsLgk6bCspaqwsLGpcLSm6PC3/Wjwmi6psLcCKXCsFWkwhDp&#xD;&#xa;o8LvZqnCZeGpwhl3rMJotLPCBlG3wp2XvsKFjsXCP0DQwuV03cJaeenCYSDwwvYH8cJdmvTCTtn1&#xD;&#xa;wqIu8cKUw/PCuyfwwuLP8MI8JPDCIObywq648cI+EvPCgmTywoaB88KBj/fCcO7zwgNU8sKk9vTC&#xD;&#xa;Cgv1wlZZ88L6wfDC6EzzwvLM8cIAyvTCw2Hywj7b8sImGfTCRrv0wq568sIb9fPCxUHywhIb8sKe&#xD;&#xa;LfXCoAz1wmH/9MI8g/bCZIP2wkey9ML02fTCVMjzwlgM9MIMYvTCX1LzwshC88JMovHC+rjywh+T&#xD;&#xa;8sJIsvLC0MvywgTy8sKbNPHCMiHywhE588ICJPHCvnLvwlCC88KmNPbCOBTywpa98cKO7vPCxHb0&#xD;&#xa;wq2a88IsePLCQoXzwgT+9MLjGfTCqmrywsoY9MJVPu/CJWruwrzk8MIEOvbCJQ3zwg547cJkX+3C&#xD;&#xa;CBHsws6u7sJs3/HCbqP1wl3T8sJSHuzCPIzkwq7f48LOAujCRMrrwtXc7MLutObCrHPjwoDt6cJy&#xD;&#xa;Ku/CCLXywiLI9MKAaPTCmmT2wnDo9sLCafTCByfzwqRp9MIVY/bC5Cf3wr9Z98IUYvXC/Ir3wnNj&#xD;&#xa;9MII0vbCesD0whxs9MIuEPbCBOD0wloA9cI+2/fCJHL4wpI8+MIzp/XC6l71wo7+88IGUvTCcDfy&#xD;&#xa;wqCQ88KQzvTCWmn1wjiI98LervjCknn2wpcf8sJ9gfPCHsv1wgDX9sJmMPjC4gL4wsdh9cL0/fDC&#xD;&#xa;worywnZF9sI26PPCBgD1wolj88Ir1PHCPtrzwsw5+sLeOvjCkIv3wuaf9sKd0fbCsiL2whyE9cKW&#xD;&#xa;UvbCDZr2wvWN8sL4ZvPCIk31wp569cK78PPCHJX0wvHI88KaO/PCmJD0wo1R9sIsRvXCJZ/2wlwG&#xD;&#xa;9MLQ2fPC9/z1wiD19MKOgfTCUOX3widb9sK/7PXC/Pvzwv/+88IadPTCVBH1wtcK9cJSiPLCLDz3&#xD;&#xa;wmP89sIbTfXCaAv0wqgX98K2P/TC1MP1woJv88J++PfCzGX4wnp398KMZfXC6KL1wkqC9MIR0PXC&#xD;&#xa;YMn0wixm98IwL/XCyP33wgMm98JQyPPCW/fzwt3R9MKY7PXCOPj0wtJP9MJwavTCanT0wjw19sJU&#xD;&#xa;zPTCKuDzwhar88IjUfXC7hHzwqTV9MKo1/TCQaTzwvAu9cIVQfjCqCP6wkj99sIziPLCjO71wqrH&#xD;&#xa;9sKmZ/fCxor2wjT/8sKKWPLCFHbxwuR588LFF/XCYCP0wtiL9cKIJfXCzgL1wrcn9MIIlfbCAn/2&#xD;&#xa;wt5t+MKsD/jCxD72woKG9MKAu/bCTj/0wkFy8sJAzPPCanT2wk0998LqtPfCdkL2woB59cKs7/XC&#xD;&#xa;6dHzwrPd88KkJfXCvysCw2BcPcKMizjCJqV4wpzPiMK3W3HCyaNjwkhyWsJbPEXCH5lLwvJ+T8Ip&#xD;&#xa;XjHCZsQUwjjuC8LwjA3CcJonwgJhT8IzzGLC9QCDwv8LicLt6nzCQ+hpwlT7YMIYs1DCMpZDwt+6&#xD;&#xa;N8K8Tw7CoDQIwldXJ8LSQ2HCyRJ5wmPtecJWnHbC/IWDwkLUicILsY/CyhCRwqHQh8IKUEXCEA0b&#xD;&#xa;wjK+GcJ050DCPax/wgScgMKJ84HCbOGHwsLmkML7SYzC75eAwgKWgMIY/YXC0R1wwhGJTMKPmU/C&#xD;&#xa;axt7wuv+ksJ7fJvC3ryiwpDuocI/HZ7COvmawtKjmMKE7pPCGy2PwrhrX8Ka6DbCh3wywlpwUsLf&#xD;&#xa;QIfC0C+QwhwrmMLoFaDC5HugwvcZnsJW05rC4IGSwum7h8JG6VbCnYYlwrx9HsLHzz7CgO2FwiDy&#xD;&#xa;ksJe45bCrUKUwgZ8lsJFzpXCmcOYwjyMnsKK1p3Cp3CYwgzHjcLKAIrCWWSQwmK6nML3iaLCMZWi&#xD;&#xa;wiwzp8Itqa3C7AWsws8Fo8Ln7KDCjm6hwqcDm8IwwpDCHI6Nwpw8lMKQR5vChf2jwnNvpcJFMaXC&#xD;&#xa;sc2nwvJOqcKOUarCgcqhwrqFmMLhspfCmCmYwqhanMIIBprCLlOVwuuRmsIEI5/CNfCdwq5XncLJ&#xD;&#xa;daDC4W6iwh51oMKoW5nCnNaZwh1UmMJTCp3CpoSlwpwWosLc557CXgefwipaoMIziZ7CJgmewuq9&#xD;&#xa;o8Jz86XCcaWgwr/4mMLwoJjCsBibwo5Am8K0W53CohuewvMknMLD9JvCSVefwnaOoMKMNprC7x6a&#xD;&#xa;wv8sncKk0pLCMReOwlAVmMIk5qHCrAihwsOpnsImz5/CEnOhwl79n8IjWprCdhqYwtY4m8LlPqLC&#xD;&#xa;rHCiwjPlnsLlFZrCuAecwpsAoMJaYKDC4P2dwno3nsLh6J/CtAegwqfpnMLUR53C8YKcwqNbnsJS&#xD;&#xa;PJ/Cccifwmswo8LSEKTC6XGhwvxUn8IAgKDCY1agwqDvocKT1qLCaFGfwim+ocLSvZ/COgegwjqk&#xD;&#xa;o8LuSKXCx82jwm0nocKKJKHCTu6fwgaPm8Ki8JvC6aqewhK+o8JSWaPCCoalwsQwqsKA9qfCrqeg&#xD;&#xa;wtlBoMIPtKXCo9+nwie0qcJgQarCnzmmwuzKn8K+WKDCjEahwlyUn8IBQKDCgN6lwsuXrcI6bq3C&#xD;&#xa;fryjwjo4ncIW/6DCDNSkwp10nsINPJ3CKsOhwllep8JC7KnC386mwub4o8K2E6PCAiqkwncqpsJB&#xD;&#xa;TqLCxIOgwl6EocLCv5/C2hidwiEgoMLWhqfC5umrwsnHpsI51KPCOeyjwsW5psIVGKXCnmekwkXp&#xD;&#xa;o8J8Y6nC/dWpwrJzrMLhsLPCble3wsyivsKSDcbCc4HQwsSe3cIw6+nCYXvwwuj28sI+3/HCuJLz&#xD;&#xa;wiNX8sIHk/LCYNPxwrI38sLRG/LC4XnzwhyF9MICZvXCeln0wghE9cLOKfjCBnD3wjaN9MJMvPPC&#xD;&#xa;5hLzwoCn8sLYSfTCkmLywr6a88KAQfTCVivzwgui8sJiy/XCfqj2wmz49cIqBvjCuUP2wvXe9sI7&#xD;&#xa;SffClMv4wr+J98KyV/bCQBL3woBf9sK2M/TC60L1whyA9sKio/jCZP31wn4Y9cLfYfTCgEz0wnAV&#xD;&#xa;9MIge/XCLNP1wh9Q98IoSfXCjhX1wlc89MI+2e/CcoHvwgjy88LoSvbCBm34wg5t9cLik/PC8LT0&#xD;&#xa;wiIf9cJLnPXCLIHywn558sJi5vTCmlH1wtLV9MJpgfDC+MHtwhp88MKJbvXCsMnzwu8N7sJyUe3C&#xD;&#xa;AUjswuiO7sL+P/LCGHb2wsSn9cJ4sezC3KfkwpSF48Ks0OfCUmDswtBu7MK6YufC1CPkwjF06MK3&#xD;&#xa;ye3CQ8jvwgqa8sKSGvbCokr3wgbz98J28/TC6D/3wjxL9sLx1fPC0E/zwhqW9cKlEvbCnh71wgko&#xD;&#xa;9cLgO/TCyJ70whhc8sIq7/TC7cT3wrQY9sLhUPTC/tD0wmh49cKYF/nCdMP1wmZn88LIufTCY7z0&#xD;&#xa;wn298sIUYPfCNMD1wshD9cLe5vTCdgL1wsxd9MIYwPTCWhTzwtMw9MJUGPPCh47zwlRs88LevfbC&#xD;&#xa;6l72wigL9sL6svTCktX0wtkH+MIib/fCdj75wr9c9cJ0DPbCWkHzwlCJ88KiUvTCAVv4wvrq+MKy&#xD;&#xa;3PfC9s71wpzZ8sIOIfPCr1b1wohb+MLDsffCiA/2wnEg9sKRcvbCdjX1wiq69cLbLPbCWLnywiIb&#xD;&#xa;88LK4vXCgt74wuJI+MI5hvXCzMP0wt679sI8UvPC4yP1wkc59MLM1vbCnq32wpgf9sL2/PPCufrz&#xD;&#xa;wnLR88IIsPPCKKLwwtB088IqUfXCOAf4wu6g98IJRPfCpbP3wgG39ML0DPXCTl/zwsq29MLL2fLC&#xD;&#xa;0Cj0wpM+9cKs/vXCMcj1wrCg9MLglvTCborywraK88LqFfXC4JPzwiT58sKkW/XCC2j2wkJZ9cJK&#xD;&#xa;fvbC7MX2wpBz98Jyu/XCLT30wtfr9sJmdfbCpfb2wrIC9sLSqfXCUI/2wiPO98JolfTCwYH1wtPu&#xD;&#xa;9MI5fvTCgg71wgMr9cLYivbCplL2wiI/9cJkR/bCgM32wtSg9cKEUPbCfOX0wv729MKe9vXCXIT3&#xD;&#xa;wjZx9sLA8PXCnwj2wkaZ9MIwcvPCFM7zwsxC9cK0yPPC2g/3wuiH88LQqPPCGFr0wiro9MI8h/bC&#xD;&#xa;SCf4wjBP98JklPbCzcAB" leadInLength="0/1" />
            </Keyframes>
           </Parameter>
           </Parameters>
          </GenericEffect>
          <GenericEffect id="36" name = "WinCompression" >
           <Parameters>
           <InterpolatingParam id="37" interp="linr" value="0"   name="attack"/>
           <InterpolatingParam id="38" interp="linr" value="9"   name="gain"/>
           <Parameter id="39"   name="preset">
            <Keyframes>
            <Keyframe id="40"  time="0/1" value="1" leadInLength="0/1" />
            </Keyframes>
           </Parameter>
           <InterpolatingParam id="41" interp="linr" value="10"   name="ratio"/>
           <InterpolatingParam id="42" interp="linr" value="3500"   name="release"/>
           <InterpolatingParam id="43" interp="linr" value="-20"   name="threshold"/>
           </Parameters>
          </GenericEffect>
         </Effects>
         <Attributes>
          <Attribute id="44" value="" name="ident"/>
          <Attribute id="45" value="44100" name="sampleRate"/>
          <Attribute id="46" value="0" name="bitDepth"/>
          <Attribute id="47" value="1" name="gain"/>
         </Attributes>
         <MetaData>
          <entry key="WinSubProjectDisplayName" val=""/>
         </MetaData>
        </AMFile>
       </Medias>
      </GenericTrack>
      <GenericTrack id="48"  >
       <Attributes>
        <Attribute id="49" value="" name="ident"/>
       </Attributes>
       <MetaData>
        <entry key="IsLocked" val="False"/>
        <entry key="WinTrackHeight" val="62"/>
       </MetaData>
       <Medias>
        <UnifiedMedia id="50"  >
         <AMFile id="51" start="5" duration="28" scalar="1/1" mediaStart="186/1" mediaDuration="28/1" trackNumber="1" src="4" channelNumber="0,1" >
          <Parameters>
           <InterpolatingParam id="52" interp="linr" value="1"  name="volume"/>
           <Parameter id="53"  name="captions"/>
          </Parameters>
          <Attributes>
           <Attribute id="54" value="" name="ident"/>
           <Attribute id="55" value="44100" name="sampleRate"/>
           <Attribute id="56" value="16" name="bitDepth"/>
           <Attribute id="57" value="1" name="gain"/>
          </Attributes>
         </AMFile>
         <VMFile id="58" start="5" duration="28" scalar="1/1" mediaStart="186/1" mediaDuration="28/1" trackNumber="0" src="4" >
          <Transformer>
           <VectorParam id="59"  name="translation">
            <InterpolatingParam id="60"  >
             <Parameters>
              <Parameter id="61"  name="interpolater">
               <Keyframes>
               <Keyframe id="62"  time="0/1" value="linr" leadInLength="0/1" />
               </Keyframes>
              </Parameter>
             </Parameters>
             <Keyframes>
             <Keyframe id="63"  time="-9999999/1" value="0" leadInLength="0/1" />
             </Keyframes>
            </InterpolatingParam>
            <InterpolatingParam id="64"  >
             <Parameters>
              <Parameter id="65"  name="interpolater">
               <Keyframes>
               <Keyframe id="66"  time="0/1" value="linr" leadInLength="0/1" />
               </Keyframes>
              </Parameter>
             </Parameters>
             <Keyframes>
             <Keyframe id="67"  time="-9999999/1" value="9.7721830627501458e-011" leadInLength="0/1" />
             </Keyframes>
            </InterpolatingParam>
            <InterpolatingParam id="68"  >
             <Parameters>
              <Parameter id="69"  name="interpolater">
               <Keyframes>
               <Keyframe id="70"  time="0/1" value="linr" leadInLength="0/1" />
               </Keyframes>
              </Parameter>
             </Parameters>
             <Keyframes>
             <Keyframe id="71"  time="-9999999/1" value="0" leadInLength="0/1" />
             </Keyframes>
            </InterpolatingParam>
           </VectorParam>
           <VectorParam id="72"  name="rotation">
            <InterpolatingParam id="73"  >
             <Parameters>
              <Parameter id="74"  name="interpolater">
               <Keyframes>
               <Keyframe id="75"  time="0/1" value="linr" leadInLength="0/1" />
               </Keyframes>
              </Parameter>
             </Parameters>
             <Keyframes>
             <Keyframe id="76"  time="-9999999/1" value="0" leadInLength="0/1" />
             </Keyframes>
            </InterpolatingParam>
            <InterpolatingParam id="77"  >
             <Parameters>
              <Parameter id="78"  name="interpolater">
               <Keyframes>
               <Keyframe id="79"  time="0/1" value="linr" leadInLength="0/1" />
               </Keyframes>
              </Parameter>
             </Parameters>
             <Keyframes>
             <Keyframe id="80"  time="-9999999/1" value="0" leadInLength="0/1" />
             </Keyframes>
            </InterpolatingParam>
            <InterpolatingParam id="81"  >
             <Parameters>
              <Parameter id="82"  name="interpolater">
               <Keyframes>
               <Keyframe id="83"  time="0/1" value="linr" leadInLength="0/1" />
               </Keyframes>
              </Parameter>
             </Parameters>
             <Keyframes>
             <Keyframe id="84"  time="-9999999/1" value="0" leadInLength="0/1" />
             </Keyframes>
            </InterpolatingParam>
           </VectorParam>
           <VectorParam id="85"  name="shear">
            <InterpolatingParam id="86"  >
             <Parameters>
              <Parameter id="87"  name="interpolater">
               <Keyframes>
               <Keyframe id="88"  time="0/1" value="linr" leadInLength="0/1" />
               </Keyframes>
              </Parameter>
             </Parameters>
             <Keyframes>
             <Keyframe id="89"  time="-9999999/1" value="0" leadInLength="0/1" />
             </Keyframes>
            </InterpolatingParam>
            <InterpolatingParam id="90"  >
             <Parameters>
              <Parameter id="91"  name="interpolater">
               <Keyframes>
               <Keyframe id="92"  time="0/1" value="linr" leadInLength="0/1" />
               </Keyframes>
              </Parameter>
             </Parameters>
             <Keyframes>
             <Keyframe id="93"  time="-9999999/1" value="0" leadInLength="0/1" />
             </Keyframes>
            </InterpolatingParam>
            <InterpolatingParam id="94"  >
             <Parameters>
              <Parameter id="95"  name="interpolater">
               <Keyframes>
               <Keyframe id="96"  time="0/1" value="linr" leadInLength="0/1" />
               </Keyframes>
              </Parameter>
             </Parameters>
             <Keyframes>
             <Keyframe id="97"  time="-9999999/1" value="0" leadInLength="0/1" />
             </Keyframes>
            </InterpolatingParam>
           </VectorParam>
           <VectorParam id="98"  name="scale">
            <InterpolatingParam id="99"  >
             <Parameters>
              <Parameter id="100"  name="interpolater">
               <Keyframes>
               <Keyframe id="101"  time="0/1" value="linr" leadInLength="0/1" />
               </Keyframes>
              </Parameter>
             </Parameters>
             <Keyframes>
             <Keyframe id="102"  time="-9999999/1" value="1" leadInLength="0/1" />
             </Keyframes>
            </InterpolatingParam>
            <InterpolatingParam id="103"  >
             <Parameters>
              <Parameter id="104"  name="interpolater">
               <Keyframes>
               <Keyframe id="105"  time="0/1" value="linr" leadInLength="0/1" />
               </Keyframes>
              </Parameter>
             </Parameters>
             <Keyframes>
             <Keyframe id="106"  time="-9999999/1" value="0.99999999999981914" leadInLength="0/1" />
             </Keyframes>
            </InterpolatingParam>
            <InterpolatingParam id="107"  >
             <Parameters>
              <Parameter id="108"  name="interpolater">
               <Keyframes>
               <Keyframe id="109"  time="0/1" value="linr" leadInLength="0/1" />
               </Keyframes>
              </Parameter>
             </Parameters>
             <Keyframes>
             <Keyframe id="110"  time="-9999999/1" value="1" leadInLength="0/1" />
             </Keyframes>
            </InterpolatingParam>
           </VectorParam>
           <VectorParam id="111"  name="anchor">
            <InterpolatingParam id="112" interp="linr" value="0"  />
            <InterpolatingParam id="113" interp="linr" value="0"  />
            <InterpolatingParam id="114" interp="linr" value="0"  />
           </VectorParam>
          </Transformer>
          <Parameters>
           <VectorParam id="115"  name="sourceCrop">
            <InterpolatingParam id="116" interp="linr" value="0"  />
            <InterpolatingParam id="117" interp="linr" value="0"  />
            <InterpolatingParam id="118" interp="linr" value="0"  />
            <InterpolatingParam id="119" interp="linr" value="0"  />
           </VectorParam>
           <VectorParam id="120"  name="geometryCrop">
            <InterpolatingParam id="121" interp="linr" value="0"  />
            <InterpolatingParam id="122" interp="linr" value="0"  />
            <InterpolatingParam id="123" interp="linr" value="0"  />
            <InterpolatingParam id="124" interp="linr" value="0"  />
           </VectorParam>
           <InterpolatingParam id="125"  name="opacity">
            <Parameters>
             <Parameter id="126"  name="interpolater">
              <Keyframes>
              <Keyframe id="127"  time="0/1" value="linr" leadInLength="0/1" />
              </Keyframes>
             </Parameter>
            </Parameters>
            <Keyframes>
            <Keyframe id="128"  time="-9999999/1" value="1" leadInLength="0/1" />
            </Keyframes>
           </InterpolatingParam>
          </Parameters>
          <Attributes>
           <Attribute id="129" value="" name="ident"/>
          </Attributes>
          <ExtraData>
           <Entry key="ZoomPanBin">
            <ZoomPanBin id="130"  >
             <ZoomPanKeyframes>
              <ZoomPanKeyframe id="131" timeRangeStart="-9999999/1" timeRangeDuration="0/1"  />
             </ZoomPanKeyframes>
            </ZoomPanBin>
           </Entry>
          </ExtraData>
         </VMFile>
         <MetaData>
          <entry key="WinSubProjectDisplayName" val=""/>
         </MetaData>
        </UnifiedMedia>
        <UnifiedMedia id="132"  >
         <AMFile id="133" start="33" duration="77" scalar="77/232" mediaStart="251/1" mediaDuration="232/1" trackNumber="1" src="4" channelNumber="0,1" >
          <Parameters>
           <InterpolatingParam id="134" interp="linr" value="1"  name="volume"/>
           <Parameter id="135"  name="captions"/>
          </Parameters>
          <Attributes>
           <Attribute id="136" value="" name="ident"/>
           <Attribute id="137" value="44100" name="sampleRate"/>
           <Attribute id="138" value="16" name="bitDepth"/>
           <Attribute id="139" value="1" name="gain"/>
          </Attributes>
         </AMFile>
         <VMFile id="140" start="33" duration="77" scalar="77/232" mediaStart="251/1" mediaDuration="232/1" trackNumber="0" src="4" >
          <Transformer>
           <VectorParam id="141"  name="translation">
            <InterpolatingParam id="142"  >
             <Parameters>
              <Parameter id="143"  name="interpolater">
               <Keyframes>
               <Keyframe id="144"  time="0/1" value="linr" leadInLength="0/1" />
               </Keyframes>
              </Parameter>
             </Parameters>
             <Keyframes>
             <Keyframe id="145"  time="-9999999/1" value="0" leadInLength="0/1" />
             </Keyframes>
            </InterpolatingParam>
            <InterpolatingParam id="146"  >
             <Parameters>
              <Parameter id="147"  name="interpolater">
               <Keyframes>
               <Keyframe id="148"  time="0/1" value="linr" leadInLength="0/1" />
               </Keyframes>
              </Parameter>
             </Parameters>
             <Keyframes>
             <Keyframe id="149"  time="-9999999/1" value="9.7721830627501458e-011" leadInLength="0/1" />
             </Keyframes>
            </InterpolatingParam>
            <InterpolatingParam id="150"  >
             <Parameters>
              <Parameter id="151"  name="interpolater">
               <Keyframes>
               <Keyframe id="152"  time="0/1" value="linr" leadInLength="0/1" />
               </Keyframes>
              </Parameter>
             </Parameters>
             <Keyframes>
             <Keyframe id="153"  time="-9999999/1" value="0" leadInLength="0/1" />
             </Keyframes>
            </InterpolatingParam>
           </VectorParam>
           <VectorParam id="154"  name="rotation">
            <InterpolatingParam id="155"  >
             <Parameters>
              <Parameter id="156"  name="interpolater">
               <Keyframes>
               <Keyframe id="157"  time="0/1" value="linr" leadInLength="0/1" />
               </Keyframes>
              </Parameter>
             </Parameters>
             <Keyframes>
             <Keyframe id="158"  time="-9999999/1" value="0" leadInLength="0/1" />
             </Keyframes>
            </InterpolatingParam>
            <InterpolatingParam id="159"  >
             <Parameters>
              <Parameter id="160"  name="interpolater">
               <Keyframes>
               <Keyframe id="161"  time="0/1" value="linr" leadInLength="0/1" />
               </Keyframes>
              </Parameter>
             </Parameters>
             <Keyframes>
             <Keyframe id="162"  time="-9999999/1" value="0" leadInLength="0/1" />
             </Keyframes>
            </InterpolatingParam>
            <InterpolatingParam id="163"  >
             <Parameters>
              <Parameter id="164"  name="interpolater">
               <Keyframes>
               <Keyframe id="165"  time="0/1" value="linr" leadInLength="0/1" />
               </Keyframes>
              </Parameter>
             </Parameters>
             <Keyframes>
             <Keyframe id="166"  time="-9999999/1" value="0" leadInLength="0/1" />
             </Keyframes>
            </InterpolatingParam>
           </VectorParam>
           <VectorParam id="167"  name="shear">
            <InterpolatingParam id="168"  >
             <Parameters>
              <Parameter id="169"  name="interpolater">
               <Keyframes>
               <Keyframe id="170"  time="0/1" value="linr" leadInLength="0/1" />
               </Keyframes>
              </Parameter>
             </Parameters>
             <Keyframes>
             <Keyframe id="171"  time="-9999999/1" value="0" leadInLength="0/1" />
             </Keyframes>
            </InterpolatingParam>
            <InterpolatingParam id="172"  >
             <Parameters>
              <Parameter id="173"  name="interpolater">
               <Keyframes>
               <Keyframe id="174"  time="0/1" value="linr" leadInLength="0/1" />
               </Keyframes>
              </Parameter>
             </Parameters>
             <Keyframes>
             <Keyframe id="175"  time="-9999999/1" value="0" leadInLength="0/1" />
             </Keyframes>
            </InterpolatingParam>
            <InterpolatingParam id="176"  >
             <Parameters>
              <Parameter id="177"  name="interpolater">
               <Keyframes>
               <Keyframe id="178"  time="0/1" value="linr" leadInLength="0/1" />
               </Keyframes>
              </Parameter>
             </Parameters>
             <Keyframes>
             <Keyframe id="179"  time="-9999999/1" value="0" leadInLength="0/1" />
             </Keyframes>
            </InterpolatingParam>
           </VectorParam>
           <VectorParam id="180"  name="scale">
            <InterpolatingParam id="181"  >
             <Parameters>
              <Parameter id="182"  name="interpolater">
               <Keyframes>
               <Keyframe id="183"  time="0/1" value="linr" leadInLength="0/1" />
               </Keyframes>
              </Parameter>
             </Parameters>
             <Keyframes>
             <Keyframe id="184"  time="-9999999/1" value="1" leadInLength="0/1" />
             </Keyframes>
            </InterpolatingParam>
            <InterpolatingParam id="185"  >
             <Parameters>
              <Parameter id="186"  name="interpolater">
               <Keyframes>
               <Keyframe id="187"  time="0/1" value="linr" leadInLength="0/1" />
               </Keyframes>
              </Parameter>
             </Parameters>
             <Keyframes>
             <Keyframe id="188"  time="-9999999/1" value="0.99999999999981914" leadInLength="0/1" />
             </Keyframes>
            </InterpolatingParam>
            <InterpolatingParam id="189"  >
             <Parameters>
              <Parameter id="190"  name="interpolater">
               <Keyframes>
               <Keyframe id="191"  time="0/1" value="linr" leadInLength="0/1" />
               </Keyframes>
              </Parameter>
             </Parameters>
             <Keyframes>
             <Keyframe id="192"  time="-9999999/1" value="1" leadInLength="0/1" />
             </Keyframes>
            </InterpolatingParam>
           </VectorParam>
           <VectorParam id="193"  name="anchor">
            <InterpolatingParam id="194" interp="linr" value="0"  />
            <InterpolatingParam id="195" interp="linr" value="0"  />
            <InterpolatingParam id="196" interp="linr" value="0"  />
           </VectorParam>
          </Transformer>
          <Parameters>
           <VectorParam id="197"  name="sourceCrop">
            <InterpolatingParam id="198" interp="linr" value="0"  />
            <InterpolatingParam id="199" interp="linr" value="0"  />
            <InterpolatingParam id="200" interp="linr" value="0"  />
            <InterpolatingParam id="201" interp="linr" value="0"  />
           </VectorParam>
           <VectorParam id="202"  name="geometryCrop">
            <InterpolatingParam id="203" interp="linr" value="0"  />
            <InterpolatingParam id="204" interp="linr" value="0"  />
            <InterpolatingParam id="205" interp="linr" value="0"  />
            <InterpolatingParam id="206" interp="linr" value="0"  />
           </VectorParam>
           <InterpolatingParam id="207"  name="opacity">
            <Parameters>
             <Parameter id="208"  name="interpolater">
              <Keyframes>
              <Keyframe id="209"  time="0/1" value="linr" leadInLength="0/1" />
              </Keyframes>
             </Parameter>
            </Parameters>
            <Keyframes>
            <Keyframe id="210"  time="-9999999/1" value="1" leadInLength="0/1" />
            </Keyframes>
           </InterpolatingParam>
          </Parameters>
          <Attributes>
           <Attribute id="211" value="" name="ident"/>
          </Attributes>
          <ExtraData>
           <Entry key="ZoomPanBin">
            <ZoomPanBin id="212"  >
             <ZoomPanKeyframes>
              <ZoomPanKeyframe id="213" timeRangeStart="-9999999/1" timeRangeDuration="0/1"  />
             </ZoomPanKeyframes>
            </ZoomPanBin>
           </Entry>
          </ExtraData>
         </VMFile>
         <MetaData>
          <entry key="WinSubProjectDisplayName" val=""/>
         </MetaData>
        </UnifiedMedia>
        <UnifiedMedia id="214"  >
         <AMFile id="215" start="110" duration="60" scalar="1/2" mediaStart="746/1" mediaDuration="120/1" trackNumber="1" src="4" channelNumber="0,1" >
          <Parameters>
           <InterpolatingParam id="216" interp="linr" value="1"  name="volume"/>
           <Parameter id="217"  name="captions"/>
          </Parameters>
          <Attributes>
           <Attribute id="218" value="" name="ident"/>
           <Attribute id="219" value="44100" name="sampleRate"/>
           <Attribute id="220" value="16" name="bitDepth"/>
           <Attribute id="221" value="1" name="gain"/>
          </Attributes>
         </AMFile>
         <VMFile id="222" start="110" duration="60" scalar="1/2" mediaStart="746/1" mediaDuration="120/1" trackNumber="0" src="4" >
          <Transformer>
           <VectorParam id="223"  name="translation">
            <InterpolatingParam id="224"  >
             <Parameters>
              <Parameter id="225"  name="interpolater">
               <Keyframes>
               <Keyframe id="226"  time="0/1" value="linr" leadInLength="0/1" />
               </Keyframes>
              </Parameter>
             </Parameters>
             <Keyframes>
             <Keyframe id="227"  time="-9999999/1" value="0" leadInLength="0/1" />
             </Keyframes>
            </InterpolatingParam>
            <InterpolatingParam id="228"  >
             <Parameters>
              <Parameter id="229"  name="interpolater">
               <Keyframes>
               <Keyframe id="230"  time="0/1" value="linr" leadInLength="0/1" />
               </Keyframes>
              </Parameter>
             </Parameters>
             <Keyframes>
             <Keyframe id="231"  time="-9999999/1" value="9.7721830627501458e-011" leadInLength="0/1" />
             </Keyframes>
            </InterpolatingParam>
            <InterpolatingParam id="232"  >
             <Parameters>
              <Parameter id="233"  name="interpolater">
               <Keyframes>
               <Keyframe id="234"  time="0/1" value="linr" leadInLength="0/1" />
               </Keyframes>
              </Parameter>
             </Parameters>
             <Keyframes>
             <Keyframe id="235"  time="-9999999/1" value="0" leadInLength="0/1" />
             </Keyframes>
            </InterpolatingParam>
           </VectorParam>
           <VectorParam id="236"  name="rotation">
            <InterpolatingParam id="237"  >
             <Parameters>
              <Parameter id="238"  name="interpolater">
               <Keyframes>
               <Keyframe id="239"  time="0/1" value="linr" leadInLength="0/1" />
               </Keyframes>
              </Parameter>
             </Parameters>
             <Keyframes>
             <Keyframe id="240"  time="-9999999/1" value="0" leadInLength="0/1" />
             </Keyframes>
            </InterpolatingParam>
            <InterpolatingParam id="241"  >
             <Parameters>
              <Parameter id="242"  name="interpolater">
               <Keyframes>
               <Keyframe id="243"  time="0/1" value="linr" leadInLength="0/1" />
               </Keyframes>
              </Parameter>
             </Parameters>
             <Keyframes>
             <Keyframe id="244"  time="-9999999/1" value="0" leadInLength="0/1" />
             </Keyframes>
            </InterpolatingParam>
            <InterpolatingParam id="245"  >
             <Parameters>
              <Parameter id="246"  name="interpolater">
               <Keyframes>
               <Keyframe id="247"  time="0/1" value="linr" leadInLength="0/1" />
               </Keyframes>
              </Parameter>
             </Parameters>
             <Keyframes>
             <Keyframe id="248"  time="-9999999/1" value="0" leadInLength="0/1" />
             </Keyframes>
            </InterpolatingParam>
           </VectorParam>
           <VectorParam id="249"  name="shear">
            <InterpolatingParam id="250"  >
             <Parameters>
              <Parameter id="251"  name="interpolater">
               <Keyframes>
               <Keyframe id="252"  time="0/1" value="linr" leadInLength="0/1" />
               </Keyframes>
              </Parameter>
             </Parameters>
             <Keyframes>
             <Keyframe id="253"  time="-9999999/1" value="0" leadInLength="0/1" />
             </Keyframes>
            </InterpolatingParam>
            <InterpolatingParam id="254"  >
             <Parameters>
              <Parameter id="255"  name="interpolater">
               <Keyframes>
               <Keyframe id="256"  time="0/1" value="linr" leadInLength="0/1" />
               </Keyframes>
              </Parameter>
             </Parameters>
             <Keyframes>
             <Keyframe id="257"  time="-9999999/1" value="0" leadInLength="0/1" />
             </Keyframes>
            </InterpolatingParam>
            <InterpolatingParam id="258"  >
             <Parameters>
              <Parameter id="259"  name="interpolater">
               <Keyframes>
               <Keyframe id="260"  time="0/1" value="linr" leadInLength="0/1" />
               </Keyframes>
              </Parameter>
             </Parameters>
             <Keyframes>
             <Keyframe id="261"  time="-9999999/1" value="0" leadInLength="0/1" />
             </Keyframes>
            </InterpolatingParam>
           </VectorParam>
           <VectorParam id="262"  name="scale">
            <InterpolatingParam id="263"  >
             <Parameters>
              <Parameter id="264"  name="interpolater">
               <Keyframes>
               <Keyframe id="265"  time="0/1" value="linr" leadInLength="0/1" />
               </Keyframes>
              </Parameter>
             </Parameters>
             <Keyframes>
             <Keyframe id="266"  time="-9999999/1" value="1" leadInLength="0/1" />
             </Keyframes>
            </InterpolatingParam>
            <InterpolatingParam id="267"  >
             <Parameters>
              <Parameter id="268"  name="interpolater">
               <Keyframes>
               <Keyframe id="269"  time="0/1" value="linr" leadInLength="0/1" />
               </Keyframes>
              </Parameter>
             </Parameters>
             <Keyframes>
             <Keyframe id="270"  time="-9999999/1" value="0.99999999999981914" leadInLength="0/1" />
             </Keyframes>
            </InterpolatingParam>
            <InterpolatingParam id="271"  >
             <Parameters>
              <Parameter id="272"  name="interpolater">
               <Keyframes>
               <Keyframe id="273"  time="0/1" value="linr" leadInLength="0/1" />
               </Keyframes>
              </Parameter>
             </Parameters>
             <Keyframes>
             <Keyframe id="274"  time="-9999999/1" value="1" leadInLength="0/1" />
             </Keyframes>
            </InterpolatingParam>
           </VectorParam>
           <VectorParam id="275"  name="anchor">
            <InterpolatingParam id="276" interp="linr" value="0"  />
            <InterpolatingParam id="277" interp="linr" value="0"  />
            <InterpolatingParam id="278" interp="linr" value="0"  />
           </VectorParam>
          </Transformer>
          <Parameters>
           <VectorParam id="279"  name="sourceCrop">
            <InterpolatingParam id="280" interp="linr" value="0"  />
            <InterpolatingParam id="281" interp="linr" value="0"  />
            <InterpolatingParam id="282" interp="linr" value="0"  />
            <InterpolatingParam id="283" interp="linr" value="0"  />
           </VectorParam>
           <VectorParam id="284"  name="geometryCrop">
            <InterpolatingParam id="285" interp="linr" value="0"  />
            <InterpolatingParam id="286" interp="linr" value="0"  />
            <InterpolatingParam id="287" interp="linr" value="0"  />
            <InterpolatingParam id="288" interp="linr" value="0"  />
           </VectorParam>
           <InterpolatingParam id="289"  name="opacity">
            <Parameters>
             <Parameter id="290"  name="interpolater">
              <Keyframes>
              <Keyframe id="291"  time="0/1" value="linr" leadInLength="0/1" />
              </Keyframes>
             </Parameter>
            </Parameters>
            <Keyframes>
            <Keyframe id="292"  time="-9999999/1" value="1" leadInLength="0/1" />
            </Keyframes>
           </InterpolatingParam>
          </Parameters>
          <Attributes>
           <Attribute id="293" value="" name="ident"/>
          </Attributes>
          <ExtraData>
           <Entry key="ZoomPanBin">
            <ZoomPanBin id="294"  >
             <ZoomPanKeyframes>
              <ZoomPanKeyframe id="295" timeRangeStart="-9999999/1" timeRangeDuration="0/1"  />
             </ZoomPanKeyframes>
            </ZoomPanBin>
           </Entry>
          </ExtraData>
         </VMFile>
         <MetaData>
          <entry key="WinSubProjectDisplayName" val=""/>
         </MetaData>
        </UnifiedMedia>
        <UnifiedMedia id="296"  >
         <AMFile id="297" start="170" duration="23" scalar="1/2" mediaStart="1172/1" mediaDuration="46/1" trackNumber="1" src="4" channelNumber="0,1" >
          <Parameters>
           <InterpolatingParam id="298" interp="linr" value="1"  name="volume"/>
           <Parameter id="299"  name="captions"/>
          </Parameters>
          <Attributes>
           <Attribute id="300" value="" name="ident"/>
           <Attribute id="301" value="44100" name="sampleRate"/>
           <Attribute id="302" value="16" name="bitDepth"/>
           <Attribute id="303" value="1" name="gain"/>
          </Attributes>
         </AMFile>
         <VMFile id="304" start="170" duration="23" scalar="1/2" mediaStart="1172/1" mediaDuration="46/1" trackNumber="0" src="4" >
          <Transformer>
           <VectorParam id="305"  name="translation">
            <InterpolatingParam id="306"  >
             <Parameters>
              <Parameter id="307"  name="interpolater">
               <Keyframes>
               <Keyframe id="308"  time="0/1" value="linr" leadInLength="0/1" />
               </Keyframes>
              </Parameter>
             </Parameters>
             <Keyframes>
             <Keyframe id="309"  time="-9999999/1" value="0" leadInLength="0/1" />
             </Keyframes>
            </InterpolatingParam>
            <InterpolatingParam id="310"  >
             <Parameters>
              <Parameter id="311"  name="interpolater">
               <Keyframes>
               <Keyframe id="312"  time="0/1" value="linr" leadInLength="0/1" />
               </Keyframes>
              </Parameter>
             </Parameters>
             <Keyframes>
             <Keyframe id="313"  time="-9999999/1" value="9.7721830627501458e-011" leadInLength="0/1" />
             </Keyframes>
            </InterpolatingParam>
            <InterpolatingParam id="314"  >
             <Parameters>
              <Parameter id="315"  name="interpolater">
               <Keyframes>
               <Keyframe id="316"  time="0/1" value="linr" leadInLength="0/1" />
               </Keyframes>
              </Parameter>
             </Parameters>
             <Keyframes>
             <Keyframe id="317"  time="-9999999/1" value="0" leadInLength="0/1" />
             </Keyframes>
            </InterpolatingParam>
           </VectorParam>
           <VectorParam id="318"  name="rotation">
            <InterpolatingParam id="319"  >
             <Parameters>
              <Parameter id="320"  name="interpolater">
               <Keyframes>
               <Keyframe id="321"  time="0/1" value="linr" leadInLength="0/1" />
               </Keyframes>
              </Parameter>
             </Parameters>
             <Keyframes>
             <Keyframe id="322"  time="-9999999/1" value="0" leadInLength="0/1" />
             </Keyframes>
            </InterpolatingParam>
            <InterpolatingParam id="323"  >
             <Parameters>
              <Parameter id="324"  name="interpolater">
               <Keyframes>
               <Keyframe id="325"  time="0/1" value="linr" leadInLength="0/1" />
               </Keyframes>
              </Parameter>
             </Parameters>
             <Keyframes>
             <Keyframe id="326"  time="-9999999/1" value="0" leadInLength="0/1" />
             </Keyframes>
            </InterpolatingParam>
            <InterpolatingParam id="327"  >
             <Parameters>
              <Parameter id="328"  name="interpolater">
               <Keyframes>
               <Keyframe id="329"  time="0/1" value="linr" leadInLength="0/1" />
               </Keyframes>
              </Parameter>
             </Parameters>
             <Keyframes>
             <Keyframe id="330"  time="-9999999/1" value="0" leadInLength="0/1" />
             </Keyframes>
            </InterpolatingParam>
           </VectorParam>
           <VectorParam id="331"  name="shear">
            <InterpolatingParam id="332"  >
             <Parameters>
              <Parameter id="333"  name="interpolater">
               <Keyframes>
               <Keyframe id="334"  time="0/1" value="linr" leadInLength="0/1" />
               </Keyframes>
              </Parameter>
             </Parameters>
             <Keyframes>
             <Keyframe id="335"  time="-9999999/1" value="0" leadInLength="0/1" />
             </Keyframes>
            </InterpolatingParam>
            <InterpolatingParam id="336"  >
             <Parameters>
              <Parameter id="337"  name="interpolater">
               <Keyframes>
               <Keyframe id="338"  time="0/1" value="linr" leadInLength="0/1" />
               </Keyframes>
              </Parameter>
             </Parameters>
             <Keyframes>
             <Keyframe id="339"  time="-9999999/1" value="0" leadInLength="0/1" />
             </Keyframes>
            </InterpolatingParam>
            <InterpolatingParam id="340"  >
             <Parameters>
              <Parameter id="341"  name="interpolater">
               <Keyframes>
               <Keyframe id="342"  time="0/1" value="linr" leadInLength="0/1" />
               </Keyframes>
              </Parameter>
             </Parameters>
             <Keyframes>
             <Keyframe id="343"  time="-9999999/1" value="0" leadInLength="0/1" />
             </Keyframes>
            </InterpolatingParam>
           </VectorParam>
           <VectorParam id="344"  name="scale">
            <InterpolatingParam id="345"  >
             <Parameters>
              <Parameter id="346"  name="interpolater">
               <Keyframes>
               <Keyframe id="347"  time="0/1" value="linr" leadInLength="0/1" />
               </Keyframes>
              </Parameter>
             </Parameters>
             <Keyframes>
             <Keyframe id="348"  time="-9999999/1" value="1" leadInLength="0/1" />
             </Keyframes>
            </InterpolatingParam>
            <InterpolatingParam id="349"  >
             <Parameters>
              <Parameter id="350"  name="interpolater">
               <Keyframes>
               <Keyframe id="351"  time="0/1" value="linr" leadInLength="0/1" />
               </Keyframes>
              </Parameter>
             </Parameters>
             <Keyframes>
             <Keyframe id="352"  time="-9999999/1" value="0.99999999999981914" leadInLength="0/1" />
             </Keyframes>
            </InterpolatingParam>
            <InterpolatingParam id="353"  >
             <Parameters>
              <Parameter id="354"  name="interpolater">
               <Keyframes>
               <Keyframe id="355"  time="0/1" value="linr" leadInLength="0/1" />
               </Keyframes>
              </Parameter>
             </Parameters>
             <Keyframes>
             <Keyframe id="356"  time="-9999999/1" value="1" leadInLength="0/1" />
             </Keyframes>
            </InterpolatingParam>
           </VectorParam>
           <VectorParam id="357"  name="anchor">
            <InterpolatingParam id="358" interp="linr" value="0"  />
            <InterpolatingParam id="359" interp="linr" value="0"  />
            <InterpolatingParam id="360" interp="linr" value="0"  />
           </VectorParam>
          </Transformer>
          <Parameters>
           <VectorParam id="361"  name="sourceCrop">
            <InterpolatingParam id="362" interp="linr" value="0"  />
            <InterpolatingParam id="363" interp="linr" value="0"  />
            <InterpolatingParam id="364" interp="linr" value="0"  />
            <InterpolatingParam id="365" interp="linr" value="0"  />
           </VectorParam>
           <VectorParam id="366"  name="geometryCrop">
            <InterpolatingParam id="367" interp="linr" value="0"  />
            <InterpolatingParam id="368" interp="linr" value="0"  />
            <InterpolatingParam id="369" interp="linr" value="0"  />
            <InterpolatingParam id="370" interp="linr" value="0"  />
           </VectorParam>
           <InterpolatingParam id="371"  name="opacity">
            <Parameters>
             <Parameter id="372"  name="interpolater">
              <Keyframes>
              <Keyframe id="373"  time="0/1" value="linr" leadInLength="0/1" />
              </Keyframes>
             </Parameter>
            </Parameters>
            <Keyframes>
            <Keyframe id="374"  time="-9999999/1" value="1" leadInLength="0/1" />
            </Keyframes>
           </InterpolatingParam>
          </Parameters>
          <Attributes>
           <Attribute id="375" value="" name="ident"/>
          </Attributes>
          <ExtraData>
           <Entry key="ZoomPanBin">
            <ZoomPanBin id="376"  >
             <ZoomPanKeyframes>
              <ZoomPanKeyframe id="377" timeRangeStart="-9999999/1" timeRangeDuration="0/1"  />
             </ZoomPanKeyframes>
            </ZoomPanBin>
           </Entry>
          </ExtraData>
         </VMFile>
         <MetaData>
          <entry key="WinSubProjectDisplayName" val=""/>
         </MetaData>
        </UnifiedMedia>
        <UnifiedMedia id="378"  >
         <AMFile id="379" start="193" duration="95" scalar="1/1" mediaStart="1717/1" mediaDuration="95/1" trackNumber="1" src="4" channelNumber="0,1" >
          <Parameters>
           <InterpolatingParam id="380" interp="linr" value="1"  name="volume"/>
           <Parameter id="381"  name="captions"/>
          </Parameters>
          <Attributes>
           <Attribute id="382" value="" name="ident"/>
           <Attribute id="383" value="44100" name="sampleRate"/>
           <Attribute id="384" value="16" name="bitDepth"/>
           <Attribute id="385" value="1" name="gain"/>
          </Attributes>
         </AMFile>
         <VMFile id="386" start="193" duration="95" scalar="1/1" mediaStart="1717/1" mediaDuration="95/1" trackNumber="0" src="4" >
          <Transformer>
           <VectorParam id="387"  name="translation">
            <InterpolatingParam id="388"  >
             <Parameters>
              <Parameter id="389"  name="interpolater">
               <Keyframes>
               <Keyframe id="390"  time="0/1" value="linr" leadInLength="0/1" />
               </Keyframes>
              </Parameter>
             </Parameters>
             <Keyframes>
             <Keyframe id="391"  time="-9999999/1" value="0" leadInLength="0/1" />
             </Keyframes>
            </InterpolatingParam>
            <InterpolatingParam id="392"  >
             <Parameters>
              <Parameter id="393"  name="interpolater">
               <Keyframes>
               <Keyframe id="394"  time="0/1" value="linr" leadInLength="0/1" />
               </Keyframes>
              </Parameter>
             </Parameters>
             <Keyframes>
             <Keyframe id="395"  time="-9999999/1" value="9.7721830627501458e-011" leadInLength="0/1" />
             </Keyframes>
            </InterpolatingParam>
            <InterpolatingParam id="396"  >
             <Parameters>
              <Parameter id="397"  name="interpolater">
               <Keyframes>
               <Keyframe id="398"  time="0/1" value="linr" leadInLength="0/1" />
               </Keyframes>
              </Parameter>
             </Parameters>
             <Keyframes>
             <Keyframe id="399"  time="-9999999/1" value="0" leadInLength="0/1" />
             </Keyframes>
            </InterpolatingParam>
           </VectorParam>
           <VectorParam id="400"  name="rotation">
            <InterpolatingParam id="401"  >
             <Parameters>
              <Parameter id="402"  name="interpolater">
               <Keyframes>
               <Keyframe id="403"  time="0/1" value="linr" leadInLength="0/1" />
               </Keyframes>
              </Parameter>
             </Parameters>
             <Keyframes>
             <Keyframe id="404"  time="-9999999/1" value="0" leadInLength="0/1" />
             </Keyframes>
            </InterpolatingParam>
            <InterpolatingParam id="405"  >
             <Parameters>
              <Parameter id="406"  name="interpolater">
               <Keyframes>
               <Keyframe id="407"  time="0/1" value="linr" leadInLength="0/1" />
               </Keyframes>
              </Parameter>
             </Parameters>
             <Keyframes>
             <Keyframe id="408"  time="-9999999/1" value="0" leadInLength="0/1" />
             </Keyframes>
            </InterpolatingParam>
            <InterpolatingParam id="409"  >
             <Parameters>
              <Parameter id="410"  name="interpolater">
               <Keyframes>
               <Keyframe id="411"  time="0/1" value="linr" leadInLength="0/1" />
               </Keyframes>
              </Parameter>
             </Parameters>
             <Keyframes>
             <Keyframe id="412"  time="-9999999/1" value="0" leadInLength="0/1" />
             </Keyframes>
            </InterpolatingParam>
           </VectorParam>
           <VectorParam id="413"  name="shear">
            <InterpolatingParam id="414"  >
             <Parameters>
              <Parameter id="415"  name="interpolater">
               <Keyframes>
               <Keyframe id="416"  time="0/1" value="linr" leadInLength="0/1" />
               </Keyframes>
              </Parameter>
             </Parameters>
             <Keyframes>
             <Keyframe id="417"  time="-9999999/1" value="0" leadInLength="0/1" />
             </Keyframes>
            </InterpolatingParam>
            <InterpolatingParam id="418"  >
             <Parameters>
              <Parameter id="419"  name="interpolater">
               <Keyframes>
               <Keyframe id="420"  time="0/1" value="linr" leadInLength="0/1" />
               </Keyframes>
              </Parameter>
             </Parameters>
             <Keyframes>
             <Keyframe id="421"  time="-9999999/1" value="0" leadInLength="0/1" />
             </Keyframes>
            </InterpolatingParam>
            <InterpolatingParam id="422"  >
             <Parameters>
              <Parameter id="423"  name="interpolater">
               <Keyframes>
               <Keyframe id="424"  time="0/1" value="linr" leadInLength="0/1" />
               </Keyframes>
              </Parameter>
             </Parameters>
             <Keyframes>
             <Keyframe id="425"  time="-9999999/1" value="0" leadInLength="0/1" />
             </Keyframes>
            </InterpolatingParam>
           </VectorParam>
           <VectorParam id="426"  name="scale">
            <InterpolatingParam id="427"  >
             <Parameters>
              <Parameter id="428"  name="interpolater">
               <Keyframes>
               <Keyframe id="429"  time="0/1" value="linr" leadInLength="0/1" />
               </Keyframes>
              </Parameter>
             </Parameters>
             <Keyframes>
             <Keyframe id="430"  time="-9999999/1" value="1" leadInLength="0/1" />
             </Keyframes>
            </InterpolatingParam>
            <InterpolatingParam id="431"  >
             <Parameters>
              <Parameter id="432"  name="interpolater">
               <Keyframes>
               <Keyframe id="433"  time="0/1" value="linr" leadInLength="0/1" />
               </Keyframes>
              </Parameter>
             </Parameters>
             <Keyframes>
             <Keyframe id="434"  time="-9999999/1" value="0.99999999999981914" leadInLength="0/1" />
             </Keyframes>
            </InterpolatingParam>
            <InterpolatingParam id="435"  >
             <Parameters>
              <Parameter id="436"  name="interpolater">
               <Keyframes>
               <Keyframe id="437"  time="0/1" value="linr" leadInLength="0/1" />
               </Keyframes>
              </Parameter>
             </Parameters>
             <Keyframes>
             <Keyframe id="438"  time="-9999999/1" value="1" leadInLength="0/1" />
             </Keyframes>
            </InterpolatingParam>
           </VectorParam>
           <VectorParam id="439"  name="anchor">
            <InterpolatingParam id="440" interp="linr" value="0"  />
            <InterpolatingParam id="441" interp="linr" value="0"  />
            <InterpolatingParam id="442" interp="linr" value="0"  />
           </VectorParam>
          </Transformer>
          <Parameters>
           <VectorParam id="443"  name="sourceCrop">
            <InterpolatingParam id="444" interp="linr" value="0"  />
            <InterpolatingParam id="445" interp="linr" value="0"  />
            <InterpolatingParam id="446" interp="linr" value="0"  />
            <InterpolatingParam id="447" interp="linr" value="0"  />
           </VectorParam>
           <VectorParam id="448"  name="geometryCrop">
            <InterpolatingParam id="449" interp="linr" value="0"  />
            <InterpolatingParam id="450" interp="linr" value="0"  />
            <InterpolatingParam id="451" interp="linr" value="0"  />
            <InterpolatingParam id="452" interp="linr" value="0"  />
           </VectorParam>
           <InterpolatingParam id="453"  name="opacity">
            <Parameters>
             <Parameter id="454"  name="interpolater">
              <Keyframes>
              <Keyframe id="455"  time="0/1" value="linr" leadInLength="0/1" />
              </Keyframes>
             </Parameter>
            </Parameters>
            <Keyframes>
            <Keyframe id="456"  time="-9999999/1" value="1" leadInLength="0/1" />
            </Keyframes>
           </InterpolatingParam>
          </Parameters>
          <Attributes>
           <Attribute id="457" value="" name="ident"/>
          </Attributes>
          <ExtraData>
           <Entry key="ZoomPanBin">
            <ZoomPanBin id="458"  >
             <ZoomPanKeyframes>
              <ZoomPanKeyframe id="459" timeRangeStart="-9999999/1" timeRangeDuration="0/1"  />
             </ZoomPanKeyframes>
            </ZoomPanBin>
           </Entry>
          </ExtraData>
         </VMFile>
         <MetaData>
          <entry key="WinSubProjectDisplayName" val=""/>
         </MetaData>
        </UnifiedMedia>
        <UnifiedMedia id="460"  >
         <AMFile id="461" start="288" duration="38" scalar="1/1" mediaStart="2180/1" mediaDuration="38/1" trackNumber="1" src="4" channelNumber="0,1" >
          <Parameters>
           <InterpolatingParam id="462" interp="linr" value="1"  name="volume"/>
           <Parameter id="463"  name="captions"/>
          </Parameters>
          <Attributes>
           <Attribute id="464" value="" name="ident"/>
           <Attribute id="465" value="44100" name="sampleRate"/>
           <Attribute id="466" value="16" name="bitDepth"/>
           <Attribute id="467" value="1" name="gain"/>
          </Attributes>
         </AMFile>
         <VMFile id="468" start="288" duration="38" scalar="1/1" mediaStart="2180/1" mediaDuration="38/1" trackNumber="0" src="4" >
          <Transformer>
           <VectorParam id="469"  name="translation">
            <InterpolatingParam id="470"  >
             <Parameters>
              <Parameter id="471"  name="interpolater">
               <Keyframes>
               <Keyframe id="472"  time="0/1" value="linr" leadInLength="0/1" />
               </Keyframes>
              </Parameter>
             </Parameters>
             <Keyframes>
             <Keyframe id="473"  time="-9999999/1" value="0" leadInLength="0/1" />
             </Keyframes>
            </InterpolatingParam>
            <InterpolatingParam id="474"  >
             <Parameters>
              <Parameter id="475"  name="interpolater">
               <Keyframes>
               <Keyframe id="476"  time="0/1" value="linr" leadInLength="0/1" />
               </Keyframes>
              </Parameter>
             </Parameters>
             <Keyframes>
             <Keyframe id="477"  time="-9999999/1" value="9.7721830627501458e-011" leadInLength="0/1" />
             </Keyframes>
            </InterpolatingParam>
            <InterpolatingParam id="478"  >
             <Parameters>
              <Parameter id="479"  name="interpolater">
               <Keyframes>
               <Keyframe id="480"  time="0/1" value="linr" leadInLength="0/1" />
               </Keyframes>
              </Parameter>
             </Parameters>
             <Keyframes>
             <Keyframe id="481"  time="-9999999/1" value="0" leadInLength="0/1" />
             </Keyframes>
            </InterpolatingParam>
           </VectorParam>
           <VectorParam id="482"  name="rotation">
            <InterpolatingParam id="483"  >
             <Parameters>
              <Parameter id="484"  name="interpolater">
               <Keyframes>
               <Keyframe id="485"  time="0/1" value="linr" leadInLength="0/1" />
               </Keyframes>
              </Parameter>
             </Parameters>
             <Keyframes>
             <Keyframe id="486"  time="-9999999/1" value="0" leadInLength="0/1" />
             </Keyframes>
            </InterpolatingParam>
            <InterpolatingParam id="487"  >
             <Parameters>
              <Parameter id="488"  name="interpolater">
               <Keyframes>
               <Keyframe id="489"  time="0/1" value="linr" leadInLength="0/1" />
               </Keyframes>
              </Parameter>
             </Parameters>
             <Keyframes>
             <Keyframe id="490"  time="-9999999/1" value="0" leadInLength="0/1" />
             </Keyframes>
            </InterpolatingParam>
            <InterpolatingParam id="491"  >
             <Parameters>
              <Parameter id="492"  name="interpolater">
               <Keyframes>
               <Keyframe id="493"  time="0/1" value="linr" leadInLength="0/1" />
               </Keyframes>
              </Parameter>
             </Parameters>
             <Keyframes>
             <Keyframe id="494"  time="-9999999/1" value="0" leadInLength="0/1" />
             </Keyframes>
            </InterpolatingParam>
           </VectorParam>
           <VectorParam id="495"  name="shear">
            <InterpolatingParam id="496"  >
             <Parameters>
              <Parameter id="497"  name="interpolater">
               <Keyframes>
               <Keyframe id="498"  time="0/1" value="linr" leadInLength="0/1" />
               </Keyframes>
              </Parameter>
             </Parameters>
             <Keyframes>
             <Keyframe id="499"  time="-9999999/1" value="0" leadInLength="0/1" />
             </Keyframes>
            </InterpolatingParam>
            <InterpolatingParam id="500"  >
             <Parameters>
              <Parameter id="501"  name="interpolater">
               <Keyframes>
               <Keyframe id="502"  time="0/1" value="linr" leadInLength="0/1" />
               </Keyframes>
              </Parameter>
             </Parameters>
             <Keyframes>
             <Keyframe id="503"  time="-9999999/1" value="0" leadInLength="0/1" />
             </Keyframes>
            </InterpolatingParam>
            <InterpolatingParam id="504"  >
             <Parameters>
              <Parameter id="505"  name="interpolater">
               <Keyframes>
               <Keyframe id="506"  time="0/1" value="linr" leadInLength="0/1" />
               </Keyframes>
              </Parameter>
             </Parameters>
             <Keyframes>
             <Keyframe id="507"  time="-9999999/1" value="0" leadInLength="0/1" />
             </Keyframes>
            </InterpolatingParam>
           </VectorParam>
           <VectorParam id="508"  name="scale">
            <InterpolatingParam id="509"  >
             <Parameters>
              <Parameter id="510"  name="interpolater">
               <Keyframes>
               <Keyframe id="511"  time="0/1" value="linr" leadInLength="0/1" />
               </Keyframes>
              </Parameter>
             </Parameters>
             <Keyframes>
             <Keyframe id="512"  time="-9999999/1" value="1" leadInLength="0/1" />
             </Keyframes>
            </InterpolatingParam>
            <InterpolatingParam id="513"  >
             <Parameters>
              <Parameter id="514"  name="interpolater">
               <Keyframes>
               <Keyframe id="515"  time="0/1" value="linr" leadInLength="0/1" />
               </Keyframes>
              </Parameter>
             </Parameters>
             <Keyframes>
             <Keyframe id="516"  time="-9999999/1" value="0.99999999999981914" leadInLength="0/1" />
             </Keyframes>
            </InterpolatingParam>
            <InterpolatingParam id="517"  >
             <Parameters>
              <Parameter id="518"  name="interpolater">
               <Keyframes>
               <Keyframe id="519"  time="0/1" value="linr" leadInLength="0/1" />
               </Keyframes>
              </Parameter>
             </Parameters>
             <Keyframes>
             <Keyframe id="520"  time="-9999999/1" value="1" leadInLength="0/1" />
             </Keyframes>
            </InterpolatingParam>
           </VectorParam>
           <VectorParam id="521"  name="anchor">
            <InterpolatingParam id="522" interp="linr" value="0"  />
            <InterpolatingParam id="523" interp="linr" value="0"  />
            <InterpolatingParam id="524" interp="linr" value="0"  />
           </VectorParam>
          </Transformer>
          <Parameters>
           <VectorParam id="525"  name="sourceCrop">
            <InterpolatingParam id="526" interp="linr" value="0"  />
            <InterpolatingParam id="527" interp="linr" value="0"  />
            <InterpolatingParam id="528" interp="linr" value="0"  />
            <InterpolatingParam id="529" interp="linr" value="0"  />
           </VectorParam>
           <VectorParam id="530"  name="geometryCrop">
            <InterpolatingParam id="531" interp="linr" value="0"  />
            <InterpolatingParam id="532" interp="linr" value="0"  />
            <InterpolatingParam id="533" interp="linr" value="0"  />
            <InterpolatingParam id="534" interp="linr" value="0"  />
           </VectorParam>
           <InterpolatingParam id="535"  name="opacity">
            <Parameters>
             <Parameter id="536"  name="interpolater">
              <Keyframes>
              <Keyframe id="537"  time="0/1" value="linr" leadInLength="0/1" />
              </Keyframes>
             </Parameter>
            </Parameters>
            <Keyframes>
            <Keyframe id="538"  time="-9999999/1" value="1" leadInLength="0/1" />
            </Keyframes>
           </InterpolatingParam>
          </Parameters>
          <Attributes>
           <Attribute id="539" value="" name="ident"/>
          </Attributes>
          <ExtraData>
           <Entry key="ZoomPanBin">
            <ZoomPanBin id="540"  >
             <ZoomPanKeyframes>
              <ZoomPanKeyframe id="541" timeRangeStart="-9999999/1" timeRangeDuration="0/1"  />
             </ZoomPanKeyframes>
            </ZoomPanBin>
           </Entry>
          </ExtraData>
         </VMFile>
         <MetaData>
          <entry key="WinSubProjectDisplayName" val=""/>
         </MetaData>
        </UnifiedMedia>
        <UnifiedMedia id="542"  >
         <AMFile id="543" start="326" duration="20" scalar="1/1" mediaStart="2273/1" mediaDuration="20/1" trackNumber="1" src="4" channelNumber="0,1" >
          <Parameters>
           <InterpolatingParam id="544" interp="linr" value="1"  name="volume"/>
           <Parameter id="545"  name="captions"/>
          </Parameters>
          <Attributes>
           <Attribute id="546" value="" name="ident"/>
           <Attribute id="547" value="44100" name="sampleRate"/>
           <Attribute id="548" value="16" name="bitDepth"/>
           <Attribute id="549" value="1" name="gain"/>
          </Attributes>
         </AMFile>
         <VMFile id="550" start="326" duration="20" scalar="1/1" mediaStart="2273/1" mediaDuration="20/1" trackNumber="0" src="4" >
          <Transformer>
           <VectorParam id="551"  name="translation">
            <InterpolatingParam id="552"  >
             <Parameters>
              <Parameter id="553"  name="interpolater">
               <Keyframes>
               <Keyframe id="554"  time="0/1" value="linr" leadInLength="0/1" />
               </Keyframes>
              </Parameter>
             </Parameters>
             <Keyframes>
             <Keyframe id="555"  time="-9999999/1" value="0" leadInLength="0/1" />
             </Keyframes>
            </InterpolatingParam>
            <InterpolatingParam id="556"  >
             <Parameters>
              <Parameter id="557"  name="interpolater">
               <Keyframes>
               <Keyframe id="558"  time="0/1" value="linr" leadInLength="0/1" />
               </Keyframes>
              </Parameter>
             </Parameters>
             <Keyframes>
             <Keyframe id="559"  time="-9999999/1" value="9.7721830627501458e-011" leadInLength="0/1" />
             </Keyframes>
            </InterpolatingParam>
            <InterpolatingParam id="560"  >
             <Parameters>
              <Parameter id="561"  name="interpolater">
               <Keyframes>
               <Keyframe id="562"  time="0/1" value="linr" leadInLength="0/1" />
               </Keyframes>
              </Parameter>
             </Parameters>
             <Keyframes>
             <Keyframe id="563"  time="-9999999/1" value="0" leadInLength="0/1" />
             </Keyframes>
            </InterpolatingParam>
           </VectorParam>
           <VectorParam id="564"  name="rotation">
            <InterpolatingParam id="565"  >
             <Parameters>
              <Parameter id="566"  name="interpolater">
               <Keyframes>
               <Keyframe id="567"  time="0/1" value="linr" leadInLength="0/1" />
               </Keyframes>
              </Parameter>
             </Parameters>
             <Keyframes>
             <Keyframe id="568"  time="-9999999/1" value="0" leadInLength="0/1" />
             </Keyframes>
            </InterpolatingParam>
            <InterpolatingParam id="569"  >
             <Parameters>
              <Parameter id="570"  name="interpolater">
               <Keyframes>
               <Keyframe id="571"  time="0/1" value="linr" leadInLength="0/1" />
               </Keyframes>
              </Parameter>
             </Parameters>
             <Keyframes>
             <Keyframe id="572"  time="-9999999/1" value="0" leadInLength="0/1" />
             </Keyframes>
            </InterpolatingParam>
            <InterpolatingParam id="573"  >
             <Parameters>
              <Parameter id="574"  name="interpolater">
               <Keyframes>
               <Keyframe id="575"  time="0/1" value="linr" leadInLength="0/1" />
               </Keyframes>
              </Parameter>
             </Parameters>
             <Keyframes>
             <Keyframe id="576"  time="-9999999/1" value="0" leadInLength="0/1" />
             </Keyframes>
            </InterpolatingParam>
           </VectorParam>
           <VectorParam id="577"  name="shear">
            <InterpolatingParam id="578"  >
             <Parameters>
              <Parameter id="579"  name="interpolater">
               <Keyframes>
               <Keyframe id="580"  time="0/1" value="linr" leadInLength="0/1" />
               </Keyframes>
              </Parameter>
             </Parameters>
             <Keyframes>
             <Keyframe id="581"  time="-9999999/1" value="0" leadInLength="0/1" />
             </Keyframes>
            </InterpolatingParam>
            <InterpolatingParam id="582"  >
             <Parameters>
              <Parameter id="583"  name="interpolater">
               <Keyframes>
               <Keyframe id="584"  time="0/1" value="linr" leadInLength="0/1" />
               </Keyframes>
              </Parameter>
             </Parameters>
             <Keyframes>
             <Keyframe id="585"  time="-9999999/1" value="0" leadInLength="0/1" />
             </Keyframes>
            </InterpolatingParam>
            <InterpolatingParam id="586"  >
             <Parameters>
              <Parameter id="587"  name="interpolater">
               <Keyframes>
               <Keyframe id="588"  time="0/1" value="linr" leadInLength="0/1" />
               </Keyframes>
              </Parameter>
             </Parameters>
             <Keyframes>
             <Keyframe id="589"  time="-9999999/1" value="0" leadInLength="0/1" />
             </Keyframes>
            </InterpolatingParam>
           </VectorParam>
           <VectorParam id="590"  name="scale">
            <InterpolatingParam id="591"  >
             <Parameters>
              <Parameter id="592"  name="interpolater">
               <Keyframes>
               <Keyframe id="593"  time="0/1" value="linr" leadInLength="0/1" />
               </Keyframes>
              </Parameter>
             </Parameters>
             <Keyframes>
             <Keyframe id="594"  time="-9999999/1" value="1" leadInLength="0/1" />
             </Keyframes>
            </InterpolatingParam>
            <InterpolatingParam id="595"  >
             <Parameters>
              <Parameter id="596"  name="interpolater">
               <Keyframes>
               <Keyframe id="597"  time="0/1" value="linr" leadInLength="0/1" />
               </Keyframes>
              </Parameter>
             </Parameters>
             <Keyframes>
             <Keyframe id="598"  time="-9999999/1" value="0.99999999999981914" leadInLength="0/1" />
             </Keyframes>
            </InterpolatingParam>
            <InterpolatingParam id="599"  >
             <Parameters>
              <Parameter id="600"  name="interpolater">
               <Keyframes>
               <Keyframe id="601"  time="0/1" value="linr" leadInLength="0/1" />
               </Keyframes>
              </Parameter>
             </Parameters>
             <Keyframes>
             <Keyframe id="602"  time="-9999999/1" value="1" leadInLength="0/1" />
             </Keyframes>
            </InterpolatingParam>
           </VectorParam>
           <VectorParam id="603"  name="anchor">
            <InterpolatingParam id="604" interp="linr" value="0"  />
            <InterpolatingParam id="605" interp="linr" value="0"  />
            <InterpolatingParam id="606" interp="linr" value="0"  />
           </VectorParam>
          </Transformer>
          <Parameters>
           <VectorParam id="607"  name="sourceCrop">
            <InterpolatingParam id="608" interp="linr" value="0"  />
            <InterpolatingParam id="609" interp="linr" value="0"  />
            <InterpolatingParam id="610" interp="linr" value="0"  />
            <InterpolatingParam id="611" interp="linr" value="0"  />
           </VectorParam>
           <VectorParam id="612"  name="geometryCrop">
            <InterpolatingParam id="613" interp="linr" value="0"  />
            <InterpolatingParam id="614" interp="linr" value="0"  />
            <InterpolatingParam id="615" interp="linr" value="0"  />
            <InterpolatingParam id="616" interp="linr" value="0"  />
           </VectorParam>
           <InterpolatingParam id="617"  name="opacity">
            <Parameters>
             <Parameter id="618"  name="interpolater">
              <Keyframes>
              <Keyframe id="619"  time="0/1" value="linr" leadInLength="0/1" />
              </Keyframes>
             </Parameter>
            </Parameters>
            <Keyframes>
            <Keyframe id="620"  time="-9999999/1" value="1" leadInLength="0/1" />
            </Keyframes>
           </InterpolatingParam>
          </Parameters>
          <Attributes>
           <Attribute id="621" value="" name="ident"/>
          </Attributes>
          <ExtraData>
           <Entry key="ZoomPanBin">
            <ZoomPanBin id="622"  >
             <ZoomPanKeyframes>
              <ZoomPanKeyframe id="623" timeRangeStart="-9999999/1" timeRangeDuration="0/1"  />
             </ZoomPanKeyframes>
            </ZoomPanBin>
           </Entry>
          </ExtraData>
         </VMFile>
         <MetaData>
          <entry key="WinSubProjectDisplayName" val=""/>
         </MetaData>
        </UnifiedMedia>
        <UnifiedMedia id="624"  >
         <AMFile id="625" start="346" duration="90" scalar="45/136" mediaStart="2573/1" mediaDuration="272/1" trackNumber="1" src="4" channelNumber="0,1" >
          <Parameters>
           <InterpolatingParam id="626" interp="linr" value="0.96029776674937928"  name="volume"/>
           <Parameter id="627"  name="captions"/>
          </Parameters>
          <Attributes>
           <Attribute id="628" value="" name="ident"/>
           <Attribute id="629" value="44100" name="sampleRate"/>
           <Attribute id="630" value="16" name="bitDepth"/>
           <Attribute id="631" value="1" name="gain"/>
          </Attributes>
         </AMFile>
         <VMFile id="632" start="346" duration="90" scalar="45/136" mediaStart="2573/1" mediaDuration="272/1" trackNumber="0" src="4" >
          <Transformer>
           <VectorParam id="633"  name="translation">
            <InterpolatingParam id="634"  >
             <Parameters>
              <Parameter id="635"  name="interpolater">
               <Keyframes>
               <Keyframe id="636"  time="0/1" value="linr" leadInLength="0/1" />
               </Keyframes>
              </Parameter>
             </Parameters>
             <Keyframes>
             <Keyframe id="637"  time="-9999999/1" value="0" leadInLength="0/1" />
             </Keyframes>
            </InterpolatingParam>
            <InterpolatingParam id="638"  >
             <Parameters>
              <Parameter id="639"  name="interpolater">
               <Keyframes>
               <Keyframe id="640"  time="0/1" value="linr" leadInLength="0/1" />
               </Keyframes>
              </Parameter>
             </Parameters>
             <Keyframes>
             <Keyframe id="641"  time="-9999999/1" value="9.7721830627501458e-011" leadInLength="0/1" />
             </Keyframes>
            </InterpolatingParam>
            <InterpolatingParam id="642"  >
             <Parameters>
              <Parameter id="643"  name="interpolater">
               <Keyframes>
               <Keyframe id="644"  time="0/1" value="linr" leadInLength="0/1" />
               </Keyframes>
              </Parameter>
             </Parameters>
             <Keyframes>
             <Keyframe id="645"  time="-9999999/1" value="0" leadInLength="0/1" />
             </Keyframes>
            </InterpolatingParam>
           </VectorParam>
           <VectorParam id="646"  name="rotation">
            <InterpolatingParam id="647"  >
             <Parameters>
              <Parameter id="648"  name="interpolater">
               <Keyframes>
               <Keyframe id="649"  time="0/1" value="linr" leadInLength="0/1" />
               </Keyframes>
              </Parameter>
             </Parameters>
             <Keyframes>
             <Keyframe id="650"  time="-9999999/1" value="0" leadInLength="0/1" />
             </Keyframes>
            </InterpolatingParam>
            <InterpolatingParam id="651"  >
             <Parameters>
              <Parameter id="652"  name="interpolater">
               <Keyframes>
               <Keyframe id="653"  time="0/1" value="linr" leadInLength="0/1" />
               </Keyframes>
              </Parameter>
             </Parameters>
             <Keyframes>
             <Keyframe id="654"  time="-9999999/1" value="0" leadInLength="0/1" />
             </Keyframes>
            </InterpolatingParam>
            <InterpolatingParam id="655"  >
             <Parameters>
              <Parameter id="656"  name="interpolater">
               <Keyframes>
               <Keyframe id="657"  time="0/1" value="linr" leadInLength="0/1" />
               </Keyframes>
              </Parameter>
             </Parameters>
             <Keyframes>
             <Keyframe id="658"  time="-9999999/1" value="0" leadInLength="0/1" />
             </Keyframes>
            </InterpolatingParam>
           </VectorParam>
           <VectorParam id="659"  name="shear">
            <InterpolatingParam id="660"  >
             <Parameters>
              <Parameter id="661"  name="interpolater">
               <Keyframes>
               <Keyframe id="662"  time="0/1" value="linr" leadInLength="0/1" />
               </Keyframes>
              </Parameter>
             </Parameters>
             <Keyframes>
             <Keyframe id="663"  time="-9999999/1" value="0" leadInLength="0/1" />
             </Keyframes>
            </InterpolatingParam>
            <InterpolatingParam id="664"  >
             <Parameters>
              <Parameter id="665"  name="interpolater">
               <Keyframes>
               <Keyframe id="666"  time="0/1" value="linr" leadInLength="0/1" />
               </Keyframes>
              </Parameter>
             </Parameters>
             <Keyframes>
             <Keyframe id="667"  time="-9999999/1" value="0" leadInLength="0/1" />
             </Keyframes>
            </InterpolatingParam>
            <InterpolatingParam id="668"  >
             <Parameters>
              <Parameter id="669"  name="interpolater">
               <Keyframes>
               <Keyframe id="670"  time="0/1" value="linr" leadInLength="0/1" />
               </Keyframes>
              </Parameter>
             </Parameters>
             <Keyframes>
             <Keyframe id="671"  time="-9999999/1" value="0" leadInLength="0/1" />
             </Keyframes>
            </InterpolatingParam>
           </VectorParam>
           <VectorParam id="672"  name="scale">
            <InterpolatingParam id="673"  >
             <Parameters>
              <Parameter id="674"  name="interpolater">
               <Keyframes>
               <Keyframe id="675"  time="0/1" value="linr" leadInLength="0/1" />
               </Keyframes>
              </Parameter>
             </Parameters>
             <Keyframes>
             <Keyframe id="676"  time="-9999999/1" value="1" leadInLength="0/1" />
             </Keyframes>
            </InterpolatingParam>
            <InterpolatingParam id="677"  >
             <Parameters>
              <Parameter id="678"  name="interpolater">
               <Keyframes>
               <Keyframe id="679"  time="0/1" value="linr" leadInLength="0/1" />
               </Keyframes>
              </Parameter>
             </Parameters>
             <Keyframes>
             <Keyframe id="680"  time="-9999999/1" value="0.99999999999981914" leadInLength="0/1" />
             </Keyframes>
            </InterpolatingParam>
            <InterpolatingParam id="681"  >
             <Parameters>
              <Parameter id="682"  name="interpolater">
               <Keyframes>
               <Keyframe id="683"  time="0/1" value="linr" leadInLength="0/1" />
               </Keyframes>
              </Parameter>
             </Parameters>
             <Keyframes>
             <Keyframe id="684"  time="-9999999/1" value="1" leadInLength="0/1" />
             </Keyframes>
            </InterpolatingParam>
           </VectorParam>
           <VectorParam id="685"  name="anchor">
            <InterpolatingParam id="686" interp="linr" value="0"  />
            <InterpolatingParam id="687" interp="linr" value="0"  />
            <InterpolatingParam id="688" interp="linr" value="0"  />
           </VectorParam>
          </Transformer>
          <Parameters>
           <VectorParam id="689"  name="sourceCrop">
            <InterpolatingParam id="690" interp="linr" value="0"  />
            <InterpolatingParam id="691" interp="linr" value="0"  />
            <InterpolatingParam id="692" interp="linr" value="0"  />
            <InterpolatingParam id="693" interp="linr" value="0"  />
           </VectorParam>
           <VectorParam id="694"  name="geometryCrop">
            <InterpolatingParam id="695" interp="linr" value="0"  />
            <InterpolatingParam id="696" interp="linr" value="0"  />
            <InterpolatingParam id="697" interp="linr" value="0"  />
            <InterpolatingParam id="698" interp="linr" value="0"  />
           </VectorParam>
           <InterpolatingParam id="699"  name="opacity">
            <Parameters>
             <Parameter id="700"  name="interpolater">
              <Keyframes>
              <Keyframe id="701"  time="0/1" value="linr" leadInLength="0/1" />
              </Keyframes>
             </Parameter>
            </Parameters>
            <Keyframes>
            <Keyframe id="702"  time="-9999999/1" value="1" leadInLength="0/1" />
            </Keyframes>
           </InterpolatingParam>
          </Parameters>
          <Attributes>
           <Attribute id="703" value="" name="ident"/>
          </Attributes>
          <ExtraData>
           <Entry key="ZoomPanBin">
            <ZoomPanBin id="704"  >
             <ZoomPanKeyframes>
              <ZoomPanKeyframe id="705" timeRangeStart="-9999999/1" timeRangeDuration="0/1"  />
             </ZoomPanKeyframes>
            </ZoomPanBin>
           </Entry>
          </ExtraData>
         </VMFile>
         <MetaData>
          <entry key="WinSubProjectDisplayName" val=""/>
         </MetaData>
        </UnifiedMedia>
        <UnifiedMedia id="706"  >
         <AMFile id="707" start="436" duration="56" scalar="1/1" mediaStart="97/1" mediaDuration="56/1" trackNumber="1" src="6" channelNumber="0,1" >
          <Parameters>
           <InterpolatingParam id="708" interp="linr" value="1"  name="volume"/>
           <Parameter id="709"  name="captions"/>
          </Parameters>
          <Attributes>
           <Attribute id="710" value="" name="ident"/>
           <Attribute id="711" value="44100" name="sampleRate"/>
           <Attribute id="712" value="16" name="bitDepth"/>
           <Attribute id="713" value="1" name="gain"/>
          </Attributes>
         </AMFile>
         <VMFile id="714" start="436" duration="56" scalar="1/1" mediaStart="97/1" mediaDuration="56/1" trackNumber="0" src="6" >
          <Transformer>
           <VectorParam id="715"  name="translation">
            <InterpolatingParam id="716"  >
             <Parameters>
              <Parameter id="717"  name="interpolater">
               <Keyframes>
               <Keyframe id="718"  time="0/1" value="linr" leadInLength="0/1" />
               </Keyframes>
              </Parameter>
             </Parameters>
             <Keyframes>
             <Keyframe id="719"  time="-9999999/1" value="0" leadInLength="0/1" />
             </Keyframes>
            </InterpolatingParam>
            <InterpolatingParam id="720"  >
             <Parameters>
              <Parameter id="721"  name="interpolater">
               <Keyframes>
               <Keyframe id="722"  time="0/1" value="linr" leadInLength="0/1" />
               </Keyframes>
              </Parameter>
             </Parameters>
             <Keyframes>
             <Keyframe id="723"  time="-9999999/1" value="0" leadInLength="0/1" />
             </Keyframes>
            </InterpolatingParam>
            <InterpolatingParam id="724"  >
             <Parameters>
              <Parameter id="725"  name="interpolater">
               <Keyframes>
               <Keyframe id="726"  time="0/1" value="linr" leadInLength="0/1" />
               </Keyframes>
              </Parameter>
             </Parameters>
             <Keyframes>
             <Keyframe id="727"  time="-9999999/1" value="0" leadInLength="0/1" />
             </Keyframes>
            </InterpolatingParam>
           </VectorParam>
           <VectorParam id="728"  name="rotation">
            <InterpolatingParam id="729"  >
             <Parameters>
              <Parameter id="730"  name="interpolater">
               <Keyframes>
               <Keyframe id="731"  time="0/1" value="linr" leadInLength="0/1" />
               </Keyframes>
              </Parameter>
             </Parameters>
             <Keyframes>
             <Keyframe id="732"  time="-9999999/1" value="0" leadInLength="0/1" />
             </Keyframes>
            </InterpolatingParam>
            <InterpolatingParam id="733"  >
             <Parameters>
              <Parameter id="734"  name="interpolater">
               <Keyframes>
               <Keyframe id="735"  time="0/1" value="linr" leadInLength="0/1" />
               </Keyframes>
              </Parameter>
             </Parameters>
             <Keyframes>
             <Keyframe id="736"  time="-9999999/1" value="0" leadInLength="0/1" />
             </Keyframes>
            </InterpolatingParam>
            <InterpolatingParam id="737"  >
             <Parameters>
              <Parameter id="738"  name="interpolater">
               <Keyframes>
               <Keyframe id="739"  time="0/1" value="linr" leadInLength="0/1" />
               </Keyframes>
              </Parameter>
             </Parameters>
             <Keyframes>
             <Keyframe id="740"  time="-9999999/1" value="0" leadInLength="0/1" />
             </Keyframes>
            </InterpolatingParam>
           </VectorParam>
           <VectorParam id="741"  name="shear">
            <InterpolatingParam id="742"  >
             <Parameters>
              <Parameter id="743"  name="interpolater">
               <Keyframes>
               <Keyframe id="744"  time="0/1" value="linr" leadInLength="0/1" />
               </Keyframes>
              </Parameter>
             </Parameters>
             <Keyframes>
             <Keyframe id="745"  time="-9999999/1" value="0" leadInLength="0/1" />
             </Keyframes>
            </InterpolatingParam>
            <InterpolatingParam id="746"  >
             <Parameters>
              <Parameter id="747"  name="interpolater">
               <Keyframes>
               <Keyframe id="748"  time="0/1" value="linr" leadInLength="0/1" />
               </Keyframes>
              </Parameter>
             </Parameters>
             <Keyframes>
             <Keyframe id="749"  time="-9999999/1" value="0" leadInLength="0/1" />
             </Keyframes>
            </InterpolatingParam>
            <InterpolatingParam id="750"  >
             <Parameters>
              <Parameter id="751"  name="interpolater">
               <Keyframes>
               <Keyframe id="752"  time="0/1" value="linr" leadInLength="0/1" />
               </Keyframes>
              </Parameter>
             </Parameters>
             <Keyframes>
             <Keyframe id="753"  time="-9999999/1" value="0" leadInLength="0/1" />
             </Keyframes>
            </InterpolatingParam>
           </VectorParam>
           <VectorParam id="754"  name="scale">
            <InterpolatingParam id="755"  >
             <Parameters>
              <Parameter id="756"  name="interpolater">
               <Keyframes>
               <Keyframe id="757"  time="0/1" value="linr" leadInLength="0/1" />
               </Keyframes>
              </Parameter>
             </Parameters>
             <Keyframes>
             <Keyframe id="758"  time="-9999999/1" value="1" leadInLength="0/1" />
             </Keyframes>
            </InterpolatingParam>
            <InterpolatingParam id="759"  >
             <Parameters>
              <Parameter id="760"  name="interpolater">
               <Keyframes>
               <Keyframe id="761"  time="0/1" value="linr" leadInLength="0/1" />
               </Keyframes>
              </Parameter>
             </Parameters>
             <Keyframes>
             <Keyframe id="762"  time="-9999999/1" value="1" leadInLength="0/1" />
             </Keyframes>
            </InterpolatingParam>
            <InterpolatingParam id="763"  >
             <Parameters>
              <Parameter id="764"  name="interpolater">
               <Keyframes>
               <Keyframe id="765"  time="0/1" value="linr" leadInLength="0/1" />
               </Keyframes>
              </Parameter>
             </Parameters>
             <Keyframes>
             <Keyframe id="766"  time="-9999999/1" value="1" leadInLength="0/1" />
             </Keyframes>
            </InterpolatingParam>
           </VectorParam>
           <VectorParam id="767"  name="anchor">
            <InterpolatingParam id="768" interp="linr" value="0"  />
            <InterpolatingParam id="769" interp="linr" value="0"  />
            <InterpolatingParam id="770" interp="linr" value="0"  />
           </VectorParam>
          </Transformer>
          <Parameters>
           <VectorParam id="771"  name="sourceCrop">
            <InterpolatingParam id="772" interp="linr" value="0"  />
            <InterpolatingParam id="773" interp="linr" value="0"  />
            <InterpolatingParam id="774" interp="linr" value="0"  />
            <InterpolatingParam id="775" interp="linr" value="0"  />
           </VectorParam>
           <VectorParam id="776"  name="geometryCrop">
            <InterpolatingParam id="777" interp="linr" value="0"  />
            <InterpolatingParam id="778" interp="linr" value="0"  />
            <InterpolatingParam id="779" interp="linr" value="0"  />
            <InterpolatingParam id="780" interp="linr" value="0"  />
           </VectorParam>
           <InterpolatingParam id="781"  name="opacity">
            <Parameters>
             <Parameter id="782"  name="interpolater">
              <Keyframes>
              <Keyframe id="783"  time="0/1" value="linr" leadInLength="0/1" />
              </Keyframes>
             </Parameter>
            </Parameters>
            <Keyframes>
            <Keyframe id="784"  time="-9999999/1" value="1" leadInLength="0/1" />
            </Keyframes>
           </InterpolatingParam>
          </Parameters>
          <Attributes>
           <Attribute id="785" value="" name="ident"/>
          </Attributes>
          <ExtraData>
           <Entry key="ZoomPanBin">
            <ZoomPanBin id="786"  >
             <ZoomPanKeyframes>
              <ZoomPanKeyframe id="787" timeRangeStart="-9999999/1" timeRangeDuration="0/1"  />
             </ZoomPanKeyframes>
            </ZoomPanBin>
           </Entry>
          </ExtraData>
         </VMFile>
         <MetaData>
          <entry key="WinSubProjectDisplayName" val=""/>
         </MetaData>
        </UnifiedMedia>
        <UnifiedMedia id="788"  >
         <AMFile id="789" start="492" duration="93" scalar="1/1" mediaStart="129/1" mediaDuration="93/1" trackNumber="1" src="7" channelNumber="0,1" >
          <Parameters>
           <InterpolatingParam id="790" interp="linr" value="1"  name="volume"/>
           <Parameter id="791"  name="captions"/>
          </Parameters>
          <Attributes>
           <Attribute id="792" value="" name="ident"/>
           <Attribute id="793" value="44100" name="sampleRate"/>
           <Attribute id="794" value="16" name="bitDepth"/>
           <Attribute id="795" value="1" name="gain"/>
          </Attributes>
         </AMFile>
         <VMFile id="796" start="492" duration="93" scalar="1/1" mediaStart="129/1" mediaDuration="93/1" trackNumber="0" src="7" >
          <Transformer>
           <VectorParam id="797"  name="translation">
            <InterpolatingParam id="798"  >
             <Parameters>
              <Parameter id="799"  name="interpolater">
               <Keyframes>
               <Keyframe id="800"  time="0/1" value="linr" leadInLength="0/1" />
               </Keyframes>
              </Parameter>
             </Parameters>
             <Keyframes>
             <Keyframe id="801"  time="-9999999/1" value="0" leadInLength="0/1" />
             </Keyframes>
            </InterpolatingParam>
            <InterpolatingParam id="802"  >
             <Parameters>
              <Parameter id="803"  name="interpolater">
               <Keyframes>
               <Keyframe id="804"  time="0/1" value="linr" leadInLength="0/1" />
               </Keyframes>
              </Parameter>
             </Parameters>
             <Keyframes>
             <Keyframe id="805"  time="-9999999/1" value="0" leadInLength="0/1" />
             </Keyframes>
            </InterpolatingParam>
            <InterpolatingParam id="806"  >
             <Parameters>
              <Parameter id="807"  name="interpolater">
               <Keyframes>
               <Keyframe id="808"  time="0/1" value="linr" leadInLength="0/1" />
               </Keyframes>
              </Parameter>
             </Parameters>
             <Keyframes>
             <Keyframe id="809"  time="-9999999/1" value="0" leadInLength="0/1" />
             </Keyframes>
            </InterpolatingParam>
           </VectorParam>
           <VectorParam id="810"  name="rotation">
            <InterpolatingParam id="811"  >
             <Parameters>
              <Parameter id="812"  name="interpolater">
               <Keyframes>
               <Keyframe id="813"  time="0/1" value="linr" leadInLength="0/1" />
               </Keyframes>
              </Parameter>
             </Parameters>
             <Keyframes>
             <Keyframe id="814"  time="-9999999/1" value="0" leadInLength="0/1" />
             </Keyframes>
            </InterpolatingParam>
            <InterpolatingParam id="815"  >
             <Parameters>
              <Parameter id="816"  name="interpolater">
               <Keyframes>
               <Keyframe id="817"  time="0/1" value="linr" leadInLength="0/1" />
               </Keyframes>
              </Parameter>
             </Parameters>
             <Keyframes>
             <Keyframe id="818"  time="-9999999/1" value="0" leadInLength="0/1" />
             </Keyframes>
            </InterpolatingParam>
            <InterpolatingParam id="819"  >
             <Parameters>
              <Parameter id="820"  name="interpolater">
               <Keyframes>
               <Keyframe id="821"  time="0/1" value="linr" leadInLength="0/1" />
               </Keyframes>
              </Parameter>
             </Parameters>
             <Keyframes>
             <Keyframe id="822"  time="-9999999/1" value="0" leadInLength="0/1" />
             </Keyframes>
            </InterpolatingParam>
           </VectorParam>
           <VectorParam id="823"  name="shear">
            <InterpolatingParam id="824"  >
             <Parameters>
              <Parameter id="825"  name="interpolater">
               <Keyframes>
               <Keyframe id="826"  time="0/1" value="linr" leadInLength="0/1" />
               </Keyframes>
              </Parameter>
             </Parameters>
             <Keyframes>
             <Keyframe id="827"  time="-9999999/1" value="0" leadInLength="0/1" />
             </Keyframes>
            </InterpolatingParam>
            <InterpolatingParam id="828"  >
             <Parameters>
              <Parameter id="829"  name="interpolater">
               <Keyframes>
               <Keyframe id="830"  time="0/1" value="linr" leadInLength="0/1" />
               </Keyframes>
              </Parameter>
             </Parameters>
             <Keyframes>
             <Keyframe id="831"  time="-9999999/1" value="0" leadInLength="0/1" />
             </Keyframes>
            </InterpolatingParam>
            <InterpolatingParam id="832"  >
             <Parameters>
              <Parameter id="833"  name="interpolater">
               <Keyframes>
               <Keyframe id="834"  time="0/1" value="linr" leadInLength="0/1" />
               </Keyframes>
              </Parameter>
             </Parameters>
             <Keyframes>
             <Keyframe id="835"  time="-9999999/1" value="0" leadInLength="0/1" />
             </Keyframes>
            </InterpolatingParam>
           </VectorParam>
           <VectorParam id="836"  name="scale">
            <InterpolatingParam id="837"  >
             <Parameters>
              <Parameter id="838"  name="interpolater">
               <Keyframes>
               <Keyframe id="839"  time="0/1" value="linr" leadInLength="0/1" />
               </Keyframes>
              </Parameter>
             </Parameters>
             <Keyframes>
             <Keyframe id="840"  time="-9999999/1" value="1" leadInLength="0/1" />
             </Keyframes>
            </InterpolatingParam>
            <InterpolatingParam id="841"  >
             <Parameters>
              <Parameter id="842"  name="interpolater">
               <Keyframes>
               <Keyframe id="843"  time="0/1" value="linr" leadInLength="0/1" />
               </Keyframes>
              </Parameter>
             </Parameters>
             <Keyframes>
             <Keyframe id="844"  time="-9999999/1" value="1" leadInLength="0/1" />
             </Keyframes>
            </InterpolatingParam>
            <InterpolatingParam id="845"  >
             <Parameters>
              <Parameter id="846"  name="interpolater">
               <Keyframes>
               <Keyframe id="847"  time="0/1" value="linr" leadInLength="0/1" />
               </Keyframes>
              </Parameter>
             </Parameters>
             <Keyframes>
             <Keyframe id="848"  time="-9999999/1" value="1" leadInLength="0/1" />
             </Keyframes>
            </InterpolatingParam>
           </VectorParam>
           <VectorParam id="849"  name="anchor">
            <InterpolatingParam id="850" interp="linr" value="0"  />
            <InterpolatingParam id="851" interp="linr" value="0"  />
            <InterpolatingParam id="852" interp="linr" value="0"  />
           </VectorParam>
          </Transformer>
          <Parameters>
           <VectorParam id="853"  name="sourceCrop">
            <InterpolatingParam id="854" interp="linr" value="0"  />
            <InterpolatingParam id="855" interp="linr" value="0"  />
            <InterpolatingParam id="856" interp="linr" value="0"  />
            <InterpolatingParam id="857" interp="linr" value="0"  />
           </VectorParam>
           <VectorParam id="858"  name="geometryCrop">
            <InterpolatingParam id="859" interp="linr" value="0"  />
            <InterpolatingParam id="860" interp="linr" value="0"  />
            <InterpolatingParam id="861" interp="linr" value="0"  />
            <InterpolatingParam id="862" interp="linr" value="0"  />
           </VectorParam>
           <InterpolatingParam id="863"  name="opacity">
            <Parameters>
             <Parameter id="864"  name="interpolater">
              <Keyframes>
              <Keyframe id="865"  time="0/1" value="linr" leadInLength="0/1" />
              </Keyframes>
             </Parameter>
            </Parameters>
            <Keyframes>
            <Keyframe id="866"  time="-9999999/1" value="1" leadInLength="0/1" />
            </Keyframes>
           </InterpolatingParam>
          </Parameters>
          <Attributes>
           <Attribute id="867" value="" name="ident"/>
          </Attributes>
          <ExtraData>
           <Entry key="ZoomPanBin">
            <ZoomPanBin id="868"  >
             <ZoomPanKeyframes>
              <ZoomPanKeyframe id="869" timeRangeStart="-9999999/1" timeRangeDuration="0/1"  />
             </ZoomPanKeyframes>
            </ZoomPanBin>
           </Entry>
          </ExtraData>
         </VMFile>
         <MetaData>
          <entry key="WinSubProjectDisplayName" val=""/>
         </MetaData>
        </UnifiedMedia>
        <UnifiedMedia id="870"  >
         <AMFile id="871" start="585" duration="79" scalar="79/159" mediaStart="282/1" mediaDuration="159/1" trackNumber="1" src="7" channelNumber="0,1" >
          <Parameters>
           <InterpolatingParam id="872" interp="linr" value="1"  name="volume"/>
           <Parameter id="873"  name="captions"/>
          </Parameters>
          <Attributes>
           <Attribute id="874" value="" name="ident"/>
           <Attribute id="875" value="44100" name="sampleRate"/>
           <Attribute id="876" value="16" name="bitDepth"/>
           <Attribute id="877" value="1" name="gain"/>
          </Attributes>
         </AMFile>
         <VMFile id="878" start="585" duration="79" scalar="79/159" mediaStart="282/1" mediaDuration="159/1" trackNumber="0" src="7" >
          <Transformer>
           <VectorParam id="879"  name="translation">
            <InterpolatingParam id="880"  >
             <Parameters>
              <Parameter id="881"  name="interpolater">
               <Keyframes>
               <Keyframe id="882"  time="0/1" value="linr" leadInLength="0/1" />
               </Keyframes>
              </Parameter>
             </Parameters>
             <Keyframes>
             <Keyframe id="883"  time="-9999999/1" value="0" leadInLength="0/1" />
             </Keyframes>
            </InterpolatingParam>
            <InterpolatingParam id="884"  >
             <Parameters>
              <Parameter id="885"  name="interpolater">
               <Keyframes>
               <Keyframe id="886"  time="0/1" value="linr" leadInLength="0/1" />
               </Keyframes>
              </Parameter>
             </Parameters>
             <Keyframes>
             <Keyframe id="887"  time="-9999999/1" value="0" leadInLength="0/1" />
             </Keyframes>
            </InterpolatingParam>
            <InterpolatingParam id="888"  >
             <Parameters>
              <Parameter id="889"  name="interpolater">
               <Keyframes>
               <Keyframe id="890"  time="0/1" value="linr" leadInLength="0/1" />
               </Keyframes>
              </Parameter>
             </Parameters>
             <Keyframes>
             <Keyframe id="891"  time="-9999999/1" value="0" leadInLength="0/1" />
             </Keyframes>
            </InterpolatingParam>
           </VectorParam>
           <VectorParam id="892"  name="rotation">
            <InterpolatingParam id="893"  >
             <Parameters>
              <Parameter id="894"  name="interpolater">
               <Keyframes>
               <Keyframe id="895"  time="0/1" value="linr" leadInLength="0/1" />
               </Keyframes>
              </Parameter>
             </Parameters>
             <Keyframes>
             <Keyframe id="896"  time="-9999999/1" value="0" leadInLength="0/1" />
             </Keyframes>
            </InterpolatingParam>
            <InterpolatingParam id="897"  >
             <Parameters>
              <Parameter id="898"  name="interpolater">
               <Keyframes>
               <Keyframe id="899"  time="0/1" value="linr" leadInLength="0/1" />
               </Keyframes>
              </Parameter>
             </Parameters>
             <Keyframes>
             <Keyframe id="900"  time="-9999999/1" value="0" leadInLength="0/1" />
             </Keyframes>
            </InterpolatingParam>
            <InterpolatingParam id="901"  >
             <Parameters>
              <Parameter id="902"  name="interpolater">
               <Keyframes>
               <Keyframe id="903"  time="0/1" value="linr" leadInLength="0/1" />
               </Keyframes>
              </Parameter>
             </Parameters>
             <Keyframes>
             <Keyframe id="904"  time="-9999999/1" value="0" leadInLength="0/1" />
             </Keyframes>
            </InterpolatingParam>
           </VectorParam>
           <VectorParam id="905"  name="shear">
            <InterpolatingParam id="906"  >
             <Parameters>
              <Parameter id="907"  name="interpolater">
               <Keyframes>
               <Keyframe id="908"  time="0/1" value="linr" leadInLength="0/1" />
               </Keyframes>
              </Parameter>
             </Parameters>
             <Keyframes>
             <Keyframe id="909"  time="-9999999/1" value="0" leadInLength="0/1" />
             </Keyframes>
            </InterpolatingParam>
            <InterpolatingParam id="910"  >
             <Parameters>
              <Parameter id="911"  name="interpolater">
               <Keyframes>
               <Keyframe id="912"  time="0/1" value="linr" leadInLength="0/1" />
               </Keyframes>
              </Parameter>
             </Parameters>
             <Keyframes>
             <Keyframe id="913"  time="-9999999/1" value="0" leadInLength="0/1" />
             </Keyframes>
            </InterpolatingParam>
            <InterpolatingParam id="914"  >
             <Parameters>
              <Parameter id="915"  name="interpolater">
               <Keyframes>
               <Keyframe id="916"  time="0/1" value="linr" leadInLength="0/1" />
               </Keyframes>
              </Parameter>
             </Parameters>
             <Keyframes>
             <Keyframe id="917"  time="-9999999/1" value="0" leadInLength="0/1" />
             </Keyframes>
            </InterpolatingParam>
           </VectorParam>
           <VectorParam id="918"  name="scale">
            <InterpolatingParam id="919"  >
             <Parameters>
              <Parameter id="920"  name="interpolater">
               <Keyframes>
               <Keyframe id="921"  time="0/1" value="linr" leadInLength="0/1" />
               </Keyframes>
              </Parameter>
             </Parameters>
             <Keyframes>
             <Keyframe id="922"  time="-9999999/1" value="1" leadInLength="0/1" />
             </Keyframes>
            </InterpolatingParam>
            <InterpolatingParam id="923"  >
             <Parameters>
              <Parameter id="924"  name="interpolater">
               <Keyframes>
               <Keyframe id="925"  time="0/1" value="linr" leadInLength="0/1" />
               </Keyframes>
              </Parameter>
             </Parameters>
             <Keyframes>
             <Keyframe id="926"  time="-9999999/1" value="1" leadInLength="0/1" />
             </Keyframes>
            </InterpolatingParam>
            <InterpolatingParam id="927"  >
             <Parameters>
              <Parameter id="928"  name="interpolater">
               <Keyframes>
               <Keyframe id="929"  time="0/1" value="linr" leadInLength="0/1" />
               </Keyframes>
              </Parameter>
             </Parameters>
             <Keyframes>
             <Keyframe id="930"  time="-9999999/1" value="1" leadInLength="0/1" />
             </Keyframes>
            </InterpolatingParam>
           </VectorParam>
           <VectorParam id="931"  name="anchor">
            <InterpolatingParam id="932" interp="linr" value="0"  />
            <InterpolatingParam id="933" interp="linr" value="0"  />
            <InterpolatingParam id="934" interp="linr" value="0"  />
           </VectorParam>
          </Transformer>
          <Parameters>
           <VectorParam id="935"  name="sourceCrop">
            <InterpolatingParam id="936" interp="linr" value="0"  />
            <InterpolatingParam id="937" interp="linr" value="0"  />
            <InterpolatingParam id="938" interp="linr" value="0"  />
            <InterpolatingParam id="939" interp="linr" value="0"  />
           </VectorParam>
           <VectorParam id="940"  name="geometryCrop">
            <InterpolatingParam id="941" interp="linr" value="0"  />
            <InterpolatingParam id="942" interp="linr" value="0"  />
            <InterpolatingParam id="943" interp="linr" value="0"  />
            <InterpolatingParam id="944" interp="linr" value="0"  />
           </VectorParam>
           <InterpolatingParam id="945"  name="opacity">
            <Parameters>
             <Parameter id="946"  name="interpolater">
              <Keyframes>
              <Keyframe id="947"  time="0/1" value="linr" leadInLength="0/1" />
              </Keyframes>
             </Parameter>
            </Parameters>
            <Keyframes>
            <Keyframe id="948"  time="-9999999/1" value="1" leadInLength="0/1" />
            </Keyframes>
           </InterpolatingParam>
          </Parameters>
          <Attributes>
           <Attribute id="949" value="" name="ident"/>
          </Attributes>
          <ExtraData>
           <Entry key="ZoomPanBin">
            <ZoomPanBin id="950"  >
             <ZoomPanKeyframes>
              <ZoomPanKeyframe id="951" timeRangeStart="-9999999/1" timeRangeDuration="0/1"  />
             </ZoomPanKeyframes>
            </ZoomPanBin>
           </Entry>
          </ExtraData>
         </VMFile>
         <MetaData>
          <entry key="WinSubProjectDisplayName" val=""/>
         </MetaData>
        </UnifiedMedia>
        <UnifiedMedia id="952"  >
         <AMFile id="953" start="664" duration="49" scalar="1/2" mediaStart="608/1" mediaDuration="98/1" trackNumber="1" src="7" channelNumber="0,1" >
          <Parameters>
           <InterpolatingParam id="954" interp="linr" value="1"  name="volume"/>
           <Parameter id="955"  name="captions"/>
          </Parameters>
          <Attributes>
           <Attribute id="956" value="" name="ident"/>
           <Attribute id="957" value="44100" name="sampleRate"/>
           <Attribute id="958" value="16" name="bitDepth"/>
           <Attribute id="959" value="1" name="gain"/>
          </Attributes>
         </AMFile>
         <VMFile id="960" start="664" duration="49" scalar="1/2" mediaStart="608/1" mediaDuration="98/1" trackNumber="0" src="7" >
          <Transformer>
           <VectorParam id="961"  name="translation">
            <InterpolatingParam id="962"  >
             <Parameters>
              <Parameter id="963"  name="interpolater">
               <Keyframes>
               <Keyframe id="964"  time="0/1" value="linr" leadInLength="0/1" />
               </Keyframes>
              </Parameter>
             </Parameters>
             <Keyframes>
             <Keyframe id="965"  time="-9999999/1" value="0" leadInLength="0/1" />
             </Keyframes>
            </InterpolatingParam>
            <InterpolatingParam id="966"  >
             <Parameters>
              <Parameter id="967"  name="interpolater">
               <Keyframes>
               <Keyframe id="968"  time="0/1" value="linr" leadInLength="0/1" />
               </Keyframes>
              </Parameter>
             </Parameters>
             <Keyframes>
             <Keyframe id="969"  time="-9999999/1" value="0" leadInLength="0/1" />
             </Keyframes>
            </InterpolatingParam>
            <InterpolatingParam id="970"  >
             <Parameters>
              <Parameter id="971"  name="interpolater">
               <Keyframes>
               <Keyframe id="972"  time="0/1" value="linr" leadInLength="0/1" />
               </Keyframes>
              </Parameter>
             </Parameters>
             <Keyframes>
             <Keyframe id="973"  time="-9999999/1" value="0" leadInLength="0/1" />
             </Keyframes>
            </InterpolatingParam>
           </VectorParam>
           <VectorParam id="974"  name="rotation">
            <InterpolatingParam id="975"  >
             <Parameters>
              <Parameter id="976"  name="interpolater">
               <Keyframes>
               <Keyframe id="977"  time="0/1" value="linr" leadInLength="0/1" />
               </Keyframes>
              </Parameter>
             </Parameters>
             <Keyframes>
             <Keyframe id="978"  time="-9999999/1" value="0" leadInLength="0/1" />
             </Keyframes>
            </InterpolatingParam>
            <InterpolatingParam id="979"  >
             <Parameters>
              <Parameter id="980"  name="interpolater">
               <Keyframes>
               <Keyframe id="981"  time="0/1" value="linr" leadInLength="0/1" />
               </Keyframes>
              </Parameter>
             </Parameters>
             <Keyframes>
             <Keyframe id="982"  time="-9999999/1" value="0" leadInLength="0/1" />
             </Keyframes>
            </InterpolatingParam>
            <InterpolatingParam id="983"  >
             <Parameters>
              <Parameter id="984"  name="interpolater">
               <Keyframes>
               <Keyframe id="985"  time="0/1" value="linr" leadInLength="0/1" />
               </Keyframes>
              </Parameter>
             </Parameters>
             <Keyframes>
             <Keyframe id="986"  time="-9999999/1" value="0" leadInLength="0/1" />
             </Keyframes>
            </InterpolatingParam>
           </VectorParam>
           <VectorParam id="987"  name="shear">
            <InterpolatingParam id="988"  >
             <Parameters>
              <Parameter id="989"  name="interpolater">
               <Keyframes>
               <Keyframe id="990"  time="0/1" value="linr" leadInLength="0/1" />
               </Keyframes>
              </Parameter>
             </Parameters>
             <Keyframes>
             <Keyframe id="991"  time="-9999999/1" value="0" leadInLength="0/1" />
             </Keyframes>
            </InterpolatingParam>
            <InterpolatingParam id="992"  >
             <Parameters>
              <Parameter id="993"  name="interpolater">
               <Keyframes>
               <Keyframe id="994"  time="0/1" value="linr" leadInLength="0/1" />
               </Keyframes>
              </Parameter>
             </Parameters>
             <Keyframes>
             <Keyframe id="995"  time="-9999999/1" value="0" leadInLength="0/1" />
             </Keyframes>
            </InterpolatingParam>
            <InterpolatingParam id="996"  >
             <Parameters>
              <Parameter id="997"  name="interpolater">
               <Keyframes>
               <Keyframe id="998"  time="0/1" value="linr" leadInLength="0/1" />
               </Keyframes>
              </Parameter>
             </Parameters>
             <Keyframes>
             <Keyframe id="999"  time="-9999999/1" value="0" leadInLength="0/1" />
             </Keyframes>
            </InterpolatingParam>
           </VectorParam>
           <VectorParam id="1000"  name="scale">
            <InterpolatingParam id="1001"  >
             <Parameters>
              <Parameter id="1002"  name="interpolater">
               <Keyframes>
               <Keyframe id="1003"  time="0/1" value="linr" leadInLength="0/1" />
               </Keyframes>
              </Parameter>
             </Parameters>
             <Keyframes>
             <Keyframe id="1004"  time="-9999999/1" value="1" leadInLength="0/1" />
             </Keyframes>
            </InterpolatingParam>
            <InterpolatingParam id="1005"  >
             <Parameters>
              <Parameter id="1006"  name="interpolater">
               <Keyframes>
               <Keyframe id="1007"  time="0/1" value="linr" leadInLength="0/1" />
               </Keyframes>
              </Parameter>
             </Parameters>
             <Keyframes>
             <Keyframe id="1008"  time="-9999999/1" value="1" leadInLength="0/1" />
             </Keyframes>
            </InterpolatingParam>
            <InterpolatingParam id="1009"  >
             <Parameters>
              <Parameter id="1010"  name="interpolater">
               <Keyframes>
               <Keyframe id="1011"  time="0/1" value="linr" leadInLength="0/1" />
               </Keyframes>
              </Parameter>
             </Parameters>
             <Keyframes>
             <Keyframe id="1012"  time="-9999999/1" value="1" leadInLength="0/1" />
             </Keyframes>
            </InterpolatingParam>
           </VectorParam>
           <VectorParam id="1013"  name="anchor">
            <InterpolatingParam id="1014" interp="linr" value="0"  />
            <InterpolatingParam id="1015" interp="linr" value="0"  />
            <InterpolatingParam id="1016" interp="linr" value="0"  />
           </VectorParam>
          </Transformer>
          <Parameters>
           <VectorParam id="1017"  name="sourceCrop">
            <InterpolatingParam id="1018" interp="linr" value="0"  />
            <InterpolatingParam id="1019" interp="linr" value="0"  />
            <InterpolatingParam id="1020" interp="linr" value="0"  />
            <InterpolatingParam id="1021" interp="linr" value="0"  />
           </VectorParam>
           <VectorParam id="1022"  name="geometryCrop">
            <InterpolatingParam id="1023" interp="linr" value="0"  />
            <InterpolatingParam id="1024" interp="linr" value="0"  />
            <InterpolatingParam id="1025" interp="linr" value="0"  />
            <InterpolatingParam id="1026" interp="linr" value="0"  />
           </VectorParam>
           <InterpolatingParam id="1027"  name="opacity">
            <Parameters>
             <Parameter id="1028"  name="interpolater">
              <Keyframes>
              <Keyframe id="1029"  time="0/1" value="linr" leadInLength="0/1" />
              </Keyframes>
             </Parameter>
            </Parameters>
            <Keyframes>
            <Keyframe id="1030"  time="-9999999/1" value="1" leadInLength="0/1" />
            </Keyframes>
           </InterpolatingParam>
          </Parameters>
          <Attributes>
           <Attribute id="1031" value="" name="ident"/>
          </Attributes>
          <ExtraData>
           <Entry key="ZoomPanBin">
            <ZoomPanBin id="1032"  >
             <ZoomPanKeyframes>
              <ZoomPanKeyframe id="1033" timeRangeStart="-9999999/1" timeRangeDuration="0/1"  />
             </ZoomPanKeyframes>
            </ZoomPanBin>
           </Entry>
          </ExtraData>
         </VMFile>
         <MetaData>
          <entry key="WinSubProjectDisplayName" val=""/>
         </MetaData>
        </UnifiedMedia>
        <UnifiedMedia id="1034"  >
         <AMFile id="1035" start="713" duration="16" scalar="1/1" mediaStart="115/1" mediaDuration="16/1" trackNumber="1" src="8" channelNumber="0,1" >
          <Parameters>
           <InterpolatingParam id="1036" interp="linr" value="1"  name="volume"/>
           <Parameter id="1037"  name="captions"/>
          </Parameters>
          <Attributes>
           <Attribute id="1038" value="" name="ident"/>
           <Attribute id="1039" value="44100" name="sampleRate"/>
           <Attribute id="1040" value="16" name="bitDepth"/>
           <Attribute id="1041" value="1" name="gain"/>
          </Attributes>
         </AMFile>
         <VMFile id="1042" start="713" duration="16" scalar="1/1" mediaStart="115/1" mediaDuration="16/1" trackNumber="0" src="8" >
          <Transformer>
           <VectorParam id="1043"  name="translation">
            <InterpolatingParam id="1044"  >
             <Parameters>
              <Parameter id="1045"  name="interpolater">
               <Keyframes>
               <Keyframe id="1046"  time="0/1" value="linr" leadInLength="0/1" />
               </Keyframes>
              </Parameter>
             </Parameters>
             <Keyframes>
             <Keyframe id="1047"  time="-9999999/1" value="0" leadInLength="0/1" />
             </Keyframes>
            </InterpolatingParam>
            <InterpolatingParam id="1048"  >
             <Parameters>
              <Parameter id="1049"  name="interpolater">
               <Keyframes>
               <Keyframe id="1050"  time="0/1" value="linr" leadInLength="0/1" />
               </Keyframes>
              </Parameter>
             </Parameters>
             <Keyframes>
             <Keyframe id="1051"  time="-9999999/1" value="0" leadInLength="0/1" />
             </Keyframes>
            </InterpolatingParam>
            <InterpolatingParam id="1052"  >
             <Parameters>
              <Parameter id="1053"  name="interpolater">
               <Keyframes>
               <Keyframe id="1054"  time="0/1" value="linr" leadInLength="0/1" />
               </Keyframes>
              </Parameter>
             </Parameters>
             <Keyframes>
             <Keyframe id="1055"  time="-9999999/1" value="0" leadInLength="0/1" />
             </Keyframes>
            </InterpolatingParam>
           </VectorParam>
           <VectorParam id="1056"  name="rotation">
            <InterpolatingParam id="1057"  >
             <Parameters>
              <Parameter id="1058"  name="interpolater">
               <Keyframes>
               <Keyframe id="1059"  time="0/1" value="linr" leadInLength="0/1" />
               </Keyframes>
              </Parameter>
             </Parameters>
             <Keyframes>
             <Keyframe id="1060"  time="-9999999/1" value="0" leadInLength="0/1" />
             </Keyframes>
            </InterpolatingParam>
            <InterpolatingParam id="1061"  >
             <Parameters>
              <Parameter id="1062"  name="interpolater">
               <Keyframes>
               <Keyframe id="1063"  time="0/1" value="linr" leadInLength="0/1" />
               </Keyframes>
              </Parameter>
             </Parameters>
             <Keyframes>
             <Keyframe id="1064"  time="-9999999/1" value="0" leadInLength="0/1" />
             </Keyframes>
            </InterpolatingParam>
            <InterpolatingParam id="1065"  >
             <Parameters>
              <Parameter id="1066"  name="interpolater">
               <Keyframes>
               <Keyframe id="1067"  time="0/1" value="linr" leadInLength="0/1" />
               </Keyframes>
              </Parameter>
             </Parameters>
             <Keyframes>
             <Keyframe id="1068"  time="-9999999/1" value="0" leadInLength="0/1" />
             </Keyframes>
            </InterpolatingParam>
           </VectorParam>
           <VectorParam id="1069"  name="shear">
            <InterpolatingParam id="1070"  >
             <Parameters>
              <Parameter id="1071"  name="interpolater">
               <Keyframes>
               <Keyframe id="1072"  time="0/1" value="linr" leadInLength="0/1" />
               </Keyframes>
              </Parameter>
             </Parameters>
             <Keyframes>
             <Keyframe id="1073"  time="-9999999/1" value="0" leadInLength="0/1" />
             </Keyframes>
            </InterpolatingParam>
            <InterpolatingParam id="1074"  >
             <Parameters>
              <Parameter id="1075"  name="interpolater">
               <Keyframes>
               <Keyframe id="1076"  time="0/1" value="linr" leadInLength="0/1" />
               </Keyframes>
              </Parameter>
             </Parameters>
             <Keyframes>
             <Keyframe id="1077"  time="-9999999/1" value="0" leadInLength="0/1" />
             </Keyframes>
            </InterpolatingParam>
            <InterpolatingParam id="1078"  >
             <Parameters>
              <Parameter id="1079"  name="interpolater">
               <Keyframes>
               <Keyframe id="1080"  time="0/1" value="linr" leadInLength="0/1" />
               </Keyframes>
              </Parameter>
             </Parameters>
             <Keyframes>
             <Keyframe id="1081"  time="-9999999/1" value="0" leadInLength="0/1" />
             </Keyframes>
            </InterpolatingParam>
           </VectorParam>
           <VectorParam id="1082"  name="scale">
            <InterpolatingParam id="1083"  >
             <Parameters>
              <Parameter id="1084"  name="interpolater">
               <Keyframes>
               <Keyframe id="1085"  time="0/1" value="linr" leadInLength="0/1" />
               </Keyframes>
              </Parameter>
             </Parameters>
             <Keyframes>
             <Keyframe id="1086"  time="-9999999/1" value="1" leadInLength="0/1" />
             </Keyframes>
            </InterpolatingParam>
            <InterpolatingParam id="1087"  >
             <Parameters>
              <Parameter id="1088"  name="interpolater">
               <Keyframes>
               <Keyframe id="1089"  time="0/1" value="linr" leadInLength="0/1" />
               </Keyframes>
              </Parameter>
             </Parameters>
             <Keyframes>
             <Keyframe id="1090"  time="-9999999/1" value="1" leadInLength="0/1" />
             </Keyframes>
            </InterpolatingParam>
            <InterpolatingParam id="1091"  >
             <Parameters>
              <Parameter id="1092"  name="interpolater">
               <Keyframes>
               <Keyframe id="1093"  time="0/1" value="linr" leadInLength="0/1" />
               </Keyframes>
              </Parameter>
             </Parameters>
             <Keyframes>
             <Keyframe id="1094"  time="-9999999/1" value="1" leadInLength="0/1" />
             </Keyframes>
            </InterpolatingParam>
           </VectorParam>
           <VectorParam id="1095"  name="anchor">
            <InterpolatingParam id="1096" interp="linr" value="0"  />
            <InterpolatingParam id="1097" interp="linr" value="0"  />
            <InterpolatingParam id="1098" interp="linr" value="0"  />
           </VectorParam>
          </Transformer>
          <Parameters>
           <VectorParam id="1099"  name="sourceCrop">
            <InterpolatingParam id="1100" interp="linr" value="0"  />
            <InterpolatingParam id="1101" interp="linr" value="0"  />
            <InterpolatingParam id="1102" interp="linr" value="0"  />
            <InterpolatingParam id="1103" interp="linr" value="0"  />
           </VectorParam>
           <VectorParam id="1104"  name="geometryCrop">
            <InterpolatingParam id="1105" interp="linr" value="0"  />
            <InterpolatingParam id="1106" interp="linr" value="0"  />
            <InterpolatingParam id="1107" interp="linr" value="0"  />
            <InterpolatingParam id="1108" interp="linr" value="0"  />
           </VectorParam>
           <InterpolatingParam id="1109"  name="opacity">
            <Parameters>
             <Parameter id="1110"  name="interpolater">
              <Keyframes>
              <Keyframe id="1111"  time="0/1" value="linr" leadInLength="0/1" />
              </Keyframes>
             </Parameter>
            </Parameters>
            <Keyframes>
            <Keyframe id="1112"  time="-9999999/1" value="1" leadInLength="0/1" />
            </Keyframes>
           </InterpolatingParam>
          </Parameters>
          <Attributes>
           <Attribute id="1113" value="" name="ident"/>
          </Attributes>
          <ExtraData>
           <Entry key="ZoomPanBin">
            <ZoomPanBin id="1114"  >
             <ZoomPanKeyframes>
              <ZoomPanKeyframe id="1115" timeRangeStart="-9999999/1" timeRangeDuration="0/1"  />
             </ZoomPanKeyframes>
            </ZoomPanBin>
           </Entry>
          </ExtraData>
         </VMFile>
         <MetaData>
          <entry key="WinSubProjectDisplayName" val=""/>
         </MetaData>
        </UnifiedMedia>
        <UnifiedMedia id="1116"  >
         <AMFile id="1117" start="729" duration="22" scalar="1/1" mediaStart="313/1" mediaDuration="22/1" trackNumber="1" src="8" channelNumber="0,1" >
          <Parameters>
           <InterpolatingParam id="1118" interp="linr" value="1"  name="volume"/>
           <Parameter id="1119"  name="captions"/>
          </Parameters>
          <Attributes>
           <Attribute id="1120" value="" name="ident"/>
           <Attribute id="1121" value="44100" name="sampleRate"/>
           <Attribute id="1122" value="16" name="bitDepth"/>
           <Attribute id="1123" value="1" name="gain"/>
          </Attributes>
         </AMFile>
         <VMFile id="1124" start="729" duration="22" scalar="1/1" mediaStart="313/1" mediaDuration="22/1" trackNumber="0" src="8" >
          <Transformer>
           <VectorParam id="1125"  name="translation">
            <InterpolatingParam id="1126"  >
             <Parameters>
              <Parameter id="1127"  name="interpolater">
               <Keyframes>
               <Keyframe id="1128"  time="0/1" value="linr" leadInLength="0/1" />
               </Keyframes>
              </Parameter>
             </Parameters>
             <Keyframes>
             <Keyframe id="1129"  time="-9999999/1" value="0" leadInLength="0/1" />
             </Keyframes>
            </InterpolatingParam>
            <InterpolatingParam id="1130"  >
             <Parameters>
              <Parameter id="1131"  name="interpolater">
               <Keyframes>
               <Keyframe id="1132"  time="0/1" value="linr" leadInLength="0/1" />
               </Keyframes>
              </Parameter>
             </Parameters>
             <Keyframes>
             <Keyframe id="1133"  time="-9999999/1" value="0" leadInLength="0/1" />
             </Keyframes>
            </InterpolatingParam>
            <InterpolatingParam id="1134"  >
             <Parameters>
              <Parameter id="1135"  name="interpolater">
               <Keyframes>
               <Keyframe id="1136"  time="0/1" value="linr" leadInLength="0/1" />
               </Keyframes>
              </Parameter>
             </Parameters>
             <Keyframes>
             <Keyframe id="1137"  time="-9999999/1" value="0" leadInLength="0/1" />
             </Keyframes>
            </InterpolatingParam>
           </VectorParam>
           <VectorParam id="1138"  name="rotation">
            <InterpolatingParam id="1139"  >
             <Parameters>
              <Parameter id="1140"  name="interpolater">
               <Keyframes>
               <Keyframe id="1141"  time="0/1" value="linr" leadInLength="0/1" />
               </Keyframes>
              </Parameter>
             </Parameters>
             <Keyframes>
             <Keyframe id="1142"  time="-9999999/1" value="0" leadInLength="0/1" />
             </Keyframes>
            </InterpolatingParam>
            <InterpolatingParam id="1143"  >
             <Parameters>
              <Parameter id="1144"  name="interpolater">
               <Keyframes>
               <Keyframe id="1145"  time="0/1" value="linr" leadInLength="0/1" />
               </Keyframes>
              </Parameter>
             </Parameters>
             <Keyframes>
             <Keyframe id="1146"  time="-9999999/1" value="0" leadInLength="0/1" />
             </Keyframes>
            </InterpolatingParam>
            <InterpolatingParam id="1147"  >
             <Parameters>
              <Parameter id="1148"  name="interpolater">
               <Keyframes>
               <Keyframe id="1149"  time="0/1" value="linr" leadInLength="0/1" />
               </Keyframes>
              </Parameter>
             </Parameters>
             <Keyframes>
             <Keyframe id="1150"  time="-9999999/1" value="0" leadInLength="0/1" />
             </Keyframes>
            </InterpolatingParam>
           </VectorParam>
           <VectorParam id="1151"  name="shear">
            <InterpolatingParam id="1152"  >
             <Parameters>
              <Parameter id="1153"  name="interpolater">
               <Keyframes>
               <Keyframe id="1154"  time="0/1" value="linr" leadInLength="0/1" />
               </Keyframes>
              </Parameter>
             </Parameters>
             <Keyframes>
             <Keyframe id="1155"  time="-9999999/1" value="0" leadInLength="0/1" />
             </Keyframes>
            </InterpolatingParam>
            <InterpolatingParam id="1156"  >
             <Parameters>
              <Parameter id="1157"  name="interpolater">
               <Keyframes>
               <Keyframe id="1158"  time="0/1" value="linr" leadInLength="0/1" />
               </Keyframes>
              </Parameter>
             </Parameters>
             <Keyframes>
             <Keyframe id="1159"  time="-9999999/1" value="0" leadInLength="0/1" />
             </Keyframes>
            </InterpolatingParam>
            <InterpolatingParam id="1160"  >
             <Parameters>
              <Parameter id="1161"  name="interpolater">
               <Keyframes>
               <Keyframe id="1162"  time="0/1" value="linr" leadInLength="0/1" />
               </Keyframes>
              </Parameter>
             </Parameters>
             <Keyframes>
             <Keyframe id="1163"  time="-9999999/1" value="0" leadInLength="0/1" />
             </Keyframes>
            </InterpolatingParam>
           </VectorParam>
           <VectorParam id="1164"  name="scale">
            <InterpolatingParam id="1165"  >
             <Parameters>
              <Parameter id="1166"  name="interpolater">
               <Keyframes>
               <Keyframe id="1167"  time="0/1" value="linr" leadInLength="0/1" />
               </Keyframes>
              </Parameter>
             </Parameters>
             <Keyframes>
             <Keyframe id="1168"  time="-9999999/1" value="1" leadInLength="0/1" />
             </Keyframes>
            </InterpolatingParam>
            <InterpolatingParam id="1169"  >
             <Parameters>
              <Parameter id="1170"  name="interpolater">
               <Keyframes>
               <Keyframe id="1171"  time="0/1" value="linr" leadInLength="0/1" />
               </Keyframes>
              </Parameter>
             </Parameters>
             <Keyframes>
             <Keyframe id="1172"  time="-9999999/1" value="1" leadInLength="0/1" />
             </Keyframes>
            </InterpolatingParam>
            <InterpolatingParam id="1173"  >
             <Parameters>
              <Parameter id="1174"  name="interpolater">
               <Keyframes>
               <Keyframe id="1175"  time="0/1" value="linr" leadInLength="0/1" />
               </Keyframes>
              </Parameter>
             </Parameters>
             <Keyframes>
             <Keyframe id="1176"  time="-9999999/1" value="1" leadInLength="0/1" />
             </Keyframes>
            </InterpolatingParam>
           </VectorParam>
           <VectorParam id="1177"  name="anchor">
            <InterpolatingParam id="1178" interp="linr" value="0"  />
            <InterpolatingParam id="1179" interp="linr" value="0"  />
            <InterpolatingParam id="1180" interp="linr" value="0"  />
           </VectorParam>
          </Transformer>
          <Parameters>
           <VectorParam id="1181"  name="sourceCrop">
            <InterpolatingParam id="1182" interp="linr" value="0"  />
            <InterpolatingParam id="1183" interp="linr" value="0"  />
            <InterpolatingParam id="1184" interp="linr" value="0"  />
            <InterpolatingParam id="1185" interp="linr" value="0"  />
           </VectorParam>
           <VectorParam id="1186"  name="geometryCrop">
            <InterpolatingParam id="1187" interp="linr" value="0"  />
            <InterpolatingParam id="1188" interp="linr" value="0"  />
            <InterpolatingParam id="1189" interp="linr" value="0"  />
            <InterpolatingParam id="1190" interp="linr" value="0"  />
           </VectorParam>
           <InterpolatingParam id="1191"  name="opacity">
            <Parameters>
             <Parameter id="1192"  name="interpolater">
              <Keyframes>
              <Keyframe id="1193"  time="0/1" value="linr" leadInLength="0/1" />
              </Keyframes>
             </Parameter>
            </Parameters>
            <Keyframes>
            <Keyframe id="1194"  time="-9999999/1" value="1" leadInLength="0/1" />
            </Keyframes>
           </InterpolatingParam>
          </Parameters>
          <Attributes>
           <Attribute id="1195" value="" name="ident"/>
          </Attributes>
          <ExtraData>
           <Entry key="ZoomPanBin">
            <ZoomPanBin id="1196"  >
             <ZoomPanKeyframes>
              <ZoomPanKeyframe id="1197" timeRangeStart="-9999999/1" timeRangeDuration="0/1"  />
             </ZoomPanKeyframes>
            </ZoomPanBin>
           </Entry>
          </ExtraData>
         </VMFile>
         <MetaData>
          <entry key="WinSubProjectDisplayName" val=""/>
         </MetaData>
        </UnifiedMedia>
        <UnifiedMedia id="1198"  >
         <AMFile id="1199" start="751" duration="13" scalar="1/1" mediaStart="445/1" mediaDuration="13/1" trackNumber="1" src="8" channelNumber="0,1" >
          <Parameters>
           <InterpolatingParam id="1200" interp="linr" value="1"  name="volume"/>
           <Parameter id="1201"  name="captions"/>
          </Parameters>
          <Attributes>
           <Attribute id="1202" value="" name="ident"/>
           <Attribute id="1203" value="44100" name="sampleRate"/>
           <Attribute id="1204" value="16" name="bitDepth"/>
           <Attribute id="1205" value="1" name="gain"/>
          </Attributes>
         </AMFile>
         <VMFile id="1206" start="751" duration="13" scalar="1/1" mediaStart="445/1" mediaDuration="13/1" trackNumber="0" src="8" >
          <Transformer>
           <VectorParam id="1207"  name="translation">
            <InterpolatingParam id="1208"  >
             <Parameters>
              <Parameter id="1209"  name="interpolater">
               <Keyframes>
               <Keyframe id="1210"  time="0/1" value="linr" leadInLength="0/1" />
               </Keyframes>
              </Parameter>
             </Parameters>
             <Keyframes>
             <Keyframe id="1211"  time="-9999999/1" value="0" leadInLength="0/1" />
             </Keyframes>
            </InterpolatingParam>
            <InterpolatingParam id="1212"  >
             <Parameters>
              <Parameter id="1213"  name="interpolater">
               <Keyframes>
               <Keyframe id="1214"  time="0/1" value="linr" leadInLength="0/1" />
               </Keyframes>
              </Parameter>
             </Parameters>
             <Keyframes>
             <Keyframe id="1215"  time="-9999999/1" value="0" leadInLength="0/1" />
             </Keyframes>
            </InterpolatingParam>
            <InterpolatingParam id="1216"  >
             <Parameters>
              <Parameter id="1217"  name="interpolater">
               <Keyframes>
               <Keyframe id="1218"  time="0/1" value="linr" leadInLength="0/1" />
               </Keyframes>
              </Parameter>
             </Parameters>
             <Keyframes>
             <Keyframe id="1219"  time="-9999999/1" value="0" leadInLength="0/1" />
             </Keyframes>
            </InterpolatingParam>
           </VectorParam>
           <VectorParam id="1220"  name="rotation">
            <InterpolatingParam id="1221"  >
             <Parameters>
              <Parameter id="1222"  name="interpolater">
               <Keyframes>
               <Keyframe id="1223"  time="0/1" value="linr" leadInLength="0/1" />
               </Keyframes>
              </Parameter>
             </Parameters>
             <Keyframes>
             <Keyframe id="1224"  time="-9999999/1" value="0" leadInLength="0/1" />
             </Keyframes>
            </InterpolatingParam>
            <InterpolatingParam id="1225"  >
             <Parameters>
              <Parameter id="1226"  name="interpolater">
               <Keyframes>
               <Keyframe id="1227"  time="0/1" value="linr" leadInLength="0/1" />
               </Keyframes>
              </Parameter>
             </Parameters>
             <Keyframes>
             <Keyframe id="1228"  time="-9999999/1" value="0" leadInLength="0/1" />
             </Keyframes>
            </InterpolatingParam>
            <InterpolatingParam id="1229"  >
             <Parameters>
              <Parameter id="1230"  name="interpolater">
               <Keyframes>
               <Keyframe id="1231"  time="0/1" value="linr" leadInLength="0/1" />
               </Keyframes>
              </Parameter>
             </Parameters>
             <Keyframes>
             <Keyframe id="1232"  time="-9999999/1" value="0" leadInLength="0/1" />
             </Keyframes>
            </InterpolatingParam>
           </VectorParam>
           <VectorParam id="1233"  name="shear">
            <InterpolatingParam id="1234"  >
             <Parameters>
              <Parameter id="1235"  name="interpolater">
               <Keyframes>
               <Keyframe id="1236"  time="0/1" value="linr" leadInLength="0/1" />
               </Keyframes>
              </Parameter>
             </Parameters>
             <Keyframes>
             <Keyframe id="1237"  time="-9999999/1" value="0" leadInLength="0/1" />
             </Keyframes>
            </InterpolatingParam>
            <InterpolatingParam id="1238"  >
             <Parameters>
              <Parameter id="1239"  name="interpolater">
               <Keyframes>
               <Keyframe id="1240"  time="0/1" value="linr" leadInLength="0/1" />
               </Keyframes>
              </Parameter>
             </Parameters>
             <Keyframes>
             <Keyframe id="1241"  time="-9999999/1" value="0" leadInLength="0/1" />
             </Keyframes>
            </InterpolatingParam>
            <InterpolatingParam id="1242"  >
             <Parameters>
              <Parameter id="1243"  name="interpolater">
               <Keyframes>
               <Keyframe id="1244"  time="0/1" value="linr" leadInLength="0/1" />
               </Keyframes>
              </Parameter>
             </Parameters>
             <Keyframes>
             <Keyframe id="1245"  time="-9999999/1" value="0" leadInLength="0/1" />
             </Keyframes>
            </InterpolatingParam>
           </VectorParam>
           <VectorParam id="1246"  name="scale">
            <InterpolatingParam id="1247"  >
             <Parameters>
              <Parameter id="1248"  name="interpolater">
               <Keyframes>
               <Keyframe id="1249"  time="0/1" value="linr" leadInLength="0/1" />
               </Keyframes>
              </Parameter>
             </Parameters>
             <Keyframes>
             <Keyframe id="1250"  time="-9999999/1" value="1" leadInLength="0/1" />
             </Keyframes>
            </InterpolatingParam>
            <InterpolatingParam id="1251"  >
             <Parameters>
              <Parameter id="1252"  name="interpolater">
               <Keyframes>
               <Keyframe id="1253"  time="0/1" value="linr" leadInLength="0/1" />
               </Keyframes>
              </Parameter>
             </Parameters>
             <Keyframes>
             <Keyframe id="1254"  time="-9999999/1" value="1" leadInLength="0/1" />
             </Keyframes>
            </InterpolatingParam>
            <InterpolatingParam id="1255"  >
             <Parameters>
              <Parameter id="1256"  name="interpolater">
               <Keyframes>
               <Keyframe id="1257"  time="0/1" value="linr" leadInLength="0/1" />
               </Keyframes>
              </Parameter>
             </Parameters>
             <Keyframes>
             <Keyframe id="1258"  time="-9999999/1" value="1" leadInLength="0/1" />
             </Keyframes>
            </InterpolatingParam>
           </VectorParam>
           <VectorParam id="1259"  name="anchor">
            <InterpolatingParam id="1260" interp="linr" value="0"  />
            <InterpolatingParam id="1261" interp="linr" value="0"  />
            <InterpolatingParam id="1262" interp="linr" value="0"  />
           </VectorParam>
          </Transformer>
          <Parameters>
           <VectorParam id="1263"  name="sourceCrop">
            <InterpolatingParam id="1264" interp="linr" value="0"  />
            <InterpolatingParam id="1265" interp="linr" value="0"  />
            <InterpolatingParam id="1266" interp="linr" value="0"  />
            <InterpolatingParam id="1267" interp="linr" value="0"  />
           </VectorParam>
           <VectorParam id="1268"  name="geometryCrop">
            <InterpolatingParam id="1269" interp="linr" value="0"  />
            <InterpolatingParam id="1270" interp="linr" value="0"  />
            <InterpolatingParam id="1271" interp="linr" value="0"  />
            <InterpolatingParam id="1272" interp="linr" value="0"  />
           </VectorParam>
           <InterpolatingParam id="1273"  name="opacity">
            <Parameters>
             <Parameter id="1274"  name="interpolater">
              <Keyframes>
              <Keyframe id="1275"  time="0/1" value="linr" leadInLength="0/1" />
              </Keyframes>
             </Parameter>
            </Parameters>
            <Keyframes>
            <Keyframe id="1276"  time="-9999999/1" value="1" leadInLength="0/1" />
            </Keyframes>
           </InterpolatingParam>
          </Parameters>
          <Attributes>
           <Attribute id="1277" value="" name="ident"/>
          </Attributes>
          <ExtraData>
           <Entry key="ZoomPanBin">
            <ZoomPanBin id="1278"  >
             <ZoomPanKeyframes>
              <ZoomPanKeyframe id="1279" timeRangeStart="-9999999/1" timeRangeDuration="0/1"  />
             </ZoomPanKeyframes>
            </ZoomPanBin>
           </Entry>
          </ExtraData>
         </VMFile>
         <MetaData>
          <entry key="WinSubProjectDisplayName" val=""/>
         </MetaData>
        </UnifiedMedia>
        <UnifiedMedia id="1280"  >
         <AMFile id="1281" start="764" duration="23" scalar="1/1" mediaStart="482/1" mediaDuration="23/1" trackNumber="1" src="8" channelNumber="0,1" >
          <Parameters>
           <InterpolatingParam id="1282" interp="linr" value="1"  name="volume"/>
           <Parameter id="1283"  name="captions"/>
          </Parameters>
          <Attributes>
           <Attribute id="1284" value="" name="ident"/>
           <Attribute id="1285" value="44100" name="sampleRate"/>
           <Attribute id="1286" value="16" name="bitDepth"/>
           <Attribute id="1287" value="1" name="gain"/>
          </Attributes>
         </AMFile>
         <VMFile id="1288" start="764" duration="23" scalar="1/1" mediaStart="482/1" mediaDuration="23/1" trackNumber="0" src="8" >
          <Transformer>
           <VectorParam id="1289"  name="translation">
            <InterpolatingParam id="1290"  >
             <Parameters>
              <Parameter id="1291"  name="interpolater">
               <Keyframes>
               <Keyframe id="1292"  time="0/1" value="linr" leadInLength="0/1" />
               </Keyframes>
              </Parameter>
             </Parameters>
             <Keyframes>
             <Keyframe id="1293"  time="-9999999/1" value="0" leadInLength="0/1" />
             </Keyframes>
            </InterpolatingParam>
            <InterpolatingParam id="1294"  >
             <Parameters>
              <Parameter id="1295"  name="interpolater">
               <Keyframes>
               <Keyframe id="1296"  time="0/1" value="linr" leadInLength="0/1" />
               </Keyframes>
              </Parameter>
             </Parameters>
             <Keyframes>
             <Keyframe id="1297"  time="-9999999/1" value="0" leadInLength="0/1" />
             </Keyframes>
            </InterpolatingParam>
            <InterpolatingParam id="1298"  >
             <Parameters>
              <Parameter id="1299"  name="interpolater">
               <Keyframes>
               <Keyframe id="1300"  time="0/1" value="linr" leadInLength="0/1" />
               </Keyframes>
              </Parameter>
             </Parameters>
             <Keyframes>
             <Keyframe id="1301"  time="-9999999/1" value="0" leadInLength="0/1" />
             </Keyframes>
            </InterpolatingParam>
           </VectorParam>
           <VectorParam id="1302"  name="rotation">
            <InterpolatingParam id="1303"  >
             <Parameters>
              <Parameter id="1304"  name="interpolater">
               <Keyframes>
               <Keyframe id="1305"  time="0/1" value="linr" leadInLength="0/1" />
               </Keyframes>
              </Parameter>
             </Parameters>
             <Keyframes>
             <Keyframe id="1306"  time="-9999999/1" value="0" leadInLength="0/1" />
             </Keyframes>
            </InterpolatingParam>
            <InterpolatingParam id="1307"  >
             <Parameters>
              <Parameter id="1308"  name="interpolater">
               <Keyframes>
               <Keyframe id="1309"  time="0/1" value="linr" leadInLength="0/1" />
               </Keyframes>
              </Parameter>
             </Parameters>
             <Keyframes>
             <Keyframe id="1310"  time="-9999999/1" value="0" leadInLength="0/1" />
             </Keyframes>
            </InterpolatingParam>
            <InterpolatingParam id="1311"  >
             <Parameters>
              <Parameter id="1312"  name="interpolater">
               <Keyframes>
               <Keyframe id="1313"  time="0/1" value="linr" leadInLength="0/1" />
               </Keyframes>
              </Parameter>
             </Parameters>
             <Keyframes>
             <Keyframe id="1314"  time="-9999999/1" value="0" leadInLength="0/1" />
             </Keyframes>
            </InterpolatingParam>
           </VectorParam>
           <VectorParam id="1315"  name="shear">
            <InterpolatingParam id="1316"  >
             <Parameters>
              <Parameter id="1317"  name="interpolater">
               <Keyframes>
               <Keyframe id="1318"  time="0/1" value="linr" leadInLength="0/1" />
               </Keyframes>
              </Parameter>
             </Parameters>
             <Keyframes>
             <Keyframe id="1319"  time="-9999999/1" value="0" leadInLength="0/1" />
             </Keyframes>
            </InterpolatingParam>
            <InterpolatingParam id="1320"  >
             <Parameters>
              <Parameter id="1321"  name="interpolater">
               <Keyframes>
               <Keyframe id="1322"  time="0/1" value="linr" leadInLength="0/1" />
               </Keyframes>
              </Parameter>
             </Parameters>
             <Keyframes>
             <Keyframe id="1323"  time="-9999999/1" value="0" leadInLength="0/1" />
             </Keyframes>
            </InterpolatingParam>
            <InterpolatingParam id="1324"  >
             <Parameters>
              <Parameter id="1325"  name="interpolater">
               <Keyframes>
               <Keyframe id="1326"  time="0/1" value="linr" leadInLength="0/1" />
               </Keyframes>
              </Parameter>
             </Parameters>
             <Keyframes>
             <Keyframe id="1327"  time="-9999999/1" value="0" leadInLength="0/1" />
             </Keyframes>
            </InterpolatingParam>
           </VectorParam>
           <VectorParam id="1328"  name="scale">
            <InterpolatingParam id="1329"  >
             <Parameters>
              <Parameter id="1330"  name="interpolater">
               <Keyframes>
               <Keyframe id="1331"  time="0/1" value="linr" leadInLength="0/1" />
               </Keyframes>
              </Parameter>
             </Parameters>
             <Keyframes>
             <Keyframe id="1332"  time="-9999999/1" value="1" leadInLength="0/1" />
             </Keyframes>
            </InterpolatingParam>
            <InterpolatingParam id="1333"  >
             <Parameters>
              <Parameter id="1334"  name="interpolater">
               <Keyframes>
               <Keyframe id="1335"  time="0/1" value="linr" leadInLength="0/1" />
               </Keyframes>
              </Parameter>
             </Parameters>
             <Keyframes>
             <Keyframe id="1336"  time="-9999999/1" value="1" leadInLength="0/1" />
             </Keyframes>
            </InterpolatingParam>
            <InterpolatingParam id="1337"  >
             <Parameters>
              <Parameter id="1338"  name="interpolater">
               <Keyframes>
               <Keyframe id="1339"  time="0/1" value="linr" leadInLength="0/1" />
               </Keyframes>
              </Parameter>
             </Parameters>
             <Keyframes>
             <Keyframe id="1340"  time="-9999999/1" value="1" leadInLength="0/1" />
             </Keyframes>
            </InterpolatingParam>
           </VectorParam>
           <VectorParam id="1341"  name="anchor">
            <InterpolatingParam id="1342" interp="linr" value="0"  />
            <InterpolatingParam id="1343" interp="linr" value="0"  />
            <InterpolatingParam id="1344" interp="linr" value="0"  />
           </VectorParam>
          </Transformer>
          <Parameters>
           <VectorParam id="1345"  name="sourceCrop">
            <InterpolatingParam id="1346" interp="linr" value="0"  />
            <InterpolatingParam id="1347" interp="linr" value="0"  />
            <InterpolatingParam id="1348" interp="linr" value="0"  />
            <InterpolatingParam id="1349" interp="linr" value="0"  />
           </VectorParam>
           <VectorParam id="1350"  name="geometryCrop">
            <InterpolatingParam id="1351" interp="linr" value="0"  />
            <InterpolatingParam id="1352" interp="linr" value="0"  />
            <InterpolatingParam id="1353" interp="linr" value="0"  />
            <InterpolatingParam id="1354" interp="linr" value="0"  />
           </VectorParam>
           <InterpolatingParam id="1355"  name="opacity">
            <Parameters>
             <Parameter id="1356"  name="interpolater">
              <Keyframes>
              <Keyframe id="1357"  time="0/1" value="linr" leadInLength="0/1" />
              </Keyframes>
             </Parameter>
            </Parameters>
            <Keyframes>
            <Keyframe id="1358"  time="-9999999/1" value="1" leadInLength="0/1" />
            </Keyframes>
           </InterpolatingParam>
          </Parameters>
          <Attributes>
           <Attribute id="1359" value="" name="ident"/>
          </Attributes>
          <ExtraData>
           <Entry key="ZoomPanBin">
            <ZoomPanBin id="1360"  >
             <ZoomPanKeyframes>
              <ZoomPanKeyframe id="1361" timeRangeStart="-9999999/1" timeRangeDuration="0/1"  />
             </ZoomPanKeyframes>
            </ZoomPanBin>
           </Entry>
          </ExtraData>
         </VMFile>
         <MetaData>
          <entry key="WinSubProjectDisplayName" val=""/>
         </MetaData>
        </UnifiedMedia>
        <UnifiedMedia id="1362"  >
         <AMFile id="1363" start="787" duration="57" scalar="1/1" mediaStart="864/1" mediaDuration="57/1" trackNumber="1" src="8" channelNumber="0,1" >
          <Parameters>
           <InterpolatingParam id="1364" interp="linr" value="1"  name="volume"/>
           <Parameter id="1365"  name="captions"/>
          </Parameters>
          <Attributes>
           <Attribute id="1366" value="" name="ident"/>
           <Attribute id="1367" value="44100" name="sampleRate"/>
           <Attribute id="1368" value="16" name="bitDepth"/>
           <Attribute id="1369" value="1" name="gain"/>
          </Attributes>
         </AMFile>
         <VMFile id="1370" start="787" duration="57" scalar="1/1" mediaStart="864/1" mediaDuration="57/1" trackNumber="0" src="8" >
          <Transformer>
           <VectorParam id="1371"  name="translation">
            <InterpolatingParam id="1372"  >
             <Parameters>
              <Parameter id="1373"  name="interpolater">
               <Keyframes>
               <Keyframe id="1374"  time="0/1" value="linr" leadInLength="0/1" />
               </Keyframes>
              </Parameter>
             </Parameters>
             <Keyframes>
             <Keyframe id="1375"  time="-9999999/1" value="0" leadInLength="0/1" />
             </Keyframes>
            </InterpolatingParam>
            <InterpolatingParam id="1376"  >
             <Parameters>
              <Parameter id="1377"  name="interpolater">
               <Keyframes>
               <Keyframe id="1378"  time="0/1" value="linr" leadInLength="0/1" />
               </Keyframes>
              </Parameter>
             </Parameters>
             <Keyframes>
             <Keyframe id="1379"  time="-9999999/1" value="0" leadInLength="0/1" />
             </Keyframes>
            </InterpolatingParam>
            <InterpolatingParam id="1380"  >
             <Parameters>
              <Parameter id="1381"  name="interpolater">
               <Keyframes>
               <Keyframe id="1382"  time="0/1" value="linr" leadInLength="0/1" />
               </Keyframes>
              </Parameter>
             </Parameters>
             <Keyframes>
             <Keyframe id="1383"  time="-9999999/1" value="0" leadInLength="0/1" />
             </Keyframes>
            </InterpolatingParam>
           </VectorParam>
           <VectorParam id="1384"  name="rotation">
            <InterpolatingParam id="1385"  >
             <Parameters>
              <Parameter id="1386"  name="interpolater">
               <Keyframes>
               <Keyframe id="1387"  time="0/1" value="linr" leadInLength="0/1" />
               </Keyframes>
              </Parameter>
             </Parameters>
             <Keyframes>
             <Keyframe id="1388"  time="-9999999/1" value="0" leadInLength="0/1" />
             </Keyframes>
            </InterpolatingParam>
            <InterpolatingParam id="1389"  >
             <Parameters>
              <Parameter id="1390"  name="interpolater">
               <Keyframes>
               <Keyframe id="1391"  time="0/1" value="linr" leadInLength="0/1" />
               </Keyframes>
              </Parameter>
             </Parameters>
             <Keyframes>
             <Keyframe id="1392"  time="-9999999/1" value="0" leadInLength="0/1" />
             </Keyframes>
            </InterpolatingParam>
            <InterpolatingParam id="1393"  >
             <Parameters>
              <Parameter id="1394"  name="interpolater">
               <Keyframes>
               <Keyframe id="1395"  time="0/1" value="linr" leadInLength="0/1" />
               </Keyframes>
              </Parameter>
             </Parameters>
             <Keyframes>
             <Keyframe id="1396"  time="-9999999/1" value="0" leadInLength="0/1" />
             </Keyframes>
            </InterpolatingParam>
           </VectorParam>
           <VectorParam id="1397"  name="shear">
            <InterpolatingParam id="1398"  >
             <Parameters>
              <Parameter id="1399"  name="interpolater">
               <Keyframes>
               <Keyframe id="1400"  time="0/1" value="linr" leadInLength="0/1" />
               </Keyframes>
              </Parameter>
             </Parameters>
             <Keyframes>
             <Keyframe id="1401"  time="-9999999/1" value="0" leadInLength="0/1" />
             </Keyframes>
            </InterpolatingParam>
            <InterpolatingParam id="1402"  >
             <Parameters>
              <Parameter id="1403"  name="interpolater">
               <Keyframes>
               <Keyframe id="1404"  time="0/1" value="linr" leadInLength="0/1" />
               </Keyframes>
              </Parameter>
             </Parameters>
             <Keyframes>
             <Keyframe id="1405"  time="-9999999/1" value="0" leadInLength="0/1" />
             </Keyframes>
            </InterpolatingParam>
            <InterpolatingParam id="1406"  >
             <Parameters>
              <Parameter id="1407"  name="interpolater">
               <Keyframes>
               <Keyframe id="1408"  time="0/1" value="linr" leadInLength="0/1" />
               </Keyframes>
              </Parameter>
             </Parameters>
             <Keyframes>
             <Keyframe id="1409"  time="-9999999/1" value="0" leadInLength="0/1" />
             </Keyframes>
            </InterpolatingParam>
           </VectorParam>
           <VectorParam id="1410"  name="scale">
            <InterpolatingParam id="1411"  >
             <Parameters>
              <Parameter id="1412"  name="interpolater">
               <Keyframes>
               <Keyframe id="1413"  time="0/1" value="linr" leadInLength="0/1" />
               </Keyframes>
              </Parameter>
             </Parameters>
             <Keyframes>
             <Keyframe id="1414"  time="-9999999/1" value="1" leadInLength="0/1" />
             </Keyframes>
            </InterpolatingParam>
            <InterpolatingParam id="1415"  >
             <Parameters>
              <Parameter id="1416"  name="interpolater">
               <Keyframes>
               <Keyframe id="1417"  time="0/1" value="linr" leadInLength="0/1" />
               </Keyframes>
              </Parameter>
             </Parameters>
             <Keyframes>
             <Keyframe id="1418"  time="-9999999/1" value="1" leadInLength="0/1" />
             </Keyframes>
            </InterpolatingParam>
            <InterpolatingParam id="1419"  >
             <Parameters>
              <Parameter id="1420"  name="interpolater">
               <Keyframes>
               <Keyframe id="1421"  time="0/1" value="linr" leadInLength="0/1" />
               </Keyframes>
              </Parameter>
             </Parameters>
             <Keyframes>
             <Keyframe id="1422"  time="-9999999/1" value="1" leadInLength="0/1" />
             </Keyframes>
            </InterpolatingParam>
           </VectorParam>
           <VectorParam id="1423"  name="anchor">
            <InterpolatingParam id="1424" interp="linr" value="0"  />
            <InterpolatingParam id="1425" interp="linr" value="0"  />
            <InterpolatingParam id="1426" interp="linr" value="0"  />
           </VectorParam>
          </Transformer>
          <Parameters>
           <VectorParam id="1427"  name="sourceCrop">
            <InterpolatingParam id="1428" interp="linr" value="0"  />
            <InterpolatingParam id="1429" interp="linr" value="0"  />
            <InterpolatingParam id="1430" interp="linr" value="0"  />
            <InterpolatingParam id="1431" interp="linr" value="0"  />
           </VectorParam>
           <VectorParam id="1432"  name="geometryCrop">
            <InterpolatingParam id="1433" interp="linr" value="0"  />
            <InterpolatingParam id="1434" interp="linr" value="0"  />
            <InterpolatingParam id="1435" interp="linr" value="0"  />
            <InterpolatingParam id="1436" interp="linr" value="0"  />
           </VectorParam>
           <InterpolatingParam id="1437"  name="opacity">
            <Parameters>
             <Parameter id="1438"  name="interpolater">
              <Keyframes>
              <Keyframe id="1439"  time="0/1" value="linr" leadInLength="0/1" />
              </Keyframes>
             </Parameter>
            </Parameters>
            <Keyframes>
            <Keyframe id="1440"  time="-9999999/1" value="1" leadInLength="0/1" />
            </Keyframes>
           </InterpolatingParam>
          </Parameters>
          <Attributes>
           <Attribute id="1441" value="" name="ident"/>
          </Attributes>
          <ExtraData>
           <Entry key="ZoomPanBin">
            <ZoomPanBin id="1442"  >
             <ZoomPanKeyframes>
              <ZoomPanKeyframe id="1443" timeRangeStart="-9999999/1" timeRangeDuration="0/1"  />
             </ZoomPanKeyframes>
            </ZoomPanBin>
           </Entry>
          </ExtraData>
         </VMFile>
         <MetaData>
          <entry key="WinSubProjectDisplayName" val=""/>
         </MetaData>
        </UnifiedMedia>
        <UnifiedMedia id="1444"  >
         <AMFile id="1445" start="844" duration="68" scalar="1/2" mediaStart="971/1" mediaDuration="136/1" trackNumber="1" src="8" channelNumber="0,1" >
          <Parameters>
           <InterpolatingParam id="1446" interp="linr" value="1"  name="volume"/>
           <Parameter id="1447"  name="captions"/>
          </Parameters>
          <Attributes>
           <Attribute id="1448" value="" name="ident"/>
           <Attribute id="1449" value="44100" name="sampleRate"/>
           <Attribute id="1450" value="16" name="bitDepth"/>
           <Attribute id="1451" value="1" name="gain"/>
          </Attributes>
         </AMFile>
         <VMFile id="1452" start="844" duration="68" scalar="1/2" mediaStart="971/1" mediaDuration="136/1" trackNumber="0" src="8" >
          <Transformer>
           <VectorParam id="1453"  name="translation">
            <InterpolatingParam id="1454"  >
             <Parameters>
              <Parameter id="1455"  name="interpolater">
               <Keyframes>
               <Keyframe id="1456"  time="0/1" value="linr" leadInLength="0/1" />
               </Keyframes>
              </Parameter>
             </Parameters>
             <Keyframes>
             <Keyframe id="1457"  time="-9999999/1" value="0" leadInLength="0/1" />
             </Keyframes>
            </InterpolatingParam>
            <InterpolatingParam id="1458"  >
             <Parameters>
              <Parameter id="1459"  name="interpolater">
               <Keyframes>
               <Keyframe id="1460"  time="0/1" value="linr" leadInLength="0/1" />
               </Keyframes>
              </Parameter>
             </Parameters>
             <Keyframes>
             <Keyframe id="1461"  time="-9999999/1" value="0" leadInLength="0/1" />
             </Keyframes>
            </InterpolatingParam>
            <InterpolatingParam id="1462"  >
             <Parameters>
              <Parameter id="1463"  name="interpolater">
               <Keyframes>
               <Keyframe id="1464"  time="0/1" value="linr" leadInLength="0/1" />
               </Keyframes>
              </Parameter>
             </Parameters>
             <Keyframes>
             <Keyframe id="1465"  time="-9999999/1" value="0" leadInLength="0/1" />
             </Keyframes>
            </InterpolatingParam>
           </VectorParam>
           <VectorParam id="1466"  name="rotation">
            <InterpolatingParam id="1467"  >
             <Parameters>
              <Parameter id="1468"  name="interpolater">
               <Keyframes>
               <Keyframe id="1469"  time="0/1" value="linr" leadInLength="0/1" />
               </Keyframes>
              </Parameter>
             </Parameters>
             <Keyframes>
             <Keyframe id="1470"  time="-9999999/1" value="0" leadInLength="0/1" />
             </Keyframes>
            </InterpolatingParam>
            <InterpolatingParam id="1471"  >
             <Parameters>
              <Parameter id="1472"  name="interpolater">
               <Keyframes>
               <Keyframe id="1473"  time="0/1" value="linr" leadInLength="0/1" />
               </Keyframes>
              </Parameter>
             </Parameters>
             <Keyframes>
             <Keyframe id="1474"  time="-9999999/1" value="0" leadInLength="0/1" />
             </Keyframes>
            </InterpolatingParam>
            <InterpolatingParam id="1475"  >
             <Parameters>
              <Parameter id="1476"  name="interpolater">
               <Keyframes>
               <Keyframe id="1477"  time="0/1" value="linr" leadInLength="0/1" />
               </Keyframes>
              </Parameter>
             </Parameters>
             <Keyframes>
             <Keyframe id="1478"  time="-9999999/1" value="0" leadInLength="0/1" />
             </Keyframes>
            </InterpolatingParam>
           </VectorParam>
           <VectorParam id="1479"  name="shear">
            <InterpolatingParam id="1480"  >
             <Parameters>
              <Parameter id="1481"  name="interpolater">
               <Keyframes>
               <Keyframe id="1482"  time="0/1" value="linr" leadInLength="0/1" />
               </Keyframes>
              </Parameter>
             </Parameters>
             <Keyframes>
             <Keyframe id="1483"  time="-9999999/1" value="0" leadInLength="0/1" />
             </Keyframes>
            </InterpolatingParam>
            <InterpolatingParam id="1484"  >
             <Parameters>
              <Parameter id="1485"  name="interpolater">
               <Keyframes>
               <Keyframe id="1486"  time="0/1" value="linr" leadInLength="0/1" />
               </Keyframes>
              </Parameter>
             </Parameters>
             <Keyframes>
             <Keyframe id="1487"  time="-9999999/1" value="0" leadInLength="0/1" />
             </Keyframes>
            </InterpolatingParam>
            <InterpolatingParam id="1488"  >
             <Parameters>
              <Parameter id="1489"  name="interpolater">
               <Keyframes>
               <Keyframe id="1490"  time="0/1" value="linr" leadInLength="0/1" />
               </Keyframes>
              </Parameter>
             </Parameters>
             <Keyframes>
             <Keyframe id="1491"  time="-9999999/1" value="0" leadInLength="0/1" />
             </Keyframes>
            </InterpolatingParam>
           </VectorParam>
           <VectorParam id="1492"  name="scale">
            <InterpolatingParam id="1493"  >
             <Parameters>
              <Parameter id="1494"  name="interpolater">
               <Keyframes>
               <Keyframe id="1495"  time="0/1" value="linr" leadInLength="0/1" />
               </Keyframes>
              </Parameter>
             </Parameters>
             <Keyframes>
             <Keyframe id="1496"  time="-9999999/1" value="1" leadInLength="0/1" />
             </Keyframes>
            </InterpolatingParam>
            <InterpolatingParam id="1497"  >
             <Parameters>
              <Parameter id="1498"  name="interpolater">
               <Keyframes>
               <Keyframe id="1499"  time="0/1" value="linr" leadInLength="0/1" />
               </Keyframes>
              </Parameter>
             </Parameters>
             <Keyframes>
             <Keyframe id="1500"  time="-9999999/1" value="1" leadInLength="0/1" />
             </Keyframes>
            </InterpolatingParam>
            <InterpolatingParam id="1501"  >
             <Parameters>
              <Parameter id="1502"  name="interpolater">
               <Keyframes>
               <Keyframe id="1503"  time="0/1" value="linr" leadInLength="0/1" />
               </Keyframes>
              </Parameter>
             </Parameters>
             <Keyframes>
             <Keyframe id="1504"  time="-9999999/1" value="1" leadInLength="0/1" />
             </Keyframes>
            </InterpolatingParam>
           </VectorParam>
           <VectorParam id="1505"  name="anchor">
            <InterpolatingParam id="1506" interp="linr" value="0"  />
            <InterpolatingParam id="1507" interp="linr" value="0"  />
            <InterpolatingParam id="1508" interp="linr" value="0"  />
           </VectorParam>
          </Transformer>
          <Parameters>
           <VectorParam id="1509"  name="sourceCrop">
            <InterpolatingParam id="1510" interp="linr" value="0"  />
            <InterpolatingParam id="1511" interp="linr" value="0"  />
            <InterpolatingParam id="1512" interp="linr" value="0"  />
            <InterpolatingParam id="1513" interp="linr" value="0"  />
           </VectorParam>
           <VectorParam id="1514"  name="geometryCrop">
            <InterpolatingParam id="1515" interp="linr" value="0"  />
            <InterpolatingParam id="1516" interp="linr" value="0"  />
            <InterpolatingParam id="1517" interp="linr" value="0"  />
            <InterpolatingParam id="1518" interp="linr" value="0"  />
           </VectorParam>
           <InterpolatingParam id="1519"  name="opacity">
            <Parameters>
             <Parameter id="1520"  name="interpolater">
              <Keyframes>
              <Keyframe id="1521"  time="0/1" value="linr" leadInLength="0/1" />
              </Keyframes>
             </Parameter>
            </Parameters>
            <Keyframes>
            <Keyframe id="1522"  time="-9999999/1" value="1" leadInLength="0/1" />
            </Keyframes>
           </InterpolatingParam>
          </Parameters>
          <Attributes>
           <Attribute id="1523" value="" name="ident"/>
          </Attributes>
          <ExtraData>
           <Entry key="ZoomPanBin">
            <ZoomPanBin id="1524"  >
             <ZoomPanKeyframes>
              <ZoomPanKeyframe id="1525" timeRangeStart="-9999999/1" timeRangeDuration="0/1"  />
             </ZoomPanKeyframes>
            </ZoomPanBin>
           </Entry>
          </ExtraData>
         </VMFile>
         <MetaData>
          <entry key="WinSubProjectDisplayName" val=""/>
         </MetaData>
        </UnifiedMedia>
        <UnifiedMedia id="1526"  >
         <AMFile id="1527" start="912" duration="94" scalar="1/3" mediaStart="1177/1" mediaDuration="282/1" trackNumber="1" src="8" channelNumber="0,1" >
          <Parameters>
           <InterpolatingParam id="1528" interp="linr" value="1"  name="volume"/>
           <Parameter id="1529"  name="captions"/>
          </Parameters>
          <Attributes>
           <Attribute id="1530" value="" name="ident"/>
           <Attribute id="1531" value="44100" name="sampleRate"/>
           <Attribute id="1532" value="16" name="bitDepth"/>
           <Attribute id="1533" value="1" name="gain"/>
          </Attributes>
         </AMFile>
         <VMFile id="1534" start="912" duration="94" scalar="1/3" mediaStart="1177/1" mediaDuration="282/1" trackNumber="0" src="8" >
          <Transformer>
           <VectorParam id="1535"  name="translation">
            <InterpolatingParam id="1536"  >
             <Parameters>
              <Parameter id="1537"  name="interpolater">
               <Keyframes>
               <Keyframe id="1538"  time="0/1" value="linr" leadInLength="0/1" />
               </Keyframes>
              </Parameter>
             </Parameters>
             <Keyframes>
             <Keyframe id="1539"  time="-9999999/1" value="0" leadInLength="0/1" />
             </Keyframes>
            </InterpolatingParam>
            <InterpolatingParam id="1540"  >
             <Parameters>
              <Parameter id="1541"  name="interpolater">
               <Keyframes>
               <Keyframe id="1542"  time="0/1" value="linr" leadInLength="0/1" />
               </Keyframes>
              </Parameter>
             </Parameters>
             <Keyframes>
             <Keyframe id="1543"  time="-9999999/1" value="0" leadInLength="0/1" />
             </Keyframes>
            </InterpolatingParam>
            <InterpolatingParam id="1544"  >
             <Parameters>
              <Parameter id="1545"  name="interpolater">
               <Keyframes>
               <Keyframe id="1546"  time="0/1" value="linr" leadInLength="0/1" />
               </Keyframes>
              </Parameter>
             </Parameters>
             <Keyframes>
             <Keyframe id="1547"  time="-9999999/1" value="0" leadInLength="0/1" />
             </Keyframes>
            </InterpolatingParam>
           </VectorParam>
           <VectorParam id="1548"  name="rotation">
            <InterpolatingParam id="1549"  >
             <Parameters>
              <Parameter id="1550"  name="interpolater">
               <Keyframes>
               <Keyframe id="1551"  time="0/1" value="linr" leadInLength="0/1" />
               </Keyframes>
              </Parameter>
             </Parameters>
             <Keyframes>
             <Keyframe id="1552"  time="-9999999/1" value="0" leadInLength="0/1" />
             </Keyframes>
            </InterpolatingParam>
            <InterpolatingParam id="1553"  >
             <Parameters>
              <Parameter id="1554"  name="interpolater">
               <Keyframes>
               <Keyframe id="1555"  time="0/1" value="linr" leadInLength="0/1" />
               </Keyframes>
              </Parameter>
             </Parameters>
             <Keyframes>
             <Keyframe id="1556"  time="-9999999/1" value="0" leadInLength="0/1" />
             </Keyframes>
            </InterpolatingParam>
            <InterpolatingParam id="1557"  >
             <Parameters>
              <Parameter id="1558"  name="interpolater">
               <Keyframes>
               <Keyframe id="1559"  time="0/1" value="linr" leadInLength="0/1" />
               </Keyframes>
              </Parameter>
             </Parameters>
             <Keyframes>
             <Keyframe id="1560"  time="-9999999/1" value="0" leadInLength="0/1" />
             </Keyframes>
            </InterpolatingParam>
           </VectorParam>
           <VectorParam id="1561"  name="shear">
            <InterpolatingParam id="1562"  >
             <Parameters>
              <Parameter id="1563"  name="interpolater">
               <Keyframes>
               <Keyframe id="1564"  time="0/1" value="linr" leadInLength="0/1" />
               </Keyframes>
              </Parameter>
             </Parameters>
             <Keyframes>
             <Keyframe id="1565"  time="-9999999/1" value="0" leadInLength="0/1" />
             </Keyframes>
            </InterpolatingParam>
            <InterpolatingParam id="1566"  >
             <Parameters>
              <Parameter id="1567"  name="interpolater">
               <Keyframes>
               <Keyframe id="1568"  time="0/1" value="linr" leadInLength="0/1" />
               </Keyframes>
              </Parameter>
             </Parameters>
             <Keyframes>
             <Keyframe id="1569"  time="-9999999/1" value="0" leadInLength="0/1" />
             </Keyframes>
            </InterpolatingParam>
            <InterpolatingParam id="1570"  >
             <Parameters>
              <Parameter id="1571"  name="interpolater">
               <Keyframes>
               <Keyframe id="1572"  time="0/1" value="linr" leadInLength="0/1" />
               </Keyframes>
              </Parameter>
             </Parameters>
             <Keyframes>
             <Keyframe id="1573"  time="-9999999/1" value="0" leadInLength="0/1" />
             </Keyframes>
            </InterpolatingParam>
           </VectorParam>
           <VectorParam id="1574"  name="scale">
            <InterpolatingParam id="1575"  >
             <Parameters>
              <Parameter id="1576"  name="interpolater">
               <Keyframes>
               <Keyframe id="1577"  time="0/1" value="linr" leadInLength="0/1" />
               </Keyframes>
              </Parameter>
             </Parameters>
             <Keyframes>
             <Keyframe id="1578"  time="-9999999/1" value="1" leadInLength="0/1" />
             </Keyframes>
            </InterpolatingParam>
            <InterpolatingParam id="1579"  >
             <Parameters>
              <Parameter id="1580"  name="interpolater">
               <Keyframes>
               <Keyframe id="1581"  time="0/1" value="linr" leadInLength="0/1" />
               </Keyframes>
              </Parameter>
             </Parameters>
             <Keyframes>
             <Keyframe id="1582"  time="-9999999/1" value="1" leadInLength="0/1" />
             </Keyframes>
            </InterpolatingParam>
            <InterpolatingParam id="1583"  >
             <Parameters>
              <Parameter id="1584"  name="interpolater">
               <Keyframes>
               <Keyframe id="1585"  time="0/1" value="linr" leadInLength="0/1" />
               </Keyframes>
              </Parameter>
             </Parameters>
             <Keyframes>
             <Keyframe id="1586"  time="-9999999/1" value="1" leadInLength="0/1" />
             </Keyframes>
            </InterpolatingParam>
           </VectorParam>
           <VectorParam id="1587"  name="anchor">
            <InterpolatingParam id="1588" interp="linr" value="0"  />
            <InterpolatingParam id="1589" interp="linr" value="0"  />
            <InterpolatingParam id="1590" interp="linr" value="0"  />
           </VectorParam>
          </Transformer>
          <Parameters>
           <VectorParam id="1591"  name="sourceCrop">
            <InterpolatingParam id="1592" interp="linr" value="0"  />
            <InterpolatingParam id="1593" interp="linr" value="0"  />
            <InterpolatingParam id="1594" interp="linr" value="0"  />
            <InterpolatingParam id="1595" interp="linr" value="0"  />
           </VectorParam>
           <VectorParam id="1596"  name="geometryCrop">
            <InterpolatingParam id="1597" interp="linr" value="0"  />
            <InterpolatingParam id="1598" interp="linr" value="0"  />
            <InterpolatingParam id="1599" interp="linr" value="0"  />
            <InterpolatingParam id="1600" interp="linr" value="0"  />
           </VectorParam>
           <InterpolatingParam id="1601"  name="opacity">
            <Parameters>
             <Parameter id="1602"  name="interpolater">
              <Keyframes>
              <Keyframe id="1603"  time="0/1" value="linr" leadInLength="0/1" />
              </Keyframes>
             </Parameter>
            </Parameters>
            <Keyframes>
            <Keyframe id="1604"  time="-9999999/1" value="1" leadInLength="0/1" />
            </Keyframes>
           </InterpolatingParam>
          </Parameters>
          <Attributes>
           <Attribute id="1605" value="" name="ident"/>
          </Attributes>
          <ExtraData>
           <Entry key="ZoomPanBin">
            <ZoomPanBin id="1606"  >
             <ZoomPanKeyframes>
              <ZoomPanKeyframe id="1607" timeRangeStart="-9999999/1" timeRangeDuration="0/1"  />
             </ZoomPanKeyframes>
            </ZoomPanBin>
           </Entry>
          </ExtraData>
         </VMFile>
         <MetaData>
          <entry key="WinSubProjectDisplayName" val=""/>
         </MetaData>
        </UnifiedMedia>
        <UnifiedMedia id="1608"  >
         <AMFile id="1609" start="1006" duration="36" scalar="1/1" mediaStart="1621/1" mediaDuration="36/1" trackNumber="1" src="8" channelNumber="0,1" >
          <Parameters>
           <InterpolatingParam id="1610" interp="linr" value="1"  name="volume"/>
           <Parameter id="1611"  name="captions"/>
          </Parameters>
          <Attributes>
           <Attribute id="1612" value="" name="ident"/>
           <Attribute id="1613" value="44100" name="sampleRate"/>
           <Attribute id="1614" value="16" name="bitDepth"/>
           <Attribute id="1615" value="1" name="gain"/>
          </Attributes>
         </AMFile>
         <VMFile id="1616" start="1006" duration="36" scalar="1/1" mediaStart="1621/1" mediaDuration="36/1" trackNumber="0" src="8" >
          <Transformer>
           <VectorParam id="1617"  name="translation">
            <InterpolatingParam id="1618"  >
             <Parameters>
              <Parameter id="1619"  name="interpolater">
               <Keyframes>
               <Keyframe id="1620"  time="0/1" value="linr" leadInLength="0/1" />
               </Keyframes>
              </Parameter>
             </Parameters>
             <Keyframes>
             <Keyframe id="1621"  time="-9999999/1" value="0" leadInLength="0/1" />
             </Keyframes>
            </InterpolatingParam>
            <InterpolatingParam id="1622"  >
             <Parameters>
              <Parameter id="1623"  name="interpolater">
               <Keyframes>
               <Keyframe id="1624"  time="0/1" value="linr" leadInLength="0/1" />
               </Keyframes>
              </Parameter>
             </Parameters>
             <Keyframes>
             <Keyframe id="1625"  time="-9999999/1" value="0" leadInLength="0/1" />
             </Keyframes>
            </InterpolatingParam>
            <InterpolatingParam id="1626"  >
             <Parameters>
              <Parameter id="1627"  name="interpolater">
               <Keyframes>
               <Keyframe id="1628"  time="0/1" value="linr" leadInLength="0/1" />
               </Keyframes>
              </Parameter>
             </Parameters>
             <Keyframes>
             <Keyframe id="1629"  time="-9999999/1" value="0" leadInLength="0/1" />
             </Keyframes>
            </InterpolatingParam>
           </VectorParam>
           <VectorParam id="1630"  name="rotation">
            <InterpolatingParam id="1631"  >
             <Parameters>
              <Parameter id="1632"  name="interpolater">
               <Keyframes>
               <Keyframe id="1633"  time="0/1" value="linr" leadInLength="0/1" />
               </Keyframes>
              </Parameter>
             </Parameters>
             <Keyframes>
             <Keyframe id="1634"  time="-9999999/1" value="0" leadInLength="0/1" />
             </Keyframes>
            </InterpolatingParam>
            <InterpolatingParam id="1635"  >
             <Parameters>
              <Parameter id="1636"  name="interpolater">
               <Keyframes>
               <Keyframe id="1637"  time="0/1" value="linr" leadInLength="0/1" />
               </Keyframes>
              </Parameter>
             </Parameters>
             <Keyframes>
             <Keyframe id="1638"  time="-9999999/1" value="0" leadInLength="0/1" />
             </Keyframes>
            </InterpolatingParam>
            <InterpolatingParam id="1639"  >
             <Parameters>
              <Parameter id="1640"  name="interpolater">
               <Keyframes>
               <Keyframe id="1641"  time="0/1" value="linr" leadInLength="0/1" />
               </Keyframes>
              </Parameter>
             </Parameters>
             <Keyframes>
             <Keyframe id="1642"  time="-9999999/1" value="0" leadInLength="0/1" />
             </Keyframes>
            </InterpolatingParam>
           </VectorParam>
           <VectorParam id="1643"  name="shear">
            <InterpolatingParam id="1644"  >
             <Parameters>
              <Parameter id="1645"  name="interpolater">
               <Keyframes>
               <Keyframe id="1646"  time="0/1" value="linr" leadInLength="0/1" />
               </Keyframes>
              </Parameter>
             </Parameters>
             <Keyframes>
             <Keyframe id="1647"  time="-9999999/1" value="0" leadInLength="0/1" />
             </Keyframes>
            </InterpolatingParam>
            <InterpolatingParam id="1648"  >
             <Parameters>
              <Parameter id="1649"  name="interpolater">
               <Keyframes>
               <Keyframe id="1650"  time="0/1" value="linr" leadInLength="0/1" />
               </Keyframes>
              </Parameter>
             </Parameters>
             <Keyframes>
             <Keyframe id="1651"  time="-9999999/1" value="0" leadInLength="0/1" />
             </Keyframes>
            </InterpolatingParam>
            <InterpolatingParam id="1652"  >
             <Parameters>
              <Parameter id="1653"  name="interpolater">
               <Keyframes>
               <Keyframe id="1654"  time="0/1" value="linr" leadInLength="0/1" />
               </Keyframes>
              </Parameter>
             </Parameters>
             <Keyframes>
             <Keyframe id="1655"  time="-9999999/1" value="0" leadInLength="0/1" />
             </Keyframes>
            </InterpolatingParam>
           </VectorParam>
           <VectorParam id="1656"  name="scale">
            <InterpolatingParam id="1657"  >
             <Parameters>
              <Parameter id="1658"  name="interpolater">
               <Keyframes>
               <Keyframe id="1659"  time="0/1" value="linr" leadInLength="0/1" />
               </Keyframes>
              </Parameter>
             </Parameters>
             <Keyframes>
             <Keyframe id="1660"  time="-9999999/1" value="1" leadInLength="0/1" />
             </Keyframes>
            </InterpolatingParam>
            <InterpolatingParam id="1661"  >
             <Parameters>
              <Parameter id="1662"  name="interpolater">
               <Keyframes>
               <Keyframe id="1663"  time="0/1" value="linr" leadInLength="0/1" />
               </Keyframes>
              </Parameter>
             </Parameters>
             <Keyframes>
             <Keyframe id="1664"  time="-9999999/1" value="1" leadInLength="0/1" />
             </Keyframes>
            </InterpolatingParam>
            <InterpolatingParam id="1665"  >
             <Parameters>
              <Parameter id="1666"  name="interpolater">
               <Keyframes>
               <Keyframe id="1667"  time="0/1" value="linr" leadInLength="0/1" />
               </Keyframes>
              </Parameter>
             </Parameters>
             <Keyframes>
             <Keyframe id="1668"  time="-9999999/1" value="1" leadInLength="0/1" />
             </Keyframes>
            </InterpolatingParam>
           </VectorParam>
           <VectorParam id="1669"  name="anchor">
            <InterpolatingParam id="1670" interp="linr" value="0"  />
            <InterpolatingParam id="1671" interp="linr" value="0"  />
            <InterpolatingParam id="1672" interp="linr" value="0"  />
           </VectorParam>
          </Transformer>
          <Parameters>
           <VectorParam id="1673"  name="sourceCrop">
            <InterpolatingParam id="1674" interp="linr" value="0"  />
            <InterpolatingParam id="1675" interp="linr" value="0"  />
            <InterpolatingParam id="1676" interp="linr" value="0"  />
            <InterpolatingParam id="1677" interp="linr" value="0"  />
           </VectorParam>
           <VectorParam id="1678"  name="geometryCrop">
            <InterpolatingParam id="1679" interp="linr" value="0"  />
            <InterpolatingParam id="1680" interp="linr" value="0"  />
            <InterpolatingParam id="1681" interp="linr" value="0"  />
            <InterpolatingParam id="1682" interp="linr" value="0"  />
           </VectorParam>
           <InterpolatingParam id="1683"  name="opacity">
            <Parameters>
             <Parameter id="1684"  name="interpolater">
              <Keyframes>
              <Keyframe id="1685"  time="0/1" value="linr" leadInLength="0/1" />
              </Keyframes>
             </Parameter>
            </Parameters>
            <Keyframes>
            <Keyframe id="1686"  time="-9999999/1" value="1" leadInLength="0/1" />
            </Keyframes>
           </InterpolatingParam>
          </Parameters>
          <Attributes>
           <Attribute id="1687" value="" name="ident"/>
          </Attributes>
          <ExtraData>
           <Entry key="ZoomPanBin">
            <ZoomPanBin id="1688"  >
             <ZoomPanKeyframes>
              <ZoomPanKeyframe id="1689" timeRangeStart="-9999999/1" timeRangeDuration="0/1"  />
             </ZoomPanKeyframes>
            </ZoomPanBin>
           </Entry>
          </ExtraData>
         </VMFile>
         <MetaData>
          <entry key="WinSubProjectDisplayName" val=""/>
         </MetaData>
        </UnifiedMedia>
        <UnifiedMedia id="1690"  >
         <AMFile id="1691" start="1042" duration="149" scalar="319/1279" mediaStart="264/1" mediaDuration="190571/319" trackNumber="1" src="9" channelNumber="0,1" >
          <Parameters>
           <InterpolatingParam id="1692" interp="linr" value="1"  name="volume"/>
           <Parameter id="1693"  name="captions"/>
          </Parameters>
          <Attributes>
           <Attribute id="1694" value="" name="ident"/>
           <Attribute id="1695" value="44100" name="sampleRate"/>
           <Attribute id="1696" value="16" name="bitDepth"/>
           <Attribute id="1697" value="1" name="gain"/>
          </Attributes>
         </AMFile>
         <VMFile id="1698" start="1042" duration="149" scalar="319/1279" mediaStart="264/1" mediaDuration="190571/319" trackNumber="0" src="9" >
          <Transformer>
           <VectorParam id="1699"  name="translation">
            <InterpolatingParam id="1700"  >
             <Parameters>
              <Parameter id="1701"  name="interpolater">
               <Keyframes>
               <Keyframe id="1702"  time="0/1" value="linr" leadInLength="0/1" />
               </Keyframes>
              </Parameter>
             </Parameters>
             <Keyframes>
             <Keyframe id="1703"  time="-9999999/1" value="0" leadInLength="0/1" />
             </Keyframes>
            </InterpolatingParam>
            <InterpolatingParam id="1704"  >
             <Parameters>
              <Parameter id="1705"  name="interpolater">
               <Keyframes>
               <Keyframe id="1706"  time="0/1" value="linr" leadInLength="0/1" />
               </Keyframes>
              </Parameter>
             </Parameters>
             <Keyframes>
             <Keyframe id="1707"  time="-9999999/1" value="0" leadInLength="0/1" />
             </Keyframes>
            </InterpolatingParam>
            <InterpolatingParam id="1708"  >
             <Parameters>
              <Parameter id="1709"  name="interpolater">
               <Keyframes>
               <Keyframe id="1710"  time="0/1" value="linr" leadInLength="0/1" />
               </Keyframes>
              </Parameter>
             </Parameters>
             <Keyframes>
             <Keyframe id="1711"  time="-9999999/1" value="0" leadInLength="0/1" />
             </Keyframes>
            </InterpolatingParam>
           </VectorParam>
           <VectorParam id="1712"  name="rotation">
            <InterpolatingParam id="1713"  >
             <Parameters>
              <Parameter id="1714"  name="interpolater">
               <Keyframes>
               <Keyframe id="1715"  time="0/1" value="linr" leadInLength="0/1" />
               </Keyframes>
              </Parameter>
             </Parameters>
             <Keyframes>
             <Keyframe id="1716"  time="-9999999/1" value="0" leadInLength="0/1" />
             </Keyframes>
            </InterpolatingParam>
            <InterpolatingParam id="1717"  >
             <Parameters>
              <Parameter id="1718"  name="interpolater">
               <Keyframes>
               <Keyframe id="1719"  time="0/1" value="linr" leadInLength="0/1" />
               </Keyframes>
              </Parameter>
             </Parameters>
             <Keyframes>
             <Keyframe id="1720"  time="-9999999/1" value="0" leadInLength="0/1" />
             </Keyframes>
            </InterpolatingParam>
            <InterpolatingParam id="1721"  >
             <Parameters>
              <Parameter id="1722"  name="interpolater">
               <Keyframes>
               <Keyframe id="1723"  time="0/1" value="linr" leadInLength="0/1" />
               </Keyframes>
              </Parameter>
             </Parameters>
             <Keyframes>
             <Keyframe id="1724"  time="-9999999/1" value="0" leadInLength="0/1" />
             </Keyframes>
            </InterpolatingParam>
           </VectorParam>
           <VectorParam id="1725"  name="shear">
            <InterpolatingParam id="1726"  >
             <Parameters>
              <Parameter id="1727"  name="interpolater">
               <Keyframes>
               <Keyframe id="1728"  time="0/1" value="linr" leadInLength="0/1" />
               </Keyframes>
              </Parameter>
             </Parameters>
             <Keyframes>
             <Keyframe id="1729"  time="-9999999/1" value="0" leadInLength="0/1" />
             </Keyframes>
            </InterpolatingParam>
            <InterpolatingParam id="1730"  >
             <Parameters>
              <Parameter id="1731"  name="interpolater">
               <Keyframes>
               <Keyframe id="1732"  time="0/1" value="linr" leadInLength="0/1" />
               </Keyframes>
              </Parameter>
             </Parameters>
             <Keyframes>
             <Keyframe id="1733"  time="-9999999/1" value="0" leadInLength="0/1" />
             </Keyframes>
            </InterpolatingParam>
            <InterpolatingParam id="1734"  >
             <Parameters>
              <Parameter id="1735"  name="interpolater">
               <Keyframes>
               <Keyframe id="1736"  time="0/1" value="linr" leadInLength="0/1" />
               </Keyframes>
              </Parameter>
             </Parameters>
             <Keyframes>
             <Keyframe id="1737"  time="-9999999/1" value="0" leadInLength="0/1" />
             </Keyframes>
            </InterpolatingParam>
           </VectorParam>
           <VectorParam id="1738"  name="scale">
            <InterpolatingParam id="1739"  >
             <Parameters>
              <Parameter id="1740"  name="interpolater">
               <Keyframes>
               <Keyframe id="1741"  time="0/1" value="linr" leadInLength="0/1" />
               </Keyframes>
              </Parameter>
             </Parameters>
             <Keyframes>
             <Keyframe id="1742"  time="-9999999/1" value="1" leadInLength="0/1" />
             </Keyframes>
            </InterpolatingParam>
            <InterpolatingParam id="1743"  >
             <Parameters>
              <Parameter id="1744"  name="interpolater">
               <Keyframes>
               <Keyframe id="1745"  time="0/1" value="linr" leadInLength="0/1" />
               </Keyframes>
              </Parameter>
             </Parameters>
             <Keyframes>
             <Keyframe id="1746"  time="-9999999/1" value="1" leadInLength="0/1" />
             </Keyframes>
            </InterpolatingParam>
            <InterpolatingParam id="1747"  >
             <Parameters>
              <Parameter id="1748"  name="interpolater">
               <Keyframes>
               <Keyframe id="1749"  time="0/1" value="linr" leadInLength="0/1" />
               </Keyframes>
              </Parameter>
             </Parameters>
             <Keyframes>
             <Keyframe id="1750"  time="-9999999/1" value="1" leadInLength="0/1" />
             </Keyframes>
            </InterpolatingParam>
           </VectorParam>
           <VectorParam id="1751"  name="anchor">
            <InterpolatingParam id="1752" interp="linr" value="0"  />
            <InterpolatingParam id="1753" interp="linr" value="0"  />
            <InterpolatingParam id="1754" interp="linr" value="0"  />
           </VectorParam>
          </Transformer>
          <Parameters>
           <VectorParam id="1755"  name="sourceCrop">
            <InterpolatingParam id="1756" interp="linr" value="0"  />
            <InterpolatingParam id="1757" interp="linr" value="0"  />
            <InterpolatingParam id="1758" interp="linr" value="0"  />
            <InterpolatingParam id="1759" interp="linr" value="0"  />
           </VectorParam>
           <VectorParam id="1760"  name="geometryCrop">
            <InterpolatingParam id="1761" interp="linr" value="0"  />
            <InterpolatingParam id="1762" interp="linr" value="0"  />
            <InterpolatingParam id="1763" interp="linr" value="0"  />
            <InterpolatingParam id="1764" interp="linr" value="0"  />
           </VectorParam>
           <InterpolatingParam id="1765"  name="opacity">
            <Parameters>
             <Parameter id="1766"  name="interpolater">
              <Keyframes>
              <Keyframe id="1767"  time="0/1" value="linr" leadInLength="0/1" />
              </Keyframes>
             </Parameter>
            </Parameters>
            <Keyframes>
            <Keyframe id="1768"  time="-9999999/1" value="1" leadInLength="0/1" />
            </Keyframes>
           </InterpolatingParam>
          </Parameters>
          <Attributes>
           <Attribute id="1769" value="" name="ident"/>
          </Attributes>
          <ExtraData>
           <Entry key="ZoomPanBin">
            <ZoomPanBin id="1770"  >
             <ZoomPanKeyframes>
              <ZoomPanKeyframe id="1771" timeRangeStart="-9999999/1" timeRangeDuration="0/1"  />
             </ZoomPanKeyframes>
            </ZoomPanBin>
           </Entry>
          </ExtraData>
         </VMFile>
         <MetaData>
          <entry key="WinSubProjectDisplayName" val=""/>
         </MetaData>
        </UnifiedMedia>
        <UnifiedMedia id="1772"  >
         <AMFile id="1773" start="1191" duration="170" scalar="319/1279" mediaStart="274787/319" mediaDuration="217430/319" trackNumber="1" src="9" channelNumber="0,1" >
          <Parameters>
           <InterpolatingParam id="1774" interp="linr" value="1"  name="volume"/>
           <Parameter id="1775"  name="captions"/>
          </Parameters>
          <Attributes>
           <Attribute id="1776" value="" name="ident"/>
           <Attribute id="1777" value="44100" name="sampleRate"/>
           <Attribute id="1778" value="16" name="bitDepth"/>
           <Attribute id="1779" value="1" name="gain"/>
          </Attributes>
         </AMFile>
         <VMFile id="1780" start="1191" duration="170" scalar="319/1279" mediaStart="274787/319" mediaDuration="217430/319" trackNumber="0" src="9" >
          <Transformer>
           <VectorParam id="1781"  name="translation">
            <InterpolatingParam id="1782"  >
             <Parameters>
              <Parameter id="1783"  name="interpolater">
               <Keyframes>
               <Keyframe id="1784"  time="0/1" value="linr" leadInLength="0/1" />
               </Keyframes>
              </Parameter>
             </Parameters>
             <Keyframes>
             <Keyframe id="1785"  time="-9999999/1" value="0" leadInLength="0/1" />
             </Keyframes>
            </InterpolatingParam>
            <InterpolatingParam id="1786"  >
             <Parameters>
              <Parameter id="1787"  name="interpolater">
               <Keyframes>
               <Keyframe id="1788"  time="0/1" value="linr" leadInLength="0/1" />
               </Keyframes>
              </Parameter>
             </Parameters>
             <Keyframes>
             <Keyframe id="1789"  time="-9999999/1" value="0" leadInLength="0/1" />
             </Keyframes>
            </InterpolatingParam>
            <InterpolatingParam id="1790"  >
             <Parameters>
              <Parameter id="1791"  name="interpolater">
               <Keyframes>
               <Keyframe id="1792"  time="0/1" value="linr" leadInLength="0/1" />
               </Keyframes>
              </Parameter>
             </Parameters>
             <Keyframes>
             <Keyframe id="1793"  time="-9999999/1" value="0" leadInLength="0/1" />
             </Keyframes>
            </InterpolatingParam>
           </VectorParam>
           <VectorParam id="1794"  name="rotation">
            <InterpolatingParam id="1795"  >
             <Parameters>
              <Parameter id="1796"  name="interpolater">
               <Keyframes>
               <Keyframe id="1797"  time="0/1" value="linr" leadInLength="0/1" />
               </Keyframes>
              </Parameter>
             </Parameters>
             <Keyframes>
             <Keyframe id="1798"  time="-9999999/1" value="0" leadInLength="0/1" />
             </Keyframes>
            </InterpolatingParam>
            <InterpolatingParam id="1799"  >
             <Parameters>
              <Parameter id="1800"  name="interpolater">
               <Keyframes>
               <Keyframe id="1801"  time="0/1" value="linr" leadInLength="0/1" />
               </Keyframes>
              </Parameter>
             </Parameters>
             <Keyframes>
             <Keyframe id="1802"  time="-9999999/1" value="0" leadInLength="0/1" />
             </Keyframes>
            </InterpolatingParam>
            <InterpolatingParam id="1803"  >
             <Parameters>
              <Parameter id="1804"  name="interpolater">
               <Keyframes>
               <Keyframe id="1805"  time="0/1" value="linr" leadInLength="0/1" />
               </Keyframes>
              </Parameter>
             </Parameters>
             <Keyframes>
             <Keyframe id="1806"  time="-9999999/1" value="0" leadInLength="0/1" />
             </Keyframes>
            </InterpolatingParam>
           </VectorParam>
           <VectorParam id="1807"  name="shear">
            <InterpolatingParam id="1808"  >
             <Parameters>
              <Parameter id="1809"  name="interpolater">
               <Keyframes>
               <Keyframe id="1810"  time="0/1" value="linr" leadInLength="0/1" />
               </Keyframes>
              </Parameter>
             </Parameters>
             <Keyframes>
             <Keyframe id="1811"  time="-9999999/1" value="0" leadInLength="0/1" />
             </Keyframes>
            </InterpolatingParam>
            <InterpolatingParam id="1812"  >
             <Parameters>
              <Parameter id="1813"  name="interpolater">
               <Keyframes>
               <Keyframe id="1814"  time="0/1" value="linr" leadInLength="0/1" />
               </Keyframes>
              </Parameter>
             </Parameters>
             <Keyframes>
             <Keyframe id="1815"  time="-9999999/1" value="0" leadInLength="0/1" />
             </Keyframes>
            </InterpolatingParam>
            <InterpolatingParam id="1816"  >
             <Parameters>
              <Parameter id="1817"  name="interpolater">
               <Keyframes>
               <Keyframe id="1818"  time="0/1" value="linr" leadInLength="0/1" />
               </Keyframes>
              </Parameter>
             </Parameters>
             <Keyframes>
             <Keyframe id="1819"  time="-9999999/1" value="0" leadInLength="0/1" />
             </Keyframes>
            </InterpolatingParam>
           </VectorParam>
           <VectorParam id="1820"  name="scale">
            <InterpolatingParam id="1821"  >
             <Parameters>
              <Parameter id="1822"  name="interpolater">
               <Keyframes>
               <Keyframe id="1823"  time="0/1" value="linr" leadInLength="0/1" />
               </Keyframes>
              </Parameter>
             </Parameters>
             <Keyframes>
             <Keyframe id="1824"  time="-9999999/1" value="1" leadInLength="0/1" />
             </Keyframes>
            </InterpolatingParam>
            <InterpolatingParam id="1825"  >
             <Parameters>
              <Parameter id="1826"  name="interpolater">
               <Keyframes>
               <Keyframe id="1827"  time="0/1" value="linr" leadInLength="0/1" />
               </Keyframes>
              </Parameter>
             </Parameters>
             <Keyframes>
             <Keyframe id="1828"  time="-9999999/1" value="1" leadInLength="0/1" />
             </Keyframes>
            </InterpolatingParam>
            <InterpolatingParam id="1829"  >
             <Parameters>
              <Parameter id="1830"  name="interpolater">
               <Keyframes>
               <Keyframe id="1831"  time="0/1" value="linr" leadInLength="0/1" />
               </Keyframes>
              </Parameter>
             </Parameters>
             <Keyframes>
             <Keyframe id="1832"  time="-9999999/1" value="1" leadInLength="0/1" />
             </Keyframes>
            </InterpolatingParam>
           </VectorParam>
           <VectorParam id="1833"  name="anchor">
            <InterpolatingParam id="1834" interp="linr" value="0"  />
            <InterpolatingParam id="1835" interp="linr" value="0"  />
            <InterpolatingParam id="1836" interp="linr" value="0"  />
           </VectorParam>
          </Transformer>
          <Parameters>
           <VectorParam id="1837"  name="sourceCrop">
            <InterpolatingParam id="1838" interp="linr" value="0"  />
            <InterpolatingParam id="1839" interp="linr" value="0"  />
            <InterpolatingParam id="1840" interp="linr" value="0"  />
            <InterpolatingParam id="1841" interp="linr" value="0"  />
           </VectorParam>
           <VectorParam id="1842"  name="geometryCrop">
            <InterpolatingParam id="1843" interp="linr" value="0"  />
            <InterpolatingParam id="1844" interp="linr" value="0"  />
            <InterpolatingParam id="1845" interp="linr" value="0"  />
            <InterpolatingParam id="1846" interp="linr" value="0"  />
           </VectorParam>
           <InterpolatingParam id="1847"  name="opacity">
            <Parameters>
             <Parameter id="1848"  name="interpolater">
              <Keyframes>
              <Keyframe id="1849"  time="0/1" value="linr" leadInLength="0/1" />
              </Keyframes>
             </Parameter>
            </Parameters>
            <Keyframes>
            <Keyframe id="1850"  time="-9999999/1" value="1" leadInLength="0/1" />
            </Keyframes>
           </InterpolatingParam>
          </Parameters>
          <Attributes>
           <Attribute id="1851" value="" name="ident"/>
          </Attributes>
          <ExtraData>
           <Entry key="ZoomPanBin">
            <ZoomPanBin id="1852"  >
             <ZoomPanKeyframes>
              <ZoomPanKeyframe id="1853" timeRangeStart="-9999999/1" timeRangeDuration="0/1"  />
             </ZoomPanKeyframes>
            </ZoomPanBin>
           </Entry>
          </ExtraData>
         </VMFile>
         <MetaData>
          <entry key="WinSubProjectDisplayName" val=""/>
         </MetaData>
        </UnifiedMedia>
        <UnifiedMedia id="1854"  >
         <AMFile id="1855" start="1361" duration="69" scalar="69/209" mediaStart="1543/1" mediaDuration="209/1" trackNumber="1" src="9" channelNumber="0,1" >
          <Parameters>
           <InterpolatingParam id="1856" interp="linr" value="1"  name="volume"/>
           <Parameter id="1857"  name="captions"/>
          </Parameters>
          <Attributes>
           <Attribute id="1858" value="" name="ident"/>
           <Attribute id="1859" value="44100" name="sampleRate"/>
           <Attribute id="1860" value="16" name="bitDepth"/>
           <Attribute id="1861" value="1" name="gain"/>
          </Attributes>
         </AMFile>
         <VMFile id="1862" start="1361" duration="69" scalar="69/209" mediaStart="1543/1" mediaDuration="209/1" trackNumber="0" src="9" >
          <Transformer>
           <VectorParam id="1863"  name="translation">
            <InterpolatingParam id="1864"  >
             <Parameters>
              <Parameter id="1865"  name="interpolater">
               <Keyframes>
               <Keyframe id="1866"  time="0/1" value="linr" leadInLength="0/1" />
               </Keyframes>
              </Parameter>
             </Parameters>
             <Keyframes>
             <Keyframe id="1867"  time="-9999999/1" value="0" leadInLength="0/1" />
             </Keyframes>
            </InterpolatingParam>
            <InterpolatingParam id="1868"  >
             <Parameters>
              <Parameter id="1869"  name="interpolater">
               <Keyframes>
               <Keyframe id="1870"  time="0/1" value="linr" leadInLength="0/1" />
               </Keyframes>
              </Parameter>
             </Parameters>
             <Keyframes>
             <Keyframe id="1871"  time="-9999999/1" value="0" leadInLength="0/1" />
             </Keyframes>
            </InterpolatingParam>
            <InterpolatingParam id="1872"  >
             <Parameters>
              <Parameter id="1873"  name="interpolater">
               <Keyframes>
               <Keyframe id="1874"  time="0/1" value="linr" leadInLength="0/1" />
               </Keyframes>
              </Parameter>
             </Parameters>
             <Keyframes>
             <Keyframe id="1875"  time="-9999999/1" value="0" leadInLength="0/1" />
             </Keyframes>
            </InterpolatingParam>
           </VectorParam>
           <VectorParam id="1876"  name="rotation">
            <InterpolatingParam id="1877"  >
             <Parameters>
              <Parameter id="1878"  name="interpolater">
               <Keyframes>
               <Keyframe id="1879"  time="0/1" value="linr" leadInLength="0/1" />
               </Keyframes>
              </Parameter>
             </Parameters>
             <Keyframes>
             <Keyframe id="1880"  time="-9999999/1" value="0" leadInLength="0/1" />
             </Keyframes>
            </InterpolatingParam>
            <InterpolatingParam id="1881"  >
             <Parameters>
              <Parameter id="1882"  name="interpolater">
               <Keyframes>
               <Keyframe id="1883"  time="0/1" value="linr" leadInLength="0/1" />
               </Keyframes>
              </Parameter>
             </Parameters>
             <Keyframes>
             <Keyframe id="1884"  time="-9999999/1" value="0" leadInLength="0/1" />
             </Keyframes>
            </InterpolatingParam>
            <InterpolatingParam id="1885"  >
             <Parameters>
              <Parameter id="1886"  name="interpolater">
               <Keyframes>
               <Keyframe id="1887"  time="0/1" value="linr" leadInLength="0/1" />
               </Keyframes>
              </Parameter>
             </Parameters>
             <Keyframes>
             <Keyframe id="1888"  time="-9999999/1" value="0" leadInLength="0/1" />
             </Keyframes>
            </InterpolatingParam>
           </VectorParam>
           <VectorParam id="1889"  name="shear">
            <InterpolatingParam id="1890"  >
             <Parameters>
              <Parameter id="1891"  name="interpolater">
               <Keyframes>
               <Keyframe id="1892"  time="0/1" value="linr" leadInLength="0/1" />
               </Keyframes>
              </Parameter>
             </Parameters>
             <Keyframes>
             <Keyframe id="1893"  time="-9999999/1" value="0" leadInLength="0/1" />
             </Keyframes>
            </InterpolatingParam>
            <InterpolatingParam id="1894"  >
             <Parameters>
              <Parameter id="1895"  name="interpolater">
               <Keyframes>
               <Keyframe id="1896"  time="0/1" value="linr" leadInLength="0/1" />
               </Keyframes>
              </Parameter>
             </Parameters>
             <Keyframes>
             <Keyframe id="1897"  time="-9999999/1" value="0" leadInLength="0/1" />
             </Keyframes>
            </InterpolatingParam>
            <InterpolatingParam id="1898"  >
             <Parameters>
              <Parameter id="1899"  name="interpolater">
               <Keyframes>
               <Keyframe id="1900"  time="0/1" value="linr" leadInLength="0/1" />
               </Keyframes>
              </Parameter>
             </Parameters>
             <Keyframes>
             <Keyframe id="1901"  time="-9999999/1" value="0" leadInLength="0/1" />
             </Keyframes>
            </InterpolatingParam>
           </VectorParam>
           <VectorParam id="1902"  name="scale">
            <InterpolatingParam id="1903"  >
             <Parameters>
              <Parameter id="1904"  name="interpolater">
               <Keyframes>
               <Keyframe id="1905"  time="0/1" value="linr" leadInLength="0/1" />
               </Keyframes>
              </Parameter>
             </Parameters>
             <Keyframes>
             <Keyframe id="1906"  time="-9999999/1" value="1" leadInLength="0/1" />
             </Keyframes>
            </InterpolatingParam>
            <InterpolatingParam id="1907"  >
             <Parameters>
              <Parameter id="1908"  name="interpolater">
               <Keyframes>
               <Keyframe id="1909"  time="0/1" value="linr" leadInLength="0/1" />
               </Keyframes>
              </Parameter>
             </Parameters>
             <Keyframes>
             <Keyframe id="1910"  time="-9999999/1" value="1" leadInLength="0/1" />
             </Keyframes>
            </InterpolatingParam>
            <InterpolatingParam id="1911"  >
             <Parameters>
              <Parameter id="1912"  name="interpolater">
               <Keyframes>
               <Keyframe id="1913"  time="0/1" value="linr" leadInLength="0/1" />
               </Keyframes>
              </Parameter>
             </Parameters>
             <Keyframes>
             <Keyframe id="1914"  time="-9999999/1" value="1" leadInLength="0/1" />
             </Keyframes>
            </InterpolatingParam>
           </VectorParam>
           <VectorParam id="1915"  name="anchor">
            <InterpolatingParam id="1916" interp="linr" value="0"  />
            <InterpolatingParam id="1917" interp="linr" value="0"  />
            <InterpolatingParam id="1918" interp="linr" value="0"  />
           </VectorParam>
          </Transformer>
          <Parameters>
           <VectorParam id="1919"  name="sourceCrop">
            <InterpolatingParam id="1920" interp="linr" value="0"  />
            <InterpolatingParam id="1921" interp="linr" value="0"  />
            <InterpolatingParam id="1922" interp="linr" value="0"  />
            <InterpolatingParam id="1923" interp="linr" value="0"  />
           </VectorParam>
           <VectorParam id="1924"  name="geometryCrop">
            <InterpolatingParam id="1925" interp="linr" value="0"  />
            <InterpolatingParam id="1926" interp="linr" value="0"  />
            <InterpolatingParam id="1927" interp="linr" value="0"  />
            <InterpolatingParam id="1928" interp="linr" value="0"  />
           </VectorParam>
           <InterpolatingParam id="1929"  name="opacity">
            <Parameters>
             <Parameter id="1930"  name="interpolater">
              <Keyframes>
              <Keyframe id="1931"  time="0/1" value="linr" leadInLength="0/1" />
              </Keyframes>
             </Parameter>
            </Parameters>
            <Keyframes>
            <Keyframe id="1932"  time="-9999999/1" value="1" leadInLength="0/1" />
            </Keyframes>
           </InterpolatingParam>
          </Parameters>
          <Attributes>
           <Attribute id="1933" value="" name="ident"/>
          </Attributes>
          <ExtraData>
           <Entry key="ZoomPanBin">
            <ZoomPanBin id="1934"  >
             <ZoomPanKeyframes>
              <ZoomPanKeyframe id="1935" timeRangeStart="-9999999/1" timeRangeDuration="0/1"  />
             </ZoomPanKeyframes>
            </ZoomPanBin>
           </Entry>
          </ExtraData>
         </VMFile>
         <MetaData>
          <entry key="WinSubProjectDisplayName" val=""/>
         </MetaData>
        </UnifiedMedia>
        <UnifiedMedia id="1936"  >
         <AMFile id="1937" start="1430" duration="122" scalar="122/245" mediaStart="1752/1" mediaDuration="245/1" trackNumber="1" src="9" channelNumber="0,1" >
          <Parameters>
           <InterpolatingParam id="1938" interp="linr" value="1"  name="volume"/>
           <Parameter id="1939"  name="captions"/>
          </Parameters>
          <Attributes>
           <Attribute id="1940" value="" name="ident"/>
           <Attribute id="1941" value="44100" name="sampleRate"/>
           <Attribute id="1942" value="16" name="bitDepth"/>
           <Attribute id="1943" value="1" name="gain"/>
          </Attributes>
         </AMFile>
         <VMFile id="1944" start="1430" duration="122" scalar="122/245" mediaStart="1752/1" mediaDuration="245/1" trackNumber="0" src="9" >
          <Transformer>
           <VectorParam id="1945"  name="translation">
            <InterpolatingParam id="1946"  >
             <Parameters>
              <Parameter id="1947"  name="interpolater">
               <Keyframes>
               <Keyframe id="1948"  time="0/1" value="linr" leadInLength="0/1" />
               </Keyframes>
              </Parameter>
             </Parameters>
             <Keyframes>
             <Keyframe id="1949"  time="-9999999/1" value="0" leadInLength="0/1" />
             </Keyframes>
            </InterpolatingParam>
            <InterpolatingParam id="1950"  >
             <Parameters>
              <Parameter id="1951"  name="interpolater">
               <Keyframes>
               <Keyframe id="1952"  time="0/1" value="linr" leadInLength="0/1" />
               </Keyframes>
              </Parameter>
             </Parameters>
             <Keyframes>
             <Keyframe id="1953"  time="-9999999/1" value="0" leadInLength="0/1" />
             </Keyframes>
            </InterpolatingParam>
            <InterpolatingParam id="1954"  >
             <Parameters>
              <Parameter id="1955"  name="interpolater">
               <Keyframes>
               <Keyframe id="1956"  time="0/1" value="linr" leadInLength="0/1" />
               </Keyframes>
              </Parameter>
             </Parameters>
             <Keyframes>
             <Keyframe id="1957"  time="-9999999/1" value="0" leadInLength="0/1" />
             </Keyframes>
            </InterpolatingParam>
           </VectorParam>
           <VectorParam id="1958"  name="rotation">
            <InterpolatingParam id="1959"  >
             <Parameters>
              <Parameter id="1960"  name="interpolater">
               <Keyframes>
               <Keyframe id="1961"  time="0/1" value="linr" leadInLength="0/1" />
               </Keyframes>
              </Parameter>
             </Parameters>
             <Keyframes>
             <Keyframe id="1962"  time="-9999999/1" value="0" leadInLength="0/1" />
             </Keyframes>
            </InterpolatingParam>
            <InterpolatingParam id="1963"  >
             <Parameters>
              <Parameter id="1964"  name="interpolater">
               <Keyframes>
               <Keyframe id="1965"  time="0/1" value="linr" leadInLength="0/1" />
               </Keyframes>
              </Parameter>
             </Parameters>
             <Keyframes>
             <Keyframe id="1966"  time="-9999999/1" value="0" leadInLength="0/1" />
             </Keyframes>
            </InterpolatingParam>
            <InterpolatingParam id="1967"  >
             <Parameters>
              <Parameter id="1968"  name="interpolater">
               <Keyframes>
               <Keyframe id="1969"  time="0/1" value="linr" leadInLength="0/1" />
               </Keyframes>
              </Parameter>
             </Parameters>
             <Keyframes>
             <Keyframe id="1970"  time="-9999999/1" value="0" leadInLength="0/1" />
             </Keyframes>
            </InterpolatingParam>
           </VectorParam>
           <VectorParam id="1971"  name="shear">
            <InterpolatingParam id="1972"  >
             <Parameters>
              <Parameter id="1973"  name="interpolater">
               <Keyframes>
               <Keyframe id="1974"  time="0/1" value="linr" leadInLength="0/1" />
               </Keyframes>
              </Parameter>
             </Parameters>
             <Keyframes>
             <Keyframe id="1975"  time="-9999999/1" value="0" leadInLength="0/1" />
             </Keyframes>
            </InterpolatingParam>
            <InterpolatingParam id="1976"  >
             <Parameters>
              <Parameter id="1977"  name="interpolater">
               <Keyframes>
               <Keyframe id="1978"  time="0/1" value="linr" leadInLength="0/1" />
               </Keyframes>
              </Parameter>
             </Parameters>
             <Keyframes>
             <Keyframe id="1979"  time="-9999999/1" value="0" leadInLength="0/1" />
             </Keyframes>
            </InterpolatingParam>
            <InterpolatingParam id="1980"  >
             <Parameters>
              <Parameter id="1981"  name="interpolater">
               <Keyframes>
               <Keyframe id="1982"  time="0/1" value="linr" leadInLength="0/1" />
               </Keyframes>
              </Parameter>
             </Parameters>
             <Keyframes>
             <Keyframe id="1983"  time="-9999999/1" value="0" leadInLength="0/1" />
             </Keyframes>
            </InterpolatingParam>
           </VectorParam>
           <VectorParam id="1984"  name="scale">
            <InterpolatingParam id="1985"  >
             <Parameters>
              <Parameter id="1986"  name="interpolater">
               <Keyframes>
               <Keyframe id="1987"  time="0/1" value="linr" leadInLength="0/1" />
               </Keyframes>
              </Parameter>
             </Parameters>
             <Keyframes>
             <Keyframe id="1988"  time="-9999999/1" value="1" leadInLength="0/1" />
             </Keyframes>
            </InterpolatingParam>
            <InterpolatingParam id="1989"  >
             <Parameters>
              <Parameter id="1990"  name="interpolater">
               <Keyframes>
               <Keyframe id="1991"  time="0/1" value="linr" leadInLength="0/1" />
               </Keyframes>
              </Parameter>
             </Parameters>
             <Keyframes>
             <Keyframe id="1992"  time="-9999999/1" value="1" leadInLength="0/1" />
             </Keyframes>
            </InterpolatingParam>
            <InterpolatingParam id="1993"  >
             <Parameters>
              <Parameter id="1994"  name="interpolater">
               <Keyframes>
               <Keyframe id="1995"  time="0/1" value="linr" leadInLength="0/1" />
               </Keyframes>
              </Parameter>
             </Parameters>
             <Keyframes>
             <Keyframe id="1996"  time="-9999999/1" value="1" leadInLength="0/1" />
             </Keyframes>
            </InterpolatingParam>
           </VectorParam>
           <VectorParam id="1997"  name="anchor">
            <InterpolatingParam id="1998" interp="linr" value="0"  />
            <InterpolatingParam id="1999" interp="linr" value="0"  />
            <InterpolatingParam id="2000" interp="linr" value="0"  />
           </VectorParam>
          </Transformer>
          <Parameters>
           <VectorParam id="2001"  name="sourceCrop">
            <InterpolatingParam id="2002" interp="linr" value="0"  />
            <InterpolatingParam id="2003" interp="linr" value="0"  />
            <InterpolatingParam id="2004" interp="linr" value="0"  />
            <InterpolatingParam id="2005" interp="linr" value="0"  />
           </VectorParam>
           <VectorParam id="2006"  name="geometryCrop">
            <InterpolatingParam id="2007" interp="linr" value="0"  />
            <InterpolatingParam id="2008" interp="linr" value="0"  />
            <InterpolatingParam id="2009" interp="linr" value="0"  />
            <InterpolatingParam id="2010" interp="linr" value="0"  />
           </VectorParam>
           <InterpolatingParam id="2011"  name="opacity">
            <Parameters>
             <Parameter id="2012"  name="interpolater">
              <Keyframes>
              <Keyframe id="2013"  time="0/1" value="linr" leadInLength="0/1" />
              </Keyframes>
             </Parameter>
            </Parameters>
            <Keyframes>
            <Keyframe id="2014"  time="-9999999/1" value="1" leadInLength="0/1" />
            </Keyframes>
           </InterpolatingParam>
          </Parameters>
          <Attributes>
           <Attribute id="2015" value="" name="ident"/>
          </Attributes>
          <ExtraData>
           <Entry key="ZoomPanBin">
            <ZoomPanBin id="2016"  >
             <ZoomPanKeyframes>
              <ZoomPanKeyframe id="2017" timeRangeStart="-9999999/1" timeRangeDuration="0/1"  />
             </ZoomPanKeyframes>
            </ZoomPanBin>
           </Entry>
          </ExtraData>
         </VMFile>
         <MetaData>
          <entry key="WinSubProjectDisplayName" val=""/>
         </MetaData>
        </UnifiedMedia>
        <UnifiedMedia id="2018"  >
         <AMFile id="2019" start="1552" duration="44" scalar="1/2" mediaStart="158/1" mediaDuration="88/1" trackNumber="1" src="10" channelNumber="0,1" >
          <Parameters>
           <InterpolatingParam id="2020" interp="linr" value="1"  name="volume"/>
           <Parameter id="2021"  name="captions"/>
          </Parameters>
          <Attributes>
           <Attribute id="2022" value="" name="ident"/>
           <Attribute id="2023" value="44100" name="sampleRate"/>
           <Attribute id="2024" value="16" name="bitDepth"/>
           <Attribute id="2025" value="1" name="gain"/>
          </Attributes>
         </AMFile>
         <VMFile id="2026" start="1552" duration="44" scalar="1/2" mediaStart="158/1" mediaDuration="88/1" trackNumber="0" src="10" >
          <Transformer>
           <VectorParam id="2027"  name="translation">
            <InterpolatingParam id="2028"  >
             <Parameters>
              <Parameter id="2029"  name="interpolater">
               <Keyframes>
               <Keyframe id="2030"  time="0/1" value="linr" leadInLength="0/1" />
               </Keyframes>
              </Parameter>
             </Parameters>
             <Keyframes>
             <Keyframe id="2031"  time="-9999999/1" value="0" leadInLength="0/1" />
             </Keyframes>
            </InterpolatingParam>
            <InterpolatingParam id="2032"  >
             <Parameters>
              <Parameter id="2033"  name="interpolater">
               <Keyframes>
               <Keyframe id="2034"  time="0/1" value="linr" leadInLength="0/1" />
               </Keyframes>
              </Parameter>
             </Parameters>
             <Keyframes>
             <Keyframe id="2035"  time="-9999999/1" value="0" leadInLength="0/1" />
             </Keyframes>
            </InterpolatingParam>
            <InterpolatingParam id="2036"  >
             <Parameters>
              <Parameter id="2037"  name="interpolater">
               <Keyframes>
               <Keyframe id="2038"  time="0/1" value="linr" leadInLength="0/1" />
               </Keyframes>
              </Parameter>
             </Parameters>
             <Keyframes>
             <Keyframe id="2039"  time="-9999999/1" value="0" leadInLength="0/1" />
             </Keyframes>
            </InterpolatingParam>
           </VectorParam>
           <VectorParam id="2040"  name="rotation">
            <InterpolatingParam id="2041"  >
             <Parameters>
              <Parameter id="2042"  name="interpolater">
               <Keyframes>
               <Keyframe id="2043"  time="0/1" value="linr" leadInLength="0/1" />
               </Keyframes>
              </Parameter>
             </Parameters>
             <Keyframes>
             <Keyframe id="2044"  time="-9999999/1" value="0" leadInLength="0/1" />
             </Keyframes>
            </InterpolatingParam>
            <InterpolatingParam id="2045"  >
             <Parameters>
              <Parameter id="2046"  name="interpolater">
               <Keyframes>
               <Keyframe id="2047"  time="0/1" value="linr" leadInLength="0/1" />
               </Keyframes>
              </Parameter>
             </Parameters>
             <Keyframes>
             <Keyframe id="2048"  time="-9999999/1" value="0" leadInLength="0/1" />
             </Keyframes>
            </InterpolatingParam>
            <InterpolatingParam id="2049"  >
             <Parameters>
              <Parameter id="2050"  name="interpolater">
               <Keyframes>
               <Keyframe id="2051"  time="0/1" value="linr" leadInLength="0/1" />
               </Keyframes>
              </Parameter>
             </Parameters>
             <Keyframes>
             <Keyframe id="2052"  time="-9999999/1" value="0" leadInLength="0/1" />
             </Keyframes>
            </InterpolatingParam>
           </VectorParam>
           <VectorParam id="2053"  name="shear">
            <InterpolatingParam id="2054"  >
             <Parameters>
              <Parameter id="2055"  name="interpolater">
               <Keyframes>
               <Keyframe id="2056"  time="0/1" value="linr" leadInLength="0/1" />
               </Keyframes>
              </Parameter>
             </Parameters>
             <Keyframes>
             <Keyframe id="2057"  time="-9999999/1" value="0" leadInLength="0/1" />
             </Keyframes>
            </InterpolatingParam>
            <InterpolatingParam id="2058"  >
             <Parameters>
              <Parameter id="2059"  name="interpolater">
               <Keyframes>
               <Keyframe id="2060"  time="0/1" value="linr" leadInLength="0/1" />
               </Keyframes>
              </Parameter>
             </Parameters>
             <Keyframes>
             <Keyframe id="2061"  time="-9999999/1" value="0" leadInLength="0/1" />
             </Keyframes>
            </InterpolatingParam>
            <InterpolatingParam id="2062"  >
             <Parameters>
              <Parameter id="2063"  name="interpolater">
               <Keyframes>
               <Keyframe id="2064"  time="0/1" value="linr" leadInLength="0/1" />
               </Keyframes>
              </Parameter>
             </Parameters>
             <Keyframes>
             <Keyframe id="2065"  time="-9999999/1" value="0" leadInLength="0/1" />
             </Keyframes>
            </InterpolatingParam>
           </VectorParam>
           <VectorParam id="2066"  name="scale">
            <InterpolatingParam id="2067"  >
             <Parameters>
              <Parameter id="2068"  name="interpolater">
               <Keyframes>
               <Keyframe id="2069"  time="0/1" value="linr" leadInLength="0/1" />
               </Keyframes>
              </Parameter>
             </Parameters>
             <Keyframes>
             <Keyframe id="2070"  time="-9999999/1" value="1" leadInLength="0/1" />
             </Keyframes>
            </InterpolatingParam>
            <InterpolatingParam id="2071"  >
             <Parameters>
              <Parameter id="2072"  name="interpolater">
               <Keyframes>
               <Keyframe id="2073"  time="0/1" value="linr" leadInLength="0/1" />
               </Keyframes>
              </Parameter>
             </Parameters>
             <Keyframes>
             <Keyframe id="2074"  time="-9999999/1" value="1" leadInLength="0/1" />
             </Keyframes>
            </InterpolatingParam>
            <InterpolatingParam id="2075"  >
             <Parameters>
              <Parameter id="2076"  name="interpolater">
               <Keyframes>
               <Keyframe id="2077"  time="0/1" value="linr" leadInLength="0/1" />
               </Keyframes>
              </Parameter>
             </Parameters>
             <Keyframes>
             <Keyframe id="2078"  time="-9999999/1" value="1" leadInLength="0/1" />
             </Keyframes>
            </InterpolatingParam>
           </VectorParam>
           <VectorParam id="2079"  name="anchor">
            <InterpolatingParam id="2080" interp="linr" value="0"  />
            <InterpolatingParam id="2081" interp="linr" value="0"  />
            <InterpolatingParam id="2082" interp="linr" value="0"  />
           </VectorParam>
          </Transformer>
          <Parameters>
           <VectorParam id="2083"  name="sourceCrop">
            <InterpolatingParam id="2084" interp="linr" value="0"  />
            <InterpolatingParam id="2085" interp="linr" value="0"  />
            <InterpolatingParam id="2086" interp="linr" value="0"  />
            <InterpolatingParam id="2087" interp="linr" value="0"  />
           </VectorParam>
           <VectorParam id="2088"  name="geometryCrop">
            <InterpolatingParam id="2089" interp="linr" value="0"  />
            <InterpolatingParam id="2090" interp="linr" value="0"  />
            <InterpolatingParam id="2091" interp="linr" value="0"  />
            <InterpolatingParam id="2092" interp="linr" value="0"  />
           </VectorParam>
           <InterpolatingParam id="2093"  name="opacity">
            <Parameters>
             <Parameter id="2094"  name="interpolater">
              <Keyframes>
              <Keyframe id="2095"  time="0/1" value="linr" leadInLength="0/1" />
              </Keyframes>
             </Parameter>
            </Parameters>
            <Keyframes>
            <Keyframe id="2096"  time="-9999999/1" value="1" leadInLength="0/1" />
            </Keyframes>
           </InterpolatingParam>
          </Parameters>
          <Attributes>
           <Attribute id="2097" value="" name="ident"/>
          </Attributes>
          <ExtraData>
           <Entry key="ZoomPanBin">
            <ZoomPanBin id="2098"  >
             <ZoomPanKeyframes>
              <ZoomPanKeyframe id="2099" timeRangeStart="-9999999/1" timeRangeDuration="0/1"  />
             </ZoomPanKeyframes>
            </ZoomPanBin>
           </Entry>
          </ExtraData>
         </VMFile>
         <MetaData>
          <entry key="WinSubProjectDisplayName" val=""/>
         </MetaData>
        </UnifiedMedia>
        <UnifiedMedia id="2100"  >
         <AMFile id="2101" start="1596" duration="129" scalar="129/388" mediaStart="1193/1" mediaDuration="388/1" trackNumber="1" src="10" channelNumber="0,1" >
          <Parameters>
           <InterpolatingParam id="2102" interp="linr" value="1"  name="volume"/>
           <Parameter id="2103"  name="captions"/>
          </Parameters>
          <Attributes>
           <Attribute id="2104" value="" name="ident"/>
           <Attribute id="2105" value="44100" name="sampleRate"/>
           <Attribute id="2106" value="16" name="bitDepth"/>
           <Attribute id="2107" value="1" name="gain"/>
          </Attributes>
         </AMFile>
         <VMFile id="2108" start="1596" duration="129" scalar="129/388" mediaStart="1193/1" mediaDuration="388/1" trackNumber="0" src="10" >
          <Transformer>
           <VectorParam id="2109"  name="translation">
            <InterpolatingParam id="2110"  >
             <Parameters>
              <Parameter id="2111"  name="interpolater">
               <Keyframes>
               <Keyframe id="2112"  time="0/1" value="linr" leadInLength="0/1" />
               </Keyframes>
              </Parameter>
             </Parameters>
             <Keyframes>
             <Keyframe id="2113"  time="-9999999/1" value="0" leadInLength="0/1" />
             </Keyframes>
            </InterpolatingParam>
            <InterpolatingParam id="2114"  >
             <Parameters>
              <Parameter id="2115"  name="interpolater">
               <Keyframes>
               <Keyframe id="2116"  time="0/1" value="linr" leadInLength="0/1" />
               </Keyframes>
              </Parameter>
             </Parameters>
             <Keyframes>
             <Keyframe id="2117"  time="-9999999/1" value="0" leadInLength="0/1" />
             </Keyframes>
            </InterpolatingParam>
            <InterpolatingParam id="2118"  >
             <Parameters>
              <Parameter id="2119"  name="interpolater">
               <Keyframes>
               <Keyframe id="2120"  time="0/1" value="linr" leadInLength="0/1" />
               </Keyframes>
              </Parameter>
             </Parameters>
             <Keyframes>
             <Keyframe id="2121"  time="-9999999/1" value="0" leadInLength="0/1" />
             </Keyframes>
            </InterpolatingParam>
           </VectorParam>
           <VectorParam id="2122"  name="rotation">
            <InterpolatingParam id="2123"  >
             <Parameters>
              <Parameter id="2124"  name="interpolater">
               <Keyframes>
               <Keyframe id="2125"  time="0/1" value="linr" leadInLength="0/1" />
               </Keyframes>
              </Parameter>
             </Parameters>
             <Keyframes>
             <Keyframe id="2126"  time="-9999999/1" value="0" leadInLength="0/1" />
             </Keyframes>
            </InterpolatingParam>
            <InterpolatingParam id="2127"  >
             <Parameters>
              <Parameter id="2128"  name="interpolater">
               <Keyframes>
               <Keyframe id="2129"  time="0/1" value="linr" leadInLength="0/1" />
               </Keyframes>
              </Parameter>
             </Parameters>
             <Keyframes>
             <Keyframe id="2130"  time="-9999999/1" value="0" leadInLength="0/1" />
             </Keyframes>
            </InterpolatingParam>
            <InterpolatingParam id="2131"  >
             <Parameters>
              <Parameter id="2132"  name="interpolater">
               <Keyframes>
               <Keyframe id="2133"  time="0/1" value="linr" leadInLength="0/1" />
               </Keyframes>
              </Parameter>
             </Parameters>
             <Keyframes>
             <Keyframe id="2134"  time="-9999999/1" value="0" leadInLength="0/1" />
             </Keyframes>
            </InterpolatingParam>
           </VectorParam>
           <VectorParam id="2135"  name="shear">
            <InterpolatingParam id="2136"  >
             <Parameters>
              <Parameter id="2137"  name="interpolater">
               <Keyframes>
               <Keyframe id="2138"  time="0/1" value="linr" leadInLength="0/1" />
               </Keyframes>
              </Parameter>
             </Parameters>
             <Keyframes>
             <Keyframe id="2139"  time="-9999999/1" value="0" leadInLength="0/1" />
             </Keyframes>
            </InterpolatingParam>
            <InterpolatingParam id="2140"  >
             <Parameters>
              <Parameter id="2141"  name="interpolater">
               <Keyframes>
               <Keyframe id="2142"  time="0/1" value="linr" leadInLength="0/1" />
               </Keyframes>
              </Parameter>
             </Parameters>
             <Keyframes>
             <Keyframe id="2143"  time="-9999999/1" value="0" leadInLength="0/1" />
             </Keyframes>
            </InterpolatingParam>
            <InterpolatingParam id="2144"  >
             <Parameters>
              <Parameter id="2145"  name="interpolater">
               <Keyframes>
               <Keyframe id="2146"  time="0/1" value="linr" leadInLength="0/1" />
               </Keyframes>
              </Parameter>
             </Parameters>
             <Keyframes>
             <Keyframe id="2147"  time="-9999999/1" value="0" leadInLength="0/1" />
             </Keyframes>
            </InterpolatingParam>
           </VectorParam>
           <VectorParam id="2148"  name="scale">
            <InterpolatingParam id="2149"  >
             <Parameters>
              <Parameter id="2150"  name="interpolater">
               <Keyframes>
               <Keyframe id="2151"  time="0/1" value="linr" leadInLength="0/1" />
               </Keyframes>
              </Parameter>
             </Parameters>
             <Keyframes>
             <Keyframe id="2152"  time="-9999999/1" value="1" leadInLength="0/1" />
             </Keyframes>
            </InterpolatingParam>
            <InterpolatingParam id="2153"  >
             <Parameters>
              <Parameter id="2154"  name="interpolater">
               <Keyframes>
               <Keyframe id="2155"  time="0/1" value="linr" leadInLength="0/1" />
               </Keyframes>
              </Parameter>
             </Parameters>
             <Keyframes>
             <Keyframe id="2156"  time="-9999999/1" value="1" leadInLength="0/1" />
             </Keyframes>
            </InterpolatingParam>
            <InterpolatingParam id="2157"  >
             <Parameters>
              <Parameter id="2158"  name="interpolater">
               <Keyframes>
               <Keyframe id="2159"  time="0/1" value="linr" leadInLength="0/1" />
               </Keyframes>
              </Parameter>
             </Parameters>
             <Keyframes>
             <Keyframe id="2160"  time="-9999999/1" value="1" leadInLength="0/1" />
             </Keyframes>
            </InterpolatingParam>
           </VectorParam>
           <VectorParam id="2161"  name="anchor">
            <InterpolatingParam id="2162" interp="linr" value="0"  />
            <InterpolatingParam id="2163" interp="linr" value="0"  />
            <InterpolatingParam id="2164" interp="linr" value="0"  />
           </VectorParam>
          </Transformer>
          <Parameters>
           <VectorParam id="2165"  name="sourceCrop">
            <InterpolatingParam id="2166" interp="linr" value="0"  />
            <InterpolatingParam id="2167" interp="linr" value="0"  />
            <InterpolatingParam id="2168" interp="linr" value="0"  />
            <InterpolatingParam id="2169" interp="linr" value="0"  />
           </VectorParam>
           <VectorParam id="2170"  name="geometryCrop">
            <InterpolatingParam id="2171" interp="linr" value="0"  />
            <InterpolatingParam id="2172" interp="linr" value="0"  />
            <InterpolatingParam id="2173" interp="linr" value="0"  />
            <InterpolatingParam id="2174" interp="linr" value="0"  />
           </VectorParam>
           <InterpolatingParam id="2175"  name="opacity">
            <Parameters>
             <Parameter id="2176"  name="interpolater">
              <Keyframes>
              <Keyframe id="2177"  time="0/1" value="linr" leadInLength="0/1" />
              </Keyframes>
             </Parameter>
            </Parameters>
            <Keyframes>
            <Keyframe id="2178"  time="-9999999/1" value="1" leadInLength="0/1" />
            </Keyframes>
           </InterpolatingParam>
          </Parameters>
          <Attributes>
           <Attribute id="2179" value="" name="ident"/>
          </Attributes>
          <ExtraData>
           <Entry key="ZoomPanBin">
            <ZoomPanBin id="2180"  >
             <ZoomPanKeyframes>
              <ZoomPanKeyframe id="2181" timeRangeStart="-9999999/1" timeRangeDuration="0/1"  />
             </ZoomPanKeyframes>
            </ZoomPanBin>
           </Entry>
          </ExtraData>
         </VMFile>
         <MetaData>
          <entry key="WinSubProjectDisplayName" val=""/>
         </MetaData>
        </UnifiedMedia>
        <UnifiedMedia id="2182"  >
         <AMFile id="2183" start="1725" duration="215" scalar="1/1" mediaStart="1581/1" mediaDuration="215/1" trackNumber="1" src="10" channelNumber="0,1" >
          <Parameters>
           <InterpolatingParam id="2184" interp="linr" value="1"  name="volume"/>
           <Parameter id="2185"  name="captions"/>
          </Parameters>
          <Attributes>
           <Attribute id="2186" value="" name="ident"/>
           <Attribute id="2187" value="44100" name="sampleRate"/>
           <Attribute id="2188" value="16" name="bitDepth"/>
           <Attribute id="2189" value="1" name="gain"/>
          </Attributes>
         </AMFile>
         <VMFile id="2190" start="1725" duration="215" scalar="1/1" mediaStart="1581/1" mediaDuration="215/1" trackNumber="0" src="10" >
          <Transformer>
           <VectorParam id="2191"  name="translation">
            <InterpolatingParam id="2192"  >
             <Parameters>
              <Parameter id="2193"  name="interpolater">
               <Keyframes>
               <Keyframe id="2194"  time="0/1" value="linr" leadInLength="0/1" />
               </Keyframes>
              </Parameter>
             </Parameters>
             <Keyframes>
             <Keyframe id="2195"  time="-9999999/1" value="0" leadInLength="0/1" />
             </Keyframes>
            </InterpolatingParam>
            <InterpolatingParam id="2196"  >
             <Parameters>
              <Parameter id="2197"  name="interpolater">
               <Keyframes>
               <Keyframe id="2198"  time="0/1" value="linr" leadInLength="0/1" />
               </Keyframes>
              </Parameter>
             </Parameters>
             <Keyframes>
             <Keyframe id="2199"  time="-9999999/1" value="0" leadInLength="0/1" />
             </Keyframes>
            </InterpolatingParam>
            <InterpolatingParam id="2200"  >
             <Parameters>
              <Parameter id="2201"  name="interpolater">
               <Keyframes>
               <Keyframe id="2202"  time="0/1" value="linr" leadInLength="0/1" />
               </Keyframes>
              </Parameter>
             </Parameters>
             <Keyframes>
             <Keyframe id="2203"  time="-9999999/1" value="0" leadInLength="0/1" />
             </Keyframes>
            </InterpolatingParam>
           </VectorParam>
           <VectorParam id="2204"  name="rotation">
            <InterpolatingParam id="2205"  >
             <Parameters>
              <Parameter id="2206"  name="interpolater">
               <Keyframes>
               <Keyframe id="2207"  time="0/1" value="linr" leadInLength="0/1" />
               </Keyframes>
              </Parameter>
             </Parameters>
             <Keyframes>
             <Keyframe id="2208"  time="-9999999/1" value="0" leadInLength="0/1" />
             </Keyframes>
            </InterpolatingParam>
            <InterpolatingParam id="2209"  >
             <Parameters>
              <Parameter id="2210"  name="interpolater">
               <Keyframes>
               <Keyframe id="2211"  time="0/1" value="linr" leadInLength="0/1" />
               </Keyframes>
              </Parameter>
             </Parameters>
             <Keyframes>
             <Keyframe id="2212"  time="-9999999/1" value="0" leadInLength="0/1" />
             </Keyframes>
            </InterpolatingParam>
            <InterpolatingParam id="2213"  >
             <Parameters>
              <Parameter id="2214"  name="interpolater">
               <Keyframes>
               <Keyframe id="2215"  time="0/1" value="linr" leadInLength="0/1" />
               </Keyframes>
              </Parameter>
             </Parameters>
             <Keyframes>
             <Keyframe id="2216"  time="-9999999/1" value="0" leadInLength="0/1" />
             </Keyframes>
            </InterpolatingParam>
           </VectorParam>
           <VectorParam id="2217"  name="shear">
            <InterpolatingParam id="2218"  >
             <Parameters>
              <Parameter id="2219"  name="interpolater">
               <Keyframes>
               <Keyframe id="2220"  time="0/1" value="linr" leadInLength="0/1" />
               </Keyframes>
              </Parameter>
             </Parameters>
             <Keyframes>
             <Keyframe id="2221"  time="-9999999/1" value="0" leadInLength="0/1" />
             </Keyframes>
            </InterpolatingParam>
            <InterpolatingParam id="2222"  >
             <Parameters>
              <Parameter id="2223"  name="interpolater">
               <Keyframes>
               <Keyframe id="2224"  time="0/1" value="linr" leadInLength="0/1" />
               </Keyframes>
              </Parameter>
             </Parameters>
             <Keyframes>
             <Keyframe id="2225"  time="-9999999/1" value="0" leadInLength="0/1" />
             </Keyframes>
            </InterpolatingParam>
            <InterpolatingParam id="2226"  >
             <Parameters>
              <Parameter id="2227"  name="interpolater">
               <Keyframes>
               <Keyframe id="2228"  time="0/1" value="linr" leadInLength="0/1" />
               </Keyframes>
              </Parameter>
             </Parameters>
             <Keyframes>
             <Keyframe id="2229"  time="-9999999/1" value="0" leadInLength="0/1" />
             </Keyframes>
            </InterpolatingParam>
           </VectorParam>
           <VectorParam id="2230"  name="scale">
            <InterpolatingParam id="2231"  >
             <Parameters>
              <Parameter id="2232"  name="interpolater">
               <Keyframes>
               <Keyframe id="2233"  time="0/1" value="linr" leadInLength="0/1" />
               </Keyframes>
              </Parameter>
             </Parameters>
             <Keyframes>
             <Keyframe id="2234"  time="-9999999/1" value="1" leadInLength="0/1" />
             </Keyframes>
            </InterpolatingParam>
            <InterpolatingParam id="2235"  >
             <Parameters>
              <Parameter id="2236"  name="interpolater">
               <Keyframes>
               <Keyframe id="2237"  time="0/1" value="linr" leadInLength="0/1" />
               </Keyframes>
              </Parameter>
             </Parameters>
             <Keyframes>
             <Keyframe id="2238"  time="-9999999/1" value="1" leadInLength="0/1" />
             </Keyframes>
            </InterpolatingParam>
            <InterpolatingParam id="2239"  >
             <Parameters>
              <Parameter id="2240"  name="interpolater">
               <Keyframes>
               <Keyframe id="2241"  time="0/1" value="linr" leadInLength="0/1" />
               </Keyframes>
              </Parameter>
             </Parameters>
             <Keyframes>
             <Keyframe id="2242"  time="-9999999/1" value="1" leadInLength="0/1" />
             </Keyframes>
            </InterpolatingParam>
           </VectorParam>
           <VectorParam id="2243"  name="anchor">
            <InterpolatingParam id="2244" interp="linr" value="0"  />
            <InterpolatingParam id="2245" interp="linr" value="0"  />
            <InterpolatingParam id="2246" interp="linr" value="0"  />
           </VectorParam>
          </Transformer>
          <Parameters>
           <VectorParam id="2247"  name="sourceCrop">
            <InterpolatingParam id="2248" interp="linr" value="0"  />
            <InterpolatingParam id="2249" interp="linr" value="0"  />
            <InterpolatingParam id="2250" interp="linr" value="0"  />
            <InterpolatingParam id="2251" interp="linr" value="0"  />
           </VectorParam>
           <VectorParam id="2252"  name="geometryCrop">
            <InterpolatingParam id="2253" interp="linr" value="0"  />
            <InterpolatingParam id="2254" interp="linr" value="0"  />
            <InterpolatingParam id="2255" interp="linr" value="0"  />
            <InterpolatingParam id="2256" interp="linr" value="0"  />
           </VectorParam>
           <InterpolatingParam id="2257"  name="opacity">
            <Parameters>
             <Parameter id="2258"  name="interpolater">
              <Keyframes>
              <Keyframe id="2259"  time="0/1" value="linr" leadInLength="0/1" />
              </Keyframes>
             </Parameter>
            </Parameters>
            <Keyframes>
            <Keyframe id="2260"  time="-9999999/1" value="1" leadInLength="0/1" />
            </Keyframes>
           </InterpolatingParam>
          </Parameters>
          <Attributes>
           <Attribute id="2261" value="" name="ident"/>
          </Attributes>
          <ExtraData>
           <Entry key="ZoomPanBin">
            <ZoomPanBin id="2262"  >
             <ZoomPanKeyframes>
              <ZoomPanKeyframe id="2263" timeRangeStart="-9999999/1" timeRangeDuration="0/1"  />
             </ZoomPanKeyframes>
            </ZoomPanBin>
           </Entry>
          </ExtraData>
         </VMFile>
         <MetaData>
          <entry key="WinSubProjectDisplayName" val=""/>
         </MetaData>
        </UnifiedMedia>
        <UnifiedMedia id="2264"  >
         <AudioTransition id="2265" start="1940" duration="30" >
          <Parameters>
           <InterpolatingParam id="2266" interp="linr" value="1"  name="volume"/>
           <Parameter id="2267"  name="captions"/>
          </Parameters>
          <Effects>
           <GenericEffect id="2268" name = "AudioTransition" >
            <Parameters>
            <Parameter id="2269"   name="audioEdgeModType">
             <Keyframes>
             <Keyframe id="2270"  time="0/1" value="0" leadInLength="0/1" />
             </Keyframes>
            </Parameter>
            <Parameter id="2271"   name="audioTransitionType">
             <Keyframes>
             <Keyframe id="2272"  time="0/1" value="" leadInLength="0/1" />
             </Keyframes>
            </Parameter>
            </Parameters>
            <MetaData>
            </MetaData>
           </GenericEffect>
          </Effects>
          <Attributes>
           <Attribute id="2273" value="" name="ident"/>
           <Attribute id="2274" value="0" name="sampleRate"/>
           <Attribute id="2275" value="0" name="bitDepth"/>
           <Attribute id="2276" value="1" name="gain"/>
          </Attributes>
         </AudioTransition>
         <ImageTransition id="2277" start="1940" duration="30" >
          <Transformer>
           <VectorParam id="2278"  name="translation">
            <InterpolatingParam id="2279" interp="linr" value="0"  />
            <InterpolatingParam id="2280" interp="linr" value="0"  />
            <InterpolatingParam id="2281" interp="linr" value="0"  />
           </VectorParam>
           <VectorParam id="2282"  name="rotation">
            <InterpolatingParam id="2283" interp="linr" value="0"  />
            <InterpolatingParam id="2284" interp="linr" value="0"  />
            <InterpolatingParam id="2285" interp="linr" value="0"  />
           </VectorParam>
           <VectorParam id="2286"  name="shear">
            <InterpolatingParam id="2287" interp="linr" value="0"  />
            <InterpolatingParam id="2288" interp="linr" value="0"  />
            <InterpolatingParam id="2289" interp="linr" value="0"  />
           </VectorParam>
           <VectorParam id="2290"  name="scale">
            <InterpolatingParam id="2291" interp="linr" value="1"  />
            <InterpolatingParam id="2292" interp="linr" value="1"  />
            <InterpolatingParam id="2293" interp="linr" value="1"  />
           </VectorParam>
           <VectorParam id="2294"  name="anchor">
            <InterpolatingParam id="2295" interp="linr" value="0"  />
            <InterpolatingParam id="2296" interp="linr" value="0"  />
            <InterpolatingParam id="2297" interp="linr" value="0"  />
           </VectorParam>
          </Transformer>
          <Parameters>
           <VectorParam id="2298"  name="sourceCrop">
            <InterpolatingParam id="2299" interp="linr" value="0"  />
            <InterpolatingParam id="2300" interp="linr" value="0"  />
            <InterpolatingParam id="2301" interp="linr" value="0"  />
            <InterpolatingParam id="2302" interp="linr" value="0"  />
           </VectorParam>
           <VectorParam id="2303"  name="geometryCrop">
            <InterpolatingParam id="2304" interp="linr" value="0"  />
            <InterpolatingParam id="2305" interp="linr" value="0"  />
            <InterpolatingParam id="2306" interp="linr" value="0"  />
            <InterpolatingParam id="2307" interp="linr" value="0"  />
           </VectorParam>
           <InterpolatingParam id="2308" interp="linr" value="1"  name="opacity"/>
          </Parameters>
          <Effects>
           <GenericEffect id="2309" name = "VisualTransition" >
            <Parameters>
            <InterpolatingParam id="2310" interp="linr" value="0.5"   name="leftFramePercentage"/>
            <InterpolatingParam id="2311" interp="linr" value="0.5"   name="rightFramePercentage"/>
            <Parameter id="2312"   name="visualEdgeModType">
             <Keyframes>
             <Keyframe id="2313"  time="0/1" value="2" leadInLength="0/1" />
             </Keyframes>
            </Parameter>
            <Parameter id="2314"   name="visualTransitionType">
             <Keyframes>
             <Keyframe id="2315"  time="0/1" value="Dissolve" leadInLength="0/1" />
             </Keyframes>
            </Parameter>
            </Parameters>
            <MetaData>
            </MetaData>
           </GenericEffect>
          </Effects>
          <Attributes>
           <Attribute id="2316" value="" name="ident"/>
          </Attributes>
          <ExtraData>
           <Entry key="ZoomPanBin">
            <ZoomPanBin id="2317"  >
             <ZoomPanKeyframes>
             </ZoomPanKeyframes>
            </ZoomPanBin>
           </Entry>
          </ExtraData>
         </ImageTransition>
         <MetaData>
          <entry key="WinSubProjectDisplayName" val=""/>
         </MetaData>
        </UnifiedMedia>
       </Medias>
      </GenericTrack>
      <GenericTrack id="2318"  >
       <Attributes>
        <Attribute id="2319" value="" name="ident"/>
       </Attributes>
       <MetaData>
        <entry key="IsLocked" val="False"/>
        <entry key="WinTrackHeight" val="62"/>
       </MetaData>
       <Medias>
       </Medias>
      </GenericTrack>
     </Tracks>
    </GenericMixer>
   <Attributes>
    <Attribute id="2320" value="1920" name="width"/>
    <Attribute id="2321" value="1080" name="height"/>
    <Attribute id="2322" value="(0,0,0,255)" name="backgroundColor"/>
   </Attributes>
   <CaptionAttributes id="2323"  >
    <Attribute id="2324" value="1" name="captionsEnabled"/>
    <Attribute id="2325" value="Arial" name="captionsFontName"/>
    <Attribute id="2326" value="36" name="captionsFontSize"/>
    <Attribute id="2327" value="(0,0,0,255)" name="captionsBackgroundColor"/>
    <Attribute id="2328" value="(255,255,255,255)" name="captionsForegroundColor"/>
    <Attribute id="2329" value="en" name="lang"/>
    <Attribute id="2330" value="0" name="captionsAlignment"/>
    <Attribute id="2331" value="1" name="captionsDefaultFontSize"/>
    <Attribute id="2332" value="0.5" name="captionsOpacity"/>
    <Attribute id="2333" value="1" name="captionsBackgroundEnabled"/>
    <Attribute id="2334" value="1" name="captionsBackgroundOnlyAroundText"/>
   </CaptionAttributes>
   <Parameters>
    <VectorParam id="2335"  name="eyePosition">
     <InterpolatingParam id="2336" interp="linr" value="0"  />
     <InterpolatingParam id="2337" interp="linr" value="0"  />
     <InterpolatingParam id="2338" interp="linr" value="3000"  />
    </VectorParam>
    <VectorParam id="2339"  name="eyeLookAtPosition">
     <InterpolatingParam id="2340" interp="linr" value="0"  />
     <InterpolatingParam id="2341" interp="linr" value="0"  />
     <InterpolatingParam id="2342" interp="linr" value="0"  />
    </VectorParam>
    <VectorParam id="2343"  name="eyeUpVector">
     <InterpolatingParam id="2344" interp="linr" value="0"  />
     <InterpolatingParam id="2345" interp="linr" value="1"  />
     <InterpolatingParam id="2346" interp="linr" value="0"  />
    </VectorParam>
    <InterpolatingParam id="2347" interp="linr" value="0.356185883"  name="fov"/>
    <InterpolatingParam id="2348" interp="linr" value="1.5"  name="nearClipDistance"/>
    <InterpolatingParam id="2349" interp="linr" value="6000"  name="farClipDistance"/>
   </Parameters>
  </Timeline>
 </Project>
</GoProject>
</CSMLData>

</Project_Data>
